<svg width="800" height="450" viewBox="0 0 800 450" fill="none" xmlns="http://www.w3.org/2000/svg">
<g clip-path="url(#clip0_3883_2795)">
<rect width="800" height="450" rx="20" fill="#0066FF"/>
<g clip-path="url(#clip1_3883_2795)">
<path d="M822.371 180.837C822.361 177.193 822.407 173.544 822.518 169.886C823.573 134.436 830.495 99.1255 828.662 63.7592C825.723 7.07916 795.224 -27.725 748.877 -46.3941C699.678 -66.2105 644.561 -57.908 593.82 -41.9664C572.753 -35.3502 551.613 -27.2458 533.927 -12.7925C508.029 8.37384 492.052 40.902 472.04 68.8734C418.07 144.315 321.437 132.736 247.855 167.186C205.321 187.099 169.166 221.272 138.096 259.333C118.296 283.587 100.002 310.13 89.5744 340.686C79.5846 369.952 77.2403 401.72 78.1982 432.843C79.9116 488.472 92.2596 544.254 118.743 591.139C157.827 660.323 218.402 676.537 277.622 714.147C340.698 754.203 413.035 775.605 485.723 780.111C566.273 785.11 651.06 769.638 717.051 716.98C744.704 694.915 784.7 656.771 795.413 620.981C819.814 539.444 844.515 455.746 841.793 370.247C839.766 306.624 822.536 244.369 822.371 180.837Z" fill="#005EEB"/>
<g clip-path="url(#clip2_3883_2795)">
<path d="M408.713 -4.85561C406.192 -0.79752 403.493 3.1415 400.555 6.92178C379.178 34.4305 347.137 51.1391 316.123 67.0093C293.302 78.6875 267.786 90.708 243.005 84.1347C281.125 31.826 319.24 -20.4877 357.359 -72.7964C400.099 -131.46 433.628 -147.043 501.71 -162C505.367 -148.898 500.971 -137.289 491.791 -126.668C483.097 -116.617 471.867 -109.086 462.538 -99.6205C436.938 -73.6348 427.942 -35.7924 408.708 -4.85561H408.713Z" fill="#0058DB"/>
</g>
</g>
<g clip-path="url(#clip3_3883_2795)">
<path d="M113.652 -125.549C105.13 -111.446 93.6994 -81.0788 92.2963 -76.9469C91.7723 -75.4027 91.2516 -73.8524 90.7324 -72.307C89.9304 -71.6763 89.2973 -70.7957 88.9189 -69.7787C87.6055 -66.2496 86.7554 -62.6127 86.2956 -58.9375C82.1828 -46.4099 78.1633 -33.8484 74.068 -21.3189C73.7105 -20.2302 73.3561 -19.1432 73.0004 -18.0515C72.4831 -17.8207 71.9606 -17.5989 71.4343 -17.3908C70.3512 -17.3604 69.4085 -16.9878 68.6553 -16.3932C60.4435 -13.7363 51.3206 -13.1604 42.9497 -12.5436C27.5385 -11.4075 12.4619 -9.20291 -2.40375 -4.64871C-32.0357 4.42626 -59.1914 20.1925 -84.5681 37.7503C-94.4353 44.577 -103.813 53.3009 -114.191 59.2568C-122.586 64.076 -130.396 65.694 -136.698 73.856C-121.163 75.6753 -104.462 75.5472 -89.2814 70.7031C-71.5023 65.0298 -54.7186 56.6333 -37.6254 49.212C-23.5684 43.1085 -9.27487 38.0381 5.74284 35.0371C21.0186 31.9869 36.9893 29.9208 50.8373 22.1653C55.1184 19.7654 59.1497 16.855 62.6915 13.5006L61.2393 17.9443L43.3065 62.0868C33.8885 69.2451 22.5742 73.7851 10.6673 74.7546C2.24136 75.4391 -6.28759 75.0452 -14.6031 76.9556C-23.5709 79.0189 -31.3687 84.1718 -37.897 90.5241C-44.5519 96.9974 -50.0194 104.578 -55.6661 111.89L-73.8231 135.405C-96.4054 164.649 -117.676 198.006 -145.309 222.847C-108.356 229.009 -89.8879 194.858 -68.5635 171.699C-62.6916 165.322 -56.5336 159.172 -49.8398 153.63C-43.7994 148.63 -37.2657 144.243 -30.6431 140.052C-17.0794 131.478 -2.88967 123.833 10.1029 114.383C16.6525 109.62 22.7759 104.415 28.1246 98.5924C27.8829 99.4706 27.646 100.35 27.4043 101.228L25.6714 105.491C23.947 109.732 22.2243 113.977 20.4999 118.218C12.5703 125.559 4.95841 133.224 -1.99801 141.492C-14.8751 156.804 -24.5407 173.759 -31.3151 192.399C-43.2227 225.158 -46.8132 260.005 -58.1177 292.923C-66.2822 316.709 -80.4827 328.673 -94.3391 348.099C-70.0686 345.414 -51.3571 333.305 -35.4144 314.998C-21.0734 298.529 -15.3984 280.005 -5.93847 261.276C4.40762 240.794 18.495 221.094 20.7751 198.461C21.7675 188.594 20.4253 178.701 20.4106 168.803C20.389 152.722 23.9413 136.573 30.7463 121.821C28.7367 146.509 30.1199 171.391 34.7886 195.585C39.1979 218.444 43.0541 241.295 47.916 263.988C48.8145 268.181 49.9235 272.383 49.8411 276.691C49.7664 280.743 48.6377 284.712 47.7955 288.696C43.4107 309.433 46.7172 330.765 50.0306 351.542C57.5311 339.829 58.3643 323.669 64.6137 310.619C71.5459 296.136 80.236 281.828 81.3351 265.555C82.4684 248.766 75.2575 232.875 69.5213 217.178C62.5921 198.218 57.7978 178.603 54.7933 158.603C52.4124 142.729 45.2705 127.05 45.4928 110.795C45.8344 85.8683 62.3444 99.533 74.1145 110.225C95.0344 129.225 107.029 155.514 115.257 182.073C121.083 200.888 121.368 230.416 134.097 245.773C132.379 208.987 140.167 170.929 135.804 134.246C132.634 107.617 118.99 78.2794 90.7353 70.8684C83.0694 68.8583 60.6579 71.908 55.5625 66.2219C50.1167 60.1273 56.1356 49.7532 59.2986 43.9145C63.6723 35.8357 66.8603 29.1401 70.4156 20.3879C75.015 9.06464 79.6175 -2.26043 84.2169 -13.5837C84.5542 -13.8144 84.8833 -14.0523 85.2137 -14.295C87.3842 1.47616 92.5576 16.7792 100.525 30.6366C107.717 43.1417 117.16 54.0271 128.18 63.3556C139.864 73.2468 153.278 82.1309 161.855 95.03C167.66 103.768 170.257 115.444 177.17 123.342C183.298 130.349 194.111 135.373 202.487 139.357C191.862 126.942 188.644 108.174 182.207 93.2968C174.729 76.0067 166.431 59.0339 156.141 43.2313C147.437 29.8629 137.053 17.9996 126.309 6.23616C116.615 -4.38106 106.996 -15.3243 100.977 -28.5061C98.8272 -33.2141 97.1988 -38.2029 96.2866 -43.2978C107.915 -71.9189 116.667 -101.278 129.166 -129.655C126.38 -130.646 123.598 -131.638 120.812 -132.629C119.097 -133.24 116.543 -130.328 113.652 -125.549Z" fill="#2DA4B9"/>
</g>
<g clip-path="url(#clip4_3883_2795)">
<path d="M933.268 433.498C926.319 420.916 908.331 399.049 905.817 396.188C904.877 395.119 903.932 394.051 902.989 392.985C902.862 392.105 902.472 391.243 901.868 390.514C899.771 387.984 897.39 385.757 894.809 383.807C887.125 375.241 879.375 366.731 871.682 358.177C871.014 357.433 870.346 356.692 869.676 355.947C869.727 355.456 869.787 354.965 869.86 354.477C870.31 353.646 870.44 352.772 870.319 351.944C871.897 344.586 875.447 337.447 878.638 330.858C884.512 318.727 889.431 306.383 892.48 293.175C898.559 266.847 898.493 239.471 896.293 212.659C895.438 202.233 892.933 191.35 892.96 180.919C892.981 172.479 895.169 165.878 891.745 157.562C883.581 168.497 876.381 181.163 873.413 194.736C869.939 210.632 868.96 226.964 867.107 243.104C865.584 256.378 863.176 269.38 858.885 282.026C854.519 294.889 849.105 307.848 848.923 321.683C848.869 325.962 849.31 330.274 850.301 334.41L847.573 331.377L822.001 298.596C820.698 288.365 822.206 277.844 826.675 268.431C829.839 261.771 833.864 255.504 836.051 248.393C838.408 240.723 837.916 232.589 835.961 224.891C833.969 217.045 830.621 209.613 827.554 202.162L817.692 178.203C805.427 148.406 789.476 117.806 782.75 86.1156C761.94 111.328 779.716 140.159 787.926 166.354C790.186 173.567 792.15 180.897 793.419 188.366C794.564 195.107 795.03 201.952 795.308 208.779C795.87 222.757 795.456 236.803 796.93 250.731C797.674 257.752 798.937 264.644 801.007 271.221C800.448 270.655 799.886 270.093 799.327 269.528L796.858 266.362C794.401 263.211 791.942 260.06 789.485 256.909C787.394 247.722 784.92 238.634 781.701 229.778C775.74 213.381 767.131 198.693 755.985 185.453C736.395 162.183 711.591 144.282 691.618 121.399C677.184 104.866 674.335 88.9297 665.687 70C657.114 89.495 658.103 108.9 664.992 128.917C671.189 146.924 682.729 159.283 692.769 174.589C703.75 191.329 712.504 210.552 728.636 222.139C735.67 227.189 743.744 230.488 751.241 234.792C763.421 241.785 774.09 251.506 782.282 263.075C764.475 250.796 745.04 240.994 724.69 233.973C705.463 227.338 686.485 220.288 667.185 214.067C663.62 212.918 659.955 211.923 656.731 209.983C653.697 208.161 651.186 205.578 648.539 203.206C634.761 190.856 617.172 184.054 600 177.499C605.587 188.267 617.453 195.941 624.599 206.348C632.531 217.894 639.562 230.692 651.398 238.616C663.608 246.789 678.785 248.272 693.171 250.784C710.549 253.817 727.488 258.747 743.937 265.197C756.991 270.319 771.978 271.761 784.182 279.014C802.898 290.138 785.343 296.647 772.108 300.873C748.588 308.385 723.451 305.982 699.755 300.616C682.97 296.813 660.499 284.158 643.315 287.074C671.905 301.812 697.305 324.281 726.974 336.977C748.512 346.192 776.677 348.679 794.631 330.577C799.502 325.665 806.986 307.415 813.516 306.047C820.508 304.592 825.729 313.658 828.766 318.591C832.969 325.415 836.643 330.741 841.714 337.24C848.274 345.648 854.834 354.06 861.393 362.468C861.421 362.823 861.457 363.176 861.496 363.531C848.612 358.295 834.77 355.53 820.801 355.505C808.195 355.484 795.831 357.869 783.956 362.122C771.365 366.632 758.78 372.888 745.27 373.74C736.12 374.315 726.149 371.185 717.151 372.962C709.171 374.534 700.644 380.508 693.969 385.095C708.007 382.485 723.617 388.237 737.689 389.862C754.042 391.752 770.512 392.886 786.968 392.006C800.889 391.261 814.404 388.592 828.002 385.608C840.272 382.918 852.758 380.425 865.364 381.626C869.866 382.056 874.353 383.001 878.608 384.533C895.187 405.789 913.583 425.194 929.597 447C931.564 445.329 933.531 443.661 935.498 441.99C936.71 440.961 935.622 437.764 933.268 433.498Z" fill="#2DA4B9"/>
</g>
<g clip-path="url(#clip5_3883_2795)">
<path d="M63.2059 423.443C68.6891 414.541 75.2187 406.232 81.7483 398.042C90.4185 387.161 99.7645 375.897 112.71 370.855C138.906 360.651 186.682 371.91 207.09 390.596C220.341 402.736 229.531 427.97 235.092 444.864C241.61 464.659 242.866 486.241 238.243 506.589C230.877 539.016 208.699 567.744 179.238 583.025C168.947 588.361 157.598 592.162 146.016 591.988C130.906 591.76 116.639 584.836 104.219 576.203C82.4359 561.066 64.5034 539.891 55.1096 515.042C45.7159 490.192 45.2973 461.656 55.893 437.298C57.9858 432.49 60.4673 427.892 63.2059 423.443Z" fill="#0094CE"/>
</g>
</g>
<defs>
<clipPath id="clip0_3883_2795">
<rect width="800" height="450" rx="20" fill="white"/>
</clipPath>
<clipPath id="clip1_3883_2795">
<rect width="764" height="839" fill="white" transform="translate(78 -58)"/>
</clipPath>
<clipPath id="clip2_3883_2795">
<rect width="260" height="248" fill="white" transform="translate(243 -162)"/>
</clipPath>
<clipPath id="clip3_3883_2795">
<rect width="384.488" height="432.438" fill="white" transform="translate(-56.7561 413.195) rotate(-120)"/>
</clipPath>
<clipPath id="clip4_3883_2795">
<rect width="336" height="377" fill="white" transform="translate(600 70)"/>
</clipPath>
<clipPath id="clip5_3883_2795">
<rect width="193" height="225" fill="white" transform="translate(48 367)"/>
</clipPath>
</defs>
</svg>
