<svg width="120" height="15" viewBox="0 0 120 15" fill="none" xmlns="http://www.w3.org/2000/svg">
<g clip-path="url(#clip0_2163_929)">
<path d="M3.07889 14.6236L-1.27844e-06 14.6236L0 0L3.07889 2.69165e-07L3.07889 14.6236Z" fill="white"/>
<path d="M19.5777 10.0695L19.5777 9.25484e-07L22.6355 1.1928e-06L22.6355 14.6236L19.4933 14.6236L12.0703 4.53333L12.0703 14.6236L8.99138 14.6236L8.99138 0L12.1335 2.74693e-07L19.5777 10.0695Z" fill="white"/>
<path d="M27.4087 0L37.974 9.23644e-07L37.974 2.69493L34.2202 2.69493L34.2202 14.6236L31.1624 14.6236L31.1624 2.69493L27.4087 2.69493L27.4087 0Z" fill="white"/>
<path d="M51.7964 7.92739e-07L51.7964 2.69493L45.8074 2.69493L45.8074 5.82858L50.9742 5.82858L50.9742 8.52352L45.8074 8.52352L45.8074 11.9287L51.7964 11.9287L51.7964 14.6236L42.7285 14.6236L42.7285 0L51.7964 7.92739e-07Z" fill="white"/>
<path d="M69.1749 14.6236L65.4428 14.6236L61.3093 8.60706L60.3179 8.60705L60.3179 14.6236L57.2392 14.6236L57.2392 7.62939e-06L63.1862 8.1493e-06C64.7045 8.28203e-06 65.8642 0.4039 66.6657 1.21168C67.4809 2.01947 67.8887 3.07794 67.8887 4.38711C67.8887 6.51798 66.8204 7.82016 64.6834 8.2937L69.1749 14.6236ZM60.3179 6.12104L62.7432 6.12104C63.4182 6.12104 63.931 5.98876 64.2826 5.7241C64.6482 5.44557 64.831 4.99988 64.831 4.38711C64.831 3.78823 64.6482 3.35648 64.2826 3.09186C63.931 2.82725 63.4182 2.69494 62.7432 2.69494L60.3179 2.69494L60.3179 6.12104Z" fill="white"/>
<path d="M84.56 10.0695L84.56 8.55487e-06L87.6177 8.82218e-06L87.6177 14.6236L84.4756 14.6236L77.0525 4.53334L77.0525 14.6236L73.9738 14.6236L73.9738 7.62939e-06L77.1158 7.90408e-06L84.56 10.0695Z" fill="white"/>
<path d="M100.742 7.08202L105.845 14.6236L102.303 14.6236L99.0758 9.60985L95.8705 14.6236L92.3488 14.6236L97.431 7.10293L92.623 7.65337e-06L96.1236 7.9594e-06L99.0758 4.57512L102.05 8.47746e-06L105.571 8.78534e-06L100.742 7.08202Z" fill="white"/>
<path d="M109.435 7.62939e-06L120 8.55303e-06L120 2.69494L116.246 2.69494L116.246 14.6236L113.189 14.6236L113.189 2.69494L109.435 2.69494L109.435 7.62939e-06Z" fill="white"/>
</g>
<defs>
<clipPath id="clip0_2163_929">
<rect width="120" height="15" fill="white"/>
</clipPath>
</defs>
</svg>
