<svg width="800" height="450" viewBox="0 0 800 450" fill="none" xmlns="http://www.w3.org/2000/svg">
<g clip-path="url(#clip0_11056_701)">
<path d="M870.651 217.561C870.651 221.068 368.843 221.261 84.8103 221.261C-34.5512 221.261 -73.0319 223.504 -77.7084 218.081C-81.8207 213.312 -40.6826 211.722 80.698 212.257C364.686 213.49 870.651 214.04 870.651 217.546V217.561Z" fill="#FFFCFC" fill-opacity="0.1"/>
<path d="M404.266 217.65C405.765 220.815 191.063 322.965 69.4893 380.674C18.4043 404.923 2.8903 414.774 -1.42988 410.822C-5.23044 407.345 11.6939 397.553 63.8775 373.364C185.971 316.784 402.766 214.456 404.28 217.635L404.266 217.65Z" fill="#FFFCFC" fill-opacity="0.1"/>
<path d="M868.335 441.489C866.821 444.654 620.972 326.427 481.85 259.402C423.387 231.231 403.583 224.173 403.627 218.185C403.672 212.926 424.515 221.202 483.736 250.309C622.293 318.434 869.85 438.325 868.335 441.489Z" fill="#FFFCFC" fill-opacity="0.1"/>
<path d="M113.151 609.639C110.33 607.559 263.763 399.589 350.701 281.942C387.237 232.508 397.214 215.228 403.004 216.521C408.096 217.65 396.768 235.644 359.193 285.597C271.275 402.486 115.972 611.72 113.151 609.639Z" fill="#FFFCFC" fill-opacity="0.1"/>
<path d="M404.607 217.1C405.483 217.1 405.928 232.924 406.062 258.867C406.21 284.809 406.047 320.885 405.72 361.433C405.082 442.529 403.79 541.499 402.974 613.042C402.632 643.1 402.989 662.995 402.811 675.625C402.588 688.299 401.89 693.573 399.159 694.836C397.971 695.386 396.976 694.509 396.16 691.894C395.343 689.294 394.69 684.926 394.274 678.656C393.413 666.056 393.354 645.581 393.962 615.003C395.402 543.461 397.184 443.97 399.055 362.369C399.99 321.568 400.94 285.24 401.875 259.119C402.811 232.999 403.731 217.071 404.607 217.085V217.1Z" fill="#FFFCFC" fill-opacity="0.1"/>
<path d="M404.488 216.729C405.201 216.209 415.326 229.017 431.523 250.368C447.72 271.705 469.974 301.584 494.93 335.223C544.827 402.486 605.547 484.727 649.832 543.862C687.051 593.563 701.051 608.05 698.186 613.295C695.736 617.871 681.38 601.854 643.909 550.979C600.099 491.443 539.423 408.474 490.194 340.052C465.564 305.834 443.785 275.27 428.331 253.132C412.876 230.993 403.761 217.264 404.473 216.759L404.488 216.729Z" fill="#FFFCFC" fill-opacity="0.1"/>
<path d="M403.701 216.551C402.024 213.475 627.252 90.241 754.793 20.5857C808.387 -8.68498 824.599 -20.0812 829.29 -16.4855C833.418 -13.3059 815.706 -1.82048 760.955 27.4799C632.834 96.0357 405.394 219.641 403.716 216.551H403.701Z" fill="#FFFCFC" fill-opacity="0.1"/>
<path d="M-5.91336 -41.9674C-4.04277 -44.9391 213.064 91.6524 335.9 169.064C387.519 201.603 405.349 210.191 404.488 216.045C403.731 221.201 385.085 211.335 332.886 177.8C210.734 99.3638 -7.78395 -38.9958 -5.91336 -41.9674Z" fill="#FFFCFC" fill-opacity="0.1"/>
<path d="M674.195 -175.528C677.09 -173.537 534.583 34.4334 453.836 152.096C419.898 201.544 410.813 218.75 405.023 217.62C399.931 216.625 410.323 198.676 445.255 148.708C527.012 31.759 671.3 -177.519 674.195 -175.528Z" fill="#FFFCFC" fill-opacity="0.1"/>
<path d="M403.39 217.086C402.514 217.086 402.009 201.752 401.757 176.627C401.504 151.487 401.519 116.54 401.668 77.2401C401.979 -1.33011 402.855 -97.2399 403.405 -166.568C403.627 -195.705 403.197 -214.961 403.345 -227.205C403.523 -239.477 404.221 -244.604 406.938 -245.837C409.284 -246.921 410.976 -242.375 411.867 -230.161C412.772 -217.963 412.906 -198.127 412.416 -168.5C411.258 -99.1714 409.877 -2.77136 408.348 76.304C407.576 115.842 406.789 151.041 405.958 176.359C405.127 201.678 404.266 217.1 403.39 217.1V217.086Z" fill="#FFFCFC" fill-opacity="0.1"/>
<path d="M403.479 217.427C402.751 217.903 393.339 204.679 378.374 182.644C363.424 160.61 342.922 129.779 320 95.0255C274.17 25.5337 218.691 -59.589 178.607 -121.147C144.922 -172.883 132.184 -188.35 135.42 -193.313C138.256 -197.681 151.201 -180.713 185.006 -127.818C224.644 -66.0077 279.782 19.9619 325.003 90.4938C347.554 125.797 367.537 157.296 381.7 180.074C395.863 202.866 404.206 216.952 403.479 217.427Z" fill="#FFFCFC" fill-opacity="0.1"/>
<path d="M406.745 71.0891C406.923 71.1783 406.017 73.2287 403.894 76.9581C401.534 80.5092 397.763 85.8433 390.978 90.7019C390.132 91.2963 389.256 91.9054 388.351 92.5295C387.386 93.0495 386.406 93.5993 385.396 94.149C383.407 95.3525 381.106 96.1252 378.775 97.1207C373.995 98.7254 368.635 100.092 362.771 100.583C356.937 101.073 350.642 101.073 344.065 100.375C340.799 99.9734 337.414 99.5871 334 98.9037C332.426 98.6065 330.08 98.1905 329.754 98.0865L328.611 97.8339L328.046 97.715L327.764 97.6556C327.764 97.6556 327.66 97.6259 327.631 97.6407L327.66 97.7893C327.794 98.3836 327.883 98.9779 327.913 99.5871C327.913 99.7357 327.942 99.8843 327.942 100.033V100.701C327.972 101.459 327.898 102.217 327.868 102.975C327.675 106.006 327.126 109.052 326.265 112.053C324.543 118.026 321.559 123.91 317.149 128.962C312.77 134.014 306.846 138.159 300.047 140.343C296.662 141.443 293.084 142.096 289.477 142.26C288.838 142.29 288.333 142.304 287.754 142.26C287.472 142.26 287.205 142.23 286.938 142.2L286.537 142.156C286.433 142.156 286.166 142.067 286.374 142.23C286.775 142.631 287.146 143.062 287.487 143.493L287.948 144.177L288.749 145.603C290.471 148.946 291.718 152.512 292.55 156.182C294.198 163.522 294.346 171.263 292.995 178.871C291.659 186.463 288.942 194.011 284.548 200.831C282.351 204.234 279.708 207.413 276.635 210.221C275.091 211.618 273.458 212.94 271.706 214.114L271.053 214.575C270.875 214.694 270.889 214.679 270.8 214.738L270.4 214.976C270.118 215.154 269.939 215.229 269.717 215.347C269.182 215.615 268.633 215.808 268.084 215.957C268.692 216.046 269.286 216.165 269.85 216.358C270.177 216.462 270.489 216.596 270.786 216.729L272.671 217.754C273.339 218.141 274.037 218.616 274.72 219.047C277.407 220.875 279.842 223.133 281.89 225.733C286.003 230.934 288.319 237.427 288.913 243.935C289.521 250.472 288.497 256.98 286.582 263.102C285.602 266.163 284.355 269.119 282.974 272.002L281.876 274.141L281.579 274.691L281.415 274.973C281.178 275.404 281.074 275.553 280.911 275.82C279.901 275.449 289.224 278.153 294.881 281.125C301.071 284.2 306.965 288.643 311.345 294.453C312.532 295.834 313.379 297.439 314.344 298.969C315.294 300.515 315.962 302.179 316.778 303.798C317.417 305.462 318.07 307.127 318.619 308.82C319.079 310.514 319.644 312.223 319.985 313.932C320.757 317.349 321.292 320.796 321.663 324.214L321.87 326.398L321.9 326.784V326.977L321.915 327.066C321.93 327.066 321.96 327.022 321.989 327.007C322.212 326.799 322.479 326.65 322.746 326.502L323.296 326.249C323.786 326.026 324.276 325.803 324.78 325.625C325.775 325.254 326.77 324.867 327.779 324.585C331.802 323.352 335.9 322.683 339.968 322.371C348.133 321.777 356.269 322.609 364.167 324.496C372.05 326.413 379.74 329.384 386.777 333.678C390.296 335.818 393.651 338.269 396.754 341.048C397.511 341.761 398.312 342.43 399.025 343.187L400.124 344.302L400.673 344.866L400.821 345.03L400.896 345.104L401.4 345.684L401.638 345.981C401.89 345.669 402.157 345.268 402.41 344.911C402.336 344.956 402.87 344.391 403.212 344.005L404.325 342.771L406.552 340.29C408.096 338.685 409.833 337.289 411.481 335.788C413.188 334.362 415.073 333.173 416.87 331.866C424.337 327.022 432.814 323.887 441.47 322.445C450.14 320.989 458.988 321.153 467.524 322.639C469.647 323.099 471.77 323.515 473.878 324.006C475.957 324.63 478.035 325.209 480.099 325.863L483.543 327.17C483.736 327.245 483.988 327.408 484.122 327.423L484.048 327.141C484.018 327.037 484.003 326.992 483.973 326.725L483.899 326.071V325.907L483.87 325.833V325.521V324.065L483.899 321.138C483.899 320.157 484.107 319.206 484.211 318.255L484.597 315.388L485.295 312.594C487.21 305.15 490.936 298.286 495.939 292.61C500.928 286.919 507.237 282.432 514.155 279.565C515.848 278.733 517.644 278.257 519.426 277.707C520.316 277.44 521.207 277.158 522.098 276.92L524.83 276.43L526.032 276.222C526.032 276.222 526.047 276.222 526.106 276.222C526.195 276.207 526.285 276.207 526.359 276.192H526.611L526.745 276.162H526.804C526.804 276.162 526.774 276.132 526.76 276.117C526.641 275.999 526.522 275.865 526.418 275.731L526.27 275.508C525.809 274.647 525.29 273.8 524.934 272.893C523.33 269.327 522.469 265.509 522.202 261.75C521.682 254.202 523.345 246.951 526.136 240.413C528.972 233.861 532.98 227.917 538.146 223.014C540.715 220.578 543.639 218.379 546.802 216.685L547.247 216.432L547.306 216.402L547.41 216.358L547.633 216.269C547.781 216.224 547.93 216.179 548.078 216.165C547.96 216.105 547.796 216.016 547.663 215.927C547.603 215.882 547.529 215.838 547.47 215.778L547.381 215.704L546.742 215.11C543.966 212.569 541.635 209.716 539.601 206.73C535.563 200.757 532.802 194.264 530.887 187.667C528.972 181.055 528.007 174.279 527.992 167.519C527.992 164.131 528.289 160.744 528.868 157.415C529.001 156.583 529.179 155.751 529.372 154.919C529.565 154.087 529.758 153.255 530.011 152.438C530.263 151.621 530.471 150.803 530.783 150.001L531.228 148.798L531.347 148.5C531.317 148.59 531.317 148.589 531.317 148.56V148.515C531.421 148.307 531.525 148.129 531.644 147.965C531.555 147.921 531.317 147.995 531.124 147.965H530.976H530.902H530.857H530.709C529.699 147.906 528.69 147.861 527.68 147.802C526.685 147.772 525.676 147.653 524.696 147.505C523.701 147.371 522.721 147.223 521.742 147.089C520.777 146.866 519.797 146.643 518.847 146.435L517.407 146.108L515.996 145.648C508.499 143.315 501.863 139.006 497.038 133.627C492.169 128.263 489.051 122.142 486.824 116.243C486.304 114.757 485.8 113.286 485.295 111.83C484.924 110.359 484.567 108.903 484.196 107.462C483.84 106.021 483.454 104.594 483.276 103.183C483.187 102.663 483.098 102.143 483.023 101.623L482.994 101.519C482.994 101.519 482.964 101.444 482.905 101.474C482.697 101.504 483.424 101.444 481.554 101.623C478.956 101.875 476.417 102.039 473.952 102.158C469.009 102.351 464.332 102.276 459.938 101.994C451.134 101.4 443.4 99.9883 436.793 98.027C423.521 94.1936 414.821 88.1017 410.174 82.7825C407.829 80.1229 406.478 77.6861 405.75 75.7992C405.023 73.8973 404.978 72.5006 405.26 71.6389C405.513 70.8662 406.121 70.8365 407.042 71.5051C407.947 72.1738 409.224 73.511 411.139 75.3386C414.969 78.9194 421.858 84.3278 434.032 88.2057C440.074 90.1522 447.349 91.7272 455.826 92.5146C460.057 92.9009 464.6 93.0941 469.41 93.0347C471.815 93.0049 474.294 92.8861 476.833 92.7227C478.095 92.6038 479.386 92.5295 480.693 92.3958C481.598 92.3066 482.504 92.2026 483.409 92.0986C484.76 91.9352 486.111 91.7717 487.477 91.5934L489.541 91.3408L490.58 91.222C490.58 91.222 490.788 91.1477 490.803 91.2368L490.847 91.4894L490.936 92.0095C491.159 93.3913 491.382 94.7731 491.604 96.1697C491.931 98.1756 492.258 100.226 492.584 102.291C492.822 103.673 493.237 104.996 493.549 106.377C493.905 107.744 494.173 109.171 494.692 110.493C495.153 111.845 495.628 113.212 496.118 114.609C496.726 115.916 497.335 117.254 497.958 118.591C499.324 121.191 500.868 123.761 502.783 126.079C504.654 128.442 506.925 130.477 509.405 132.349C510.028 132.81 510.726 133.167 511.394 133.598C512.077 133.984 512.7 134.489 513.443 134.771C514.898 135.425 516.323 136.198 517.911 136.644C520.984 137.802 524.399 138.367 527.888 138.724C528.779 138.783 529.655 138.828 530.56 138.887C530.768 138.947 532.03 138.857 532.995 138.813C534.004 138.753 535.014 138.709 536.023 138.649C540.032 138.501 544.204 138.04 548.212 137.743C547.395 138.991 546.534 140.313 545.658 141.651C544.634 143.226 543.595 144.801 542.57 146.39C541.754 147.891 540.937 149.377 540.121 150.878C540.017 151.071 539.943 151.249 539.854 151.427L539.661 151.933L539.468 152.438L539.097 153.448L538.458 155.528C537.686 158.351 537.226 161.338 537.033 164.384C536.647 170.491 537.256 176.88 538.829 183.105C540.388 189.331 542.823 195.467 546.282 200.905C548.019 203.624 550.008 206.15 552.265 208.305L553.111 209.107L555.249 210.667L556.318 211.455L556.852 211.841C557.03 211.975 557.313 212.079 557.55 212.212L560.445 213.654L561.9 214.382L563.459 215.125L566.591 216.625C568.462 217.517 570.318 218.393 572.188 219.285C568.299 219.998 564.409 220.711 560.504 221.424L557.609 222.004C556.674 222.212 555.576 222.346 554.937 222.673L552.725 223.549L551.612 223.98L551.33 224.084L551.211 224.144L550.988 224.277C548.494 225.6 546.237 227.293 544.1 229.284C539.869 233.252 536.409 238.303 534.019 243.801C531.644 249.298 530.293 255.331 530.694 261.14C530.887 264.038 531.54 266.861 532.683 269.416C532.921 270.085 533.307 270.665 533.633 271.289C533.945 271.987 534.494 272.626 535.073 273.28L536.766 275.256L537.612 276.251L538.651 277.291L540.73 279.371L544.619 283.22L543.639 283.339L542.422 283.413L539.972 283.547L535.088 283.814L530.159 284.096C529.313 284.111 528.511 284.275 527.695 284.423L526.374 284.661L524.058 285.062C523.3 285.255 522.558 285.508 521.816 285.731C520.316 286.191 518.787 286.563 517.392 287.276C511.602 289.638 506.346 293.353 502.175 298.078C497.988 302.803 494.87 308.523 493.267 314.645L492.673 316.948L492.361 319.295C492.287 320.083 492.094 320.856 492.094 321.643L492.065 323.991V325.164C492.065 325.283 492.02 325.313 492.065 325.506L492.169 326.086L492.391 327.245L493.252 331.895C493.49 333.411 493.95 335.09 494.366 336.724L495.613 341.642C495.286 341.538 494.826 341.3 494.395 341.107L493.104 340.498L490.535 339.265L485.399 336.813L482.771 335.58C482.326 335.372 481.895 335.238 481.465 335.06L480.262 334.599L477.53 333.544L471.919 331.851L466.188 330.588C458.483 329.221 450.526 329.042 442.821 330.32C435.115 331.583 427.678 334.302 421.16 338.507C419.601 339.651 417.939 340.662 416.454 341.91C415.029 343.217 413.5 344.406 412.149 345.802L410.204 347.957L409.224 349.027C408.883 349.413 408.645 349.606 408.051 350.453C406.017 353.261 403.998 356.129 401.979 358.863L398.832 354.732L395.774 350.988L395.388 350.527C395.254 350.364 395.12 350.201 395.061 350.156L394.586 349.666L393.636 348.685C393.027 348.016 392.315 347.422 391.661 346.798C388.959 344.346 385.99 342.162 382.858 340.246C376.593 336.382 369.615 333.634 362.43 331.866C355.244 330.112 347.806 329.34 340.547 329.83C336.924 330.082 333.346 330.662 329.976 331.687C329.115 331.91 328.314 332.237 327.497 332.534C327.081 332.668 326.695 332.846 326.309 333.024L325.493 333.381C325.122 333.559 324.765 333.753 324.394 333.946L322.197 335.446L321.099 336.189L319.97 337.066L317.699 338.819L315.62 340.468C315.561 340.231 315.487 340.038 315.427 339.785L315.368 338.715L315.249 336.576L315.012 332.326C314.937 330.915 314.863 329.473 314.744 328.077L314.462 325.016C314.121 321.806 313.646 318.627 312.963 315.536C312.651 313.976 312.161 312.505 311.775 310.975C311.3 309.489 310.736 308.063 310.202 306.607C308.925 303.828 307.529 301.109 305.674 298.732C302.066 293.903 297.197 290.129 291.718 287.35C285.825 284.438 281.965 283.145 270.236 280.099C271.558 277.99 272.983 275.82 274.156 273.8L275.076 272.254C275.373 271.749 275.744 271.155 275.848 270.917L276.858 268.986C278.134 266.385 279.263 263.741 280.153 261.036C281.89 255.628 282.781 249.997 282.321 244.544C281.861 239.106 280.02 233.89 276.783 229.745C275.18 227.665 273.25 225.852 271.097 224.366C269.984 223.623 268.974 222.985 267.505 222.286C266.436 221.855 265.397 221.395 264.298 220.979L260.497 219.998C259.384 217.829 258.3 217.101 257.202 216.61L257.974 216.046C258.226 215.823 258.508 215.763 258.746 215.347L259.488 214.322C259.607 214.114 259.74 214.055 259.859 213.743L260.2 212.896C261.804 212.272 263.645 211.737 264.803 210.979L266.762 209.924C267.059 209.761 267.46 209.553 267.698 209.419L268.247 209.033C269.746 208.037 271.157 206.923 272.508 205.719C275.18 203.312 277.526 200.549 279.5 197.562C283.434 191.574 285.988 184.769 287.265 177.89C288.556 171.011 288.482 163.983 287.086 157.445C286.374 154.176 285.32 151.041 283.865 148.144C282.529 144.86 277.466 139.452 274.111 135.871C274.156 135.663 275.046 135.871 275.655 135.93L277.615 136.198C278.906 136.376 280.242 136.525 281.593 136.673C282.93 136.822 284.295 137 285.513 137C286.745 137.015 288.051 137.149 289.209 137.089C292.401 136.985 295.534 136.45 298.488 135.529C304.412 133.702 309.578 130.225 313.512 125.812C317.461 121.414 320.237 116.169 321.885 110.805C322.702 108.116 323.236 105.397 323.459 102.707C323.489 102.039 323.578 101.37 323.563 100.701C323.563 100.434 323.578 99.8843 323.563 99.4386C323.563 98.978 323.489 98.4876 323.444 98.0122C323.311 96.14 322.939 94.149 322.628 92.3809L322.791 92.2026C322.91 92.2026 323.073 92.262 323.207 92.2917L324.068 92.4998L325.79 92.9307C326.933 93.213 328.061 93.4953 329.175 93.7627C331.639 94.4016 332.99 94.6245 334.727 94.996C338.038 95.7389 341.304 96.1698 344.466 96.6452C350.82 97.4624 356.848 97.611 362.459 97.299C368.086 96.987 373.193 95.8429 377.795 94.4759C380.022 93.5993 382.249 92.9455 384.164 91.8757C385.144 91.3854 386.109 90.91 387.029 90.4493C387.905 89.8847 388.766 89.3498 389.598 88.8149C396.249 84.4763 400.198 79.588 402.826 76.334C405.231 72.8869 406.507 71.0594 406.715 71.1782L406.745 71.0891Z" fill="#FFFCFC" fill-opacity="0.1"/>
<path d="M407.101 -27.3168C407.205 -27.2573 406.834 -26.4104 406.032 -24.7908C405.26 -23.1564 403.909 -20.8088 401.979 -17.8372C400.005 -14.8953 397.422 -11.3293 393.933 -7.46618C390.429 -3.61791 386.064 0.542387 380.66 4.6284C369.897 12.7707 354.725 20.5861 335.692 24.1818C326.205 25.9945 315.813 26.7077 304.857 25.9202C299.379 25.5042 293.767 24.6573 288.096 23.3795C286.671 23.0674 285.246 22.7406 283.835 22.3245C282.425 21.9234 280.97 21.5816 279.56 21.0913C278.877 20.8684 278.283 20.705 277.689 20.4821L276.798 20.1552L276.353 19.9918L276.13 19.9175C276.13 19.9175 276.041 19.8729 276.026 19.8878L276.056 20.0066C276.382 20.9724 276.635 21.9531 276.783 22.9337L276.947 24.2264C277.036 24.8504 277.08 25.4893 277.095 26.1134C277.14 27.3763 277.229 28.6541 277.14 29.9319C276.976 35.0283 275.907 40.1692 274.081 45.0576C270.429 54.8789 263.734 63.7195 255.227 70.6434C246.705 77.5971 236.328 82.6637 225.105 85.353C219.493 86.6903 213.673 87.4332 207.764 87.6115C206.295 87.7006 204.81 87.6709 203.326 87.6264C201.396 87.5966 201.455 87.5966 200.891 87.5521C200.431 87.5075 199.956 87.5075 199.495 87.4332L198.812 87.3441L198.471 87.2995C198.382 87.2995 198.159 87.2252 198.322 87.3589C199.005 88.0275 199.614 88.7407 200.163 89.4985L200.683 90.2563C201.113 90.91 201.574 91.5341 201.96 92.2027C202.717 93.5548 203.489 94.9069 204.261 96.259C207.141 101.786 209.279 107.685 210.867 113.747C213.985 125.901 214.994 138.768 213.822 151.695C212.604 164.592 209.323 177.697 202.91 189.732C199.688 195.735 195.65 201.425 190.647 206.373C189.356 207.577 188.153 208.854 186.728 209.909C185.347 211.009 183.996 212.168 182.467 213.104L180.24 214.575C179.869 214.827 179.483 215.05 179.082 215.258L178.31 215.674C177.865 215.912 177.583 216.076 177.197 216.224C176.633 216.492 176.039 216.64 175.475 216.833C176.113 216.922 176.736 217.056 177.33 217.22C178.147 217.547 177.568 217.131 181.071 218.899C182.333 219.612 183.64 220.28 184.813 221.142L186.624 222.39L188.316 223.787C190.603 225.644 192.577 227.843 194.418 230.146C196.14 232.524 197.758 235.005 198.976 237.665C201.514 242.939 203.058 248.63 203.801 254.35C204.528 260.086 204.484 265.851 203.905 271.556C202.747 282.967 199.421 294.037 194.819 304.526C193.691 307.171 192.414 309.727 191.122 312.297L189.088 316.101L187.455 318.924C187.322 319.162 187.188 319.37 187.04 319.593L186.832 319.92C186.757 319.994 186.876 319.979 186.921 319.979H187.114C187.381 319.979 187.574 319.979 188.168 320.038C188.762 320.083 188.747 320.053 190.617 320.261C202.182 321.45 213.718 324.199 224.644 328.849C235.541 333.5 245.874 340.097 254.262 349.012C262.635 357.882 268.707 369.249 271.097 381.433C271.394 382.948 271.602 384.493 271.854 386.024L272.3 390.645L272.359 392.606C272.359 392.829 272.344 393.067 272.359 393.26C272.582 393.156 272.716 393.081 273.012 392.948L273.458 392.755L273.755 392.621L274.824 392.205C276.249 391.655 277.674 391.105 279.114 390.63C280.554 390.139 281.994 389.664 283.464 389.248C295.133 385.816 307.262 384.211 319.436 384.241C331.595 384.285 343.828 386.009 355.556 389.709C367.269 393.393 378.463 399.188 388.098 407.063C389.316 408.044 390.503 409.024 391.632 410.094C392.775 411.149 393.948 412.174 395.017 413.318C396.085 414.447 397.229 415.517 398.223 416.706L400.391 419.217L400.732 419.663C400.836 419.678 400.94 419.395 401.059 419.276C401.088 419.217 401.207 419.068 401.178 419.098L402.558 417.271L403.969 415.428L405.483 413.66C413.5 404.166 423.565 396.306 434.819 390.972C446.057 385.593 458.305 382.636 470.568 381.759C482.845 380.898 495.167 382.012 507.014 384.791C512.938 386.172 518.772 387.94 524.444 390.065C525.869 390.6 527.279 391.12 528.675 391.729L531.792 393.037C532.104 393.156 532.46 393.379 532.653 393.423C532.564 393.126 532.49 392.844 532.445 392.532L532.253 391.209C532.163 390.466 532.134 389.738 532.06 388.995C531.911 387.524 531.896 386.039 531.896 384.553C531.896 378.639 532.772 372.755 534.465 367.169C537.805 355.951 544.055 345.817 552.102 337.631C560.148 329.429 569.991 323.174 580.561 319.132C585.846 317.126 591.295 315.581 596.832 314.675C598.213 314.392 599.609 314.273 600.989 314.065L602.741 313.828L603.053 313.798C603.513 313.739 603.765 313.783 603.944 313.724C603.736 313.531 603.543 313.323 603.38 313.1L602.608 312.015C602.177 311.391 601.702 310.797 601.346 310.143C600.603 308.835 599.742 307.587 599.119 306.22C596.387 300.871 594.635 295.092 593.774 289.282C592.052 277.603 593.7 265.836 597.664 255.138C601.643 244.44 608.011 234.663 616.474 227.041C620.705 223.237 625.47 220.013 630.607 217.591C631.913 217.041 633.175 216.358 634.526 215.927L635.194 215.689C635.194 215.689 635.313 215.645 635.373 215.63C635.595 215.556 635.922 215.526 636.055 215.466C635.803 215.347 635.595 215.243 635.328 215.05L635.135 214.917L633.561 213.55C632.997 213.045 632.418 212.554 631.869 212.034L630.31 210.429C626.168 206.106 622.828 201.262 620.066 196.21C614.559 186.092 611.218 175.26 609.229 164.428C607.343 153.567 606.764 142.617 607.774 131.889C608.279 126.525 609.155 121.206 610.491 116.006C610.862 114.713 611.174 113.405 611.574 112.128L612.851 108.309L614.336 104.565C614.603 103.941 614.9 103.346 615.182 102.722L615.939 101.103C616.043 100.91 616.206 100.642 616.34 100.449L615.895 100.479H615.672L614.796 100.508C611.5 100.464 608.234 100.315 605.027 99.8844C598.599 99.082 592.393 97.4328 586.618 95.1C580.843 92.7079 575.514 89.6173 570.778 85.9771C566.042 82.322 561.93 78.132 558.411 73.6894C551.33 64.8042 546.757 54.9532 543.476 45.429C541.947 40.6298 540.566 35.9049 539.631 31.2394C539.082 28.9216 538.725 26.6037 538.31 24.3155L538.057 22.8594L537.983 22.3988L537.849 21.4925L537.82 21.2696C537.82 21.2696 537.731 21.2696 537.701 21.2696L537.449 21.2993L537.211 21.329H537.092L536.647 21.3885C534.465 21.5816 532.327 21.8342 530.204 21.9531C528.081 22.0868 525.988 22.2502 523.924 22.3097C521.86 22.4137 519.826 22.4583 517.807 22.4731C509.761 22.5623 502.175 22.1759 495.063 21.4627C480.811 20.0364 468.445 17.3025 457.859 14.0039C447.289 10.646 438.53 6.66399 431.448 2.5334C424.397 -1.65661 419.022 -5.98036 415.133 -9.99207C411.228 -14.0038 408.853 -17.7035 407.428 -20.5414C406.017 -23.4239 405.631 -25.504 405.72 -26.7224C405.81 -27.8071 406.478 -27.7179 407.71 -26.4698C408.318 -25.8458 409.061 -24.9246 410.115 -23.7953C411.08 -22.6215 412.386 -21.2843 413.886 -19.6796C416.974 -16.5297 421.383 -12.6963 427.589 -8.6994C433.794 -4.70254 441.841 -0.661114 451.891 2.94943C461.957 6.5154 474.027 9.59104 488.116 11.478C502.219 13.3502 518.268 14.0188 536.157 12.1021C538.28 11.8495 540.403 11.582 542.556 11.3146C543.625 11.1957 544.723 11.0323 545.777 10.9283C545.911 11.9386 546.059 12.9341 546.193 13.9445C546.475 15.9652 546.757 18.0008 547.039 20.0512L547.247 21.5519L547.395 22.4137L547.707 24.1372C548.464 28.7581 549.607 33.4236 550.914 38.1188C553.69 47.4646 557.624 56.9887 563.77 65.5173C569.872 74.0162 578.245 81.4305 588.652 86.0068C593.834 88.3395 599.475 89.8997 605.384 90.7763C608.353 91.1626 611.367 91.4152 614.425 91.4449C614.618 91.4449 614.811 91.4449 615.004 91.4449H615.731C616.533 91.4152 617.305 91.4449 618.136 91.3855C619.769 91.3261 621.506 91.1478 623.229 90.9843C626.628 90.6723 630.028 90.3454 633.457 90.0185C633.071 90.598 632.671 91.2221 632.255 91.8461C630.755 94.164 629.197 96.4224 627.742 98.8146L625.53 102.366C625.173 102.96 624.758 103.554 624.446 104.134C624.372 104.282 624.283 104.401 624.208 104.594L623.986 105.07L623.793 105.486C622.694 107.7 621.744 110.018 620.913 112.395C619.25 117.164 618.047 122.187 617.275 127.342C615.776 137.669 615.85 148.471 617.364 159.198C618.894 169.896 621.922 180.609 626.881 190.326C629.375 195.17 632.344 199.776 635.981 203.699C636.931 204.62 637.778 205.675 638.817 206.507L640.301 207.814L640.48 207.978C640.48 207.978 640.583 208.082 640.776 208.201L641.712 208.795L643.582 209.984L645.453 211.172L646.388 211.767C646.552 211.871 646.685 211.96 646.863 212.064L647.472 212.361L652.327 214.709C655.326 216.15 658.339 217.591 661.338 219.032C658.636 219.508 655.934 219.983 653.232 220.459C650.382 220.979 647.531 221.499 644.681 222.019C643.983 222.167 643.196 222.257 642.573 222.435L640.673 222.94C640.005 223.089 639.485 223.326 638.891 223.52L637.585 223.98C636.441 224.337 635.387 224.931 634.274 225.377C629.924 227.412 625.856 230.146 622.204 233.43C614.885 239.982 609.199 248.6 605.651 258.08C602.118 267.544 600.678 277.96 602.147 287.974C602.875 292.967 604.359 297.84 606.631 302.313C607.15 303.457 607.878 304.482 608.472 305.581C608.769 306.131 609.169 306.621 609.511 307.142L610.06 307.914L610.55 308.612C610.743 308.895 610.951 309.147 611.174 309.4C611.575 309.905 612.049 310.41 612.569 310.916L614.054 312.446L617.038 315.507L622.976 321.346C618.092 321.554 612.762 321.554 607.937 321.896L604.226 322.089C603.483 322.119 603.276 322.163 602.949 322.208L601.999 322.341C600.737 322.535 599.475 322.639 598.228 322.891C593.195 323.708 588.266 325.09 583.501 326.888C573.985 330.499 565.151 336.1 557.966 343.396C550.78 350.676 545.243 359.65 542.303 369.457C540.819 374.345 540.062 379.442 540.047 384.538C540.047 385.816 540.047 387.079 540.18 388.342C540.24 388.981 540.255 389.605 540.329 390.243L540.715 392.933C541.116 395.384 542.006 398.133 542.719 400.763C543.461 403.438 544.203 405.904 544.946 408.475C544.5 408.326 543.803 407.94 543.224 407.657L541.412 406.736L537.775 404.909C535.355 403.69 532.921 402.561 530.486 401.372L528.66 400.496C528.289 400.317 528.214 400.288 528.036 400.213L527.546 400.005L525.572 399.173C524.265 398.594 522.914 398.103 521.578 397.598C516.219 395.578 510.741 393.899 505.159 392.591C494.009 389.961 482.474 388.906 471.072 389.679C459.685 390.451 448.417 393.171 438.159 398.059C427.885 402.903 418.725 410.02 411.362 418.712L409.966 420.331L408.66 422.025L407.324 423.778C406.463 424.908 405.81 425.963 405.052 427.047L402.855 430.301L401.757 431.921L401.207 432.738C401.163 432.827 401.118 432.887 401.059 432.768L400.91 432.575L400.613 432.188L395.848 425.948C395.432 425.428 395.076 424.908 394.601 424.388L393.769 423.422L392.374 421.802C391.454 420.718 390.414 419.737 389.449 418.697C388.484 417.642 387.401 416.721 386.361 415.755C385.337 414.76 384.238 413.868 383.125 412.977C374.321 405.77 364.033 400.392 353.136 396.93C342.224 393.468 330.734 391.818 319.287 391.744C307.826 391.685 296.35 393.185 285.439 396.35C282.707 397.123 280.035 398.059 277.392 399.069L276.397 399.441L274.764 400.169L271.439 401.669C269.227 402.68 266.926 403.839 264.684 404.894L264.921 397.375C265.04 394.909 264.907 391.908 264.892 390.972L264.506 386.841C264.283 385.474 264.105 384.107 263.838 382.755C261.73 371.908 256.415 361.879 248.903 353.841C241.361 345.788 231.889 339.651 221.749 335.298C211.58 330.93 200.713 328.285 189.786 327.126C188.762 326.962 186.178 326.844 184.145 326.71C182.096 326.561 179.72 326.472 177.419 326.368L175.697 326.294L174.836 326.264H174.613C174.613 326.264 174.688 326.13 174.717 326.071L174.955 325.699L176.826 322.772L180.537 316.903L183.016 312.669L184.961 309.058C186.193 306.621 187.426 304.185 188.494 301.689C192.889 291.763 196.051 281.333 197.164 270.783C197.714 265.524 197.758 260.249 197.135 255.108C196.482 249.982 195.145 244.99 192.978 240.443C191.939 238.155 190.573 236.06 189.133 234.039C187.589 232.108 185.941 230.25 184.041 228.69L182.63 227.502L181.116 226.447C180.136 225.704 179.023 225.139 177.954 224.53C177.434 224.203 176.87 223.95 176.306 223.698C175.905 223.534 174.762 222.955 173.797 222.628L173.04 222.346L172.194 222.123L170.501 221.677L167.116 220.786C166.522 219.864 165.943 219.211 165.35 218.423L163.613 217.398L165.216 216.061L165.617 215.719C165.75 215.57 165.869 215.273 165.988 215.065L166.745 213.654C169.61 212.762 172.372 211.707 174.51 210.474L175.861 209.761C176.217 209.583 176.558 209.389 176.885 209.166L178.874 207.874C180.24 207.071 181.428 206.017 182.675 205.051C183.952 204.13 185.035 202.956 186.193 201.901C190.706 197.488 194.433 192.317 197.432 186.79C203.429 175.691 206.621 163.344 207.854 151.101C209.041 138.843 208.15 126.585 205.285 115.114C203.83 109.394 201.856 103.852 199.243 98.7403C198.545 97.4922 197.847 96.2441 197.164 94.996C196.808 94.3868 196.392 93.8074 196.006 93.2131L195.205 91.9947C194.923 91.5489 194.566 91.1032 194.24 90.6574C192.815 88.8893 191.196 87.1212 189.712 85.3679C188.183 83.6592 186.639 82.0694 185.124 80.4201C185.169 80.2418 185.896 80.4201 186.401 80.4647L188.019 80.6876L191.256 81.1185C193.394 81.4454 195.576 81.5939 197.714 81.8317C198.783 81.9357 199.866 82.0694 200.921 82.1437L203.34 82.218C204.736 82.2625 206.131 82.3071 207.512 82.218C213.064 82.0991 218.528 81.4453 223.798 80.227C234.339 77.7902 244.063 73.1247 252.05 66.7357C260.037 60.3764 266.272 52.2341 269.687 43.3043C271.394 38.8469 272.404 34.2259 272.597 29.6348C272.701 28.4907 272.612 27.3466 272.597 26.2174C272.597 25.6528 272.567 25.0882 272.478 24.5236L272.389 23.6766C272.344 23.2903 272.315 22.8892 272.24 22.5028C272.018 20.9427 271.513 19.3083 271.172 17.7482C270.786 16.1732 270.296 14.6874 269.865 13.1719L269.984 13.053C270.058 13.053 270.207 13.1273 270.31 13.1719L271.008 13.4393L272.404 13.9742C273.339 14.3308 274.26 14.6874 275.18 15.044C277.021 15.7572 278.921 16.411 280.688 16.9904C283.419 17.8671 286.151 18.6694 288.883 19.2935C294.331 20.601 299.735 21.4776 305.035 21.9531C315.62 22.8594 325.716 22.3245 334.95 20.705C353.478 17.5105 368.383 10.2299 379.102 2.5631C384.491 -1.27031 388.87 -5.22258 392.448 -8.84799C396.011 -12.5031 398.698 -15.8908 400.806 -18.6841C402.87 -21.5072 404.384 -23.7062 405.334 -25.2366C406.314 -26.7373 406.878 -27.495 406.968 -27.4356L407.101 -27.3168Z" fill="#FFFCFC" fill-opacity="0.1"/>
<path d="M407.903 -121.369C408.036 -121.295 406.968 -119.096 404.711 -114.891C402.246 -110.82 398.565 -104.713 392.418 -97.7595C391.632 -96.9126 390.83 -96.0359 389.999 -95.1296C389.583 -94.6838 389.152 -94.2232 388.737 -93.7626C388.276 -93.3317 387.816 -92.886 387.356 -92.4403C386.421 -91.5488 385.456 -90.6276 384.476 -89.6915C383.466 -88.7703 382.383 -87.9085 381.299 -86.9724C379.161 -85.0706 376.682 -83.3916 374.188 -81.5343C371.575 -79.8405 368.888 -78.0129 365.918 -76.4231C360.039 -73.1394 353.418 -70.1381 346.099 -67.6865C338.78 -65.2349 330.778 -63.3627 322.227 -62.0998C305.124 -59.559 285.899 -59.559 265.322 -61.9512C255.034 -63.1547 244.404 -64.9228 233.493 -67.211C230.761 -67.7905 228.014 -68.3699 225.253 -69.0237C223.917 -69.3357 222.566 -69.6478 221.215 -69.9598C220.562 -70.1232 219.894 -70.2867 219.24 -70.4501L218.261 -70.6878C218.112 -70.7027 217.889 -70.8216 217.815 -70.7621L217.904 -70.2867C218.023 -69.6626 218.142 -69.1277 218.246 -68.1619L218.394 -66.8693C218.424 -66.7356 218.439 -66.2155 218.468 -65.8738L218.528 -64.7297L218.647 -62.4415V-60.1385C218.602 -47.8508 216.004 -35.355 211.328 -23.2902C206.577 -11.255 199.614 0.393822 190.127 10.3637C185.392 15.3412 180.017 19.8878 174.049 23.6915C168.066 27.4952 161.519 30.556 154.601 32.7402C147.683 34.9095 140.423 36.2467 133.045 36.6479C129.363 36.737 125.637 36.8856 121.925 36.5736L120.767 36.5141C120.47 36.5141 120.173 36.4547 119.891 36.425C119.342 36.3656 118.659 36.2467 118.214 36.2616C118.629 36.8262 119.001 37.2273 119.461 37.9108L120.233 39.0995L120.619 39.6938C120.693 39.8275 120.723 39.8275 120.841 40.0652L121.227 40.7636C122.222 42.6357 123.321 44.4633 124.211 46.38C125.073 48.3116 126.052 50.2134 126.824 52.2044C130.061 60.0793 132.392 68.3553 133.995 76.8393C137.098 93.8074 137.41 111.548 134.93 129.274C132.421 146.955 126.928 164.77 117.204 180.817C112.335 188.796 106.337 196.284 99.1366 202.644C95.5439 205.838 91.6543 208.706 87.5123 211.232L85.9683 212.212L84.3501 213.059L81.1136 214.738L80.5495 215.035L80.1635 215.199L79.3767 215.526C78.7234 215.808 78.0405 215.957 77.3873 216.18C78.0702 216.298 78.7828 216.388 79.4657 216.566L80.0596 216.7L81.0691 217.012L82.0786 217.324L84.454 218.215L86.9926 219.181C87.8389 219.508 88.6405 219.924 89.4719 220.295L91.9512 221.439C92.7826 221.826 93.5545 222.301 94.3562 222.732C100.77 226.224 106.723 230.696 111.83 236.06C116.952 241.409 121.227 247.62 124.449 254.335C127.685 261.066 129.823 268.302 130.996 275.672C133.371 290.456 131.813 305.671 127.656 319.994C125.577 327.17 122.95 334.198 119.758 340.974C118.986 342.682 118.095 344.317 117.264 346.011C116.447 347.704 115.541 349.339 114.606 350.958L113.225 353.41L112.543 354.643L112.35 354.97L112.231 355.148L111.325 356.619C110.984 356.946 111.488 356.902 111.711 356.991L112.498 357.184L113.285 357.377L115.957 358.15C119.58 359.145 123.157 360.364 126.735 361.567C133.861 364.138 140.869 367.169 147.609 370.839C161.089 378.119 173.441 388.253 182.66 400.971C191.968 413.645 197.833 428.563 201.247 443.748C202.969 451.355 204.098 459.067 204.81 466.808L205.27 472.617L205.597 478.427L205.745 482.884C205.745 483.182 205.745 483.523 205.775 483.761L206.265 483.523L207.393 483.063L207.69 482.944L208.507 482.662L210.229 482.082C211.372 481.696 212.515 481.309 213.673 481.012C218.275 479.616 222.922 478.724 227.584 477.862C236.907 476.287 246.305 475.515 255.717 475.262C274.527 474.816 293.426 476.51 311.968 480.433C330.466 484.415 348.697 490.73 365.369 500.372C373.683 505.201 381.566 510.877 388.662 517.504C390.385 519.228 392.181 520.847 393.829 522.645L398.387 527.786C398.743 528.217 399.084 528.737 399.426 529.108L400.45 527.563L404.548 522.125C406.003 520.208 407.65 518.425 409.194 516.568C412.401 512.957 415.756 509.466 419.349 506.227C426.475 499.704 434.314 493.954 442.627 489.065C459.27 479.289 477.798 473.004 496.711 469.973C515.64 466.942 534.984 467.075 553.794 470.121C563.206 471.652 572.485 473.895 581.526 476.882L588.251 479.259L594.873 481.919L598.555 483.568C598.777 483.672 599.03 483.82 599.223 483.895C599.148 483.642 599.104 483.553 599.015 483.152L598.881 482.543L598.851 482.394V482.32L598.792 482.082L598.54 480.507C598.183 478.412 597.827 476.302 597.664 474.192L597.337 471.028L597.189 467.848C596.832 459.379 597.515 450.91 599.134 442.663C602.4 426.156 609.362 410.466 619.428 397.123C629.479 383.765 642.825 372.889 657.968 366.025C665.525 362.578 673.482 360.111 681.573 358.566L687.66 357.585C688.669 357.451 689.694 357.377 690.718 357.273L692.307 357.125C692.5 357.095 692.708 357.11 692.901 357.095C692.975 357.095 693.138 357.095 693.153 357.065L692.945 356.857C692.782 356.708 692.693 356.604 692.515 356.396L692.129 355.951C691.802 355.55 691.431 355.178 691.134 354.747L689.308 352.206C688.714 351.36 688.061 350.542 687.512 349.651L685.908 346.976C684.78 345.223 683.874 343.366 682.969 341.509C679.346 334.065 676.956 326.101 675.709 318.047C673.215 301.897 675.1 285.434 680.43 270.367C685.76 255.316 694.652 241.513 706.678 231.082C712.675 225.882 719.445 221.558 726.69 218.393C728.501 217.621 730.312 216.804 732.213 216.239L735.019 215.303L736.162 214.931L736.31 214.887C736.711 214.768 737.171 214.738 737.364 214.664C737.186 214.575 737.008 214.501 736.845 214.397L736.592 214.248C736.592 214.248 736.503 214.203 736.473 214.174C736.444 214.159 736.444 214.144 736.444 214.144L736.191 213.951L733.638 212.004L731.277 209.865C730.505 209.137 729.674 208.468 728.976 207.681L726.824 205.363C721.182 199.107 716.758 192.035 713.21 184.71C706.143 170 702.372 154.34 700.487 138.828C698.646 123.271 698.913 107.73 700.977 92.6039C703.204 77.5228 707.272 62.7686 714.249 49.3516L715.288 47.5092C715.348 47.4052 715.392 47.3161 715.466 47.2269L715.645 46.9446C715.645 46.9446 715.645 46.9 715.57 46.9H715.407L715.08 46.9446H714.917L714.383 46.9743C712.067 47.0486 709.766 47.1526 707.435 47.108C698.156 47.108 689.085 46.0234 680.371 44.0918C662.971 40.1544 647.131 32.1607 634.897 21.1953C622.59 10.2746 613.727 -3.0087 607.804 -16.4702C607.418 -17.3172 607.046 -18.1492 606.66 -18.9813C606.304 -19.8282 605.992 -20.6751 605.651 -21.522C604.998 -23.2159 604.3 -24.88 603.706 -26.5738C602.593 -29.9764 601.375 -33.3046 600.514 -36.6774C600.054 -38.3564 599.549 -40.0205 599.148 -41.6846C598.762 -43.3487 598.376 -45.0128 598.005 -46.6621C597.812 -47.4942 597.634 -48.3114 597.441 -49.1286C597.293 -49.9606 597.129 -50.7778 596.981 -51.595C596.684 -53.2294 596.387 -54.8638 596.09 -56.4834C595.764 -58.1029 595.6 -59.7225 595.363 -61.3272L595.259 -62.0849V-62.1741C595.259 -62.1741 595.14 -62.1741 595.095 -62.1741L593.492 -61.9661C592.72 -61.8621 591.948 -61.7729 591.191 -61.6986C585.06 -61.03 579.077 -60.4654 573.242 -60.1534C561.588 -59.4402 550.558 -59.351 540.165 -59.7225C519.381 -60.4654 501.15 -63.0804 485.488 -66.7504C477.649 -68.578 470.449 -70.6878 463.902 -73.0651C457.34 -75.4276 451.387 -77.8941 446.101 -80.6131C435.457 -85.8878 427.41 -91.8459 421.531 -97.3435C415.638 -102.871 412.045 -108.041 409.803 -112.009C407.606 -116.035 406.849 -118.918 406.745 -120.522C406.656 -121.949 407.398 -121.726 408.972 -119.839C409.373 -119.363 409.818 -118.784 410.308 -118.1C410.798 -117.417 411.466 -116.689 412.134 -115.842C413.44 -114.104 415.237 -112.127 417.375 -109.78C421.724 -105.174 428.123 -99.6613 437.194 -94.1341C441.766 -91.4448 446.977 -88.696 452.916 -86.1255C458.869 -83.5996 465.52 -81.1777 472.898 -79.0084C487.626 -74.6698 505.248 -71.297 525.661 -69.722C535.86 -68.9346 546.757 -68.5928 558.322 -68.8306C564.097 -68.9197 570.05 -69.2466 576.152 -69.6478C579.195 -69.9152 582.298 -70.1232 585.416 -70.4501C586.975 -70.6135 588.548 -70.777 590.137 -70.9553C590.924 -71.0296 591.725 -71.1336 592.512 -71.2376C593.626 -71.3713 594.739 -71.5199 595.853 -71.6685C597.456 -71.8765 599.059 -72.0696 600.678 -72.2777L603.112 -72.5897C603.246 -72.6491 603.216 -72.5005 603.246 -72.3965L603.29 -72.0994L603.379 -71.4902L603.543 -70.2718C603.929 -67.5082 604.315 -64.7148 604.701 -61.9215C605.087 -58.6527 605.829 -55.3987 606.393 -52.0854C607.789 -45.5032 609.377 -38.7873 611.708 -32.1457C616.132 -18.8178 622.902 -5.51974 632.893 5.98051C637.882 11.7158 643.701 16.9459 650.263 21.4182C656.855 25.8459 664.203 29.4714 672.087 32.2053C679.985 34.8946 688.432 36.6776 697.176 37.4799C701.556 37.9257 705.995 38.0148 710.508 37.9851C711.651 37.9554 712.779 37.9108 713.922 37.8811H714.353L714.605 37.8514L715.051 37.8217L716.817 37.6731L720.366 37.3759C722.741 37.1976 725.116 36.9747 727.477 36.7222L731.04 36.3655L732.821 36.1873C733.014 36.1427 733.118 36.1575 732.955 36.3358L732.717 36.7073L732.228 37.4651C730.149 40.6893 728.071 43.9135 725.977 47.1377C724.834 48.787 723.929 50.4957 723.068 51.9964C722.637 52.7987 722.147 53.5565 721.761 54.3886C720.974 56.0378 720.128 57.6574 719.386 59.3363C718.688 61.045 717.946 62.724 717.263 64.4476C714.59 71.3715 712.601 78.6669 711.146 86.1257C708.266 101.073 707.464 116.734 708.741 132.394C710.122 148.025 713.507 163.819 720.009 178.336C723.275 185.557 727.328 192.481 732.45 198.424C735.063 201.321 737.795 204.159 740.912 206.462L742.56 207.725C742.961 208.067 743.436 208.305 743.882 208.602C744.327 208.884 744.758 209.166 745.322 209.434L751.646 212.703L754.808 214.337L757.881 215.838L764.013 218.809C760.331 219.374 756.634 219.954 752.953 220.518C751.082 220.771 749.241 221.142 747.415 221.499L741.907 222.569L739.146 223.103C738.953 223.148 738.611 223.193 738.522 223.237L738.21 223.341L737.587 223.549L735.093 224.366C733.415 224.857 731.812 225.585 730.194 226.268C723.765 229.062 717.738 232.88 712.364 237.546C701.585 246.862 693.435 259.402 688.536 273.191C683.637 286.979 681.915 302.105 684.156 316.71C685.285 324.006 687.422 331.152 690.644 337.779L691.876 340.26C692.277 341.093 692.811 341.85 693.257 342.653L694.682 345.03C695.172 345.817 695.751 346.531 696.271 347.288L697.874 349.532C698.141 349.903 698.468 350.245 698.75 350.602L700.279 352.4C701.333 353.752 702.892 355.163 704.258 356.545L708.147 360.482L712.007 364.405L712.245 364.643C712.245 364.643 712.052 364.658 711.963 364.687H711.265L709.87 364.747L707.064 364.836C703.308 364.955 699.552 365.074 695.796 365.193L691.579 365.579C690.629 365.668 689.679 365.727 688.744 365.861L683.117 366.753C675.664 368.164 668.36 370.438 661.442 373.587C647.576 379.858 635.343 389.783 626.064 402.085C616.756 414.373 610.268 428.934 607.225 444.223C605.725 451.875 605.072 459.691 605.399 467.476L605.532 470.389L605.829 473.286C605.978 475.232 606.304 477.149 606.616 479.066L606.853 480.507L606.883 480.685L606.972 481.012L607.136 481.666L607.477 482.988L608.828 488.263C609.244 489.987 609.837 491.859 610.342 493.672L611.946 499.139L600.559 493.419L597.664 491.978L594.858 490.715L591.755 489.318L585.446 486.777L579.032 484.504C570.407 481.636 561.544 479.467 552.547 477.996C534.554 475.054 516.041 474.906 497.988 477.773C479.95 480.641 462.358 486.584 446.621 495.811C438.753 500.417 431.359 505.826 424.634 511.962C421.249 515.008 418.087 518.292 415.059 521.694C413.604 523.447 412.045 525.111 410.679 526.924L408.615 529.643L407.576 531.01C407.22 531.486 406.968 531.783 406.344 532.719L399.945 542.243C399.886 542.436 399.812 542.213 399.738 542.139L399.515 541.857L399.069 541.277L398.194 540.133L396.427 537.83L392.908 533.224L392.463 532.645C392.315 532.451 392.255 532.407 392.151 532.288L391.587 531.649L390.459 530.386L388.217 527.845C386.688 526.181 385.01 524.651 383.422 523.046C376.815 516.85 369.407 511.501 361.539 506.91C345.772 497.758 328.284 491.621 310.409 487.743C292.505 483.924 274.141 482.231 255.925 482.632C246.824 482.855 237.738 483.583 228.846 485.069C224.422 485.886 219.998 486.718 215.752 487.996C214.668 488.263 213.629 488.62 212.589 488.976L211.016 489.496C210.749 489.586 210.526 489.645 210.199 489.779L208.982 490.314L204.068 492.483L198.753 495.113C198.634 491.992 198.649 488.679 198.59 485.47L198.53 483.033L198.486 481.518L198.397 478.68L198.1 473.033L197.669 467.402C196.986 459.914 195.917 452.499 194.299 445.249C191.078 430.777 185.585 416.84 176.989 405.072C168.467 393.275 157.051 383.825 144.328 376.886C137.974 373.394 131.293 370.497 124.479 368.016C121.034 366.842 117.605 365.668 114.116 364.702L111.474 363.93L107.332 362.875L103.204 361.82C102.061 361.374 99.5226 361.493 101.215 359.918L105.684 352.756L106.248 351.865C106.426 351.582 106.649 351.226 106.723 351.077L107.391 349.903L108.727 347.556C109.633 345.996 110.494 344.421 111.281 342.816C112.082 341.211 112.943 339.636 113.686 338.002C116.759 331.539 119.268 324.853 121.257 318.062C125.221 304.497 126.691 290.263 124.538 276.623C123.469 269.833 121.539 263.191 118.6 257.069C115.69 250.933 111.83 245.302 107.198 240.443C102.566 235.57 97.177 231.484 91.3277 228.274C90.5854 227.873 89.8876 227.442 89.1305 227.085L86.859 226.031C86.1019 225.689 85.3596 225.302 84.5876 224.99L82.2568 224.099L81.084 223.653L80.505 223.43L80.208 223.311L79.7775 223.178L76.1254 222.138L72.4881 221.113L68.1383 220.28C66.817 218.171 65.4957 217.814 64.2338 216.922L66.0598 215.333L66.9803 214.545L67.203 214.352L67.4108 213.951L67.8414 213.134L73.3344 211.158L76.066 210.177C76.5262 210.013 76.9122 209.82 77.3428 209.627L78.3968 209.077L81.3809 207.532L82.8803 206.759L84.3055 205.868C88.1358 203.55 91.7433 200.905 95.0837 197.963C101.779 192.094 107.436 185.111 112.067 177.593C121.316 162.482 126.706 145.425 129.185 128.382C131.649 111.31 131.427 94.1343 128.517 77.8199C127.017 69.6628 124.82 61.7285 121.792 54.2548C121.079 52.3678 120.159 50.5849 119.357 48.7424C118.525 46.9149 117.486 45.2062 116.581 43.4529L116.224 42.7991C116.106 42.5763 115.853 42.2346 115.675 41.9522L114.487 40.199L112.127 36.6924C110.449 34.33 108.519 31.9081 106.738 29.5456C106.767 29.4862 106.946 29.5159 107.124 29.5456L107.629 29.6051L108.623 29.7388L110.613 29.9914L114.591 30.5114C115.913 30.6749 117.219 30.8829 118.57 31.0017C119.238 31.076 119.906 31.1503 120.559 31.18L122.326 31.284C125.859 31.5961 129.363 31.4772 132.852 31.4178C139.829 31.076 146.659 29.8577 153.146 27.8518C159.649 25.8459 165.81 23.008 171.436 19.4718C177.078 15.9207 182.155 11.6712 186.683 6.97601C195.724 -2.41438 202.479 -13.4986 207.096 -24.9988C211.654 -36.5288 214.222 -48.5194 214.356 -60.1682V-62.3375L214.267 -64.492L214.222 -65.5766C214.193 -65.9629 214.222 -66.2304 214.133 -66.7355L213.792 -69.4546C213.599 -71.2227 213.257 -73.1394 212.961 -74.9967L212.723 -76.3934C212.634 -76.5717 212.857 -76.438 212.946 -76.438L213.287 -76.3488L213.97 -76.1705L216.702 -75.4722C218.513 -75.0116 220.309 -74.551 222.091 -74.0904C223.486 -73.7486 224.882 -73.4217 226.277 -73.08C229.009 -72.4114 231.726 -71.8022 234.428 -71.2079C245.221 -68.8454 255.717 -66.9881 265.857 -65.7103C286.136 -63.1547 305.065 -62.9467 321.856 -65.22C330.244 -66.3641 338.112 -68.0876 345.297 -70.361C352.483 -72.6491 359 -75.4722 364.805 -78.5775C367.745 -80.0782 370.402 -81.8166 372.985 -83.4213C375.45 -85.2043 377.929 -86.7793 380.052 -88.6068C381.136 -89.4983 382.219 -90.3155 383.229 -91.1922C384.224 -92.0837 385.174 -92.9603 386.124 -93.8221C386.599 -94.253 387.059 -94.669 387.519 -95.085C387.95 -95.5308 388.38 -95.9616 388.796 -96.3925C389.642 -97.2543 390.459 -98.1012 391.246 -98.9184C397.496 -105.59 401.356 -111.474 404.043 -115.366C406.522 -119.393 407.858 -121.458 407.992 -121.384L407.903 -121.369Z" fill="#FFFCFC" fill-opacity="0.1"/>
<path d="M408.571 -236.431C408.675 -236.387 407.918 -234.871 406.374 -231.959C404.889 -229.002 402.321 -224.797 398.669 -219.463C396.709 -216.893 394.705 -213.861 392.018 -210.89C390.696 -209.389 389.42 -207.725 387.876 -206.165C386.346 -204.605 384.743 -202.97 383.08 -201.277C376.207 -194.724 367.507 -187.904 356.714 -181.842C345.965 -175.72 333.035 -170.654 318.471 -166.924C316.66 -166.404 314.804 -166.018 312.918 -165.617C311.033 -165.216 309.147 -164.785 307.218 -164.413C303.343 -163.789 299.423 -162.987 295.37 -162.541C287.294 -161.397 278.832 -160.833 270.058 -160.506C261.284 -160.194 252.213 -160.402 242.845 -160.847C233.493 -161.367 223.872 -162.289 214 -163.522C204.127 -164.8 194.032 -166.464 183.714 -168.425C181.131 -168.93 178.548 -169.45 175.935 -169.97C173.337 -170.535 170.709 -171.1 168.081 -171.664C165.439 -172.214 162.811 -172.868 160.153 -173.477C158.832 -173.789 157.496 -174.101 156.16 -174.413C154.987 -174.71 153.799 -174.992 152.612 -175.29L150.845 -175.72L149.969 -175.943C149.85 -176.003 149.925 -175.869 149.925 -175.81L149.969 -175.587L150.058 -175.141C150.162 -174.532 150.311 -173.937 150.355 -173.343C150.489 -172.08 150.622 -170.817 150.756 -169.554C151.097 -163.745 150.994 -157.861 150.4 -151.977C149.717 -146.108 148.811 -140.209 147.312 -134.37C146.673 -131.428 145.738 -128.546 144.922 -125.619C144.491 -124.162 143.957 -122.736 143.481 -121.28C142.977 -119.839 142.531 -118.368 141.938 -116.956C140.809 -114.103 139.725 -111.206 138.404 -108.413C137.751 -107.001 137.172 -105.56 136.459 -104.178C135.762 -102.782 135.049 -101.4 134.351 -99.9882C133.668 -98.5767 132.896 -97.2097 132.109 -95.8427C131.337 -94.4758 130.551 -93.094 129.779 -91.727C128.932 -90.3898 128.086 -89.0525 127.225 -87.7004C126.379 -86.3483 125.533 -85.0111 124.583 -83.7184C117.293 -73.2285 108.623 -63.2735 98.1865 -54.953C77.6694 -37.9552 49.759 -28.0002 21.2251 -29.3523C19.6514 -29.4266 18.0629 -29.5157 16.4892 -29.59C15.9399 -29.59 15.3461 -29.7089 14.7819 -29.7683L13.0895 -29.9763C13.0895 -29.9763 12.8965 -30.0209 12.9262 -29.9763L13.0746 -29.8129L13.3715 -29.486L13.9654 -28.8471C14.3514 -28.4162 14.7671 -28.015 15.0937 -27.5396L17.6323 -24.1816C18.7458 -22.7106 19.6068 -21.0762 20.6015 -19.5161C21.5368 -17.9263 22.6206 -16.4108 23.3926 -14.7318C30.2811 -1.64171 34.6458 12.8302 36.7094 27.7033C38.773 42.5912 38.8621 57.8803 37.2884 73.1396C35.7296 88.4139 32.4041 103.658 27.4158 118.546C22.4276 133.434 15.7766 147.995 7.22532 161.65C-1.42987 175.216 -12.0744 187.86 -24.8716 198.409C-31.4187 203.476 -38.2478 208.349 -45.8193 212.004C-47.7047 212.926 -49.5159 214.025 -51.5053 214.738L-54.3557 215.897C-54.8011 216.105 -55.291 216.209 -55.7512 216.358L-56.449 216.566L-56.7904 216.67C-56.8944 216.685 -56.8201 216.7 -56.7459 216.715L-56.5677 216.759C-55.5879 216.982 -54.6378 217.235 -53.7173 217.532L-53.4353 217.621L-51.9358 218.156L-48.9518 219.226C-46.9476 219.894 -45.0028 220.756 -43.0431 221.573C-35.2193 224.872 -27.633 228.824 -20.4327 233.475C-6.0915 242.835 6.7948 254.856 16.7713 269.268C26.7032 283.68 33.4433 300.574 35.7444 318.285C35.9671 320.499 36.3085 322.713 36.4125 324.942L36.6797 331.643L36.4867 338.359C36.4273 340.602 36.0859 342.816 35.9077 345.045C34.8537 353.93 32.894 362.741 29.9842 371.24C29.3013 373.379 28.4105 375.43 27.6237 377.54L26.4063 380.675L24.9959 383.736C24.031 385.756 23.1699 387.836 22.1307 389.827L18.9536 395.771C18.4192 396.766 17.8996 397.762 17.2909 398.698L16.0438 400.733L15.7024 401.298L15.5391 401.565C15.5391 401.565 15.5539 401.625 15.6133 401.64L15.7617 401.684L18.2262 402.323C20.4085 402.828 22.5315 403.631 24.6842 404.27C29.0192 405.533 33.2057 407.241 37.4517 408.816C41.5937 410.644 45.81 412.367 49.8184 414.537C57.9094 418.697 65.7481 423.526 72.9038 429.306C87.3044 440.732 99.2999 455.337 107.911 471.741C116.506 488.174 121.895 506.138 124.865 524.398C127.864 542.689 128.368 561.306 127.344 579.819C127.195 582.137 127.092 584.455 126.869 586.758L126.453 591.602C126.423 591.944 126.349 592.375 126.364 592.627C126.676 592.449 126.988 592.256 127.299 592.077L129.051 591.245C130.15 590.755 131.219 590.176 132.347 589.745L139.087 587.248L145.946 585.243C148.247 584.663 150.563 584.188 152.879 583.653C162.173 581.796 171.57 580.83 180.968 580.443C190.38 580.117 199.777 580.458 209.145 581.157C227.851 582.806 246.423 586.104 264.55 591.126C273.651 593.534 282.573 596.535 291.451 599.715C295.831 601.453 300.284 603.013 304.59 604.945L311.092 607.723L317.506 610.739L320.712 612.24L323.86 613.86L330.169 617.114L336.36 620.605L339.448 622.358C340.472 622.953 341.467 623.607 342.477 624.216L348.519 627.975C350.493 629.282 352.453 630.649 354.413 631.972L357.352 633.978C358.317 634.661 359.253 635.404 360.218 636.102L365.918 640.396L371.426 644.958L374.173 647.246L376.801 649.668C378.552 651.287 380.319 652.892 382.056 654.541L387.059 659.682C388.766 661.361 390.31 663.189 391.869 665.016C393.413 666.859 395.061 668.582 396.501 670.514L398.015 672.505C398.015 672.505 398.104 672.698 398.149 672.609L398.268 672.416L398.535 672.015L400.02 669.816C400.658 668.805 401.43 667.884 402.143 666.918L406.492 661.198C407.992 659.326 409.58 657.543 411.124 655.715L413.455 652.981C414.257 652.09 415.103 651.243 415.92 650.381L420.878 645.195L426.089 640.277C426.965 639.46 427.811 638.628 428.702 637.841L431.434 635.523C433.26 633.992 435.056 632.403 436.912 630.902C451.847 619.045 468.148 608.956 485.414 601.037C493.995 596.951 502.872 593.563 511.81 590.428C516.323 588.987 520.806 587.442 525.394 586.238C527.68 585.614 529.951 584.916 532.253 584.366L539.156 582.717C541.457 582.122 543.788 581.721 546.104 581.246C548.435 580.8 550.736 580.28 553.081 579.909C557.758 579.195 562.419 578.363 567.126 577.888C576.508 576.684 585.98 576.209 595.422 576.045L602.518 576.09C604.879 576.09 607.239 576.283 609.6 576.372C614.336 576.506 619.027 577.071 623.748 577.472C626.094 577.739 628.439 578.111 630.785 578.423L634.304 578.913L637.792 579.567C640.108 580.013 642.454 580.399 644.755 580.904L651.659 582.553C653.975 583.044 656.216 583.816 658.503 584.455C660.774 585.139 663.06 585.748 665.272 586.595L671.968 588.972L678.53 591.721L679.97 592.33C679.97 592.33 680.059 592.375 680.103 592.389L680.445 592.553C680.638 592.627 681.024 592.939 680.831 592.538C680.757 592.3 680.682 592.048 680.638 591.81L680.089 588.987C679.821 587.798 679.732 586.595 679.584 585.406C678.337 575.837 678.559 566.165 679.881 556.73C681.202 547.28 683.622 538.053 686.918 529.212C693.554 511.546 703.233 495.172 715.333 480.953C727.314 466.63 741.67 454.461 757.481 444.803C765.453 440.063 773.767 435.977 782.348 432.56C790.988 429.306 799.866 426.75 808.892 424.923C813.435 424.239 817.948 423.318 822.536 423.006L825.965 422.679L827.672 422.516C828.103 422.471 827.717 422.516 827.895 422.501H827.984L828.652 422.471C828.697 422.471 828.8 422.471 828.786 422.456L828.682 422.337L828.459 422.085C828.162 421.728 828.756 422.501 826.796 419.901C825.356 418.088 824.139 416.127 822.877 414.21L821.006 411.312L819.314 408.326C810.228 392.383 804.735 374.94 801.395 357.377C798.248 339.755 797.327 321.851 799.109 304.214C799.376 302.016 799.509 299.802 799.866 297.617L800.89 291.065C801.766 286.726 802.612 282.388 803.844 278.123C806.19 269.595 809.293 261.245 813.39 253.37C817.577 245.539 822.773 238.17 829.127 231.855C835.452 225.54 842.978 220.355 851.173 216.804L852.732 216.194C852.836 216.165 852.925 216.12 853.029 216.09L853.608 215.927C853.608 215.927 853.281 215.764 853.118 215.689C853.029 215.645 852.94 215.6 852.851 215.556L852.109 215.14C844.567 210.637 837.857 205.006 831.963 198.766L827.672 193.967L823.738 188.915C822.387 187.266 821.303 185.438 820.071 183.714L818.29 181.085L816.671 178.365C815.617 176.538 814.444 174.785 813.494 172.913L810.57 167.356C809.649 165.483 808.803 163.567 807.927 161.68C807.021 159.808 806.235 157.876 805.478 155.944C799.153 140.581 795.174 124.579 792.725 108.591C790.453 92.5593 789.726 76.453 791.003 60.6142C791.225 56.647 791.79 52.7245 792.235 48.787C792.502 46.8258 792.858 44.8794 793.17 42.9329L793.66 40.0207C793.838 39.0549 794.061 38.0891 794.269 37.1234C794.685 35.1918 795.1 33.2751 795.516 31.3584C796.021 29.4565 796.54 27.5547 797.045 25.6677C797.52 23.7658 798.158 21.8937 798.767 20.0364C799.42 18.1792 799.91 16.2921 800.682 14.4794C801.914 11.4187 803.013 8.32816 804.468 5.38623C805.166 3.90041 805.834 2.4146 806.561 0.958496C807.348 -0.467896 808.135 -1.89429 808.922 -3.32068L809.278 -3.95959L809.397 -4.15274L809.634 -4.52419C809.634 -4.59848 809.382 -4.52419 809.278 -4.52419L808.833 -4.49449L807.081 -4.40532C806.294 -4.34589 805.507 -4.34589 804.72 -4.36075C803.147 -4.36075 801.588 -4.36075 800.014 -4.36075C796.897 -4.50932 793.779 -4.56877 790.706 -4.91052C787.618 -5.13339 784.574 -5.62369 781.546 -6.05458C780.032 -6.29231 778.547 -6.6192 777.048 -6.9015L774.806 -7.3324L772.594 -7.88216C748.959 -13.4391 728.338 -25.9646 712.854 -41.6251C697.206 -57.2857 686.443 -75.695 678.708 -93.9112C674.892 -103.064 671.894 -112.261 669.31 -121.295C668.731 -123.568 668.167 -125.827 667.588 -128.07C667.306 -129.199 667.024 -130.314 666.742 -131.428C666.505 -132.557 666.267 -133.672 666.029 -134.786C665.554 -137.015 665.079 -139.244 664.619 -141.443C664.189 -143.656 663.847 -145.87 663.446 -148.054C663.09 -150.254 662.645 -152.408 662.362 -154.592C662.125 -156.375 661.873 -158.158 661.635 -159.911C661.635 -159.971 661.635 -160.075 661.531 -160.015H661.472L661.011 -159.896C659.972 -159.674 658.933 -159.466 657.909 -159.258C653.781 -158.47 649.684 -157.772 645.646 -157.118C641.593 -156.583 637.599 -155.9 633.65 -155.528C617.839 -153.715 602.801 -153.106 588.652 -153.344C560.341 -153.834 535.578 -157.579 514.393 -162.809C471.963 -173.358 444.097 -190.118 428.316 -204.872C420.344 -212.227 415.355 -219.032 412.178 -224.262C411.436 -225.614 410.783 -226.848 410.204 -227.977C409.625 -229.091 409.12 -230.102 408.794 -231.067C408.096 -232.969 407.665 -234.41 407.487 -235.465C407.175 -237.308 407.992 -236.921 409.996 -234.262C410.501 -233.593 411.065 -232.791 411.718 -231.825C412.386 -230.889 413.247 -229.864 414.138 -228.675C415.044 -227.501 415.994 -226.134 417.226 -224.782C417.82 -224.084 418.443 -223.356 419.097 -222.598C419.735 -221.84 420.403 -221.023 421.19 -220.265C427.084 -213.891 435.784 -206.224 448.12 -198.424C454.356 -194.62 461.437 -190.757 469.499 -187.042C477.59 -183.387 486.631 -179.91 496.652 -176.731C516.694 -170.416 540.715 -165.364 568.566 -163.358C582.491 -162.363 597.352 -162.14 613.074 -163.017C617.008 -163.18 620.972 -163.611 625.025 -163.893C629.048 -164.324 633.131 -164.725 637.258 -165.275C641.37 -165.869 645.557 -166.404 649.758 -167.192C651.866 -167.578 653.989 -167.89 656.112 -168.336C659.2 -168.975 662.318 -169.629 665.436 -170.268L668.687 -170.936L669.503 -171.1C669.578 -170.877 669.592 -170.565 669.637 -170.297L669.86 -168.648C670.157 -166.449 670.453 -164.235 670.75 -162.021C671.077 -159.659 671.389 -157.267 671.715 -154.86C672.101 -152.631 672.487 -150.402 672.873 -148.144C673.259 -145.885 673.631 -143.612 674.135 -141.368C674.61 -139.11 675.1 -136.837 675.575 -134.534C676.065 -132.245 676.704 -129.987 677.268 -127.684C678.352 -123.063 679.836 -118.516 681.217 -113.866C687.244 -95.501 695.766 -76.7945 708.741 -60.1533C715.214 -51.8476 722.786 -44.1213 731.441 -37.4054C735.82 -34.1217 740.378 -30.957 745.292 -28.2676C750.132 -25.4594 755.313 -23.1267 760.628 -21.0465C765.958 -18.9664 771.54 -17.4062 777.241 -16.0839C782.956 -14.8506 788.835 -14.0632 794.803 -13.6174C796.303 -13.5431 797.802 -13.4837 799.302 -13.4094C800.801 -13.3351 802.315 -13.3945 803.83 -13.3797C805.359 -13.35 806.828 -13.4094 808.417 -13.4986C811.475 -13.5728 814.816 -13.974 817.963 -14.2415L822.743 -14.6872L825.134 -14.9101L826.336 -15.0141L826.93 -15.0735C827.286 -15.1775 826.885 -14.8358 826.856 -14.7169C825.104 -12.0127 823.337 -9.30853 821.571 -6.58948L818.928 -2.51834C818.497 -1.82001 818.008 -1.16624 817.607 -0.42334L816.731 1.1665C815.988 2.5186 815.231 3.8707 814.474 5.22279C811.253 11.7604 808.521 18.61 806.324 25.7271C804.275 32.8888 802.508 40.199 801.425 47.7024C800.326 55.1909 799.539 62.7983 799.376 70.4949C799.168 74.3283 799.302 78.1914 799.316 82.0546C799.361 83.9861 799.495 85.9177 799.569 87.8641C799.643 89.7957 799.747 91.7421 799.955 93.6737C800.133 95.6053 800.296 97.5517 800.474 99.4981C800.727 101.43 800.964 103.361 801.217 105.308L801.603 108.22L802.093 111.117C802.434 113.049 802.731 114.995 803.102 116.912C804.646 124.608 806.546 132.29 808.937 139.838C811.431 147.342 814.222 154.8 817.711 161.947C821.214 169.079 825.193 176.003 829.825 182.481C834.531 188.885 839.861 194.843 845.888 199.984L848.175 201.871L849.318 202.822C849.704 203.119 850.119 203.387 850.535 203.669C852.168 204.769 853.757 205.957 855.434 207.012L859.027 209.048L860.319 209.776C860.734 210.028 861.298 210.236 861.788 210.474L864.817 211.841C868.677 213.565 872.537 215.303 876.411 217.041L877.866 217.695C878.475 217.918 877.154 217.992 876.901 218.156L873.843 219.003L867.727 220.682C863.867 221.781 858.893 222.94 855.701 224.426C854.796 224.797 853.846 225.095 852.97 225.54L850.357 226.907L847.729 228.274C846.883 228.779 846.081 229.359 845.25 229.909C838.643 234.232 832.839 239.878 828.014 246.357C823.144 252.82 819.373 260.204 816.33 267.886C813.316 275.598 811.03 283.666 809.486 291.942C808.001 300.232 807.14 308.672 806.858 317.186C806.576 325.699 807.021 334.258 807.912 342.786C808.788 351.33 810.392 359.799 812.515 368.149C814.667 376.485 817.339 384.731 820.873 392.591C824.376 400.466 828.563 408.029 833.625 414.938L836.209 418.37L840.336 423.184L844.374 427.909L846.393 430.272C846.304 430.48 845.473 430.361 845.042 430.42L843.468 430.465C839.282 430.598 835.11 430.732 830.923 430.851L829.35 430.896C828.756 430.896 828.162 430.94 828.058 430.97L826.425 431.118L823.174 431.43L819.923 431.742C818.839 431.861 817.77 432.069 816.686 432.233C814.534 432.589 812.366 432.887 810.213 433.273C805.953 434.239 801.647 435.071 797.476 436.393C793.23 437.493 789.132 439.097 784.99 440.553L778.903 443.109L777.374 443.748L775.89 444.476L772.92 445.932C757.065 453.673 742.62 464.401 730.075 477.045C717.649 489.808 707.004 504.518 699.418 520.773C691.832 536.953 686.888 554.65 686.903 572.509C686.903 574.738 687.066 576.952 687.126 579.18C687.274 581.394 687.601 583.593 687.823 585.792C687.912 586.907 688.209 587.977 688.402 589.061L688.818 591.186L689.115 592.746L689.545 594.351L692.812 606.579C692.812 606.936 693.361 607.931 692.93 607.753L691.505 607.055L688.655 605.643L682.954 602.835L677.223 600.027L673.779 598.585L670.647 597.263L669.073 596.609L667.469 596.044L661.056 593.756C652.386 591.022 643.538 588.719 634.511 587.219C625.485 585.763 616.37 584.633 607.18 584.351C570.466 582.85 533.217 589.67 498.998 603.726C490.402 607.159 482.088 611.259 473.952 615.643C469.929 617.931 465.876 620.159 462.016 622.7C458.052 625.092 454.296 627.782 450.496 630.412C443.073 635.894 435.784 641.63 429.177 648.063L426.653 650.426C425.822 651.213 425.05 652.075 424.248 652.907L419.468 657.899L414.969 663.144C414.227 664.021 413.455 664.883 412.728 665.774L410.634 668.523C409.254 670.365 407.814 672.163 406.478 674.035L400.792 682.49L399.069 685.045C398.773 685.283 398.505 686.412 398.194 685.595L397.258 684.362L393.532 679.458L390.518 675.491C389.85 674.555 389.108 673.679 388.351 672.817L383.852 667.587C382.338 665.863 380.675 664.259 379.087 662.594L376.682 660.113C375.865 659.296 375.004 658.538 374.158 657.751L369.081 653.056C355.111 641.02 339.671 630.605 323.236 622.106L317.075 618.926L310.795 615.969L307.663 614.498L304.471 613.131L298.087 610.398C289.477 607.01 280.821 603.741 271.958 601.111C254.321 595.584 236.194 591.795 217.964 589.492C208.833 588.497 199.673 587.768 190.528 587.694C181.383 587.664 172.268 588.11 163.286 589.284C154.319 590.532 145.486 592.553 137.157 595.718C136.118 596.119 135.049 596.446 134.054 596.921L131.055 598.333L130.046 598.808C129.601 599.031 129.125 599.209 128.695 599.462L126.097 600.933L121.064 603.815L118.54 605.257C118.214 605.346 117.486 606.059 117.501 605.643L117.664 604.187L118.318 598.377L118.956 592.568L119.342 588.303C120.96 570.162 121.034 551.931 118.882 534.041C116.744 516.182 112.498 498.59 105.149 482.424C97.8599 466.258 87.4826 451.623 74.5072 439.855C68.0641 433.927 60.8786 428.845 53.3666 424.417C45.8397 420.005 37.9416 416.231 29.7318 413.289L26.6735 412.13L23.5559 411.134C21.4774 410.495 19.4138 409.782 17.3206 409.188L8.50207 406.87L5.90403 406.186C5.59226 406.023 4.77574 406.068 4.86481 405.741L5.57742 404.597L8.39815 400.02C10.5657 396.439 11.3673 395.31 12.4808 393.26L15.5539 387.554C16.6376 385.682 17.4245 383.676 18.3598 381.73C19.2505 379.768 20.2155 377.837 20.943 375.816L23.2738 369.813L25.2038 363.692C25.9164 361.671 26.2875 359.561 26.8368 357.511L27.594 354.406L28.1433 351.27C29.6724 342.92 30.2959 334.406 29.7318 325.997C28.7371 309.162 23.4816 292.789 14.9007 278.525C6.26033 264.261 -5.45312 252.092 -18.7848 242.449C-25.4358 237.59 -32.5915 233.489 -39.9551 229.968L-42.7165 228.646L-45.5372 227.457C-47.4226 226.669 -49.2784 225.837 -51.2084 225.199L-54.0736 224.158L-55.5285 223.638C-56.3748 223.326 -57.1467 223.163 -57.9781 222.91C-61.2145 222.004 -64.4361 221.098 -67.6725 220.191C-70.9089 219.389 -74.1305 218.587 -77.3521 217.784L-78.5546 217.487C-79.2375 217.398 -79.1188 217.279 -78.5101 217.16L-76.1347 216.432L-71.384 214.976L-66.6482 213.535L-64.2728 212.807L-61.7935 211.99C-60.9918 211.707 -60.0862 211.47 -59.3736 211.158L-57.1764 210.266L-53.9103 208.944L-52.5297 208.379L-51.1935 207.696L-48.5361 206.344L-45.8787 204.991C-44.9879 204.561 -44.0971 204.1 -43.2806 203.535C-39.9106 201.411 -36.4515 199.449 -33.3338 196.968C-26.8165 192.421 -21.1156 186.879 -15.5781 181.278C-10.3078 175.409 -5.24528 169.376 -0.939957 162.824C7.84885 149.867 14.9155 135.901 20.1116 121.414C25.3374 106.957 28.945 92.0839 30.9492 77.196C32.9682 62.308 33.2651 47.3607 31.6321 32.8442C31.4242 31.0315 31.2164 29.2188 30.9937 27.4061C30.6819 25.6231 30.3553 23.8253 30.0436 22.0423C29.5091 18.4466 28.5293 14.9698 27.6979 11.4781C27.3268 9.70996 26.7032 8.03101 26.1688 6.32231C25.6046 4.62846 25.1147 2.90491 24.506 1.22594C23.838 -0.423325 23.1847 -2.0726 22.5167 -3.72186L21.522 -6.18832L20.3343 -8.55078C19.5475 -10.1257 18.7606 -11.7007 17.9738 -13.2757C17.1127 -14.8061 16.1626 -16.277 15.257 -17.7629L13.8912 -19.9916C13.4458 -20.7494 12.8668 -21.4031 12.362 -22.1015L10.6844 -24.3451L9.52644 -25.9052L8.20515 -27.4504C6.45333 -29.486 4.74604 -31.3135 3.03876 -33.2451L0.470406 -36.0979L-0.167969 -36.8111C-0.405502 -37.0637 0.321953 -36.8111 0.514954 -36.8408L2.44492 -36.6031C4.99843 -36.2762 7.55193 -35.9493 10.1054 -35.6224L13.9208 -35.147C14.5592 -35.0875 15.1976 -34.9984 15.8508 -34.9687L17.5284 -34.8795C31.2461 -33.9583 44.9192 -35.2361 57.6719 -39.0547C59.2455 -39.5747 60.8192 -40.0948 62.3929 -40.6148C63.1797 -40.8822 63.9814 -41.1051 64.7386 -41.4171L67.0248 -42.368C68.554 -43.0069 70.0683 -43.631 71.5825 -44.2551C73.0523 -44.998 74.522 -45.726 75.9769 -46.4689L78.1741 -47.5684C78.9016 -47.9547 79.5845 -48.3856 80.2971 -48.8017C81.7075 -49.6337 83.103 -50.4658 84.4985 -51.283C85.8792 -52.1447 87.1856 -53.1105 88.5218 -54.002C89.8431 -54.9232 91.2089 -55.7999 92.4559 -56.8251C102.685 -64.6702 111.607 -73.8823 118.867 -84.0305C126.186 -94.134 132.139 -104.936 136.578 -116.094C138.909 -121.637 140.661 -127.312 142.279 -132.959C142.932 -135.811 143.764 -138.634 144.253 -141.487C144.521 -142.914 144.803 -144.34 145.07 -145.751C145.278 -147.178 145.471 -148.604 145.679 -150.031C146.376 -155.721 146.792 -161.397 146.51 -166.969L146.451 -169.064L146.243 -171.129C146.124 -172.273 145.946 -174.472 145.604 -176.226C145.293 -178.053 144.996 -179.866 144.684 -181.664C146.466 -181.203 148.247 -180.757 150.029 -180.297C151.691 -179.866 153.339 -179.45 154.987 -179.019C156.323 -178.662 157.645 -178.35 158.981 -178.023C161.638 -177.385 164.281 -176.746 166.894 -176.122C172.149 -174.933 177.345 -173.759 182.512 -172.734C192.815 -170.669 202.895 -168.856 212.738 -167.519C232.424 -164.77 251.144 -163.477 268.633 -163.819C269.732 -163.834 270.815 -163.849 271.899 -163.864C272.983 -163.908 274.052 -163.968 275.135 -164.012C277.273 -164.116 279.411 -164.19 281.504 -164.324C285.706 -164.681 289.833 -164.933 293.856 -165.483C301.918 -166.36 309.593 -167.816 316.867 -169.465C331.387 -172.942 344.243 -177.801 355.036 -183.595C365.829 -189.405 374.589 -196.002 381.566 -202.361C383.259 -204.01 384.877 -205.6 386.421 -207.131C387.222 -207.874 387.935 -208.661 388.618 -209.449C389.316 -210.221 389.999 -210.979 390.652 -211.722C393.398 -214.619 395.492 -217.561 397.525 -220.087C401.341 -225.287 404.087 -229.388 405.765 -232.256C407.502 -235.079 408.437 -236.505 408.541 -236.446L408.571 -236.431Z" fill="#FFFCFC" fill-opacity="0.1"/>
</g>
<defs>
<clipPath id="clip0_11056_701">
<rect width="957" height="941" fill="white" transform="translate(-79 -246)"/>
</clipPath>
</defs>
</svg>
