<svg width="97" height="81" viewBox="0 0 97 81" fill="none" xmlns="http://www.w3.org/2000/svg">
<g clip-path="url(#clip0_4906_36529)">
<path d="M31.0693 35.8789H82.9649C86.3881 35.8789 89.5032 36.632 92.1733 38.0355L83.7522 18.2495C81.5272 12.9435 76.9401 9.99957 70.8126 9.99957H43.2217C37.0941 9.99957 32.5071 12.9435 30.2478 18.2495L21.8267 38.0013C24.531 36.632 27.6461 35.8789 31.0693 35.8789ZM31.0693 68.81H82.9649C91.2833 68.81 97 63.1275 97 54.8434C97 46.5593 91.2833 40.8768 82.9649 40.8768H31.0693C22.7167 40.8768 17 46.5593 17 54.8434C17 63.1275 22.7167 68.81 31.0693 68.81ZM79.3785 54.8434C79.369 53.0045 80.8864 51.5119 82.7253 51.5309C84.5452 51.5497 86.013 53.0234 86.0036 54.8434C85.9942 56.6539 84.5357 58.103 82.7253 58.1217C80.8958 58.1406 79.388 56.6729 79.3785 54.8434Z" fill="url(#paint0_linear_4906_36529)"/>
</g>
<path d="M17 51C14.4288 51 11.9154 51.7624 9.77759 53.1909C7.63975 54.6194 5.97351 56.6497 4.98957 59.0251C4.00563 61.4006 3.74819 64.0144 4.2498 66.5362C4.75141 69.0579 5.98953 71.3743 7.80762 73.1924C9.6257 75.0105 11.9421 76.2486 14.4638 76.7502C16.9856 77.2518 19.5995 76.9944 21.9749 76.0104C24.3503 75.0265 26.3807 73.3603 27.8091 71.2224C29.2376 69.0846 30 66.5712 30 64C29.9934 60.5542 28.6216 57.2515 26.1851 54.8149C23.7486 52.3784 20.4458 51.0066 17 51ZM16 58C16 57.7348 16.1054 57.4804 16.2929 57.2929C16.4804 57.1054 16.7348 57 17 57C17.2652 57 17.5196 57.1054 17.7071 57.2929C17.8946 57.4804 18 57.7348 18 58V65C18 65.2652 17.8946 65.5196 17.7071 65.7071C17.5196 65.8946 17.2652 66 17 66C16.7348 66 16.4804 65.8946 16.2929 65.7071C16.1054 65.5196 16 65.2652 16 65V58ZM17 71C16.7033 71 16.4133 70.912 16.1667 70.7472C15.92 70.5824 15.7277 70.3481 15.6142 70.074C15.5007 69.7999 15.4709 69.4983 15.5288 69.2074C15.5867 68.9164 15.7296 68.6491 15.9393 68.4393C16.1491 68.2296 16.4164 68.0867 16.7074 68.0288C16.9983 67.9709 17.2999 68.0007 17.574 68.1142C17.8481 68.2277 18.0824 68.42 18.2472 68.6666C18.412 68.9133 18.5 69.2033 18.5 69.5C18.5 69.8978 18.342 70.2794 18.0607 70.5607C17.7794 70.842 17.3978 71 17 71Z" fill="#FF0D00"/>
<path d="M16 58C16 57.7348 16.1054 57.4804 16.2929 57.2929C16.4804 57.1054 16.7348 57 17 57C17.2652 57 17.5196 57.1054 17.7071 57.2929C17.8946 57.4804 18 57.7348 18 58V65C18 65.2652 17.8946 65.5196 17.7071 65.7071C17.5196 65.8946 17.2652 66 17 66C16.7348 66 16.4804 65.8946 16.2929 65.7071C16.1054 65.5196 16 65.2652 16 65V58Z" fill="white"/>
<path d="M17 71C16.7033 71 16.4133 70.912 16.1667 70.7472C15.92 70.5824 15.7277 70.3481 15.6142 70.074C15.5007 69.7999 15.4709 69.4983 15.5288 69.2074C15.5867 68.9164 15.7296 68.6491 15.9393 68.4393C16.1491 68.2296 16.4164 68.0867 16.7074 68.0288C16.9983 67.9709 17.2999 68.0007 17.574 68.1142C17.8481 68.2277 18.0824 68.42 18.2472 68.6666C18.412 68.9133 18.5 69.2033 18.5 69.5C18.5 69.8978 18.342 70.2794 18.0607 70.5607C17.7794 70.842 17.3978 71 17 71Z" fill="white"/>
<path d="M17.0038 49H17C14.0333 49 11.1332 49.8797 8.66645 51.528C6.19971 53.1762 4.27713 55.5189 3.14181 58.2597C2.0065 61.0006 1.70945 64.0166 2.28823 66.9264C2.867 69.8361 4.29562 72.5088 6.3934 74.6066C8.49119 76.7044 11.1639 78.133 14.0737 78.7118C16.9834 79.2906 19.9994 78.9935 22.7403 77.8582C25.4811 76.7229 27.8238 74.8003 29.472 72.3336C31.1203 69.8668 32 66.9667 32 64L32 63.9962C31.9924 60.0213 30.41 56.2114 27.5993 53.4007C24.7886 50.59 20.9787 49.0076 17.0038 49Z" stroke="white" stroke-width="4"/>
<defs>
<linearGradient id="paint0_linear_4906_36529" x1="57.0171" y1="9.7531" x2="57" y2="68.81" gradientUnits="userSpaceOnUse">
<stop stop-color="#97A0AF"/>
<stop offset="0.477123" stop-color="#B3BAC5"/>
<stop offset="0.505058" stop-color="#97A0AF"/>
<stop offset="1" stop-color="#7A869A"/>
</linearGradient>
<clipPath id="clip0_4906_36529">
<rect width="80" height="80" fill="white" transform="translate(17)"/>
</clipPath>
</defs>
</svg>
