<svg width="256" height="256" viewBox="0 0 256 256" fill="none" xmlns="http://www.w3.org/2000/svg">
<circle opacity="0.5" cx="128" cy="128" r="128" fill="#F4F5F7"/>
<path d="M117.003 70.984C118.273 68.7837 121.087 68.0298 123.287 69.3002L181.719 103.036C183.919 104.306 184.673 107.12 183.403 109.32L139.7 185.016C138.43 187.216 135.616 187.97 133.416 186.7L74.9838 152.964C72.7835 151.694 72.0296 148.88 73.3 146.68L117.003 70.984Z" fill="#DFE1E6"/>
<path d="M119.351 77.6515C120.621 75.4512 123.435 74.6973 125.635 75.9676L175.435 104.72C177.635 105.99 178.389 108.804 177.119 111.004L138.016 178.732C136.746 180.932 133.932 181.686 131.732 180.416L81.9318 151.664C79.7315 150.393 78.9776 147.58 80.248 145.379L119.351 77.6515Z" fill="#C1C7D0"/>
<path d="M161.704 82.7634H94.6159C92.0753 82.7634 90.0156 84.8231 90.0156 87.3638V173.62C90.0156 176.161 92.0753 178.22 94.6159 178.22H145.986L166.304 158.669V87.3638C166.304 84.8231 164.245 82.7634 161.704 82.7634Z" fill="#EBECF0"/>
<path d="M145.986 158.669H166.304L145.986 178.22V158.669Z" fill="#DFE1E6"/>
<path d="M145.986 178.22H125.668L145.986 158.669V178.22Z" fill="#B3BAC5"/>
<path fill-rule="evenodd" clip-rule="evenodd" d="M112.403 119.704C112.403 118.12 113.686 116.837 115.27 116.837H142.505C144.088 116.837 145.372 118.12 145.372 119.704C145.372 121.287 144.088 122.571 142.505 122.571H115.27C113.686 122.571 112.403 121.287 112.403 119.704ZM112.403 131.171C112.403 129.588 113.686 128.305 115.27 128.305H142.505C144.088 128.305 145.372 129.588 145.372 131.171C145.372 132.755 144.088 134.038 142.505 134.038H115.27C113.686 134.038 112.403 132.755 112.403 131.171ZM115.27 139.772C113.686 139.772 112.403 141.055 112.403 142.639C112.403 144.222 113.686 145.505 115.27 145.505H142.505C144.088 145.505 145.372 144.222 145.372 142.639C145.372 141.055 144.088 139.772 142.505 139.772H115.27Z" fill="white"/>
</svg>
