<svg width="256" height="256" viewBox="0 0 256 256" fill="none" xmlns="http://www.w3.org/2000/svg">
<circle opacity="0.5" cx="128" cy="128" r="128" fill="#F4F5F7"/>
<path d="M117.003 70.984C118.273 68.7837 121.087 68.0298 123.287 69.3002L181.719 103.036C183.919 104.306 184.673 107.12 183.403 109.32L139.7 185.016C138.43 187.216 135.616 187.97 133.416 186.7L74.9838 152.964C72.7835 151.694 72.0296 148.88 73.3 146.68L117.003 70.984Z" fill="#DFE1E6"/>
<path d="M119.351 77.6515C120.621 75.4512 123.435 74.6973 125.635 75.9676L175.435 104.72C177.635 105.99 178.389 108.804 177.119 111.004L138.016 178.732C136.746 180.932 133.932 181.686 131.732 180.416L81.9318 151.664C79.7315 150.393 78.9776 147.58 80.248 145.379L119.351 77.6515Z" fill="#C1C7D0"/>
<path d="M161.704 82.7634H94.6159C92.0753 82.7634 90.0156 84.8231 90.0156 87.3638V173.62C90.0156 176.161 92.0753 178.22 94.6159 178.22H145.986L166.304 158.669V87.3638C166.304 84.8231 164.245 82.7634 161.704 82.7634Z" fill="#EBECF0"/>
<path d="M145.986 158.669H166.304L145.986 178.22V158.669Z" fill="#DFE1E6"/>
<path d="M145.986 178.22H125.668L145.986 158.669V178.22Z" fill="#B3BAC5"/>
<path d="M125.567 135.135C131.404 135.135 136.135 130.404 136.135 124.567C136.135 118.731 131.404 114 125.567 114C119.731 114 115 118.731 115 124.567C115 130.404 119.731 135.135 125.567 135.135Z" stroke="white" stroke-width="3"/>
<path d="M133.24 131.967L143 141.781" stroke="white" stroke-width="3" stroke-linecap="round" stroke-linejoin="round"/>
</svg>
