<svg width="193" height="145" viewBox="0 0 193 145" fill="none" xmlns="http://www.w3.org/2000/svg">
<path d="M100.908 5.2504L12.2756 20.8787C9.82806 21.3103 8.1938 23.6443 8.62537 26.0918L24.2537 114.724C24.6853 117.172 27.0192 118.806 29.4668 118.375L118.099 102.746C120.547 102.315 122.181 99.9808 121.75 97.5333L106.121 8.90062C105.69 6.4531 103.356 4.81884 100.908 5.2504Z" fill="white" stroke="#E5E5EB" stroke-width="4.5" stroke-linecap="round" stroke-linejoin="round"/>
<path d="M117.061 70.9435L89.4972 51.643C89.011 51.297 88.4608 51.0512 87.8787 50.9198C87.2966 50.7884 86.6942 50.7741 86.1065 50.8777C85.5188 50.9813 84.9576 51.2008 84.4556 51.5234C83.9535 51.8459 83.5206 52.2651 83.1821 52.7565L62.8321 81.8193C62.4936 82.3107 62.0607 82.7299 61.5587 83.0525C61.0566 83.375 60.4954 83.5945 59.9077 83.6981C59.32 83.8018 58.7176 83.7875 58.1355 83.6561C57.5534 83.5247 57.0032 83.2788 56.5171 82.9328L43.0934 73.5335C42.6073 73.1875 42.0571 72.9416 41.475 72.8103C40.8929 72.6789 40.2905 72.6646 39.7028 72.7682C39.1151 72.8718 38.5539 73.0913 38.0518 73.4138C37.5498 73.7364 37.1169 74.1556 36.7784 74.647L21.1281 96.998" stroke="#E5E5EB" stroke-width="4.5" stroke-linecap="round" stroke-linejoin="round"/>
<path d="M46.9418 49.0367C49.3893 48.6051 51.0236 46.2712 50.592 43.8236C50.1605 41.3761 47.8265 39.7419 45.379 40.1734C42.9315 40.605 41.2972 42.9389 41.7288 45.3865C42.1603 47.834 44.4943 49.4683 46.9418 49.0367Z" fill="#E5E5EB"/>
<path d="M181.599 43.3785L92.9668 27.7502C90.5193 27.3186 88.1853 28.9529 87.7537 31.4004L72.1254 120.033C71.6938 122.481 73.3281 124.815 75.7756 125.246L164.408 140.874C166.856 141.306 169.19 139.672 169.621 137.224L185.25 48.5916C185.681 46.144 184.047 43.8101 181.599 43.3785Z" fill="white" stroke="#E5E5EB" stroke-width="4.5" stroke-linecap="round" stroke-linejoin="round"/>
<path d="M174.31 110.634L155.009 83.0705C154.671 82.579 154.238 82.1598 153.736 81.8373C153.234 81.5147 152.673 81.2953 152.085 81.1916C151.497 81.088 150.895 81.1023 150.313 81.2337C149.731 81.3651 149.18 81.6109 148.694 81.957L119.632 102.307C119.145 102.653 118.595 102.899 118.013 103.03C117.431 103.162 116.829 103.176 116.241 103.072C115.653 102.969 115.092 102.749 114.59 102.427C114.088 102.104 113.655 101.685 113.316 101.193L103.917 87.7698C103.579 87.2784 103.146 86.8592 102.644 86.5366C102.142 86.2141 101.58 85.9946 100.993 85.8909C100.405 85.7873 99.8026 85.8016 99.2205 85.933C98.6384 86.0644 98.0882 86.3103 97.602 86.6563L75.2511 102.307" stroke="#E5E5EB" stroke-width="4.5" stroke-linecap="round" stroke-linejoin="round"/>
<path d="M115.912 66.0668C118.359 66.4984 120.693 64.8641 121.125 62.4166C121.556 59.9691 119.922 57.6351 117.475 57.2035C115.027 56.772 112.693 58.4062 112.262 60.8538C111.83 63.3013 113.464 65.6352 115.912 66.0668Z" fill="#E5E5EB"/>
</svg>
