<svg xmlns="http://www.w3.org/2000/svg" width="31" height="41" viewBox="0 0 31 41">
  <path fill="#D4AB63" d="M220.869261,239.384592 L218.204228,249.573131 C217.851275,250.922488 216.595181,253.043591 215.564004,254.029149 L212.772405,256.697251 C211.742532,257.681565 211.742532,259.277452 212.772405,260.261765 C213.802279,261.246078 215.472034,261.246078 216.501908,260.261765 L219.293507,257.593663 C221.000828,255.961872 222.736328,253.03122 223.321063,250.795749 L224.579145,245.986047 L232.306357,252.028622 L232.111553,248.295612 L226.83724,253.336595 C225.807366,254.320909 225.807366,255.916796 226.83724,256.901109 C227.867114,257.885423 229.536869,257.885423 230.566743,256.901109 L235.841056,251.860126 C236.944283,250.805703 236.853779,249.071386 235.646252,248.127116 L228.533265,242.564856 C228.56816,242.475473 228.598286,242.382986 228.623252,242.287538 L229.943023,237.241998 L230.915205,240.02952 C231.743199,242.403613 234.479413,243.452265 236.782432,242.229411 L241.643079,239.648512 C242.916256,238.972483 243.374973,237.437999 242.667653,236.221147 C241.960332,235.004294 240.354823,234.56587 239.081647,235.2419 L234.220999,237.822799 C234.828068,237.500458 235.710761,237.838749 235.918858,238.435421 L234.400247,234.081135 C233.823605,232.427739 232.214705,230.896699 230.495271,230.34891 L225.93944,228.897481 C224.385726,228.402488 222.265216,228.488043 220.772127,229.09963 L217.039931,230.628382 C215.868248,231.108317 214.845755,232.223786 214.494167,233.399906 L213.460929,236.856256 L212.98052,238.463305 C212.580399,239.801774 213.391304,241.196831 214.791726,241.579251 C216.192149,241.96167 217.651777,241.186639 218.051898,239.84817 L218.532308,238.24112 L219.565545,234.78477 C219.482655,235.062051 219.408991,235.142413 219.117585,235.261777 L222.287283,233.963431 L220.869261,239.384592 L220.869261,239.384592 Z M233.976304,224.20082 C233.976304,221.880771 232.008479,220 229.581044,220 C227.153608,220 225.185783,221.880771 225.185783,224.20082 C225.185783,226.520868 227.153608,228.401639 229.581044,228.401639 C232.008479,228.401639 233.976304,226.520868 233.976304,224.20082 L233.976304,224.20082 Z" transform="translate(-212 -220)"/>
</svg>
