<svg width="146" height="52" viewBox="0 0 146 52" fill="none" xmlns="http://www.w3.org/2000/svg">
<g clip-path="url(#clip0_10442_14522)">
<path d="M41.9785 7.03484C44.6845 7.4102 46.6939 9.71843 46.6939 12.4344V16.0305C46.6939 42.875 30.2757 50.1169 24.9744 51.7542C23.9133 52.0821 22.7784 52.0821 21.7173 51.7542C16.4182 50.1147 0 42.875 0 16.0283V12.4538C0 9.73353 2.01375 7.40804 4.72624 7.0521C11.8742 6.1137 17.1343 3.20792 20.2091 1.0248C22.1057 -0.321311 24.6403 -0.34504 26.5542 0.979498C29.6942 3.15398 35.0193 6.07056 41.9828 7.03484H41.9785Z" fill="#0066FF"/>
<path d="M33.5313 37.9442C32.604 37.9442 31.8621 37.7389 31.3057 37.3282C30.7493 36.9109 30.4248 36.3247 30.332 35.5696H31.8025C31.8489 35.9538 32.0344 36.2585 32.3589 36.4837C32.6835 36.7023 33.0975 36.8116 33.6009 36.8116C34.0116 36.8116 34.3262 36.7387 34.5448 36.593C34.77 36.4472 34.8826 36.2518 34.8826 36.0068C34.8826 35.7749 34.8164 35.5895 34.6839 35.4504C34.5514 35.3046 34.3229 35.1887 33.9983 35.1026L32.6669 34.735C31.9847 34.5429 31.4846 34.2813 31.1666 33.9501C30.8553 33.6123 30.6997 33.1916 30.6997 32.6882C30.6997 32.2577 30.8089 31.8868 31.0275 31.5754C31.2527 31.2575 31.5674 31.0157 31.9714 30.8501C32.3755 30.6779 32.8491 30.5918 33.3922 30.5918C34.2268 30.5918 34.8925 30.7905 35.3893 31.1879C35.8861 31.5787 36.1676 32.0987 36.2338 32.7478H34.7634C34.6971 32.3968 34.5348 32.1385 34.2765 31.9729C34.0248 31.8073 33.7002 31.7245 33.3028 31.7245C32.9584 31.7245 32.6835 31.7907 32.4781 31.9232C32.2728 32.0557 32.1701 32.2345 32.1701 32.4597C32.1701 32.6319 32.2264 32.7909 32.339 32.9366C32.4517 33.0757 32.6868 33.195 33.0445 33.2943L34.3759 33.6619C35.078 33.854 35.5814 34.119 35.8861 34.4568C36.1974 34.788 36.3531 35.2086 36.3531 35.7186C36.3531 36.434 36.1047 36.9838 35.6079 37.368C35.1111 37.7521 34.4189 37.9442 33.5313 37.9442Z" fill="white"/>
<path d="M26.3356 37.8544V34.9631L23.6729 30.7007H25.511L27.6173 34.4862H26.7529L28.8494 30.7007H30.5285L27.8657 34.9631V37.8544H26.3356Z" fill="white"/>
<path d="M17.7573 37.8544L20.3207 30.7007H21.6323L19.2775 37.8544H17.7573ZM23.0034 37.8544L20.6586 30.7007H22.0297L24.5931 37.8544H23.0034ZM19.1086 35.0823H23.1226V36.2746H19.1086V35.0823Z" fill="white"/>
<path d="M11.934 37.8544V36.6621H13.7423C14.2589 36.6621 14.6961 36.5594 15.0538 36.3541C15.4181 36.1421 15.693 35.854 15.8784 35.4897C16.0705 35.1254 16.1666 34.7081 16.1666 34.2378C16.1666 33.7741 16.0738 33.3668 15.8884 33.0157C15.7029 32.6646 15.428 32.3898 15.0637 32.191C14.706 31.9923 14.2655 31.893 13.7423 31.893H11.9638V30.7007H13.7423C14.5437 30.7007 15.2426 30.8464 15.8387 31.1379C16.4348 31.4227 16.8952 31.8334 17.2198 32.3699C17.551 32.8998 17.7165 33.5291 17.7165 34.2577C17.7165 34.9863 17.551 35.6222 17.2198 36.1653C16.8886 36.7019 16.4249 37.1192 15.8288 37.4172C15.2392 37.7087 14.5471 37.8544 13.7522 37.8544H11.934ZM11 37.8544V30.7007H12.5301V37.8544H11Z" fill="white"/>
<path d="M30.0789 27.6342C28.8113 27.6342 27.6774 27.3032 26.6774 26.6412C25.6915 25.9652 24.9168 25.0356 24.3534 23.8524C23.79 22.6552 23.5083 21.289 23.5083 19.7537C23.5083 18.2185 23.79 16.8734 24.3534 15.7184C24.9168 14.5494 25.6915 13.6409 26.6774 12.993C27.6774 12.331 28.8113 12 30.0789 12C31.3606 12 32.4945 12.331 33.4804 12.993C34.4663 13.6409 35.241 14.5494 35.8044 15.7184C36.3678 16.8734 36.6495 18.2185 36.6495 19.7537C36.6495 21.3031 36.3678 22.6693 35.8044 23.8524C35.241 25.0356 34.4593 25.9652 33.4593 26.6412C32.4733 27.3032 31.3465 27.6342 30.0789 27.6342ZM30.0789 24.9299C30.7972 24.9299 31.3888 24.6905 31.8536 24.2116C32.3184 23.7327 32.6635 23.0989 32.8888 22.3101C33.1142 21.5214 33.2269 20.6622 33.2269 19.7326C33.2269 18.803 33.1142 17.9579 32.8888 17.1973C32.6635 16.4367 32.3184 15.8311 31.8536 15.3804C31.3888 14.9297 30.7972 14.7043 30.0789 14.7043C29.3606 14.7043 28.769 14.9367 28.3042 15.4015C27.8394 15.8522 27.4943 16.4579 27.269 17.2184C27.0436 17.979 26.9309 18.8171 26.9309 19.7326C26.9309 20.6763 27.0436 21.5425 27.269 22.3313C27.4943 23.12 27.8394 23.7538 28.3042 24.2327C28.7831 24.6975 29.3747 24.9299 30.0789 24.9299Z" fill="white"/>
<path d="M16.8734 27.6342C15.8029 27.6342 14.8381 27.4441 13.979 27.0638C13.1339 26.6694 12.4437 26.099 11.9085 25.3525C11.3873 24.5919 11.0845 23.6693 11 22.5848H14.2325C14.3452 23.458 14.6128 24.1059 15.0353 24.5285C15.4579 24.937 16.0283 25.1412 16.7466 25.1412C17.3664 25.1412 17.8805 24.9581 18.2889 24.5919C18.7115 24.2257 18.9227 23.6904 18.9227 22.9862C18.9227 22.3101 18.7185 21.7679 18.3101 21.3594C17.9157 20.9369 17.2396 20.7256 16.2818 20.7256H14.9297V18.2748H16.2184C17.0495 18.2748 17.6481 18.0917 18.0143 17.7255C18.3805 17.3593 18.5636 16.8945 18.5636 16.3311C18.5636 15.7959 18.4227 15.3592 18.141 15.0212C17.8593 14.6691 17.3804 14.493 16.7044 14.493C16.1269 14.493 15.6269 14.6691 15.2043 15.0212C14.7818 15.3733 14.5212 15.9086 14.4226 16.6269H11.169C11.2958 15.6691 11.5986 14.8451 12.0775 14.155C12.5564 13.4648 13.1972 12.9366 14.0001 12.5704C14.8029 12.1901 15.7396 12 16.81 12C17.8805 12 18.796 12.169 19.5566 12.5071C20.3312 12.831 20.9298 13.2958 21.3524 13.9015C21.7749 14.5071 21.9862 15.2325 21.9862 16.0776C21.9862 16.7818 21.8242 17.4015 21.5003 17.9368C21.1763 18.472 20.7679 18.8875 20.2749 19.1833C19.796 19.4791 19.3101 19.627 18.8171 19.627L18.796 19.1833C19.5425 19.1833 20.1833 19.3664 20.7186 19.7326C21.2538 20.0847 21.6623 20.5636 21.9439 21.1693C22.2256 21.7608 22.3665 22.4228 22.3665 23.1552C22.3665 24.0707 22.1271 24.8665 21.6482 25.5426C21.1693 26.2187 20.5143 26.7398 19.6833 27.106C18.8523 27.4581 17.9157 27.6342 16.8734 27.6342Z" fill="white"/>
</g>
<path d="M58.9672 23.1431V14.5031H61.8472L64.2472 22.8311H63.2032L65.6032 14.5031H68.4952V23.1431H66.6712V15.0191H66.9832L64.6432 23.1431H62.7352L60.4192 15.0911H60.7192V23.1431H58.9672ZM73.8778 23.2631C73.2378 23.2631 72.6458 23.1551 72.1018 22.9391C71.5658 22.7231 71.0978 22.4191 70.6978 22.0271C70.3058 21.6271 69.9978 21.1551 69.7738 20.6111C69.5578 20.0591 69.4498 19.4511 69.4498 18.7871C69.4498 17.9071 69.6378 17.1391 70.0138 16.4831C70.3898 15.8191 70.9098 15.3031 71.5738 14.9351C72.2458 14.5671 73.0098 14.3831 73.8658 14.3831C74.7378 14.3831 75.5058 14.5671 76.1698 14.9351C76.8338 15.3031 77.3538 15.8191 77.7298 16.4831C78.1138 17.1471 78.3058 17.9191 78.3058 18.7991C78.3058 19.4551 78.1938 20.0591 77.9698 20.6111C77.7538 21.1551 77.4458 21.6271 77.0458 22.0271C76.6538 22.4191 76.1858 22.7231 75.6418 22.9391C75.1058 23.1551 74.5178 23.2631 73.8778 23.2631ZM73.8658 21.7991C74.3698 21.7991 74.8138 21.6711 75.1978 21.4151C75.5818 21.1591 75.8818 20.8071 76.0978 20.3591C76.3218 19.9031 76.4338 19.3751 76.4338 18.7751C76.4338 18.1831 76.3258 17.6671 76.1098 17.2271C75.8938 16.7871 75.5938 16.4471 75.2098 16.2071C74.8258 15.9671 74.3778 15.8471 73.8658 15.8471C73.3618 15.8471 72.9178 15.9671 72.5338 16.2071C72.1498 16.4471 71.8498 16.7871 71.6338 17.2271C71.4258 17.6591 71.3218 18.1751 71.3218 18.7751C71.3218 19.3831 71.4298 19.9151 71.6458 20.3711C71.8618 20.8191 72.1618 21.1711 72.5458 21.4271C72.9298 21.6751 73.3698 21.7991 73.8658 21.7991ZM79.2641 23.1431V14.5031H81.6521L85.4921 22.1351L84.9041 22.2791V14.5031H86.7041V23.1431H84.3161L80.4761 15.5111L81.0641 15.3671V23.1431H79.2641ZM87.9008 23.1431V14.5031H89.7488V23.1431H87.9008ZM88.7648 23.1431V21.7271H94.3328V23.1431H88.7648ZM88.7648 19.4231V18.0311H93.9128V19.4231H88.7648ZM88.7648 15.9191V14.5031H94.1888V15.9191H88.7648ZM98.1019 23.1431V19.6511L94.8859 14.5031H97.1059L99.6499 19.0751H98.6059L101.138 14.5031H103.166L99.9499 19.6511V23.1431H98.1019ZM102.154 20.5991V19.1591H106.546V20.5991H102.154ZM108.971 23.1431V21.8231H111.203C111.603 21.8231 111.903 21.7151 112.103 21.4991C112.311 21.2751 112.415 20.9671 112.415 20.5751C112.415 20.1751 112.303 19.8591 112.079 19.6271C111.863 19.3951 111.551 19.2791 111.143 19.2791H108.971V17.9591H111.047C111.423 17.9591 111.707 17.8711 111.899 17.6951C112.099 17.5111 112.199 17.2431 112.199 16.8911C112.199 16.5391 112.103 16.2751 111.911 16.0991C111.727 15.9151 111.451 15.8231 111.083 15.8231H108.971V14.5031H111.479C112.247 14.5031 112.867 14.6991 113.339 15.0911C113.811 15.4831 114.047 16.0151 114.047 16.6871C114.047 17.1111 113.947 17.4751 113.747 17.7791C113.547 18.0831 113.279 18.3151 112.943 18.4751C112.607 18.6351 112.231 18.7151 111.815 18.7151L111.875 18.4631C112.323 18.4631 112.727 18.5591 113.087 18.7511C113.455 18.9431 113.747 19.2151 113.963 19.5671C114.179 19.9111 114.287 20.3191 114.287 20.7911C114.287 21.2631 114.175 21.6791 113.951 22.0391C113.735 22.3911 113.427 22.6631 113.027 22.8551C112.635 23.0471 112.171 23.1431 111.635 23.1431H108.971ZM107.459 23.1431V14.5031H109.307V23.1431H107.459ZM114.636 23.1431L117.732 14.5031H119.316L116.472 23.1431H114.636ZM120.972 23.1431L118.14 14.5031H119.796L122.892 23.1431H120.972ZM116.268 19.7951H121.116V21.2351H116.268V19.7951ZM127.29 23.2631C126.666 23.2631 126.09 23.1551 125.562 22.9391C125.034 22.7151 124.574 22.4031 124.182 22.0031C123.798 21.6031 123.498 21.1311 123.282 20.5871C123.066 20.0351 122.958 19.4351 122.958 18.7871C122.958 18.1391 123.062 17.5471 123.27 17.0111C123.486 16.4751 123.786 16.0111 124.17 15.6191C124.562 15.2191 125.022 14.9151 125.55 14.7071C126.078 14.4911 126.658 14.3831 127.29 14.3831C128.002 14.3831 128.642 14.5231 129.21 14.8031C129.786 15.0751 130.254 15.4631 130.614 15.9671C130.982 16.4631 131.206 17.0471 131.286 17.7191H129.486C129.382 17.1031 129.13 16.6391 128.73 16.3271C128.33 16.0071 127.854 15.8471 127.302 15.8471C126.814 15.8471 126.382 15.9631 126.006 16.1951C125.638 16.4271 125.35 16.7631 125.142 17.2031C124.934 17.6351 124.83 18.1591 124.83 18.7751C124.83 19.3991 124.934 19.9391 125.142 20.3951C125.358 20.8431 125.654 21.1911 126.03 21.4391C126.406 21.6791 126.838 21.7991 127.326 21.7991C127.846 21.7991 128.306 21.6431 128.706 21.3311C129.106 21.0191 129.366 20.5551 129.486 19.9391H131.31C131.206 20.6111 130.97 21.1991 130.602 21.7031C130.234 22.1991 129.766 22.5831 129.198 22.8551C128.63 23.1271 127.994 23.2631 127.29 23.2631ZM132.198 23.1431V14.5031H134.046V23.1431H132.198ZM133.458 18.6551L137.346 14.5031H139.806L135.702 18.6551H133.458ZM137.538 23.1431L133.434 18.6551H135.702L140.046 23.1431H137.538ZM63.2392 37.2631C62.3032 37.2631 61.4992 37.0791 60.8272 36.7111C60.1552 36.3431 59.6352 35.8271 59.2672 35.1631C58.9072 34.4991 58.7272 33.7231 58.7272 32.8351C58.7272 31.9551 58.9112 31.1831 59.2792 30.5191C59.6472 29.8471 60.1552 29.3231 60.8032 28.9471C61.4592 28.5711 62.2192 28.3831 63.0832 28.3831C63.7952 28.3831 64.4312 28.5111 64.9912 28.7671C65.5592 29.0231 66.0152 29.3751 66.3592 29.8231C66.7112 30.2631 66.9192 30.7751 66.9832 31.3591H65.1352C65.0552 30.8871 64.8312 30.5191 64.4632 30.2551C64.1032 29.9831 63.6512 29.8471 63.1072 29.8471C62.6032 29.8471 62.1632 29.9671 61.7872 30.2071C61.4112 30.4391 61.1192 30.7751 60.9112 31.2151C60.7032 31.6551 60.5992 32.1831 60.5992 32.7991C60.5992 33.4391 60.7032 33.9871 60.9112 34.4431C61.1192 34.8911 61.4232 35.2351 61.8232 35.4751C62.2312 35.7071 62.7312 35.8231 63.3232 35.8231C63.8032 35.8231 64.2112 35.7631 64.5472 35.6431C64.8832 35.5231 65.1392 35.3551 65.3152 35.1391L67.0672 35.8351C66.6032 36.2991 66.0632 36.6551 65.4472 36.9031C64.8392 37.1431 64.1032 37.2631 63.2392 37.2631ZM65.2192 35.8351V33.4591L65.5912 33.8311H63.3112V32.4151H67.0672V35.8351H65.2192ZM71.7075 37.2631C70.4755 37.2631 69.5515 36.9271 68.9355 36.2551C68.3275 35.5751 68.0235 34.5871 68.0235 33.2911V28.5031H69.8715V33.6151C69.8715 34.3671 70.0355 34.9191 70.3635 35.2711C70.6915 35.6231 71.1435 35.7991 71.7195 35.7991C72.2955 35.7991 72.7475 35.6231 73.0755 35.2711C73.4035 34.9191 73.5675 34.3711 73.5675 33.6271V28.5031H75.4155V33.3151C75.4155 34.5951 75.1075 35.5751 74.4915 36.2551C73.8755 36.9271 72.9475 37.2631 71.7075 37.2631ZM75.6708 37.1431L78.7668 28.5031H80.3508L77.5068 37.1431H75.6708ZM82.0068 37.1431L79.1748 28.5031H80.8308L83.9268 37.1431H82.0068ZM77.3028 33.7951H82.1508V35.2351H77.3028V33.7951ZM84.6184 37.1431V28.5031H88.4824C89.1064 28.5031 89.6504 28.6111 90.1144 28.8271C90.5784 29.0351 90.9384 29.3311 91.1944 29.7151C91.4504 30.0991 91.5784 30.5471 91.5784 31.0591C91.5784 31.5631 91.4504 32.0071 91.1944 32.3911C90.9384 32.7671 90.5784 33.0631 90.1144 33.2791C89.6504 33.4871 89.1064 33.5911 88.4824 33.5911H86.0824V32.2351H88.4344C88.8744 32.2351 89.2104 32.1351 89.4424 31.9351C89.6824 31.7271 89.8024 31.4391 89.8024 31.0711C89.8024 30.6951 89.6864 30.4111 89.4544 30.2191C89.2224 30.0191 88.8824 29.9191 88.4344 29.9191H86.4664V37.1431H84.6184ZM89.4904 37.1431L86.0224 32.6551H87.9784L91.9864 37.1431H89.4904ZM92.37 37.1431L95.466 28.5031H97.05L94.206 37.1431H92.37ZM98.706 37.1431L95.874 28.5031H97.53L100.626 37.1431H98.706ZM94.002 33.7951H98.85V35.2351H94.002V33.7951ZM101.518 37.1431V28.5031H103.906L107.746 36.1351L107.158 36.2791V28.5031H108.958V37.1431H106.57L102.73 29.5111L103.318 29.3671V37.1431H101.518ZM112.663 37.1431V29.9191H109.843V28.5031H117.331V29.9191H114.511V37.1431H112.663ZM118.217 37.1431V28.5031H120.065V37.1431H118.217ZM119.081 37.1431V35.7271H124.649V37.1431H119.081ZM119.081 33.4231V32.0311H124.229V33.4231H119.081ZM119.081 29.9191V28.5031H124.505V29.9191H119.081ZM125.729 37.1431V28.5031H127.577V37.1431H125.729ZM126.593 37.1431V35.7271H132.161V37.1431H126.593ZM126.593 33.4231V32.0311H131.741V33.4231H126.593ZM126.593 29.9191V28.5031H132.017V29.9191H126.593Z" fill="#18181B"/>
<defs>
<clipPath id="clip0_10442_14522">
<rect width="46.6939" height="52" fill="white"/>
</clipPath>
</defs>
</svg>
