<svg width="146" height="52" viewBox="0 0 146 52" fill="none" xmlns="http://www.w3.org/2000/svg">
<g clip-path="url(#clip0_11273_14638)">
<path d="M41.9785 7.0346C44.6845 7.40995 46.6939 9.71819 46.6939 12.4341V16.0302C46.6939 42.8748 30.2757 50.1166 24.9744 51.7539C23.9133 52.0818 22.7784 52.0818 21.7173 51.7539C16.4182 50.1145 0 42.8748 0 16.0281V12.4536C0 9.73329 2.01375 7.4078 4.72624 7.05185C11.8742 6.11346 17.1343 3.20767 20.2091 1.02456C22.1057 -0.321555 24.6403 -0.345284 26.5542 0.979254C29.6942 3.15374 35.0193 6.07031 41.9828 7.0346H41.9785Z" fill="#0066FF"/>
<path d="M33.5313 37.9445C32.604 37.9445 31.8621 37.7391 31.3057 37.3285C30.7493 36.9112 30.4248 36.325 30.332 35.5698H31.8025C31.8489 35.954 32.0344 36.2587 32.3589 36.4839C32.6835 36.7025 33.0975 36.8118 33.6009 36.8118C34.0116 36.8118 34.3262 36.7389 34.5448 36.5932C34.77 36.4475 34.8826 36.2521 34.8826 36.007C34.8826 35.7752 34.8164 35.5897 34.6839 35.4506C34.5514 35.3049 34.3229 35.189 33.9983 35.1029L32.6669 34.7352C31.9847 34.5431 31.4846 34.2815 31.1666 33.9503C30.8553 33.6125 30.6997 33.1919 30.6997 32.6885C30.6997 32.2579 30.8089 31.887 31.0275 31.5757C31.2527 31.2577 31.5674 31.016 31.9714 30.8504C32.3755 30.6782 32.8491 30.592 33.3922 30.592C34.2268 30.592 34.8925 30.7908 35.3893 31.1882C35.8861 31.579 36.1676 32.099 36.2338 32.7481H34.7634C34.6971 32.397 34.5348 32.1387 34.2765 31.9731C34.0248 31.8075 33.7002 31.7247 33.3028 31.7247C32.9584 31.7247 32.6835 31.791 32.4781 31.9234C32.2728 32.0559 32.1701 32.2347 32.1701 32.46C32.1701 32.6322 32.2264 32.7911 32.339 32.9369C32.4517 33.076 32.6868 33.1952 33.0445 33.2946L34.3759 33.6622C35.078 33.8543 35.5814 34.1192 35.8861 34.457C36.1974 34.7882 36.3531 35.2088 36.3531 35.7189C36.3531 36.4342 36.1047 36.984 35.6079 37.3682C35.1111 37.7524 34.4189 37.9445 33.5313 37.9445Z" fill="white"/>
<path d="M26.3356 37.8546V34.9634L23.6729 30.7009H25.511L27.6173 34.4864H26.7529L28.8494 30.7009H30.5285L27.8657 34.9634V37.8546H26.3356Z" fill="white"/>
<path d="M17.7573 37.8546L20.3207 30.7009H21.6323L19.2775 37.8546H17.7573ZM23.0034 37.8546L20.6586 30.7009H22.0297L24.5931 37.8546H23.0034ZM19.1086 35.0826H23.1226V36.2749H19.1086V35.0826Z" fill="white"/>
<path d="M11.934 37.8546V36.6624H13.7423C14.2589 36.6624 14.6961 36.5597 15.0538 36.3544C15.4181 36.1424 15.693 35.8543 15.8784 35.4899C16.0705 35.1256 16.1666 34.7083 16.1666 34.238C16.1666 33.7744 16.0738 33.367 15.8884 33.016C15.7029 32.6649 15.428 32.39 15.0637 32.1913C14.706 31.9926 14.2655 31.8932 13.7423 31.8932H11.9638V30.7009H13.7423C14.5437 30.7009 15.2426 30.8467 15.8387 31.1381C16.4348 31.4229 16.8952 31.8336 17.2198 32.3701C17.551 32.9 17.7165 33.5293 17.7165 34.2579C17.7165 34.9865 17.551 35.6224 17.2198 36.1656C16.8886 36.7021 16.4249 37.1194 15.8288 37.4175C15.2392 37.7089 14.5471 37.8546 13.7522 37.8546H11.934ZM11 37.8546V30.7009H12.5301V37.8546H11Z" fill="white"/>
<path d="M30.0789 27.6342C28.8113 27.6342 27.6774 27.3032 26.6774 26.6412C25.6915 25.9652 24.9168 25.0356 24.3534 23.8524C23.79 22.6552 23.5083 21.289 23.5083 19.7537C23.5083 18.2185 23.79 16.8734 24.3534 15.7184C24.9168 14.5494 25.6915 13.6409 26.6774 12.993C27.6774 12.331 28.8113 12 30.0789 12C31.3606 12 32.4945 12.331 33.4804 12.993C34.4663 13.6409 35.241 14.5494 35.8044 15.7184C36.3678 16.8734 36.6495 18.2185 36.6495 19.7537C36.6495 21.3031 36.3678 22.6693 35.8044 23.8524C35.241 25.0356 34.4593 25.9652 33.4593 26.6412C32.4733 27.3032 31.3465 27.6342 30.0789 27.6342ZM30.0789 24.9299C30.7972 24.9299 31.3888 24.6905 31.8536 24.2116C32.3184 23.7327 32.6635 23.0989 32.8888 22.3101C33.1142 21.5214 33.2269 20.6622 33.2269 19.7326C33.2269 18.803 33.1142 17.9579 32.8888 17.1973C32.6635 16.4367 32.3184 15.8311 31.8536 15.3804C31.3888 14.9297 30.7972 14.7043 30.0789 14.7043C29.3606 14.7043 28.769 14.9367 28.3042 15.4015C27.8394 15.8522 27.4943 16.4579 27.269 17.2184C27.0436 17.979 26.9309 18.8171 26.9309 19.7326C26.9309 20.6763 27.0436 21.5425 27.269 22.3313C27.4943 23.12 27.8394 23.7538 28.3042 24.2327C28.7831 24.6975 29.3747 24.9299 30.0789 24.9299Z" fill="white"/>
<path d="M16.8734 27.6342C15.8029 27.6342 14.8381 27.4441 13.979 27.0638C13.1339 26.6694 12.4437 26.099 11.9085 25.3525C11.3873 24.5919 11.0845 23.6693 11 22.5848H14.2325C14.3452 23.458 14.6128 24.1059 15.0353 24.5285C15.4579 24.937 16.0283 25.1412 16.7466 25.1412C17.3664 25.1412 17.8805 24.9581 18.2889 24.5919C18.7115 24.2257 18.9227 23.6904 18.9227 22.9862C18.9227 22.3101 18.7185 21.7679 18.3101 21.3594C17.9157 20.9369 17.2396 20.7256 16.2818 20.7256H14.9297V18.2748H16.2184C17.0495 18.2748 17.6481 18.0917 18.0143 17.7255C18.3805 17.3593 18.5636 16.8945 18.5636 16.3311C18.5636 15.7959 18.4227 15.3592 18.141 15.0212C17.8593 14.6691 17.3804 14.493 16.7044 14.493C16.1269 14.493 15.6269 14.6691 15.2043 15.0212C14.7818 15.3733 14.5212 15.9086 14.4226 16.6269H11.169C11.2958 15.6691 11.5986 14.8451 12.0775 14.155C12.5564 13.4648 13.1972 12.9366 14.0001 12.5704C14.8029 12.1901 15.7396 12 16.81 12C17.8805 12 18.796 12.169 19.5566 12.5071C20.3312 12.831 20.9298 13.2958 21.3524 13.9015C21.7749 14.5071 21.9862 15.2325 21.9862 16.0776C21.9862 16.7818 21.8242 17.4015 21.5003 17.9368C21.1763 18.472 20.7679 18.8875 20.2749 19.1833C19.796 19.4791 19.3101 19.627 18.8171 19.627L18.796 19.1833C19.5425 19.1833 20.1833 19.3664 20.7186 19.7326C21.2538 20.0847 21.6623 20.5636 21.9439 21.1693C22.2256 21.7608 22.3665 22.4228 22.3665 23.1552C22.3665 24.0707 22.1271 24.8665 21.6482 25.5426C21.1693 26.2187 20.5143 26.7398 19.6833 27.106C18.8523 27.4581 17.9157 27.6342 16.8734 27.6342Z" fill="white"/>
</g>
<path d="M58.9672 23.1428V14.5028H61.8472L64.2472 22.8308H63.2032L65.6032 14.5028H68.4952V23.1428H66.6712V15.0188H66.9832L64.6432 23.1428H62.7352L60.4192 15.0908H60.7192V23.1428H58.9672ZM73.8778 23.2628C73.2378 23.2628 72.6458 23.1548 72.1018 22.9388C71.5658 22.7228 71.0978 22.4188 70.6978 22.0268C70.3058 21.6268 69.9978 21.1548 69.7738 20.6108C69.5578 20.0588 69.4498 19.4508 69.4498 18.7868C69.4498 17.9068 69.6378 17.1388 70.0138 16.4828C70.3898 15.8188 70.9098 15.3028 71.5738 14.9348C72.2458 14.5668 73.0098 14.3828 73.8658 14.3828C74.7378 14.3828 75.5058 14.5668 76.1698 14.9348C76.8338 15.3028 77.3538 15.8188 77.7298 16.4828C78.1138 17.1468 78.3058 17.9188 78.3058 18.7988C78.3058 19.4548 78.1938 20.0588 77.9698 20.6108C77.7538 21.1548 77.4458 21.6268 77.0458 22.0268C76.6538 22.4188 76.1858 22.7228 75.6418 22.9388C75.1058 23.1548 74.5178 23.2628 73.8778 23.2628ZM73.8658 21.7988C74.3698 21.7988 74.8138 21.6708 75.1978 21.4148C75.5818 21.1588 75.8818 20.8068 76.0978 20.3588C76.3218 19.9028 76.4338 19.3748 76.4338 18.7748C76.4338 18.1828 76.3258 17.6668 76.1098 17.2268C75.8938 16.7868 75.5938 16.4468 75.2098 16.2068C74.8258 15.9668 74.3778 15.8468 73.8658 15.8468C73.3618 15.8468 72.9178 15.9668 72.5338 16.2068C72.1498 16.4468 71.8498 16.7868 71.6338 17.2268C71.4258 17.6588 71.3218 18.1748 71.3218 18.7748C71.3218 19.3828 71.4298 19.9148 71.6458 20.3708C71.8618 20.8188 72.1618 21.1708 72.5458 21.4268C72.9298 21.6748 73.3698 21.7988 73.8658 21.7988ZM79.2641 23.1428V14.5028H81.6521L85.4921 22.1348L84.9041 22.2788V14.5028H86.7041V23.1428H84.3161L80.4761 15.5108L81.0641 15.3668V23.1428H79.2641ZM87.9008 23.1428V14.5028H89.7488V23.1428H87.9008ZM88.7648 23.1428V21.7268H94.3328V23.1428H88.7648ZM88.7648 19.4228V18.0308H93.9128V19.4228H88.7648ZM88.7648 15.9188V14.5028H94.1888V15.9188H88.7648ZM98.1019 23.1428V19.6508L94.8859 14.5028H97.1059L99.6499 19.0748H98.6059L101.138 14.5028H103.166L99.9499 19.6508V23.1428H98.1019ZM102.154 20.5988V19.1588H106.546V20.5988H102.154ZM108.971 23.1428V21.8228H111.203C111.603 21.8228 111.903 21.7148 112.103 21.4988C112.311 21.2748 112.415 20.9668 112.415 20.5748C112.415 20.1748 112.303 19.8588 112.079 19.6268C111.863 19.3948 111.551 19.2788 111.143 19.2788H108.971V17.9588H111.047C111.423 17.9588 111.707 17.8708 111.899 17.6948C112.099 17.5108 112.199 17.2428 112.199 16.8908C112.199 16.5388 112.103 16.2748 111.911 16.0988C111.727 15.9148 111.451 15.8228 111.083 15.8228H108.971V14.5028H111.479C112.247 14.5028 112.867 14.6988 113.339 15.0908C113.811 15.4828 114.047 16.0148 114.047 16.6868C114.047 17.1108 113.947 17.4748 113.747 17.7788C113.547 18.0828 113.279 18.3148 112.943 18.4748C112.607 18.6348 112.231 18.7148 111.815 18.7148L111.875 18.4628C112.323 18.4628 112.727 18.5588 113.087 18.7508C113.455 18.9428 113.747 19.2148 113.963 19.5668C114.179 19.9108 114.287 20.3188 114.287 20.7908C114.287 21.2628 114.175 21.6788 113.951 22.0388C113.735 22.3908 113.427 22.6628 113.027 22.8548C112.635 23.0468 112.171 23.1428 111.635 23.1428H108.971ZM107.459 23.1428V14.5028H109.307V23.1428H107.459ZM114.636 23.1428L117.732 14.5028H119.316L116.472 23.1428H114.636ZM120.972 23.1428L118.14 14.5028H119.796L122.892 23.1428H120.972ZM116.268 19.7948H121.116V21.2348H116.268V19.7948ZM127.29 23.2628C126.666 23.2628 126.09 23.1548 125.562 22.9388C125.034 22.7148 124.574 22.4028 124.182 22.0028C123.798 21.6028 123.498 21.1308 123.282 20.5868C123.066 20.0348 122.958 19.4348 122.958 18.7868C122.958 18.1388 123.062 17.5468 123.27 17.0108C123.486 16.4748 123.786 16.0108 124.17 15.6188C124.562 15.2188 125.022 14.9148 125.55 14.7068C126.078 14.4908 126.658 14.3828 127.29 14.3828C128.002 14.3828 128.642 14.5228 129.21 14.8028C129.786 15.0748 130.254 15.4628 130.614 15.9668C130.982 16.4628 131.206 17.0468 131.286 17.7188H129.486C129.382 17.1028 129.13 16.6388 128.73 16.3268C128.33 16.0068 127.854 15.8468 127.302 15.8468C126.814 15.8468 126.382 15.9628 126.006 16.1948C125.638 16.4268 125.35 16.7628 125.142 17.2028C124.934 17.6348 124.83 18.1588 124.83 18.7748C124.83 19.3988 124.934 19.9388 125.142 20.3948C125.358 20.8428 125.654 21.1908 126.03 21.4388C126.406 21.6788 126.838 21.7988 127.326 21.7988C127.846 21.7988 128.306 21.6428 128.706 21.3308C129.106 21.0188 129.366 20.5548 129.486 19.9388H131.31C131.206 20.6108 130.97 21.1988 130.602 21.7028C130.234 22.1988 129.766 22.5828 129.198 22.8548C128.63 23.1268 127.994 23.2628 127.29 23.2628ZM132.198 23.1428V14.5028H134.046V23.1428H132.198ZM133.458 18.6548L137.346 14.5028H139.806L135.702 18.6548H133.458ZM137.538 23.1428L133.434 18.6548H135.702L140.046 23.1428H137.538ZM63.2392 37.2628C62.3032 37.2628 61.4992 37.0788 60.8272 36.7108C60.1552 36.3428 59.6352 35.8268 59.2672 35.1628C58.9072 34.4988 58.7272 33.7228 58.7272 32.8348C58.7272 31.9548 58.9112 31.1828 59.2792 30.5188C59.6472 29.8468 60.1552 29.3228 60.8032 28.9468C61.4592 28.5708 62.2192 28.3828 63.0832 28.3828C63.7952 28.3828 64.4312 28.5108 64.9912 28.7668C65.5592 29.0228 66.0152 29.3748 66.3592 29.8228C66.7112 30.2628 66.9192 30.7748 66.9832 31.3588H65.1352C65.0552 30.8868 64.8312 30.5188 64.4632 30.2548C64.1032 29.9828 63.6512 29.8468 63.1072 29.8468C62.6032 29.8468 62.1632 29.9668 61.7872 30.2068C61.4112 30.4388 61.1192 30.7748 60.9112 31.2148C60.7032 31.6548 60.5992 32.1828 60.5992 32.7988C60.5992 33.4388 60.7032 33.9868 60.9112 34.4428C61.1192 34.8908 61.4232 35.2348 61.8232 35.4748C62.2312 35.7068 62.7312 35.8228 63.3232 35.8228C63.8032 35.8228 64.2112 35.7628 64.5472 35.6428C64.8832 35.5228 65.1392 35.3548 65.3152 35.1388L67.0672 35.8348C66.6032 36.2988 66.0632 36.6548 65.4472 36.9028C64.8392 37.1428 64.1032 37.2628 63.2392 37.2628ZM65.2192 35.8348V33.4588L65.5912 33.8308H63.3112V32.4148H67.0672V35.8348H65.2192ZM71.7075 37.2628C70.4755 37.2628 69.5515 36.9268 68.9355 36.2548C68.3275 35.5748 68.0235 34.5868 68.0235 33.2908V28.5028H69.8715V33.6148C69.8715 34.3668 70.0355 34.9188 70.3635 35.2708C70.6915 35.6228 71.1435 35.7988 71.7195 35.7988C72.2955 35.7988 72.7475 35.6228 73.0755 35.2708C73.4035 34.9188 73.5675 34.3708 73.5675 33.6268V28.5028H75.4155V33.3148C75.4155 34.5948 75.1075 35.5748 74.4915 36.2548C73.8755 36.9268 72.9475 37.2628 71.7075 37.2628ZM75.6708 37.1428L78.7668 28.5028H80.3508L77.5068 37.1428H75.6708ZM82.0068 37.1428L79.1748 28.5028H80.8308L83.9268 37.1428H82.0068ZM77.3028 33.7948H82.1508V35.2348H77.3028V33.7948ZM84.6184 37.1428V28.5028H88.4824C89.1064 28.5028 89.6504 28.6108 90.1144 28.8268C90.5784 29.0348 90.9384 29.3308 91.1944 29.7148C91.4504 30.0988 91.5784 30.5468 91.5784 31.0588C91.5784 31.5628 91.4504 32.0068 91.1944 32.3908C90.9384 32.7668 90.5784 33.0628 90.1144 33.2788C89.6504 33.4868 89.1064 33.5908 88.4824 33.5908H86.0824V32.2348H88.4344C88.8744 32.2348 89.2104 32.1348 89.4424 31.9348C89.6824 31.7268 89.8024 31.4388 89.8024 31.0708C89.8024 30.6948 89.6864 30.4108 89.4544 30.2188C89.2224 30.0188 88.8824 29.9188 88.4344 29.9188H86.4664V37.1428H84.6184ZM89.4904 37.1428L86.0224 32.6548H87.9784L91.9864 37.1428H89.4904ZM92.37 37.1428L95.466 28.5028H97.05L94.206 37.1428H92.37ZM98.706 37.1428L95.874 28.5028H97.53L100.626 37.1428H98.706ZM94.002 33.7948H98.85V35.2348H94.002V33.7948ZM101.518 37.1428V28.5028H103.906L107.746 36.1348L107.158 36.2788V28.5028H108.958V37.1428H106.57L102.73 29.5108L103.318 29.3668V37.1428H101.518ZM112.663 37.1428V29.9188H109.843V28.5028H117.331V29.9188H114.511V37.1428H112.663ZM118.217 37.1428V28.5028H120.065V37.1428H118.217ZM119.081 37.1428V35.7268H124.649V37.1428H119.081ZM119.081 33.4228V32.0308H124.229V33.4228H119.081ZM119.081 29.9188V28.5028H124.505V29.9188H119.081ZM125.729 37.1428V28.5028H127.577V37.1428H125.729ZM126.593 37.1428V35.7268H132.161V37.1428H126.593ZM126.593 33.4228V32.0308H131.741V33.4228H126.593ZM126.593 29.9188V28.5028H132.017V29.9188H126.593Z" fill="white"/>
<defs>
<clipPath id="clip0_11273_14638">
<rect width="46.6939" height="52" fill="white"/>
</clipPath>
</defs>
</svg>
