<?xml version="1.0" encoding="utf-8"?>
<!-- Generator: Adobe Illustrator 26.3.1, SVG Export Plug-In . SVG Version: 6.00 Build 0)  -->
<svg version="1.1" id="Layer_1" xmlns="http://www.w3.org/2000/svg" xmlns:xlink="http://www.w3.org/1999/xlink" x="0px" y="0px"
	 viewBox="0 0 208 208" style="enable-background:new 0 0 208 208;" xml:space="preserve">
<style type="text/css">
	.st0{fill:#F3F3F8;}
	.st1{fill:#0066FF;}
	.st2{fill:#FFFFFF;}
</style>
<path class="st0" d="M208,104c0,57.4-46.6,104-104,104C46.6,208,0,161.4,0,104C0,46.6,46.6,0,104,0C161.4,0,208,46.6,208,104z
	 M6,104c0,54.1,43.9,98,98,98c54.1,0,98-43.9,98-98c0-54.1-43.9-98-98-98C49.9,6,6,49.9,6,104z"/>
<path class="st1" d="M175.4,175.4c1.2,1.2,1.2,3.1,0,4.2c-9.2,8.7-19.9,15.6-31.6,20.5c-12.6,5.2-26.1,7.9-39.8,7.9
	c-13.7,0-27.2-2.7-39.8-7.9c-12.6-5.2-24.1-12.9-33.7-22.5s-17.3-21.1-22.5-33.7C2.7,131.2,0,117.7,0,104c0-13.7,2.7-27.2,7.9-39.8
	c4.8-11.7,11.8-22.4,20.5-31.6c1.1-1.2,3-1.2,4.2,0l0,0c1.2,1.2,1.2,3.1,0,4.3C24.5,45.5,18,55.5,13.5,66.5C8.5,78.4,6,91.1,6,104
	c0,12.9,2.5,25.6,7.5,37.5c4.9,11.9,12.1,22.7,21.2,31.8c9.1,9.1,19.9,16.3,31.8,21.2S91.1,202,104,202c12.9,0,25.6-2.5,37.5-7.5
	c11-4.5,21-11,29.6-19.2C172.4,174.2,174.2,174.2,175.4,175.4L175.4,175.4z"/>
<path class="st2" d="M114.9,144.4c-1,0-1.9-0.3-2.8-0.8c-1-0.6-1.7-1.4-2.2-2.4l-13.8-29.3L66.8,98.1c-1-0.5-1.8-1.2-2.4-2.2
	c-0.6-1-0.8-2.1-0.7-3.2c0.1-1.1,0.5-2.2,1.2-3.1c0.7-0.9,1.7-1.5,2.8-1.8l63.8-18c0.9-0.3,1.9-0.3,2.9,0c0.9,0.2,1.8,0.7,2.5,1.4
	c0.7,0.7,1.2,1.6,1.4,2.5c0.2,0.9,0.2,1.9,0,2.9l-18,63.8c-0.3,1.1-0.9,2-1.8,2.8c-0.9,0.7-1.9,1.2-3.1,1.2
	C115.2,144.4,115.1,144.4,114.9,144.4z M132.9,75.1l-63.8,18L98.4,107c1.1,0.5,2.1,1.5,2.6,2.6l13.9,29.3L132.9,75.1z M132.9,75.1
	C132.9,75.1,132.9,75.1,132.9,75.1L132.9,75.1z M132.2,72.5L132.2,72.5L132.2,72.5z"/>
<path class="st2" d="M98.1,112.6c-0.7,0-1.4-0.3-1.9-0.8c-1.1-1.1-1.1-2.8,0-3.9l15.5-15.5c1.1-1.1,2.8-1.1,3.9,0
	c1.1,1.1,1.1,2.8,0,3.9l-15.5,15.5C99.5,112.3,98.8,112.6,98.1,112.6z"/>
</svg>
