<svg width="12" height="12" viewBox="0 0 12 12" fill="none" xmlns="http://www.w3.org/2000/svg">
<path d="M5.9948 0C4.82988 0.00221331 3.69075 0.343141 2.71615 0.981257C1.74155 1.61937 0.973547 2.52714 0.505691 3.59398C0.0378346 4.66082 -0.109684 5.84069 0.0811032 6.98988C0.27189 8.13907 0.792749 9.20798 1.58024 10.0664C2.14267 10.6761 2.82529 11.1626 3.58507 11.4954C4.34485 11.8282 5.16533 12 5.9948 12C6.82427 12 7.64474 11.8282 8.40453 11.4954C9.16431 11.1626 9.84693 10.6761 10.4094 10.0664C11.1969 9.20798 11.7177 8.13907 11.9085 6.98988C12.0993 5.84069 11.9518 4.66082 11.4839 3.59398C11.0161 2.52714 10.2481 1.61937 9.27345 0.981257C8.29885 0.343141 7.15972 0.00221331 5.9948 0ZM5.9948 10.8112C4.75059 10.8093 3.55563 10.3248 2.66135 9.45978C2.93286 8.79882 3.39473 8.23349 3.98828 7.83563C4.58182 7.43777 5.28025 7.22535 5.9948 7.22535C6.70935 7.22535 7.40778 7.43777 8.00132 7.83563C8.59487 8.23349 9.05674 8.79882 9.32825 9.45978C8.43397 10.3248 7.23901 10.8093 5.9948 10.8112ZM4.79356 4.80497C4.79356 4.56738 4.86401 4.33514 4.996 4.13759C5.128 3.94005 5.31561 3.78608 5.5351 3.69516C5.7546 3.60424 5.99613 3.58046 6.22915 3.62681C6.46217 3.67316 6.67621 3.78756 6.84421 3.95556C7.0122 4.12356 7.12661 4.3376 7.17296 4.57062C7.21931 4.80363 7.19552 5.04516 7.1046 5.26466C7.01368 5.48416 6.85972 5.67177 6.66217 5.80376C6.46463 5.93576 6.23238 6.00621 5.9948 6.00621C5.67621 6.00621 5.37067 5.87965 5.14539 5.65437C4.92012 5.4291 4.79356 5.12356 4.79356 4.80497ZM10.1451 8.40869C9.60845 7.4908 8.78252 6.77682 7.79666 6.37859C8.10248 6.03183 8.30174 5.60419 8.37054 5.14698C8.43933 4.68978 8.37474 4.22243 8.18451 3.80103C7.99428 3.37962 7.6865 3.02206 7.29809 2.77124C6.90968 2.52043 6.45715 2.38702 5.9948 2.38702C5.53245 2.38702 5.07992 2.52043 4.69151 2.77124C4.3031 3.02206 3.99532 3.37962 3.80509 3.80103C3.61486 4.22243 3.55027 4.68978 3.61906 5.14698C3.68786 5.60419 3.88712 6.03183 4.19294 6.37859C3.20708 6.77682 2.38115 7.4908 1.84451 8.40869C1.41683 7.6802 1.19087 6.85096 1.18983 6.00621C1.18983 4.73185 1.69607 3.50969 2.59718 2.60858C3.49828 1.70748 4.72044 1.20124 5.9948 1.20124C7.26916 1.20124 8.49132 1.70748 9.39242 2.60858C10.2935 3.50969 10.7998 4.73185 10.7998 6.00621C10.7987 6.85096 10.5728 7.6802 10.1451 8.40869Z" fill="#42526E"/>
</svg>
