<svg width="10" height="3" viewBox="0 0 10 3" fill="none" xmlns="http://www.w3.org/2000/svg">
<path d="M2.22222 1.88889C2.22222 1.66913 2.15706 1.45431 2.03497 1.27159C1.91288 1.08887 1.73934 0.946453 1.53632 0.862356C1.33329 0.778258 1.10988 0.756255 0.894344 0.799127C0.67881 0.842 0.480829 0.947823 0.325437 1.10321C0.170046 1.25861 0.0642226 1.45659 0.0213501 1.67212C-0.0215223 1.88766 0.000481385 2.11106 0.0845788 2.31409C0.168676 2.51712 0.31109 2.69065 0.493811 2.81274C0.676533 2.93483 0.891355 3 1.11111 3C1.4058 3 1.68841 2.88294 1.89679 2.67456C2.10516 2.46619 2.22222 2.18357 2.22222 1.88889ZM7.77778 1.88889C7.77778 2.10865 7.84294 2.32347 7.96503 2.50619C8.08712 2.68891 8.26066 2.83132 8.46369 2.91542C8.66671 2.99952 8.89012 3.02152 9.10566 2.97865C9.32119 2.93578 9.51917 2.82995 9.67456 2.67456C9.82995 2.51917 9.93578 2.32119 9.97865 2.10565C10.0215 1.89012 9.99952 1.66671 9.91542 1.46368C9.83132 1.26066 9.68891 1.08712 9.50619 0.965033C9.32347 0.842943 9.10865 0.777777 8.88889 0.777777C8.5942 0.777777 8.31159 0.894841 8.10322 1.10321C7.89484 1.31159 7.77778 1.5942 7.77778 1.88889ZM3.88889 1.88889C3.88889 2.10865 3.95405 2.32347 4.07615 2.50619C4.19824 2.68891 4.37177 2.83132 4.5748 2.91542C4.77783 2.99952 5.00123 3.02152 5.21677 2.97865C5.4323 2.93578 5.63028 2.82995 5.78567 2.67456C5.94107 2.51917 6.04689 2.32119 6.08976 2.10566C6.13263 1.89012 6.11063 1.66671 6.02653 1.46368C5.94244 1.26066 5.80002 1.08712 5.6173 0.965033C5.43458 0.842943 5.21976 0.777777 5 0.777777C4.70532 0.777777 4.4227 0.894841 4.21433 1.10321C4.00595 1.31159 3.88889 1.5942 3.88889 1.88889Z" fill="#0F62FE"/>
</svg>
