<svg width="11" height="12" viewBox="0 0 11 12" fill="none" xmlns="http://www.w3.org/2000/svg">
<path d="M4.02483 2.82866L4.79861 2.04888V9.00087C4.79861 9.15995 4.8618 9.31252 4.97429 9.42501C5.08678 9.5375 5.23935 9.6007 5.39843 9.6007C5.55752 9.6007 5.71009 9.5375 5.82258 9.42501C5.93507 9.31252 5.99826 9.15995 5.99826 9.00087V2.04888L6.77204 2.82866C6.8278 2.88488 6.89414 2.9295 6.96723 2.95996C7.04033 2.99041 7.11873 3.00609 7.19791 3.00609C7.2771 3.00609 7.3555 2.99041 7.42859 2.95996C7.50169 2.9295 7.56803 2.88488 7.62379 2.82866C7.68001 2.7729 7.72463 2.70656 7.75509 2.63346C7.78554 2.56037 7.80122 2.48197 7.80122 2.40278C7.80122 2.3236 7.78554 2.2452 7.75509 2.1721C7.72463 2.09901 7.68001 2.03267 7.62379 1.97691L5.82431 0.177428C5.76855 0.121207 5.70221 0.0765832 5.62911 0.0461308C5.55602 0.0156784 5.47762 0 5.39843 0C5.31925 0 5.24085 0.0156784 5.16776 0.0461308C5.09466 0.0765832 5.02832 0.121207 4.97256 0.177428L3.17308 1.97691C3.06013 2.08986 2.99668 2.24305 2.99668 2.40278C2.99668 2.56252 3.06013 2.71571 3.17308 2.82866C3.28603 2.94161 3.43922 3.00506 3.59896 3.00506C3.75869 3.00506 3.91188 2.94161 4.02483 2.82866ZM8.99739 4.20226H7.79774C7.63866 4.20226 7.48609 4.26546 7.3736 4.37795C7.26111 4.49044 7.19791 4.643 7.19791 4.80209C7.19791 4.96117 7.26111 5.11374 7.3736 5.22623C7.48609 5.33872 7.63866 5.40191 7.79774 5.40191H8.99739C9.15648 5.40191 9.30904 5.46511 9.42153 5.5776C9.53402 5.69009 9.59722 5.84266 9.59722 6.00174V10.2005C9.59722 10.3596 9.53402 10.5122 9.42153 10.6247C9.30904 10.7372 9.15648 10.8003 8.99739 10.8003H1.79948C1.64039 10.8003 1.48783 10.7372 1.37534 10.6247C1.26285 10.5122 1.19965 10.3596 1.19965 10.2005V6.00174C1.19965 5.84266 1.26285 5.69009 1.37534 5.5776C1.48783 5.46511 1.64039 5.40191 1.79948 5.40191H2.99913C3.15821 5.40191 3.31078 5.33872 3.42327 5.22623C3.53576 5.11374 3.59896 4.96117 3.59896 4.80209C3.59896 4.643 3.53576 4.49044 3.42327 4.37795C3.31078 4.26546 3.15821 4.20226 2.99913 4.20226H1.79948C1.32223 4.20226 0.864523 4.39185 0.527055 4.72932C0.189587 5.06678 0 5.52449 0 6.00174V10.2005C0 10.6778 0.189587 11.1355 0.527055 11.4729C0.864523 11.8104 1.32223 12 1.79948 12H8.99739C9.47464 12 9.93235 11.8104 10.2698 11.4729C10.6073 11.1355 10.7969 10.6778 10.7969 10.2005V6.00174C10.7969 5.52449 10.6073 5.06678 10.2698 4.72932C9.93235 4.39185 9.47464 4.20226 8.99739 4.20226Z" fill="white"/>
</svg>
