<svg width="12" height="12" viewBox="0 0 12 12" fill="none" xmlns="http://www.w3.org/2000/svg">
<path d="M7.2 3.6H7.8C7.95913 3.6 8.11174 3.53679 8.22426 3.42426C8.33679 3.31174 8.4 3.15913 8.4 3C8.4 2.84087 8.33679 2.68826 8.22426 2.57574C8.11174 2.46321 7.95913 2.4 7.8 2.4H7.2C7.04087 2.4 6.88826 2.46321 6.77574 2.57574C6.66321 2.68826 6.6 2.84087 6.6 3C6.6 3.15913 6.66321 3.31174 6.77574 3.42426C6.88826 3.53679 7.04087 3.6 7.2 3.6ZM7.2 6H7.8C7.95913 6 8.11174 5.93679 8.22426 5.82426C8.33679 5.71174 8.4 5.55913 8.4 5.4C8.4 5.24087 8.33679 5.08826 8.22426 4.97574C8.11174 4.86321 7.95913 4.8 7.8 4.8H7.2C7.04087 4.8 6.88826 4.86321 6.77574 4.97574C6.66321 5.08826 6.6 5.24087 6.6 5.4C6.6 5.55913 6.66321 5.71174 6.77574 5.82426C6.88826 5.93679 7.04087 6 7.2 6ZM4.2 3.6H4.8C4.95913 3.6 5.11174 3.53679 5.22426 3.42426C5.33679 3.31174 5.4 3.15913 5.4 3C5.4 2.84087 5.33679 2.68826 5.22426 2.57574C5.11174 2.46321 4.95913 2.4 4.8 2.4H4.2C4.04087 2.4 3.88826 2.46321 3.77574 2.57574C3.66321 2.68826 3.6 2.84087 3.6 3C3.6 3.15913 3.66321 3.31174 3.77574 3.42426C3.88826 3.53679 4.04087 3.6 4.2 3.6ZM4.2 6H4.8C4.95913 6 5.11174 5.93679 5.22426 5.82426C5.33679 5.71174 5.4 5.55913 5.4 5.4C5.4 5.24087 5.33679 5.08826 5.22426 4.97574C5.11174 4.86321 4.95913 4.8 4.8 4.8H4.2C4.04087 4.8 3.88826 4.86321 3.77574 4.97574C3.66321 5.08826 3.6 5.24087 3.6 5.4C3.6 5.55913 3.66321 5.71174 3.77574 5.82426C3.88826 5.93679 4.04087 6 4.2 6ZM11.4 10.8H10.8V0.6C10.8 0.44087 10.7368 0.288258 10.6243 0.175736C10.5117 0.0632141 10.3591 0 10.2 0H1.8C1.64087 0 1.48826 0.0632141 1.37574 0.175736C1.26321 0.288258 1.2 0.44087 1.2 0.6V10.8H0.6C0.44087 10.8 0.288258 10.8632 0.175736 10.9757C0.0632141 11.0883 0 11.2409 0 11.4C0 11.5591 0.0632141 11.7117 0.175736 11.8243C0.288258 11.9368 0.44087 12 0.6 12H11.4C11.5591 12 11.7117 11.9368 11.8243 11.8243C11.9368 11.7117 12 11.5591 12 11.4C12 11.2409 11.9368 11.0883 11.8243 10.9757C11.7117 10.8632 11.5591 10.8 11.4 10.8ZM6.6 10.8H5.4V8.4H6.6V10.8ZM9.6 10.8H7.8V7.8C7.8 7.64087 7.73679 7.48826 7.62426 7.37574C7.51174 7.26321 7.35913 7.2 7.2 7.2H4.8C4.64087 7.2 4.48826 7.26321 4.37574 7.37574C4.26321 7.48826 4.2 7.64087 4.2 7.8V10.8H2.4V1.2H9.6V10.8Z" fill="#0F62FE"/>
</svg>