<svg width="10" height="8" viewBox="0 0 10 8" fill="none" xmlns="http://www.w3.org/2000/svg">
<path d="M9.47346 0.806665C9.41149 0.74418 9.33775 0.694583 9.25651 0.660738C9.17527 0.626892 9.08814 0.609467 9.00013 0.609467C8.91212 0.609467 8.82498 0.626892 8.74374 0.660738C8.6625 0.694583 8.58877 0.74418 8.5268 0.806665L3.56013 5.78L1.47346 3.68667C1.40911 3.62451 1.33315 3.57563 1.24992 3.54283C1.16668 3.51002 1.0778 3.49394 0.988344 3.49549C0.89889 3.49703 0.810617 3.51619 0.728565 3.55185C0.646513 3.58751 0.572288 3.63898 0.510129 3.70333C0.44797 3.76768 0.399094 3.84364 0.366292 3.92688C0.333489 4.01011 0.317402 4.099 0.31895 4.18845C0.320497 4.2779 0.339649 4.36618 0.375311 4.44823C0.410974 4.53028 0.462448 4.60451 0.526796 4.66667L3.0868 7.22667C3.14877 7.28915 3.22251 7.33875 3.30374 7.37259C3.38498 7.40644 3.47212 7.42386 3.56013 7.42386C3.64814 7.42386 3.73527 7.40644 3.81651 7.37259C3.89775 7.33875 3.97149 7.28915 4.03346 7.22667L9.47346 1.78667C9.54113 1.72424 9.59514 1.64847 9.63208 1.56414C9.66901 1.4798 9.68808 1.38873 9.68808 1.29667C9.68808 1.2046 9.66901 1.11353 9.63208 1.02919C9.59514 0.944861 9.54113 0.869094 9.47346 0.806665Z" fill="#0F62FE"/>
</svg>