<svg width="12" height="12" viewBox="0 0 12 12" fill="none" xmlns="http://www.w3.org/2000/svg">
<path d="M6 2.4C5.9212 2.39998 5.84317 2.41548 5.77037 2.44563C5.69756 2.47578 5.63141 2.51997 5.57569 2.57569C5.51997 2.63141 5.47578 2.69756 5.44563 2.77036C5.41549 2.84317 5.39998 2.9212 5.4 3V5.63027L3.94161 6.36416C3.87124 6.39955 3.80853 6.44846 3.75706 6.50809C3.7056 6.56772 3.66638 6.6369 3.64165 6.71169C3.61692 6.78647 3.60716 6.8654 3.61294 6.94395C3.61871 7.02251 3.6399 7.09916 3.67529 7.16953C3.71069 7.23989 3.7596 7.3026 3.81923 7.35407C3.87885 7.40553 3.94804 7.44475 4.02282 7.46948C4.09761 7.49421 4.17653 7.50397 4.25509 7.4982C4.33365 7.49242 4.4103 7.47124 4.48066 7.43584L6.26953 6.53584C6.3689 6.48597 6.45244 6.40944 6.5108 6.31481C6.56916 6.22018 6.60005 6.11118 6.6 6V3C6.60002 2.9212 6.58452 2.84317 6.55437 2.77036C6.52423 2.69756 6.48003 2.63141 6.42431 2.57569C6.36859 2.51997 6.30244 2.47578 6.22964 2.44563C6.15683 2.41548 6.0788 2.39998 6 2.4ZM6 0C4.81331 0 3.65328 0.351894 2.66658 1.01118C1.67989 1.67047 0.910851 2.60754 0.456725 3.7039C0.0025997 4.80025 -0.11622 6.00665 0.115291 7.17054C0.346802 8.33443 0.918247 9.40352 1.75736 10.2426C2.59648 11.0818 3.66557 11.6532 4.82946 11.8847C5.99335 12.1162 7.19975 11.9974 8.2961 11.5433C9.39246 11.0891 10.3295 10.3201 10.9888 9.33342C11.6481 8.34672 12 7.18669 12 6C11.9982 4.40926 11.3655 2.88419 10.2406 1.75937C9.11581 0.634545 7.59074 0.00181986 6 0ZM6 10.8C5.05065 10.8 4.12262 10.5185 3.33326 9.99105C2.54391 9.46362 1.92868 8.71396 1.56538 7.83688C1.20208 6.95979 1.10702 5.99467 1.29223 5.06357C1.47744 4.13246 1.9346 3.27718 2.60589 2.60589C3.27718 1.93459 4.13246 1.47744 5.06357 1.29223C5.99468 1.10702 6.9598 1.20208 7.83688 1.56538C8.71397 1.92868 9.46362 2.54391 9.99105 3.33326C10.5185 4.12262 10.8 5.05065 10.8 6C10.7985 7.27259 10.2924 8.49264 9.3925 9.3925C8.49265 10.2924 7.27259 10.7985 6 10.8Z" fill="#42526E"/>
</svg>
