<svg width="13" height="12" viewBox="0 0 13 12" fill="none" xmlns="http://www.w3.org/2000/svg">
<path d="M7.43285 6.28654H6.85975V5.71344C6.85975 5.56145 6.79937 5.41568 6.69189 5.3082C6.58442 5.20072 6.43865 5.14034 6.28665 5.14034C6.13466 5.14034 5.98889 5.20072 5.88141 5.3082C5.77393 5.41568 5.71355 5.56145 5.71355 5.71344V6.28654H5.14045C4.98846 6.28654 4.84269 6.34692 4.73521 6.4544C4.62774 6.56188 4.56736 6.70765 4.56736 6.85964C4.56736 7.01164 4.62774 7.15741 4.73521 7.26488C4.84269 7.37236 4.98846 7.43274 5.14045 7.43274H5.71355V8.00584C5.71355 8.15783 5.77393 8.3036 5.88141 8.41108C5.98889 8.51856 6.13466 8.57894 6.28665 8.57894C6.43865 8.57894 6.58442 8.51856 6.69189 8.41108C6.79937 8.3036 6.85975 8.15783 6.85975 8.00584V7.43274H7.43285C7.58484 7.43274 7.73061 7.37236 7.83809 7.26488C7.94557 7.15741 8.00595 7.01164 8.00595 6.85964C8.00595 6.70765 7.94557 6.56188 7.83809 6.4544C7.73061 6.34692 7.58484 6.28654 7.43285 6.28654ZM10.2983 2.27485H6.69928L6.51589 1.70175C6.397 1.36548 6.17647 1.0745 5.88485 0.869132C5.59323 0.663766 5.24496 0.55418 4.88829 0.555555H2.27496C1.81897 0.555555 1.38166 0.736694 1.05923 1.05913C0.736804 1.38156 0.555664 1.81887 0.555664 2.27485V9.72513C0.555664 10.1811 0.736804 10.6184 1.05923 10.9409C1.38166 11.2633 1.81897 11.4444 2.27496 11.4444H10.2983C10.7543 11.4444 11.1916 11.2633 11.5141 10.9409C11.8365 10.6184 12.0176 10.1811 12.0176 9.72513V3.99415C12.0176 3.53816 11.8365 3.10085 11.5141 2.77842C11.1916 2.45599 10.7543 2.27485 10.2983 2.27485ZM10.8714 9.72513C10.8714 9.87713 10.8111 10.0229 10.7036 10.1304C10.5961 10.2379 10.4503 10.2982 10.2983 10.2982H2.27496C2.12297 10.2982 1.9772 10.2379 1.86972 10.1304C1.76224 10.0229 1.70186 9.87713 1.70186 9.72513V2.27485C1.70186 2.12286 1.76224 1.97709 1.86972 1.86961C1.9772 1.76213 2.12297 1.70175 2.27496 1.70175H4.88829C5.00844 1.70144 5.12564 1.7389 5.22334 1.80883C5.32104 1.87876 5.39429 1.97763 5.43273 2.09146L5.74221 3.03134C5.78065 3.14517 5.8539 3.24404 5.9516 3.31397C6.0493 3.3839 6.16651 3.42136 6.28665 3.42105H10.2983C10.4503 3.42105 10.5961 3.48143 10.7036 3.58891C10.8111 3.69638 10.8714 3.84215 10.8714 3.99415V9.72513Z" fill="#0F62FE"/>
</svg>
