<svg width="6" height="6" viewBox="0 0 6 6" fill="none" xmlns="http://www.w3.org/2000/svg">
<path d="M3.46998 3.00002L4.90331 1.57002C4.96608 1.50725 5.00134 1.42212 5.00134 1.33335C5.00134 1.24459 4.96608 1.15946 4.90331 1.09669C4.84054 1.03392 4.75541 0.998657 4.66665 0.998657C4.57788 0.998657 4.49275 1.03392 4.42998 1.09669L2.99998 2.53002L1.56998 1.09669C1.50721 1.03392 1.42208 0.998657 1.33331 0.998657C1.24455 0.998657 1.15941 1.03392 1.09665 1.09669C1.03388 1.15946 0.998616 1.24459 0.998616 1.33335C0.998616 1.42212 1.03388 1.50725 1.09665 1.57002L2.52998 3.00002L1.09665 4.43002C1.0654 4.46101 1.04061 4.49788 1.02368 4.5385C1.00676 4.57912 0.998047 4.62268 0.998047 4.66669C0.998047 4.71069 1.00676 4.75426 1.02368 4.79488C1.04061 4.8355 1.0654 4.87237 1.09665 4.90335C1.12763 4.9346 1.1645 4.9594 1.20512 4.97632C1.24574 4.99324 1.28931 5.00195 1.33331 5.00195C1.37732 5.00195 1.42089 4.99324 1.46151 4.97632C1.50212 4.9594 1.53899 4.9346 1.56998 4.90335L2.99998 3.47002L4.42998 4.90335C4.46097 4.9346 4.49783 4.9594 4.53845 4.97632C4.57907 4.99324 4.62264 5.00195 4.66665 5.00195C4.71065 5.00195 4.75422 4.99324 4.79484 4.97632C4.83546 4.9594 4.87232 4.9346 4.90331 4.90335C4.93456 4.87237 4.95935 4.8355 4.97628 4.79488C4.9932 4.75426 5.00191 4.71069 5.00191 4.66669C5.00191 4.62268 4.9932 4.57912 4.97628 4.5385C4.95935 4.49788 4.93456 4.46101 4.90331 4.43002L3.46998 3.00002Z" fill="#C1C7D0"/>
</svg>
