<svg width="6" height="6" viewBox="0 0 6 6" fill="none" xmlns="http://www.w3.org/2000/svg">
<path d="M3.47004 2.9999L4.90337 1.5699C4.96614 1.50713 5.0014 1.422 5.0014 1.33323C5.0014 1.24447 4.96614 1.15933 4.90337 1.09657C4.84061 1.0338 4.75547 0.998535 4.66671 0.998535C4.57794 0.998535 4.49281 1.0338 4.43004 1.09657L3.00004 2.5299L1.57004 1.09657C1.50727 1.0338 1.42214 0.998535 1.33337 0.998535C1.24461 0.998535 1.15948 1.0338 1.09671 1.09657C1.03394 1.15933 0.998677 1.24447 0.998677 1.33323C0.998677 1.422 1.03394 1.50713 1.09671 1.5699L2.53004 2.9999L1.09671 4.4299C1.06546 4.46089 1.04067 4.49775 1.02374 4.53837C1.00682 4.57899 0.998108 4.62256 0.998108 4.66657C0.998108 4.71057 1.00682 4.75414 1.02374 4.79476C1.04067 4.83538 1.06546 4.87224 1.09671 4.90323C1.12769 4.93448 1.16456 4.95927 1.20518 4.9762C1.2458 4.99312 1.28937 5.00183 1.33337 5.00183C1.37738 5.00183 1.42095 4.99312 1.46157 4.9762C1.50219 4.95927 1.53905 4.93448 1.57004 4.90323L3.00004 3.4699L4.43004 4.90323C4.46103 4.93448 4.4979 4.95927 4.53851 4.9762C4.57913 4.99312 4.6227 5.00183 4.66671 5.00183C4.71071 5.00183 4.75428 4.99312 4.7949 4.9762C4.83552 4.95927 4.87239 4.93448 4.90337 4.90323C4.93462 4.87224 4.95941 4.83538 4.97634 4.79476C4.99326 4.75414 5.00197 4.71057 5.00197 4.66657C5.00197 4.62256 4.99326 4.57899 4.97634 4.53837C4.95941 4.49775 4.93462 4.46089 4.90337 4.4299L3.47004 2.9999Z" fill="white"/>
</svg>
