<svg width="13" height="12" viewBox="0 0 13 12" fill="none" xmlns="http://www.w3.org/2000/svg">
<path d="M12.1053 6.60296C12.0163 6.52935 11.9083 6.48223 11.7938 6.46696C11.6793 6.45169 11.5628 6.46889 11.4575 6.51659C10.8052 6.81512 10.0959 6.96877 9.37844 6.96696C8.05132 6.96536 6.77865 6.43913 5.83792 5.50303C4.89719 4.56692 4.3647 3.29686 4.35656 1.96975C4.35938 1.55383 4.41114 1.13969 4.5108 0.735877C4.53194 0.628245 4.52401 0.516922 4.48782 0.413375C4.45163 0.309829 4.38848 0.217804 4.30489 0.146782C4.2213 0.0757597 4.12028 0.0283087 4.01225 0.00931737C3.90422 -0.009674 3.79307 0.000481041 3.69027 0.0387363C2.72311 0.473622 1.88237 1.14723 1.24704 1.99627C0.611712 2.84532 0.20264 3.84193 0.0582573 4.89249C-0.0861252 5.94305 0.0389204 7.01308 0.421647 8.00204C0.804374 8.991 1.43222 9.86643 2.2462 10.5461C3.06018 11.2258 4.03358 11.6874 5.07495 11.8875C6.11633 12.0877 7.19149 12.0199 8.19944 11.6904C9.20739 11.3609 10.115 10.7806 10.8371 10.004C11.5592 9.22739 12.072 8.27998 12.3274 7.25075C12.3585 7.13291 12.354 7.0085 12.3145 6.89321C12.275 6.77793 12.2022 6.67693 12.1053 6.60296ZM6.2444 10.7303C5.20902 10.723 4.20122 10.3958 3.35897 9.79361C2.51672 9.19139 1.8812 8.34356 1.53942 7.3662C1.19765 6.38883 1.16633 5.32972 1.44976 4.33387C1.73318 3.33802 2.31749 2.45411 3.12269 1.80318V1.96975C3.12432 3.62838 3.78393 5.21861 4.95676 6.39144C6.12959 7.56427 7.71981 8.22388 9.37844 8.22551C9.81393 8.22711 10.2483 8.1816 10.674 8.08979C10.2483 8.89521 9.6107 9.56911 8.83008 10.0388C8.04946 10.5085 7.15542 10.7561 6.2444 10.755V10.7303Z" fill="#0F62FE"/>
</svg>
