<svg width="8" height="8" viewBox="0 0 8 8" fill="none" xmlns="http://www.w3.org/2000/svg">
<path d="M5.45527 4.28373C5.8472 3.97537 6.13327 3.55252 6.27369 3.074C6.41411 2.59549 6.40189 2.0851 6.23873 1.61385C6.07557 1.14261 5.76959 0.733932 5.36335 0.444684C4.95711 0.155436 4.47082 0 3.97212 0C3.47343 0 2.98714 0.155436 2.5809 0.444684C2.17466 0.733932 1.86867 1.14261 1.70551 1.61385C1.54236 2.0851 1.53014 2.59549 1.67055 3.074C1.81097 3.55252 2.09705 3.97537 2.48898 4.28373C1.8174 4.55279 1.23142 4.99906 0.793512 5.57495C0.355607 6.15085 0.0821905 6.83478 0.00241135 7.55384C-0.00336349 7.60634 0.00125863 7.65946 0.0160137 7.71018C0.0307687 7.76089 0.0553678 7.8082 0.0884064 7.8494C0.155131 7.93262 0.252181 7.98592 0.358206 7.99759C0.464232 8.00925 0.570548 7.97832 0.653766 7.91159C0.736984 7.84487 0.790288 7.74782 0.80195 7.64179C0.889734 6.86032 1.26236 6.13858 1.84863 5.61448C2.43491 5.09037 3.19373 4.80064 3.98012 4.80064C4.76651 4.80064 5.52533 5.09037 6.1116 5.61448C6.69788 6.13858 7.0705 6.86032 7.15829 7.64179C7.16915 7.74002 7.21603 7.83075 7.28985 7.89645C7.36368 7.96216 7.45923 7.99819 7.55805 7.99759H7.60203C7.70682 7.98553 7.8026 7.93254 7.8685 7.85017C7.9344 7.7678 7.96507 7.66272 7.95383 7.55784C7.87367 6.83674 7.59878 6.15105 7.15863 5.57427C6.71847 4.99749 6.12964 4.55137 5.45527 4.28373ZM3.97212 3.99989C3.65585 3.99989 3.34669 3.90611 3.08372 3.7304C2.82076 3.55469 2.6158 3.30495 2.49477 3.01275C2.37374 2.72056 2.34207 2.39904 2.40377 2.08885C2.46547 1.77866 2.61777 1.49373 2.8414 1.27009C3.06504 1.04646 3.34997 0.894163 3.66016 0.832462C3.97035 0.770761 4.29187 0.802428 4.58406 0.923459C4.87626 1.04449 5.126 1.24945 5.30171 1.51241C5.47742 1.77538 5.5712 2.08455 5.5712 2.40081C5.5712 2.82492 5.40273 3.23165 5.10284 3.53153C4.80296 3.83142 4.39622 3.99989 3.97212 3.99989Z" fill="#0F62FE"/>
</svg>
