<svg width="15" height="19" viewBox="0 0 15 19" fill="none" xmlns="http://www.w3.org/2000/svg">
<path d="M8.63227 5.32068V0.539429H1.19693C0.702478 0.539429 0.304688 0.915601 0.304688 1.38318V17.6957C0.304688 18.1633 0.702478 18.5394 1.19693 18.5394H13.6883C14.1828 18.5394 14.5805 18.1633 14.5805 17.6957V6.16443H9.52452C9.03378 6.16443 8.63227 5.78474 8.63227 5.32068ZM10.8666 9.06482L8.63227 12.3519L10.8666 15.639C11.0562 15.9203 10.8443 16.2894 10.4911 16.2894H9.19364C9.03006 16.2894 8.87764 16.2051 8.79957 16.0679C8.07091 14.7953 7.44262 13.6527 7.44262 13.6527C7.20469 14.173 7.07085 14.3558 6.08195 16.0715C6.00388 16.2086 5.85517 16.2929 5.69159 16.2929H4.39413C4.04095 16.2929 3.82904 15.9238 4.01864 15.6426L6.2604 12.3554L4.01864 9.06834C3.82532 8.78709 4.04095 8.41794 4.39413 8.41794H5.68788C5.85145 8.41794 6.00388 8.50232 6.08195 8.63943C7.05226 10.3551 6.82548 9.82068 7.44262 11.0476C7.44262 11.0476 7.6694 10.6363 8.80329 8.63943C8.88136 8.50232 9.03378 8.41794 9.19736 8.41794H10.4911C10.8443 8.41443 11.0562 8.78357 10.8666 9.06482ZM14.5805 4.82498V5.03943H9.82193V0.539429H10.0487C10.2866 0.539429 10.5134 0.627319 10.6807 0.785522L14.3203 4.23083C14.4876 4.38904 14.5805 4.60349 14.5805 4.82498Z" fill="#42526E"/>
</svg>
