<svg width="10" height="11" viewBox="0 0 10 11" fill="none" xmlns="http://www.w3.org/2000/svg">
<path d="M9.2565 2.178H7.0785V1.6335C7.0785 1.20027 6.9064 0.784782 6.60006 0.478441C6.29372 0.1721 5.87823 0 5.445 0H4.356C3.92277 0 3.50728 0.1721 3.20094 0.478441C2.8946 0.784782 2.7225 1.20027 2.7225 1.6335V2.178H0.5445C0.40009 2.178 0.261594 2.23537 0.15948 2.33748C0.0573668 2.43959 0 2.57809 0 2.7225C0 2.86691 0.0573668 3.00541 0.15948 3.10752C0.261594 3.20963 0.40009 3.267 0.5445 3.267H1.089V9.2565C1.089 9.68973 1.2611 10.1052 1.56744 10.4116C1.87378 10.7179 2.28927 10.89 2.7225 10.89H7.0785C7.51173 10.89 7.92722 10.7179 8.23356 10.4116C8.5399 10.1052 8.712 9.68973 8.712 9.2565V3.267H9.2565C9.40091 3.267 9.53941 3.20963 9.64152 3.10752C9.74363 3.00541 9.801 2.86691 9.801 2.7225C9.801 2.57809 9.74363 2.43959 9.64152 2.33748C9.53941 2.23537 9.40091 2.178 9.2565 2.178ZM3.8115 1.6335C3.8115 1.48909 3.86887 1.35059 3.97098 1.24848C4.07309 1.14637 4.21159 1.089 4.356 1.089H5.445C5.58941 1.089 5.72791 1.14637 5.83002 1.24848C5.93213 1.35059 5.9895 1.48909 5.9895 1.6335V2.178H3.8115V1.6335ZM7.623 9.2565C7.623 9.40091 7.56563 9.53941 7.46352 9.64152C7.36141 9.74363 7.22291 9.801 7.0785 9.801H2.7225C2.57809 9.801 2.43959 9.74363 2.33748 9.64152C2.23537 9.53941 2.178 9.40091 2.178 9.2565V3.267H7.623V9.2565Z" fill="#0F62FE"/>
</svg>
