<svg width="14" height="12" viewBox="0 0 14 12" fill="none" xmlns="http://www.w3.org/2000/svg">
<path d="M11.3333 0H2C1.46957 0 0.960859 0.210714 0.585786 0.585787C0.210714 0.960859 0 1.46957 0 2V7.33333C0 7.86377 0.210714 8.37247 0.585786 8.74755C0.960859 9.12262 1.46957 9.33333 2 9.33333H6V10.6667H3.33333C3.15652 10.6667 2.98695 10.7369 2.86193 10.8619C2.7369 10.987 2.66667 11.1565 2.66667 11.3333C2.66667 11.5101 2.7369 11.6797 2.86193 11.8047C2.98695 11.9298 3.15652 12 3.33333 12H10C10.1768 12 10.3464 11.9298 10.4714 11.8047C10.5964 11.6797 10.6667 11.5101 10.6667 11.3333C10.6667 11.1565 10.5964 10.987 10.4714 10.8619C10.3464 10.7369 10.1768 10.6667 10 10.6667H7.33333V9.33333H11.3333C11.8638 9.33333 12.3725 9.12262 12.7475 8.74755C13.1226 8.37247 13.3333 7.86377 13.3333 7.33333V2C13.3333 1.46957 13.1226 0.960859 12.7475 0.585787C12.3725 0.210714 11.8638 0 11.3333 0ZM12 7.33333C12 7.51014 11.9298 7.67971 11.8047 7.80474C11.6797 7.92976 11.5101 8 11.3333 8H2C1.82319 8 1.65362 7.92976 1.5286 7.80474C1.40357 7.67971 1.33333 7.51014 1.33333 7.33333V2C1.33333 1.82319 1.40357 1.65362 1.5286 1.5286C1.65362 1.40357 1.82319 1.33333 2 1.33333H11.3333C11.5101 1.33333 11.6797 1.40357 11.8047 1.5286C11.9298 1.65362 12 1.82319 12 2V7.33333Z" fill="#42526E"/>
</svg>
