<svg width="6" height="6" viewBox="0 0 6 6" fill="none" xmlns="http://www.w3.org/2000/svg">
<path d="M3.35735 3.24917C3.3105 3.20194 3.25477 3.16445 3.19337 3.13887C3.13196 3.11328 3.0661 3.10011 2.99958 3.10011C2.93306 3.10011 2.8672 3.11329 2.80579 3.13887C2.74439 3.16445 2.68866 3.20194 2.64181 3.24917L1.13011 4.76086C1.08181 4.80785 1.04323 4.86388 1.01658 4.92578C0.98993 4.98767 0.975732 5.0542 0.974796 5.12158C0.97386 5.18896 0.986205 5.25587 1.01113 5.31848C1.03605 5.38108 1.07305 5.43817 1.12004 5.48648C1.16702 5.53478 1.22306 5.57336 1.28495 5.60001C1.34684 5.62666 1.41338 5.64086 1.48076 5.6418C1.54814 5.64273 1.61504 5.63039 1.67765 5.60547C1.74026 5.58055 1.79735 5.54354 1.84565 5.49656L2.99958 4.31743L4.15351 5.49656C4.25107 5.59144 4.38232 5.64369 4.5184 5.6418C4.65448 5.63991 4.78424 5.58404 4.87912 5.48648C4.97401 5.38892 5.02625 5.25766 5.02436 5.12158C5.02247 4.9855 4.9666 4.85575 4.86905 4.76086L3.35735 3.24917ZM1.84565 2.70496L2.99958 1.54599L4.15351 2.70496C4.25107 2.79984 4.38232 2.85209 4.5184 2.8502C4.65448 2.84831 4.78424 2.79244 4.87912 2.69488C4.97401 2.59732 5.02625 2.46606 5.02436 2.32998C5.02247 2.1939 4.9666 2.06415 4.86905 1.96926L3.35735 0.457566C3.3105 0.410336 3.25477 0.372849 3.19337 0.347267C3.13196 0.321685 3.0661 0.308513 2.99958 0.308513C2.93306 0.308513 2.8672 0.321685 2.80579 0.347267C2.74439 0.372849 2.68866 0.410336 2.64181 0.457566L1.13011 1.96926C1.03523 2.06415 0.981922 2.19284 0.981922 2.32703C0.981922 2.46122 1.03523 2.58991 1.13011 2.6848C1.225 2.77969 1.35369 2.83299 1.48788 2.83299C1.62207 2.83299 1.75077 2.77969 1.84565 2.6848L1.84565 2.70496Z" fill="#0F62FE"/>
</svg>
