<svg width="6" height="6" viewBox="0 0 6 6" fill="none" xmlns="http://www.w3.org/2000/svg">
<path d="M3.35759 3.24917C3.31075 3.20194 3.25502 3.16445 3.19361 3.13887C3.13221 3.11328 3.06634 3.10011 2.99982 3.10011C2.9333 3.10011 2.86744 3.11329 2.80604 3.13887C2.74463 3.16445 2.6889 3.20194 2.64206 3.24917L1.13036 4.76086C1.08205 4.80785 1.04347 4.86388 1.01682 4.92578C0.990174 4.98767 0.975976 5.0542 0.97504 5.12158C0.974104 5.18896 0.986449 5.25587 1.01137 5.31848C1.03629 5.38108 1.0733 5.43817 1.12028 5.48648C1.16726 5.53478 1.2233 5.57336 1.28519 5.60001C1.34709 5.62666 1.41362 5.64086 1.481 5.6418C1.54838 5.64273 1.61528 5.63039 1.67789 5.60547C1.7405 5.58055 1.79759 5.54354 1.8459 5.49656L2.99982 4.31743L4.15375 5.49656C4.25131 5.59144 4.38257 5.64369 4.51865 5.6418C4.65473 5.63991 4.78448 5.58404 4.87937 5.48648C4.97425 5.38892 5.0265 5.25766 5.02461 5.12158C5.02272 4.9855 4.96685 4.85575 4.86929 4.76086L3.35759 3.24917ZM1.8459 2.70496L2.99982 1.54599L4.15375 2.70496C4.25131 2.79984 4.38257 2.85209 4.51865 2.8502C4.65473 2.84831 4.78448 2.79244 4.87937 2.69488C4.97425 2.59732 5.0265 2.46606 5.02461 2.32998C5.02272 2.1939 4.96685 2.06415 4.86929 1.96926L3.35759 0.457566C3.31075 0.410336 3.25502 0.372849 3.19361 0.347267C3.13221 0.321685 3.06634 0.308513 2.99982 0.308513C2.9333 0.308513 2.86744 0.321685 2.80604 0.347267C2.74463 0.372849 2.6889 0.410336 2.64206 0.457566L1.13036 1.96926C1.03547 2.06415 0.982166 2.19284 0.982166 2.32703C0.982166 2.46122 1.03547 2.58991 1.13036 2.6848C1.22524 2.77969 1.35394 2.83299 1.48813 2.83299C1.62232 2.83299 1.75101 2.77969 1.8459 2.6848L1.8459 2.70496Z" fill="white"/>
</svg>
