<svg width="8" height="6" viewBox="0 0 8 6" fill="none" xmlns="http://www.w3.org/2000/svg">
<path d="M3.53173 0.221528C3.46211 0.151333 3.37928 0.0956183 3.28801 0.0575969C3.19675 0.0195755 3.09887 0 3 0C2.90113 0 2.80325 0.0195755 2.71198 0.0575969C2.62072 0.0956183 2.53789 0.151333 2.46827 0.221528L0.221528 2.46827C0.151333 2.53789 0.0956183 2.62072 0.0575969 2.71198C0.0195755 2.80325 0 2.90113 0 3C0 3.09887 0.0195755 3.19675 0.0575969 3.28801C0.0956183 3.37928 0.151333 3.46211 0.221528 3.53173L2.46827 5.77847C2.53789 5.84867 2.62072 5.90438 2.71198 5.9424C2.80325 5.98042 2.90113 6 3 6C3.09887 6 3.19675 5.98042 3.28801 5.9424C3.37928 5.90438 3.46211 5.84867 3.53173 5.77847C3.60192 5.70885 3.65764 5.62602 3.69566 5.53476C3.73368 5.4435 3.75326 5.34561 3.75326 5.24674C3.75326 5.14788 3.73368 5.04999 3.69566 4.95873C3.65764 4.86747 3.60192 4.78464 3.53173 4.71501L1.80923 3L3.53173 1.28499C3.60192 1.21536 3.65764 1.13253 3.69566 1.04127C3.73368 0.95001 3.75326 0.852122 3.75326 0.753257C3.75326 0.654391 3.73368 0.556504 3.69566 0.465242C3.65764 0.37398 3.60192 0.291149 3.53173 0.221528ZM5.92826 3L7.68071 1.28499C7.82174 1.14396 7.90096 0.952694 7.90096 0.753257C7.90096 0.55382 7.82174 0.362551 7.68071 0.221528C7.53969 0.0805042 7.34842 0.0012781 7.14899 0.0012781C6.94955 0.0012781 6.75828 0.0805042 6.61726 0.221528L4.37051 2.46827C4.30032 2.53789 4.2446 2.62072 4.20658 2.71198C4.16856 2.80325 4.14899 2.90113 4.14899 3C4.14899 3.09887 4.16856 3.19675 4.20658 3.28801C4.2446 3.37928 4.30032 3.46211 4.37051 3.53173L6.61726 5.77847C6.68688 5.84867 6.76971 5.90438 6.86097 5.9424C6.95223 5.98042 7.05012 6 7.14899 6C7.24785 6 7.34574 5.98042 7.437 5.9424C7.52826 5.90438 7.61109 5.84867 7.68071 5.77847C7.75091 5.70885 7.80662 5.62602 7.84465 5.53476C7.88267 5.4435 7.90224 5.34561 7.90224 5.24674C7.90224 5.14788 7.88267 5.04999 7.84465 4.95873C7.80662 4.86747 7.75091 4.78464 7.68071 4.71501L5.92826 3Z" fill="#7A869A"/>
</svg>
