<svg width="11" height="11" viewBox="0 0 11 11" fill="none" xmlns="http://www.w3.org/2000/svg">
<path d="M6.64549 8.25481L5.94844 8.95727V5.9367C5.94844 5.79339 5.89151 5.65595 5.79017 5.55461C5.68884 5.45328 5.5514 5.39635 5.40808 5.39635C5.26477 5.39635 5.12733 5.45328 5.026 5.55461C4.92466 5.65595 4.86773 5.79339 4.86773 5.9367V8.95727L4.17068 8.25481C4.1203 8.20443 4.06048 8.16447 3.99466 8.1372C3.92883 8.10993 3.85828 8.0959 3.78703 8.0959C3.71578 8.0959 3.64522 8.10993 3.5794 8.1372C3.51357 8.16447 3.45376 8.20443 3.40338 8.25481C3.35299 8.3052 3.31303 8.36501 3.28576 8.43083C3.2585 8.49666 3.24446 8.56721 3.24446 8.63846C3.24446 8.70971 3.2585 8.78027 3.28576 8.84609C3.31303 8.91192 3.35299 8.97173 3.40338 9.02211L5.02443 10.6432C5.07582 10.6924 5.13642 10.7309 5.20275 10.7566C5.26743 10.7852 5.33737 10.8 5.40808 10.8C5.4788 10.8 5.54874 10.7852 5.61342 10.7566C5.67975 10.7309 5.74035 10.6924 5.79174 10.6432L7.41279 9.02211C7.51454 8.92036 7.57171 8.78236 7.57171 8.63846C7.57171 8.49457 7.51454 8.35656 7.41279 8.25481C7.31104 8.15306 7.17304 8.0959 7.02914 8.0959C6.88525 8.0959 6.74724 8.15306 6.64549 8.25481ZM8.87715 2.27311C8.54699 1.51446 7.97718 0.884983 7.25505 0.481151C6.53291 0.077318 5.69829 -0.0785977 4.87906 0.0372955C4.05984 0.153189 3.30121 0.534498 2.71943 1.12279C2.13765 1.71109 1.7648 2.47391 1.65804 3.29437C1.14286 3.41775 0.690926 3.72603 0.388067 4.16066C0.0852076 4.5953 -0.0474866 5.12602 0.0151833 5.65205C0.0778532 6.17808 0.331523 6.66277 0.728018 7.01409C1.12451 7.3654 1.63622 7.55887 2.16597 7.55776C2.30928 7.55776 2.44672 7.50083 2.54806 7.39949C2.64939 7.29816 2.70632 7.16072 2.70632 7.01741C2.70632 6.87409 2.64939 6.73665 2.54806 6.63532C2.44672 6.53398 2.30928 6.47705 2.16597 6.47705C1.87935 6.47705 1.60447 6.36319 1.40179 6.16052C1.19912 5.95785 1.08526 5.68297 1.08526 5.39635C1.08526 5.10973 1.19912 4.83484 1.40179 4.63217C1.60447 4.4295 1.87935 4.31564 2.16597 4.31564C2.30928 4.31564 2.44672 4.25871 2.54806 4.15738C2.64939 4.05604 2.70632 3.9186 2.70632 3.77529C2.7077 3.1362 2.93559 2.51829 3.34949 2.03135C3.76339 1.5444 4.33651 1.21993 4.96702 1.1156C5.59754 1.01127 6.24462 1.13383 6.79332 1.4615C7.34201 1.78917 7.75679 2.30074 7.96395 2.90532C7.99484 2.99817 8.05036 3.0809 8.12459 3.14466C8.19882 3.20842 8.28898 3.25083 8.38543 3.26736C8.74534 3.33537 9.07161 3.52327 9.31107 3.80043C9.55053 4.0776 9.68906 4.42769 9.7041 4.79366C9.71914 5.15963 9.6098 5.51991 9.39389 5.81579C9.17798 6.11166 8.86823 6.3257 8.51511 6.42302C8.44628 6.44076 8.38162 6.47188 8.32482 6.51461C8.26801 6.55734 8.22018 6.61084 8.18405 6.67206C8.14793 6.73327 8.12421 6.801 8.11426 6.87138C8.10431 6.94176 8.10832 7.01342 8.12606 7.08225C8.1438 7.15108 8.17492 7.21574 8.21765 7.27255C8.26038 7.32935 8.31388 7.37718 8.3751 7.41331C8.43631 7.44943 8.50404 7.47315 8.57443 7.4831C8.64481 7.49305 8.71646 7.48904 8.78529 7.4713C9.35395 7.32104 9.85804 6.9893 10.221 6.52648C10.584 6.06365 10.786 5.49502 10.7964 4.90693C10.8068 4.31885 10.625 3.74343 10.2786 3.26807C9.9322 2.79271 9.44015 2.44337 8.87715 2.27311Z" fill="#0F62FE"/>
</svg>
