<svg width="17" height="17" viewBox="0 0 17 17" fill="none" xmlns="http://www.w3.org/2000/svg">
<path d="M13.8315 4.04497C13.3166 2.86183 12.428 1.88016 11.3018 1.25037C10.1756 0.620579 8.87398 0.377425 7.59637 0.558163C6.31877 0.738902 5.13567 1.33356 4.22837 2.25102C3.32106 3.16848 2.73961 4.35813 2.5731 5.63767C1.8671 5.80962 1.23558 6.20511 0.772639 6.76519C0.309702 7.32527 0.0401446 8.01995 0.00414173 8.74569C-0.0318611 9.47143 0.167619 10.1894 0.57285 10.7925C0.978081 11.3957 1.56737 11.8517 2.25288 12.0927C2.34027 12.1196 2.43109 12.1338 2.52254 12.1348C2.74603 12.1706 2.97458 12.1161 3.1579 11.9834C3.34123 11.8506 3.4643 11.6505 3.50006 11.427C3.53582 11.2035 3.48133 10.9749 3.34858 10.7916C3.21583 10.6083 3.0157 10.4852 2.7922 10.4495C2.47443 10.3347 2.19846 10.1272 2.00011 9.8537C1.80176 9.58021 1.69018 9.25343 1.67984 8.91575C1.67984 8.46876 1.85741 8.04007 2.17348 7.724C2.48955 7.40793 2.91824 7.23036 3.36523 7.23036C3.58873 7.23036 3.80307 7.14157 3.96111 6.98354C4.11914 6.8255 4.20793 6.61116 4.20793 6.38766C4.21008 5.39099 4.56547 4.42735 5.21096 3.66794C5.85645 2.90853 6.75024 2.40252 7.73355 2.23981C8.71686 2.07711 9.726 2.26824 10.5817 2.77925C11.4374 3.29026 12.0843 4.08807 12.4073 5.03093C12.4555 5.17573 12.5421 5.30474 12.6579 5.40418C12.7736 5.50362 12.9142 5.56976 13.0646 5.59553C13.5714 5.68725 14.038 5.93154 14.4022 6.29571C14.7663 6.65989 15.0105 7.12657 15.1021 7.63333C15.1938 8.14009 15.1285 8.66275 14.9149 9.13138C14.7014 9.60001 14.3499 9.99225 13.9073 10.2556C13.7129 10.3674 13.5708 10.5518 13.5123 10.7683C13.4539 10.9848 13.4838 11.2157 13.5955 11.4101C13.7073 11.6046 13.8917 11.7467 14.1082 11.8051C14.3247 11.8636 14.5556 11.8337 14.75 11.7219C15.389 11.3511 15.9192 10.8187 16.2875 10.1783C16.6558 9.53784 16.8492 8.81183 16.8483 8.07305C16.8458 7.16642 16.5509 6.2848 16.0074 5.55913C15.4639 4.83346 14.7008 4.30245 13.8315 4.04497ZM10.9495 11.6292V10.6011C10.9495 9.93065 10.6831 9.28762 10.209 8.81351C9.73492 8.3394 9.09189 8.07305 8.4214 8.07305C7.75091 8.07305 7.10788 8.3394 6.63378 8.81351C6.15967 9.28762 5.89332 9.93065 5.89332 10.6011V11.5955C5.33598 11.7977 4.86746 12.1894 4.56964 12.7021C4.27182 13.2147 4.16365 13.8158 4.26405 14.4001C4.36445 14.9844 4.66703 15.5149 5.11889 15.8987C5.57075 16.2826 6.14314 16.4954 6.73601 16.5H10.1068C10.6997 16.4954 11.2721 16.2826 11.7239 15.8987C12.1758 15.5149 12.4783 14.9844 12.5787 14.4001C12.6791 13.8158 12.571 13.2147 12.2732 12.7021C11.9753 12.1894 11.5068 11.7977 10.9495 11.5955V11.6292ZM7.57871 10.6011C7.57871 10.3776 7.66749 10.1633 7.82553 10.0053C7.98356 9.84723 8.1979 9.75844 8.4214 9.75844C8.6449 9.75844 8.85924 9.84723 9.01727 10.0053C9.17531 10.1633 9.2641 10.3776 9.2641 10.6011V11.4438H7.57871V10.6011ZM10.1068 14.8146H6.73601C6.51252 14.8146 6.29817 14.7258 6.14014 14.5678C5.9821 14.4098 5.89332 14.1954 5.89332 13.9719C5.89332 13.7484 5.9821 13.5341 6.14014 13.376C6.29817 13.218 6.51252 13.1292 6.73601 13.1292H10.1068C10.3303 13.1292 10.5446 13.218 10.7027 13.376C10.8607 13.5341 10.9495 13.7484 10.9495 13.9719C10.9495 14.1954 10.8607 14.4098 10.7027 14.5678C10.5446 14.7258 10.3303 14.8146 10.1068 14.8146Z" fill="#7A869A"/>
</svg>
