<svg width="13" height="17" viewBox="0 0 13 17" fill="none" xmlns="http://www.w3.org/2000/svg">
<path d="M8.8 11.7H4C3.78783 11.7 3.58434 11.7843 3.43431 11.9343C3.28429 12.0843 3.2 12.2878 3.2 12.5C3.2 12.7122 3.28429 12.9157 3.43431 13.0657C3.58434 13.2157 3.78783 13.3 4 13.3H8.8C9.01217 13.3 9.21566 13.2157 9.36569 13.0657C9.51571 12.9157 9.6 12.7122 9.6 12.5C9.6 12.2878 9.51571 12.0843 9.36569 11.9343C9.21566 11.7843 9.01217 11.7 8.8 11.7ZM4 6.9H4.8C5.01217 6.9 5.21566 6.81571 5.36569 6.66569C5.51571 6.51566 5.6 6.31217 5.6 6.1C5.6 5.88783 5.51571 5.68434 5.36569 5.53431C5.21566 5.38429 5.01217 5.3 4.8 5.3H4C3.78783 5.3 3.58434 5.38429 3.43431 5.53431C3.28429 5.68434 3.2 5.88783 3.2 6.1C3.2 6.31217 3.28429 6.51566 3.43431 6.66569C3.58434 6.81571 3.78783 6.9 4 6.9ZM8.8 8.5H4C3.78783 8.5 3.58434 8.58429 3.43431 8.73431C3.28429 8.88434 3.2 9.08783 3.2 9.3C3.2 9.51217 3.28429 9.71566 3.43431 9.86569C3.58434 10.0157 3.78783 10.1 4 10.1H8.8C9.01217 10.1 9.21566 10.0157 9.36569 9.86569C9.51571 9.71566 9.6 9.51217 9.6 9.3C9.6 9.08783 9.51571 8.88434 9.36569 8.73431C9.21566 8.58429 9.01217 8.5 8.8 8.5ZM12.568 11.132C12.4919 11.0592 12.4022 11.0021 12.304 10.964C12.2085 10.9207 12.1049 10.8983 12 10.8983C11.8951 10.8983 11.7915 10.9207 11.696 10.964C11.5978 11.0021 11.5081 11.0592 11.432 11.132C11.3613 11.2098 11.3045 11.2991 11.264 11.396C11.2027 11.5417 11.186 11.7023 11.2159 11.8575C11.2458 12.0126 11.321 12.1555 11.432 12.268C11.5068 12.3421 11.5954 12.4008 11.6929 12.4406C11.7903 12.4804 11.8947 12.5006 12 12.5C12.1045 12.4987 12.2078 12.477 12.304 12.436C12.4009 12.3955 12.4902 12.3387 12.568 12.268C12.679 12.1555 12.7542 12.0126 12.7841 11.8575C12.814 11.7023 12.7973 11.5417 12.736 11.396C12.6955 11.2991 12.6387 11.2098 12.568 11.132ZM12.8 6.052C12.7917 5.97851 12.7756 5.9061 12.752 5.836V5.764C12.7135 5.68174 12.6622 5.60613 12.6 5.54L7.8 0.74C7.73387 0.677773 7.65826 0.626465 7.576 0.588C7.55212 0.584608 7.52788 0.584608 7.504 0.588C7.42273 0.541393 7.33298 0.511475 7.24 0.5H2.4C1.76348 0.5 1.15303 0.752856 0.702944 1.20294C0.252856 1.65303 0 2.26348 0 2.9V14.1C0 14.7365 0.252856 15.347 0.702944 15.7971C1.15303 16.2471 1.76348 16.5 2.4 16.5H8.8C9.01217 16.5 9.21566 16.4157 9.36569 16.2657C9.51571 16.1157 9.6 15.9122 9.6 15.7C9.6 15.4878 9.51571 15.2843 9.36569 15.1343C9.21566 14.9843 9.01217 14.9 8.8 14.9H2.4C2.18783 14.9 1.98434 14.8157 1.83431 14.6657C1.68429 14.5157 1.6 14.3122 1.6 14.1V2.9C1.6 2.68783 1.68429 2.48434 1.83431 2.33431C1.98434 2.18429 2.18783 2.1 2.4 2.1H6.4V4.5C6.4 5.13652 6.65286 5.74697 7.10294 6.19706C7.55303 6.64714 8.16348 6.9 8.8 6.9H11.2V8.5C11.2 8.71217 11.2843 8.91566 11.4343 9.06569C11.5843 9.21571 11.7878 9.3 12 9.3C12.2122 9.3 12.4157 9.21571 12.5657 9.06569C12.7157 8.91566 12.8 8.71217 12.8 8.5V6.1C12.8 6.1 12.8 6.1 12.8 6.052ZM8.8 5.3C8.58783 5.3 8.38434 5.21571 8.23431 5.06569C8.08429 4.91566 8 4.71217 8 4.5V3.228L10.072 5.3H8.8ZM12 13.3C11.7878 13.3 11.5843 13.3843 11.4343 13.5343C11.2843 13.6843 11.2 13.8878 11.2 14.1V15.7C11.2 15.9122 11.2843 16.1157 11.4343 16.2657C11.5843 16.4157 11.7878 16.5 12 16.5C12.2122 16.5 12.4157 16.4157 12.5657 16.2657C12.7157 16.1157 12.8 15.9122 12.8 15.7V14.1C12.8 13.8878 12.7157 13.6843 12.5657 13.5343C12.4157 13.3843 12.2122 13.3 12 13.3Z" fill="#DA1E28"/>
</svg>
