<svg width="16" height="17" viewBox="0 0 16 17" fill="none" xmlns="http://www.w3.org/2000/svg">
<path d="M7.19791 14.8958H2.3993C2.18719 14.8958 1.98377 14.8116 1.83378 14.6616C1.6838 14.5116 1.59954 14.3082 1.59954 14.0961V2.8993C1.59954 2.68719 1.6838 2.48377 1.83378 2.33378C1.98377 2.1838 2.18719 2.09954 2.3993 2.09954H6.39814V4.49884C6.39814 5.13518 6.65093 5.74545 7.10088 6.19541C7.55084 6.64536 8.16111 6.89815 8.79745 6.89815H11.1968V10.897C11.1968 11.1091 11.281 11.3125 11.431 11.4625C11.581 11.6125 11.7844 11.6968 11.9965 11.6968C12.2086 11.6968 12.4121 11.6125 12.562 11.4625C12.712 11.3125 12.7963 11.1091 12.7963 10.897V6.09838C12.7963 6.09838 12.7963 6.09838 12.7963 6.05039C12.788 5.97692 12.7719 5.90454 12.7483 5.83445V5.76247C12.7099 5.68024 12.6586 5.60465 12.5963 5.53854L7.79774 0.73993C7.73163 0.677721 7.65604 0.626428 7.5738 0.587974C7.54735 0.583343 7.52028 0.583343 7.49383 0.587974C7.41606 0.546389 7.33248 0.516733 7.2459 0.5H2.3993C1.76297 0.5 1.1527 0.752783 0.70274 1.20274C0.252783 1.6527 0 2.26297 0 2.8993V14.0961C0 14.7324 0.252783 15.3427 0.70274 15.7926C1.1527 16.2426 1.76297 16.4954 2.3993 16.4954H7.19791C7.41002 16.4954 7.61345 16.4111 7.76343 16.2611C7.91342 16.1111 7.99768 15.9077 7.99768 15.6956C7.99768 15.4835 7.91342 15.2801 7.76343 15.1301C7.61345 14.9801 7.41002 14.8958 7.19791 14.8958ZM7.99768 3.22721L10.0691 5.29861H8.79745C8.58534 5.29861 8.38191 5.21435 8.23193 5.06436C8.08194 4.91438 7.99768 4.71095 7.99768 4.49884V3.22721ZM3.99884 10.0972H8.79745C9.00956 10.0972 9.21299 10.013 9.36297 9.86297C9.51296 9.71299 9.59722 9.50956 9.59722 9.29745C9.59722 9.08534 9.51296 8.88191 9.36297 8.73193C9.21299 8.58194 9.00956 8.49768 8.79745 8.49768H3.99884C3.78673 8.49768 3.5833 8.58194 3.43332 8.73193C3.28333 8.88191 3.19907 9.08534 3.19907 9.29745C3.19907 9.50956 3.28333 9.71299 3.43332 9.86297C3.5833 10.013 3.78673 10.0972 3.99884 10.0972ZM7.19791 11.6968H3.99884C3.78673 11.6968 3.5833 11.781 3.43332 11.931C3.28333 12.081 3.19907 12.2844 3.19907 12.4965C3.19907 12.7086 3.28333 12.9121 3.43332 13.062C3.5833 13.212 3.78673 13.2963 3.99884 13.2963H7.19791C7.41002 13.2963 7.61345 13.212 7.76343 13.062C7.91342 12.9121 7.99768 12.7086 7.99768 12.4965C7.99768 12.2844 7.91342 12.081 7.76343 11.931C7.61345 11.781 7.41002 11.6968 7.19791 11.6968ZM3.99884 6.89815H4.79861C5.01072 6.89815 5.21414 6.81388 5.36413 6.6639C5.51412 6.51391 5.59838 6.31049 5.59838 6.09838C5.59838 5.88627 5.51412 5.68284 5.36413 5.53286C5.21414 5.38287 5.01072 5.29861 4.79861 5.29861H3.99884C3.78673 5.29861 3.5833 5.38287 3.43332 5.53286C3.28333 5.68284 3.19907 5.88627 3.19907 6.09838C3.19907 6.31049 3.28333 6.51391 3.43332 6.6639C3.5833 6.81388 3.78673 6.89815 3.99884 6.89815ZM14.9637 11.9287C14.8893 11.8537 14.8009 11.7942 14.7034 11.7536C14.6059 11.713 14.5014 11.6921 14.3958 11.6921C14.2902 11.6921 14.1857 11.713 14.0883 11.7536C13.9908 11.7942 13.9023 11.8537 13.828 11.9287L11.1968 14.5679L10.1651 13.5282C10.0905 13.4537 10.002 13.3945 9.90453 13.3541C9.8071 13.3138 9.70267 13.293 9.59722 13.293C9.49176 13.293 9.38734 13.3138 9.28991 13.3541C9.19248 13.3945 9.10395 13.4537 9.02938 13.5282C8.95481 13.6028 8.89566 13.6913 8.8553 13.7887C8.81495 13.8862 8.79418 13.9906 8.79418 14.0961C8.79418 14.2015 8.81495 14.3059 8.8553 14.4034C8.89566 14.5008 8.95481 14.5893 9.02938 14.6639L10.6289 16.2634C10.7033 16.3384 10.7917 16.3979 10.8892 16.4385C10.9866 16.4791 11.0912 16.5 11.1968 16.5C11.3023 16.5 11.4069 16.4791 11.5043 16.4385C11.6018 16.3979 11.6902 16.3384 11.7646 16.2634L14.9637 13.0644C15.0386 12.99 15.0981 12.9016 15.1387 12.8041C15.1793 12.7066 15.2002 12.6021 15.2002 12.4965C15.2002 12.3909 15.1793 12.2864 15.1387 12.1889C15.0981 12.0915 15.0386 12.003 14.9637 11.9287Z" fill="#42BE65"/>
</svg>
