<svg width="13" height="12" viewBox="0 0 13 12" fill="none" xmlns="http://www.w3.org/2000/svg">
<path d="M7.57894 6.3158H6.94736V5.68422C6.94736 5.51671 6.88082 5.35607 6.76238 5.23762C6.64393 5.11918 6.48329 5.05264 6.31578 5.05264C6.14828 5.05264 5.98763 5.11918 5.86919 5.23762C5.75075 5.35607 5.6842 5.51671 5.6842 5.68422V6.3158H5.05263C4.88512 6.3158 4.72448 6.38234 4.60603 6.50078C4.48759 6.61923 4.42105 6.77987 4.42105 6.94737C4.42105 7.11488 4.48759 7.27552 4.60603 7.39397C4.72448 7.51241 4.88512 7.57895 5.05263 7.57895H5.6842V8.21053C5.6842 8.37804 5.75075 8.53868 5.86919 8.65712C5.98763 8.77557 6.14828 8.84211 6.31578 8.84211C6.48329 8.84211 6.64393 8.77557 6.76238 8.65712C6.88082 8.53868 6.94736 8.37804 6.94736 8.21053V7.57895H7.57894C7.74644 7.57895 7.90709 7.51241 8.02553 7.39397C8.14398 7.27552 8.21052 7.11488 8.21052 6.94737C8.21052 6.77987 8.14398 6.61923 8.02553 6.50078C7.90709 6.38234 7.74644 6.3158 7.57894 6.3158ZM10.7368 1.89475H6.77052L6.56841 1.26317C6.43739 0.89258 6.19436 0.57191 5.87298 0.345589C5.55161 0.119268 5.1678 -0.0015012 4.77473 1.40865e-05H1.89473C1.39222 1.40865e-05 0.910287 0.199637 0.554955 0.554969C0.199623 0.910301 0 1.39223 0 1.89475V10.1053C0 10.6078 0.199623 11.0897 0.554955 11.445C0.910287 11.8004 1.39222 12 1.89473 12H10.7368C11.2393 12 11.7213 11.8004 12.0766 11.445C12.4319 11.0897 12.6316 10.6078 12.6316 10.1053V3.78948C12.6316 3.28697 12.4319 2.80504 12.0766 2.4497C11.7213 2.09437 11.2393 1.89475 10.7368 1.89475ZM11.3684 10.1053C11.3684 10.2728 11.3019 10.4334 11.1834 10.5519C11.065 10.6703 10.9043 10.7368 10.7368 10.7368H1.89473C1.72723 10.7368 1.56659 10.6703 1.44814 10.5519C1.3297 10.4334 1.26316 10.2728 1.26316 10.1053V1.89475C1.26316 1.72724 1.3297 1.5666 1.44814 1.44816C1.56659 1.32971 1.72723 1.26317 1.89473 1.26317H4.77473C4.90714 1.26283 5.0363 1.30411 5.14397 1.38118C5.25164 1.45824 5.33236 1.5672 5.37473 1.69264L5.71578 2.72843C5.75815 2.85388 5.83888 2.96283 5.94654 3.0399C6.05421 3.11697 6.18338 3.15825 6.31578 3.15791H10.7368C10.9043 3.15791 11.065 3.22445 11.1834 3.34289C11.3019 3.46133 11.3684 3.62198 11.3684 3.78948V10.1053Z" fill="#42526E"/>
</svg>
