<svg width="16" height="13" viewBox="0 0 16 13" fill="none" xmlns="http://www.w3.org/2000/svg">
<path d="M9.53674e-07 1.25253V11.0379C9.53674e-07 11.7296 0.560776 12.2904 1.25253 12.2904H14.2475C14.9392 12.2904 15.5 11.7296 15.5 11.0379V4.5404C15.5 3.84865 14.9392 3.28788 14.2475 3.28788H12.0458C9.89508 3.28788 7.88157 2.2313 6.65953 0.461457C6.46002 0.172502 6.13128 0 5.78014 0H1.25253C0.560775 0 9.53674e-07 0.560775 9.53674e-07 1.25253Z" fill="#0043CE"/>
<path d="M15.5 1.87881V11.0379C15.5 11.7296 14.9392 12.2904 14.2475 12.2904H1.25253C0.560775 12.2904 0 11.7296 0 11.0379V5.32325C0 4.6315 0.560775 4.07073 1.25253 4.07073H5.1087C5.34713 4.07073 5.57664 3.98006 5.75071 3.81711L8.79788 0.964437C9.02996 0.747169 9.33598 0.626282 9.65389 0.626282H14.2475C14.9392 0.626282 15.5 1.18706 15.5 1.87881Z" fill="#4589FF"/>
</svg>
