<svg viewBox="10 10 135 40" xmlns="http://www.w3.org/2000/svg" width="160" height="40"><path d="M140 50H15c-2.75 0-5-2.25-5-5V15c0-2.75 2.25-5 5-5h125c2.75 0 5 2.25 5 5v30c0 2.75-2.25 5-5 5z"/><path d="M140 10.8a4.2 4.2 0 0 1 4.2 4.2v30a4.2 4.2 0 0 1-4.2 4.2H15a4.2 4.2 0 0 1-4.2-4.2V15a4.2 4.2 0 0 1 4.2-4.2zm0-.8H15c-2.75 0-5 2.25-5 5v30c0 2.75 2.25 5 5 5h125c2.75 0 5-2.25 5-5V15c0-2.75-2.25-5-5-5z" fill="#a6a6a6"/><g fill="#fff"><path d="M57.42 20.24c0 .84-.25 1.51-.75 2-.56.59-1.29.89-2.2.89-.87 0-1.61-.3-2.21-.9s-.9-1.35-.9-2.23.3-1.63.9-2.23 1.34-.91 2.21-.91c.44 0 .86.08 1.25.23.39.16.71.38.96.66l-.55.55c-.18-.22-.42-.4-.72-.52a2.29 2.29 0 0 0-.94-.19c-.65 0-1.21.23-1.66.68-.45.46-.67 1.03-.67 1.72s.22 1.26.67 1.72c.45.45 1 .68 1.66.68.6 0 1.09-.17 1.49-.5s.63-.8.69-1.38h-2.18v-.72h2.91c.02.16.04.31.04.45zM62.03 17v.74H59.3v1.9h2.46v.72H59.3v1.9h2.73V23h-3.5v-6zM65.28 17.74V23h-.77v-5.26h-1.68V17h4.12v.74zM70.71 23h-.77v-6h.77zM74.13 17.74V23h-.77v-5.26h-1.68V17h4.12v.74zM84.49 20c0 .89-.3 1.63-.89 2.23-.6.6-1.33.9-2.2.9s-1.6-.3-2.2-.9c-.59-.6-.89-1.34-.89-2.23s.3-1.63.89-2.23 1.32-.91 2.2-.91c.87 0 1.6.3 2.2.91s.89 1.35.89 2.23zm-5.38 0c0 .69.22 1.27.65 1.72.44.45.99.68 1.64.68s1.2-.23 1.63-.68c.44-.45.66-1.02.66-1.72s-.22-1.27-.66-1.72-.98-.68-1.63-.68-1.2.23-1.64.68c-.43.45-.65 1.03-.65 1.72zM86.34 23h-.77v-6h.94l2.92 4.67h.03l-.03-1.16V17h.77v6h-.8l-3.05-4.89h-.03l.03 1.16V23z" stroke="#fff" stroke-miterlimit="10" stroke-width=".2"/><path d="M78.14 31.75c-2.35 0-4.27 1.79-4.27 4.25 0 2.45 1.92 4.25 4.27 4.25s4.27-1.8 4.27-4.25c0-2.46-1.92-4.25-4.27-4.25zm0 6.83c-1.29 0-2.4-1.06-2.4-2.58 0-1.53 1.11-2.58 2.4-2.58s2.4 1.05 2.4 2.58c0 1.52-1.12 2.58-2.4 2.58zm-9.32-6.83c-2.35 0-4.27 1.79-4.27 4.25 0 2.45 1.92 4.25 4.27 4.25s4.27-1.8 4.27-4.25c0-2.46-1.92-4.25-4.27-4.25zm0 6.83c-1.29 0-2.4-1.06-2.4-2.58 0-1.53 1.11-2.58 2.4-2.58s2.4 1.05 2.4 2.58c0 1.52-1.11 2.58-2.4 2.58zm-11.08-5.52v1.8h4.32c-.13 1.01-.47 1.76-.98 2.27-.63.63-1.61 1.32-3.33 1.32-2.66 0-4.74-2.14-4.74-4.8s2.08-4.8 4.74-4.8c1.43 0 2.48.56 3.25 1.29l1.27-1.27c-1.08-1.03-2.51-1.82-4.53-1.82-3.64 0-6.7 2.96-6.7 6.61 0 3.64 3.06 6.61 6.7 6.61 1.97 0 3.45-.64 4.61-1.85 1.19-1.19 1.56-2.87 1.56-4.22 0-.42-.03-.81-.1-1.13h-6.07zm45.31 1.4c-.35-.95-1.43-2.71-3.64-2.71-2.19 0-4.01 1.72-4.01 4.25 0 2.38 1.8 4.25 4.22 4.25 1.95 0 3.08-1.19 3.54-1.88l-1.45-.97c-.48.71-1.14 1.18-2.09 1.18s-1.63-.43-2.06-1.29l5.69-2.35zm-5.8 1.42c-.05-1.64 1.27-2.48 2.22-2.48.74 0 1.37.37 1.58.9zM92.63 40h1.87V27.5h-1.87zm-3.06-7.3h-.07c-.42-.5-1.22-.95-2.24-.95-2.13 0-4.08 1.87-4.08 4.27 0 2.38 1.95 4.24 4.08 4.24 1.01 0 1.82-.45 2.24-.97h.06v.61c0 1.63-.87 2.5-2.27 2.5-1.14 0-1.85-.82-2.14-1.51l-1.63.68c.47 1.13 1.71 2.51 3.77 2.51 2.19 0 4.04-1.29 4.04-4.43v-7.64h-1.77v.69zm-2.15 5.88c-1.29 0-2.37-1.08-2.37-2.56 0-1.5 1.08-2.59 2.37-2.59 1.27 0 2.27 1.1 2.27 2.59.01 1.48-.99 2.56-2.27 2.56zm24.39-11.08h-4.47V40h1.87v-4.74h2.61c2.07 0 4.1-1.5 4.1-3.88-.01-2.38-2.05-3.88-4.11-3.88zm.04 6.02h-2.65v-4.29h2.65c1.4 0 2.19 1.16 2.19 2.14s-.79 2.15-2.19 2.15zm11.54-1.79c-1.35 0-2.75.6-3.33 1.91l1.66.69c.35-.69 1.01-.92 1.7-.92.96 0 1.95.58 1.96 1.61v.13c-.34-.19-1.06-.48-1.95-.48-1.79 0-3.6.98-3.6 2.81 0 1.67 1.46 2.75 3.1 2.75 1.25 0 1.95-.56 2.38-1.22h.06v.96h1.8v-4.79c.01-2.21-1.65-3.45-3.78-3.45zm-.23 6.85c-.61 0-1.46-.31-1.46-1.06 0-.96 1.06-1.33 1.98-1.33.82 0 1.21.18 1.7.42a2.257 2.257 0 0 1-2.22 1.97zM133.74 32l-2.14 5.42h-.06L129.32 32h-2.01l3.33 7.58-1.9 4.21h1.95L135.82 32zm-16.8 8h1.87V27.5h-1.87z"/></g><path d="M30.72 29.42l-10.65 11.3v.01a2.877 2.877 0 0 0 4.24 1.73l.03-.02 11.98-6.91z" fill="#ea4335"/><path d="M41.49 27.5l-.01-.01-5.17-3-5.83 5.19 5.85 5.85 5.15-2.97a2.88 2.88 0 0 0 .01-5.06z" fill="#fbbc04"/><path d="M20.07 19.28c-.06.24-.1.48-.1.74v19.97c0 .26.03.5.1.74l11.01-11.01z" fill="#4285f4"/><path d="M30.8 30l5.51-5.51-11.97-6.94a2.889 2.889 0 0 0-4.27 1.72z" fill="#34a853"/></svg>