<svg width="12" height="12" viewBox="0 0 12 12" fill="none" xmlns="http://www.w3.org/2000/svg">
<path d="M11.7982 4.95155L6.39831 0.151608C6.28856 0.0539513 6.14678 0 5.99988 0C5.85297 0 5.71119 0.0539513 5.60144 0.151608L0.201509 4.95155C0.0825512 5.05722 0.0104432 5.20582 0.00104778 5.36465C-0.00834768 5.52349 0.0457391 5.67955 0.15141 5.79851C0.25708 5.91747 0.405678 5.98958 0.564515 5.99897C0.723351 6.00837 0.879414 5.95428 0.998371 5.84861L1.19993 5.66948V11.4C1.19991 11.4788 1.21542 11.5568 1.24556 11.6296C1.27571 11.7024 1.3199 11.7686 1.37562 11.8243C1.43134 11.88 1.49749 11.9242 1.57029 11.9544C1.6431 11.9845 1.72113 12 1.79993 12H10.1998C10.2786 12 10.3567 11.9845 10.4295 11.9544C10.5023 11.9242 10.5684 11.88 10.6241 11.8243C10.6798 11.7686 10.724 11.7024 10.7542 11.6296C10.7843 11.5568 10.7998 11.4788 10.7998 11.4V5.66948L11.0014 5.84863C11.0603 5.90095 11.1289 5.94116 11.2034 5.96696C11.2778 5.99276 11.3566 6.00364 11.4352 5.99899C11.5139 5.99434 11.5908 5.97424 11.6617 5.93985C11.7326 5.90545 11.796 5.85743 11.8483 5.79853C11.9007 5.73963 11.9409 5.671 11.9667 5.59656C11.9925 5.52211 12.0034 5.44332 11.9987 5.36467C11.994 5.28603 11.974 5.20906 11.9396 5.13818C11.9052 5.0673 11.8571 5.00389 11.7982 4.95157V4.95155ZM4.31046 10.8C4.43274 10.4494 4.66105 10.1456 4.96376 9.93055C5.26647 9.71554 5.62858 9.60003 5.99988 9.60003C6.37117 9.60003 6.73328 9.71554 7.03599 9.93055C7.3387 10.1456 7.56701 10.4494 7.68929 10.8H4.31046ZM5.09989 7.50005C5.09989 7.32205 5.15267 7.14805 5.25156 7.00005C5.35045 6.85205 5.49101 6.73669 5.65546 6.66857C5.81992 6.60046 6.00087 6.58263 6.17545 6.61736C6.35004 6.65208 6.5104 6.7378 6.63626 6.86367C6.76213 6.98953 6.84784 7.14989 6.88257 7.32448C6.9173 7.49906 6.89947 7.68001 6.83136 7.84447C6.76324 8.00892 6.64788 8.14948 6.49988 8.24837C6.35188 8.34726 6.17788 8.40004 5.99988 8.40004C5.76126 8.39978 5.5325 8.30488 5.36377 8.13616C5.19505 7.96743 5.10015 7.73867 5.09989 7.50005ZM9.59983 10.8H8.9392C8.85623 10.4022 8.69334 10.0254 8.46039 9.69248C8.22744 9.35954 7.92928 9.07737 7.58401 8.86311C7.91463 8.48579 8.09782 8.00173 8.09985 7.50005C8.09985 6.94311 7.8786 6.40897 7.48478 6.01515C7.09096 5.62133 6.55682 5.40008 5.99988 5.40008C5.44293 5.40008 4.90879 5.62133 4.51497 6.01515C4.12115 6.40897 3.8999 6.94311 3.8999 7.50005C3.90193 8.00173 4.08512 8.48579 4.41574 8.86311C4.07047 9.07737 3.77232 9.35954 3.53936 9.69248C3.30641 10.0254 3.14351 10.4022 3.06055 10.8H2.39992V4.60281L5.99988 1.40286L9.59983 4.60281V10.8Z" fill="#253858"/>
</svg>