<svg width="16" height="16" viewBox="0 0 16 16" fill="none" xmlns="http://www.w3.org/2000/svg">
<path d="M0 3.25C0 1.45507 1.45507 0 3.25 0H12.75C14.5449 0 16 1.45507 16 3.25V12.75C16 14.5449 14.5449 16 12.75 16H3.25C1.45507 16 0 14.5449 0 12.75V3.25Z" fill="#091E42"/>
<path d="M6.20461 4.5H4.93188L9.84098 11.5H11.2955L6.20461 4.5Z" fill="#FAFBFC"/>
<path fill-rule="evenodd" clip-rule="evenodd" d="M11.1136 4.5H9.84091L8.53181 6.30001L9.21369 7.20918L11.1136 4.5ZM8.70067 7.94071L8.0225 7.00031L7.34158 7.93658L8.02293 8.90712L8.70067 7.94071ZM7.50391 9.6472L6.80367 8.67621L4.75 11.5H6.20455L7.50391 9.6472Z" fill="#FAFBFC"/>
</svg>
