<svg width="12" height="13" viewBox="0 0 12 13" fill="none" xmlns="http://www.w3.org/2000/svg">
<path d="M11.3437 10.5344H7.65403C7.56488 10.284 7.42112 10.0566 7.23317 9.86867C7.04523 9.68073 6.81781 9.53697 6.56742 9.44782V8.14627H8.75855C9.127 8.1447 9.47992 7.99764 9.74047 7.7371C10.001 7.47655 10.1481 7.12363 10.1496 6.75518V3.56699C10.1481 3.19854 10.001 2.84562 9.74047 2.58507C9.47992 2.32453 9.127 2.17747 8.75855 2.1759H6.37039L6.29278 1.93111C6.20071 1.65882 6.0269 1.42156 5.79505 1.25168C5.56319 1.08179 5.28458 0.987557 4.99721 0.98182H3.20609C3.02163 0.979453 2.83852 1.01364 2.66734 1.08242C2.49616 1.15119 2.34029 1.25319 2.20874 1.38253C2.07718 1.51186 1.97255 1.66597 1.90087 1.83595C1.82919 2.00594 1.79189 2.18844 1.79111 2.37292V6.75518C1.79269 7.12363 1.93975 7.47655 2.20029 7.7371C2.46083 7.99764 2.81375 8.1447 3.18221 8.14627H5.37334V9.44782C5.12294 9.53697 4.89553 9.68073 4.70758 9.86867C4.51964 10.0566 4.37588 10.284 4.28673 10.5344H0.597038C0.438694 10.5344 0.286835 10.5973 0.174868 10.7093C0.062902 10.8213 0 10.9731 0 11.1315C0 11.2898 0.062902 11.4417 0.174868 11.5536C0.286835 11.6656 0.438694 11.7285 0.597038 11.7285H4.28673C4.41223 12.0743 4.64115 12.373 4.94238 12.5842C5.24361 12.7953 5.60253 12.9085 5.97038 12.9085C6.33823 12.9085 6.69715 12.7953 6.99838 12.5842C7.29961 12.373 7.52853 12.0743 7.65403 11.7285H11.3437C11.5021 11.7285 11.6539 11.6656 11.7659 11.5536C11.8779 11.4417 11.9408 11.2898 11.9408 11.1315C11.9408 10.9731 11.8779 10.8213 11.7659 10.7093C11.6539 10.5973 11.5021 10.5344 11.3437 10.5344ZM3.18221 6.9522C3.12996 6.9522 3.07985 6.93144 3.0429 6.89449C3.00595 6.85754 2.98519 6.80743 2.98519 6.75518V2.37292C2.98519 2.32066 3.00595 2.27055 3.0429 2.2336C3.07985 2.19665 3.12996 2.1759 3.18221 2.1759H4.97333C5.01571 2.17519 5.05718 2.18817 5.0916 2.21291C5.12602 2.23764 5.15154 2.27282 5.16438 2.31321L5.37931 2.96399C5.42058 3.08654 5.50052 3.19238 5.60711 3.2656C5.7137 3.33881 5.84118 3.37544 5.97038 3.36997H8.75855C8.8108 3.36997 8.86091 3.39073 8.89786 3.42768C8.93481 3.46463 8.95557 3.51474 8.95557 3.56699V6.75518C8.95557 6.80743 8.93481 6.85754 8.89786 6.89449C8.86091 6.93144 8.8108 6.9522 8.75855 6.9522H3.18221ZM5.97038 11.7285C5.8523 11.7285 5.73686 11.6935 5.63868 11.6279C5.5405 11.5623 5.46398 11.469 5.41879 11.3599C5.3736 11.2508 5.36178 11.1308 5.38481 11.015C5.40785 10.8992 5.46471 10.7928 5.54821 10.7093C5.63171 10.6258 5.73809 10.5689 5.8539 10.5459C5.96972 10.5229 6.08976 10.5347 6.19886 10.5799C6.30795 10.6251 6.40119 10.7016 6.4668 10.7998C6.5324 10.898 6.56742 11.0134 6.56742 11.1315C6.56742 11.2898 6.50451 11.4417 6.39255 11.5536C6.28058 11.6656 6.12872 11.7285 5.97038 11.7285Z" fill="#0F62FE"/>
</svg>
