<svg width="12" height="12" viewBox="0 0 12 12" fill="none" xmlns="http://www.w3.org/2000/svg">
<path d="M0.6 5.4C0.481331 5.4 0.365328 5.43519 0.266658 5.50112C0.167989 5.56705 0.0910851 5.66075 0.0456725 5.77039C0.000259969 5.88003 -0.011622 6.00067 0.0115291 6.11705C0.0346802 6.23344 0.0918247 6.34035 0.175736 6.42426C0.259648 6.50818 0.366557 6.56532 0.482946 6.58847C0.599335 6.61162 0.719975 6.59974 0.82961 6.55433C0.939246 6.50892 1.03295 6.43201 1.09888 6.33334C1.16481 6.23467 1.2 6.11867 1.2 6C1.2 5.84087 1.13679 5.68826 1.02426 5.57574C0.911743 5.46321 0.75913 5.4 0.6 5.4ZM1.758 9.396C1.67373 9.47977 1.61623 9.58667 1.59279 9.70316C1.56935 9.81964 1.58102 9.94047 1.62633 10.0503C1.67164 10.1602 1.74854 10.2541 1.84729 10.3202C1.94603 10.3862 2.06218 10.4215 2.181 10.4215C2.29982 10.4215 2.41597 10.3862 2.51471 10.3202C2.61346 10.2541 2.69036 10.1602 2.73567 10.0503C2.78098 9.94047 2.79265 9.81964 2.76921 9.70316C2.74577 9.58667 2.68827 9.47977 2.604 9.396C2.49158 9.28425 2.33951 9.22152 2.181 9.22152C2.02249 9.22152 1.87042 9.28425 1.758 9.396ZM2.604 2.604C2.68827 2.52023 2.74577 2.41333 2.76921 2.29684C2.79265 2.18036 2.78098 2.05953 2.73567 1.94969C2.69036 1.83985 2.61346 1.74593 2.51471 1.67984C2.41597 1.61376 2.29982 1.57848 2.181 1.57848C2.06218 1.57848 1.94603 1.61376 1.84729 1.67984C1.74854 1.74593 1.67164 1.83985 1.62633 1.94969C1.58102 2.05953 1.56935 2.18036 1.59279 2.29684C1.61623 2.41333 1.67373 2.52023 1.758 2.604C1.87042 2.71575 2.02249 2.77848 2.181 2.77848C2.33951 2.77848 2.49158 2.71575 2.604 2.604ZM6 1.2C6.11867 1.2 6.23467 1.16481 6.33334 1.09888C6.43201 1.03295 6.50891 0.939246 6.55433 0.82961C6.59974 0.719975 6.61162 0.599335 6.58847 0.482946C6.56532 0.366558 6.50817 0.259648 6.42426 0.175736C6.34035 0.0918247 6.23344 0.0346802 6.11705 0.0115291C6.00067 -0.011622 5.88002 0.000259969 5.77039 0.0456725C5.66075 0.0910851 5.56705 0.167989 5.50112 0.266658C5.43519 0.365328 5.4 0.481332 5.4 0.6C5.4 0.75913 5.46321 0.911743 5.57574 1.02426C5.68826 1.13679 5.84087 1.2 6 1.2ZM9.396 9.396C9.31173 9.47977 9.25423 9.58667 9.23079 9.70316C9.20735 9.81964 9.21902 9.94047 9.26433 10.0503C9.30964 10.1602 9.38654 10.2541 9.48529 10.3202C9.58403 10.3862 9.70018 10.4215 9.819 10.4215C9.93782 10.4215 10.054 10.3862 10.1527 10.3202C10.2515 10.2541 10.3284 10.1602 10.3737 10.0503C10.419 9.94047 10.4306 9.81964 10.4072 9.70316C10.3838 9.58667 10.3263 9.47977 10.242 9.396C10.1296 9.28425 9.97751 9.22152 9.819 9.22152C9.66049 9.22152 9.50842 9.28425 9.396 9.396ZM11.4 5.4C11.2813 5.4 11.1653 5.43519 11.0667 5.50112C10.968 5.56705 10.8911 5.66075 10.8457 5.77039C10.8003 5.88003 10.7884 6.00067 10.8115 6.11705C10.8347 6.23344 10.8918 6.34035 10.9757 6.42426C11.0596 6.50818 11.1666 6.56532 11.2829 6.58847C11.3993 6.61162 11.52 6.59974 11.6296 6.55433C11.7392 6.50892 11.833 6.43201 11.8989 6.33334C11.9648 6.23467 12 6.11867 12 6C12 5.84087 11.9368 5.68826 11.8243 5.57574C11.7117 5.46321 11.5591 5.4 11.4 5.4ZM9.396 1.758C9.31173 1.84177 9.25423 1.94867 9.23079 2.06516C9.20735 2.18164 9.21902 2.30247 9.26433 2.41231C9.30964 2.52215 9.38654 2.61607 9.48529 2.68216C9.58403 2.74825 9.70018 2.78352 9.819 2.78352C9.93782 2.78352 10.054 2.74825 10.1527 2.68216C10.2515 2.61607 10.3284 2.52215 10.3737 2.41231C10.419 2.30247 10.4306 2.18164 10.4072 2.06516C10.3838 1.94867 10.3263 1.84177 10.242 1.758C10.1296 1.64625 9.97751 1.58352 9.819 1.58352C9.66049 1.58352 9.50842 1.64625 9.396 1.758ZM6 10.8C5.88133 10.8 5.76533 10.8352 5.66666 10.9011C5.56799 10.967 5.49108 11.0608 5.44567 11.1704C5.40026 11.28 5.38838 11.4007 5.41153 11.5171C5.43468 11.6334 5.49182 11.7404 5.57574 11.8243C5.65965 11.9082 5.76656 11.9653 5.88295 11.9885C5.99933 12.0116 6.11997 11.9997 6.22961 11.9543C6.33925 11.9089 6.43295 11.832 6.49888 11.7333C6.56481 11.6347 6.6 11.5187 6.6 11.4C6.6 11.2409 6.53679 11.0883 6.42426 10.9757C6.31174 10.8632 6.15913 10.8 6 10.8ZM6 2.4C5.28799 2.4 4.59196 2.61114 3.99995 3.00671C3.40793 3.40228 2.94651 3.96453 2.67403 4.62234C2.40156 5.28015 2.33027 6.00399 2.46917 6.70233C2.60808 7.40066 2.95095 8.04212 3.45442 8.54558C3.95788 9.04905 4.59934 9.39192 5.29767 9.53083C5.99601 9.66973 6.71985 9.59844 7.37766 9.32597C8.03547 9.05349 8.59772 8.59207 8.99329 8.00005C9.38886 7.40804 9.6 6.71201 9.6 6C9.6 5.04522 9.22071 4.12955 8.54558 3.45442C7.87045 2.77928 6.95478 2.4 6 2.4ZM6 8.4C5.52532 8.4 5.06131 8.25924 4.66663 7.99553C4.27195 7.73181 3.96434 7.35698 3.78269 6.91844C3.60104 6.4799 3.55351 5.99734 3.64611 5.53178C3.73872 5.06623 3.9673 4.63859 4.30294 4.30294C4.63859 3.9673 5.06623 3.73872 5.53178 3.64612C5.99734 3.55351 6.4799 3.60104 6.91844 3.78269C7.35698 3.96434 7.73181 4.27195 7.99553 4.66663C8.25924 5.06131 8.4 5.52533 8.4 6C8.4 6.63652 8.14714 7.24697 7.69706 7.69706C7.24697 8.14714 6.63652 8.4 6 8.4Z" fill="#253858"/>
</svg>
