<svg width="11" height="10" viewBox="0 0 11 10" fill="none" xmlns="http://www.w3.org/2000/svg">
<path d="M0.833334 0C0.668516 0 0.5074 0.0488742 0.370359 0.140442C0.233318 0.23201 0.126507 0.362159 0.0634341 0.514431C0.00036107 0.666702 -0.0161417 0.834258 0.0160126 0.995908C0.048167 1.15756 0.127534 1.30604 0.244078 1.42259C0.360622 1.53913 0.509108 1.6185 0.670758 1.65065C0.832409 1.68281 0.999965 1.66631 1.15224 1.60323C1.30451 1.54016 1.43466 1.43335 1.52623 1.29631C1.61779 1.15927 1.66667 0.998151 1.66667 0.833333C1.66667 0.61232 1.57887 0.400358 1.42259 0.244078C1.26631 0.0877975 1.05435 0 0.833334 0ZM3.16667 1.66667H9.83333C10.0543 1.66667 10.2663 1.57887 10.4226 1.42259C10.5789 1.26631 10.6667 1.05435 10.6667 0.833333C10.6667 0.61232 10.5789 0.400358 10.4226 0.244078C10.2663 0.0877975 10.0543 0 9.83333 0H3.16667C2.94565 0 2.73369 0.0877975 2.57741 0.244078C2.42113 0.400358 2.33333 0.61232 2.33333 0.833333C2.33333 1.05435 2.42113 1.26631 2.57741 1.42259C2.73369 1.57887 2.94565 1.66667 3.16667 1.66667ZM3.16667 4.16667C3.00185 4.16667 2.84073 4.21554 2.70369 4.30711C2.56665 4.39868 2.45984 4.52882 2.39677 4.6811C2.33369 4.83337 2.31719 5.00092 2.34935 5.16257C2.3815 5.32423 2.46087 5.47271 2.57741 5.58925C2.69396 5.7058 2.84244 5.78517 3.00409 5.81732C3.16574 5.84948 3.3333 5.83297 3.48557 5.7699C3.63784 5.70683 3.76799 5.60002 3.85956 5.46298C3.95113 5.32593 4 5.16482 4 5C4 4.77899 3.9122 4.56702 3.75592 4.41074C3.59964 4.25446 3.38768 4.16667 3.16667 4.16667ZM6.5 8.33333C6.33518 8.33333 6.17407 8.38221 6.03703 8.47377C5.89998 8.56534 5.79317 8.69549 5.7301 8.84776C5.66703 9.00003 5.65053 9.16759 5.68268 9.32924C5.71483 9.49089 5.7942 9.63938 5.91075 9.75592C6.02729 9.87247 6.17577 9.95183 6.33743 9.98399C6.49908 10.0161 6.66663 9.99964 6.8189 9.93657C6.97118 9.87349 7.10132 9.76668 7.19289 9.62964C7.28446 9.4926 7.33333 9.33148 7.33333 9.16667C7.33333 8.94565 7.24554 8.73369 7.08926 8.57741C6.93298 8.42113 6.72101 8.33333 6.5 8.33333ZM9.83333 4.16667H5.5C5.27899 4.16667 5.06703 4.25446 4.91075 4.41074C4.75446 4.56702 4.66667 4.77899 4.66667 5C4.66667 5.22101 4.75446 5.43297 4.91075 5.58925C5.06703 5.74554 5.27899 5.83333 5.5 5.83333H9.83333C10.0543 5.83333 10.2663 5.74554 10.4226 5.58925C10.5789 5.43297 10.6667 5.22101 10.6667 5C10.6667 4.77899 10.5789 4.56702 10.4226 4.41074C10.2663 4.25446 10.0543 4.16667 9.83333 4.16667ZM9.83333 8.33333H8.83333C8.61232 8.33333 8.40036 8.42113 8.24408 8.57741C8.0878 8.73369 8 8.94565 8 9.16667C8 9.38768 8.0878 9.59964 8.24408 9.75592C8.40036 9.9122 8.61232 10 8.83333 10H9.83333C10.0543 10 10.2663 9.9122 10.4226 9.75592C10.5789 9.59964 10.6667 9.38768 10.6667 9.16667C10.6667 8.94565 10.5789 8.73369 10.4226 8.57741C10.2663 8.42113 10.0543 8.33333 9.83333 8.33333Z" fill="#0F62FE"/>
</svg>
