<svg width="56" height="57" viewBox="0 0 56 57" fill="none" xmlns="http://www.w3.org/2000/svg">
<path d="M9.83824 56.5H46.1618C49.4012 56.5 51.8507 55.6701 53.5104 54.0104C55.1701 52.3707 56 49.9512 56 46.7517V10.2483C56 7.02883 55.1701 4.59927 53.5104 2.95956C51.8507 1.31985 49.4012 0.5 46.1618 0.5H9.83824C6.59882 0.5 4.14926 1.31985 2.48956 2.95956C0.829852 4.59927 0 7.02883 0 10.2483V46.7517C0 49.9512 0.829852 52.3707 2.48956 54.0104C4.14926 55.6701 6.59882 56.5 9.83824 56.5ZM16.917 40.6028V28.485C16.917 26.3654 17.7868 25.2156 19.5265 25.0356V21.5562C19.5265 18.6768 20.3164 16.3672 21.8961 14.6275C23.4758 12.8678 25.5354 11.9879 28.075 11.9879C30.6145 11.9879 32.6742 12.8678 34.2539 14.6275C35.8336 16.3672 36.6235 18.6768 36.6235 21.5562V25.0656C38.3831 25.2256 39.263 26.3654 39.263 28.485V40.6028C39.263 42.9224 38.1732 44.0822 35.9936 44.0822H20.1564C17.9968 44.0822 16.917 42.9224 16.917 40.6028ZM23.1859 24.9756H32.9641V21.2263C32.9641 19.5266 32.5142 18.1568 31.6144 17.117C30.7345 16.0572 29.5547 15.5273 28.075 15.5273C26.6152 15.5273 25.4355 16.0572 24.5356 17.117C23.6358 18.1568 23.1859 19.5266 23.1859 21.2263V24.9756Z" fill="#0066FF"/>
</svg>
