<svg width="10" height="12" viewBox="0 0 10 12" fill="none" xmlns="http://www.w3.org/2000/svg">
<path d="M4.8 6.6C4.61733 6.59787 4.43839 6.65174 4.28727 6.75438C4.13614 6.85702 4.02009 7.00349 3.95473 7.17408C3.88937 7.34468 3.87784 7.53119 3.92169 7.70854C3.96554 7.88588 4.06267 8.04553 4.2 8.166V9C4.2 9.15913 4.26321 9.31174 4.37574 9.42426C4.48826 9.53679 4.64087 9.6 4.8 9.6C4.95913 9.6 5.11174 9.53679 5.22426 9.42426C5.33679 9.31174 5.4 9.15913 5.4 9V8.166C5.53733 8.04553 5.63446 7.88588 5.67831 7.70854C5.72216 7.53119 5.71063 7.34468 5.64527 7.17408C5.57991 7.00349 5.46386 6.85702 5.31274 6.75438C5.16161 6.65174 4.98267 6.59787 4.8 6.6ZM7.8 4.2V3C7.8 2.20435 7.48393 1.44129 6.92132 0.87868C6.35871 0.31607 5.59565 0 4.8 0C4.00435 0 3.24129 0.31607 2.67868 0.87868C2.11607 1.44129 1.8 2.20435 1.8 3V4.2C1.32261 4.2 0.864773 4.38964 0.527208 4.72721C0.189642 5.06477 0 5.52261 0 6V10.2C0 10.6774 0.189642 11.1352 0.527208 11.4728C0.864773 11.8104 1.32261 12 1.8 12H7.8C8.27739 12 8.73523 11.8104 9.07279 11.4728C9.41036 11.1352 9.6 10.6774 9.6 10.2V6C9.6 5.52261 9.41036 5.06477 9.07279 4.72721C8.73523 4.38964 8.27739 4.2 7.8 4.2ZM3 3C3 2.52261 3.18964 2.06477 3.52721 1.72721C3.86477 1.38964 4.32261 1.2 4.8 1.2C5.27739 1.2 5.73523 1.38964 6.07279 1.72721C6.41036 2.06477 6.6 2.52261 6.6 3V4.2H3V3ZM8.4 10.2C8.4 10.3591 8.33679 10.5117 8.22427 10.6243C8.11174 10.7368 7.95913 10.8 7.8 10.8H1.8C1.64087 10.8 1.48826 10.7368 1.37574 10.6243C1.26321 10.5117 1.2 10.3591 1.2 10.2V6C1.2 5.84087 1.26321 5.68826 1.37574 5.57574C1.48826 5.46321 1.64087 5.4 1.8 5.4H7.8C7.95913 5.4 8.11174 5.46321 8.22427 5.57574C8.33679 5.68826 8.4 5.84087 8.4 6V10.2Z" fill="#7A869A"/>
</svg>
