<svg width="10" height="12" viewBox="0 0 10 12" fill="none" xmlns="http://www.w3.org/2000/svg">
<path d="M9.6 6C9.6 5.84087 9.53679 5.68826 9.42426 5.57574C9.31174 5.46321 9.15913 5.4 9 5.4H4.446L5.826 4.026C5.88194 3.97006 5.92632 3.90364 5.9566 3.83055C5.98687 3.75746 6.00245 3.67912 6.00246 3.6C6.00246 3.52088 5.98687 3.44254 5.9566 3.36945C5.92632 3.29636 5.88194 3.22994 5.826 3.174C5.77006 3.11806 5.70364 3.07368 5.63055 3.0434C5.55746 3.01313 5.47912 2.99755 5.4 2.99755C5.32088 2.99755 5.24254 3.01313 5.16945 3.0434C5.09636 3.07368 5.02994 3.11806 4.974 3.174L2.574 5.574C2.51938 5.63106 2.47656 5.69835 2.448 5.772C2.38799 5.91808 2.38799 6.08192 2.448 6.228C2.47656 6.30165 2.51938 6.36894 2.574 6.426L4.974 8.826C5.02978 8.88224 5.09614 8.92687 5.16925 8.95734C5.24237 8.9878 5.32079 9.00348 5.4 9.00348C5.47921 9.00348 5.55763 8.9878 5.63075 8.95734C5.70386 8.92687 5.77022 8.88224 5.826 8.826C5.88224 8.77022 5.92687 8.70386 5.95733 8.63075C5.9878 8.55763 6.00348 8.47921 6.00348 8.4C6.00348 8.32079 5.9878 8.24237 5.95733 8.16925C5.92687 8.09614 5.88224 8.02978 5.826 7.974L4.446 6.6H9C9.15913 6.6 9.31174 6.53679 9.42426 6.42426C9.53679 6.31174 9.6 6.15913 9.6 6ZM7.8 0H1.8C1.32261 0 0.864773 0.189642 0.527208 0.527208C0.189642 0.864773 0 1.32261 0 1.8V10.2C0 10.6774 0.189642 11.1352 0.527208 11.4728C0.864773 11.8104 1.32261 12 1.8 12H7.8C8.27739 12 8.73523 11.8104 9.07279 11.4728C9.41036 11.1352 9.6 10.6774 9.6 10.2V8.4C9.6 8.24087 9.53679 8.08826 9.42426 7.97574C9.31174 7.86321 9.15913 7.8 9 7.8C8.84087 7.8 8.68826 7.86321 8.57574 7.97574C8.46321 8.08826 8.4 8.24087 8.4 8.4V10.2C8.4 10.3591 8.33679 10.5117 8.22427 10.6243C8.11174 10.7368 7.95913 10.8 7.8 10.8H1.8C1.64087 10.8 1.48826 10.7368 1.37574 10.6243C1.26321 10.5117 1.2 10.3591 1.2 10.2V1.8C1.2 1.64087 1.26321 1.48826 1.37574 1.37574C1.48826 1.26321 1.64087 1.2 1.8 1.2H7.8C7.95913 1.2 8.11174 1.26321 8.22427 1.37574C8.33679 1.48826 8.4 1.64087 8.4 1.8V3.6C8.4 3.75913 8.46321 3.91174 8.57574 4.02426C8.68826 4.13679 8.84087 4.2 9 4.2C9.15913 4.2 9.31174 4.13679 9.42426 4.02426C9.53679 3.91174 9.6 3.75913 9.6 3.6V1.8C9.6 1.32261 9.41036 0.864773 9.07279 0.527208C8.73523 0.189642 8.27739 0 7.8 0Z" fill="#42526E"/>
</svg>
