<svg width="20" height="20" viewBox="0 0 20 20" fill="none" xmlns="http://www.w3.org/2000/svg">
<path d="M18.125 6.45837V15.2779C18.1246 15.5909 18.0001 15.8909 17.7788 16.1122C17.5575 16.3335 17.2575 16.458 16.9445 16.4584H3.125C2.79348 16.4584 2.47554 16.3267 2.24112 16.0923C2.0067 15.8578 1.875 15.5399 1.875 15.2084V4.58337C1.875 4.25185 2.0067 3.93391 2.24112 3.69949C2.47554 3.46507 2.79348 3.33337 3.125 3.33337H7.29141C7.56176 3.33404 7.82472 3.4217 8.04141 3.58337L10.2086 5.20837H16.875C17.2065 5.20837 17.5245 5.34007 17.7589 5.57449C17.9933 5.80891 18.125 6.12685 18.125 6.45837ZM16.875 6.45837H10.2086C9.93824 6.4577 9.67528 6.37005 9.45859 6.20837L7.29141 4.58337H3.125V15.2084H16.875V6.45837Z" fill="currentColor"/>
<path d="M11.0419 7.86908L13.5419 10.3691C13.6 10.4271 13.6461 10.4961 13.6776 10.5719C13.709 10.6478 13.7252 10.7291 13.7252 10.8113C13.7252 10.8934 13.709 10.9747 13.6776 11.0506C13.6461 11.1265 13.6 11.1954 13.5419 11.2535L11.0419 13.7535C10.9246 13.8707 10.7656 13.9366 10.5997 13.9366C10.4339 13.9366 10.2748 13.8707 10.1575 13.7535C10.0403 13.6362 9.97438 13.4771 9.97438 13.3113C9.97438 13.1454 10.0403 12.9864 10.1575 12.8691L11.5911 11.4363H7.47473C7.30896 11.4363 7.14999 11.3704 7.03278 11.2532C6.91557 11.136 6.84973 10.977 6.84973 10.8113C6.84973 10.6455 6.91557 10.4865 7.03278 10.3693C7.14999 10.2521 7.30896 10.1863 7.47473 10.1863H11.5911L10.1575 8.75346C10.0403 8.63618 9.97438 8.47712 9.97438 8.31127C9.97438 8.14542 10.0403 7.98636 10.1575 7.86908C10.2748 7.75181 10.4339 7.68592 10.5997 7.68592C10.7656 7.68592 10.9246 7.75181 11.0419 7.86908Z" fill="currentColor"/>
</svg>
