<svg width="8" height="7" viewBox="0 0 8 7" fill="none" xmlns="http://www.w3.org/2000/svg">
<path d="M3.58902 4.4994C3.65986 4.42914 3.71609 4.34554 3.75447 4.25343C3.79284 4.16132 3.8126 4.06253 3.8126 3.96275C3.8126 3.86297 3.79284 3.76417 3.75447 3.67207C3.71609 3.57996 3.65986 3.49636 3.58902 3.4261L1.32147 1.15855C1.251 1.08609 1.16694 1.02822 1.0741 0.988248C0.981266 0.948274 0.881463 0.926976 0.780394 0.925572C0.679324 0.924169 0.578968 0.942687 0.485055 0.980067C0.391142 1.01745 0.305511 1.07296 0.233052 1.14343C0.160593 1.21391 0.102724 1.29796 0.0627495 1.3908C0.022775 1.48364 0.00147783 1.58345 7.40923e-05 1.68451C-0.00132964 1.78558 0.0171874 1.88594 0.054568 1.97985C0.0919487 2.07377 0.147461 2.1594 0.217935 2.23186L1.98662 3.96275L0.217935 5.69364C0.0756063 5.83998 -0.0027607 6.03687 7.42915e-05 6.24098C0.00290928 6.4451 0.086714 6.63974 0.233052 6.78206C0.379391 6.92439 0.576275 7.00276 0.780394 6.99993C0.984513 6.99709 1.17915 6.91329 1.32147 6.76695L3.58902 4.4994ZM4.40534 2.23186L6.14379 3.96275L4.40534 5.69364C4.26301 5.83998 4.18464 6.03687 4.18748 6.24098C4.19031 6.4451 4.27412 6.63973 4.42045 6.78206C4.56679 6.92439 4.76368 7.00276 4.9678 6.99993C5.17191 6.99709 5.36655 6.91329 5.50887 6.76695L7.77642 4.4994C7.84727 4.42914 7.9035 4.34554 7.94187 4.25343C7.98024 4.16132 8 4.06253 8 3.96275C8 3.86297 7.98024 3.76417 7.94187 3.67207C7.9035 3.57996 7.84727 3.49636 7.77642 3.4261L5.50887 1.15855C5.36655 1.01622 5.17351 0.936262 4.97222 0.936262C4.77094 0.936262 4.5779 1.01622 4.43557 1.15855C4.29324 1.30088 4.21328 1.49392 4.21328 1.6952C4.21328 1.89649 4.29324 2.08953 4.43557 2.23186L4.40534 2.23186Z" fill="#42526E"/>
</svg>
