<svg width="8" height="7" viewBox="0 0 8 7" fill="none" xmlns="http://www.w3.org/2000/svg">
<path d="M4.41098 2.5006C4.34014 2.57086 4.2839 2.65446 4.24553 2.74657C4.20716 2.83868 4.1874 2.93747 4.1874 3.03725C4.1874 3.13703 4.20716 3.23583 4.24553 3.32793C4.2839 3.42004 4.34014 3.50364 4.41098 3.5739L6.67853 5.84145C6.749 5.91391 6.83306 5.97178 6.92589 6.01175C7.01873 6.05173 7.11854 6.07302 7.21961 6.07443C7.32067 6.07583 7.42103 6.05731 7.51494 6.01993C7.60886 5.98255 7.69449 5.92704 7.76695 5.85657C7.83941 5.78609 7.89728 5.70204 7.93725 5.6092C7.97722 5.51636 7.99852 5.41655 7.99993 5.31549C8.00133 5.21442 7.98281 5.11406 7.94543 5.02015C7.90805 4.92623 7.85254 4.8406 7.78206 4.76814L6.01338 3.03725L7.78206 1.30636C7.92439 1.16002 8.00276 0.963134 7.99993 0.759016C7.99709 0.554897 7.91329 0.360265 7.76695 0.217936C7.62061 0.0756066 7.42372 -0.00276068 7.21961 7.42903e-05C7.01549 0.00290926 6.82085 0.0867139 6.67853 0.233052L4.41098 2.5006ZM3.59466 4.76814L1.85621 3.03725L3.59466 1.30636C3.73699 1.16002 3.81536 0.963134 3.81252 0.759015C3.80969 0.554897 3.72588 0.360265 3.57955 0.217936C3.43321 0.0756065 3.23632 -0.00276087 3.0322 7.41072e-05C2.82809 0.00290908 2.63345 0.0867138 2.49113 0.233052L0.223579 2.5006C0.152735 2.57086 0.0965041 2.65446 0.0581306 2.74657C0.0197571 2.83868 -1.28401e-07 2.93747 -1.32762e-07 3.03725C-1.37124e-07 3.13703 0.0197571 3.23582 0.0581306 3.32793C0.0965041 3.42004 0.152735 3.50364 0.223579 3.5739L2.49112 5.84145C2.63345 5.98378 2.82649 6.06374 3.02778 6.06374C3.22906 6.06374 3.4221 5.98378 3.56443 5.84145C3.70676 5.69912 3.78672 5.50608 3.78672 5.3048C3.78672 5.10351 3.70676 4.91047 3.56443 4.76814L3.59466 4.76814Z" fill="#42526E"/>
</svg>
