<svg width="13" height="12" viewBox="0 0 13 12" fill="none" xmlns="http://www.w3.org/2000/svg">
<path d="M11.8405 10.9884L9.61413 8.77999C10.4783 7.70246 10.8968 6.33476 10.7836 4.95814C10.6704 3.58151 10.034 2.30059 9.00534 1.37875C7.97668 0.456919 6.63392 -0.0357596 5.25316 0.00202291C3.8724 0.0398054 2.5586 0.605177 1.58189 1.58189C0.605177 2.5586 0.0398054 3.8724 0.00202291 5.25316C-0.0357596 6.63392 0.456919 7.97668 1.37875 9.00534C2.30059 10.034 3.58151 10.6704 4.95814 10.7836C6.33476 10.8968 7.70246 10.4783 8.77999 9.61413L10.9884 11.8225C11.0441 11.8787 11.1105 11.9234 11.1836 11.9538C11.2568 11.9843 11.3352 12 11.4144 12C11.4936 12 11.5721 11.9843 11.6452 11.9538C11.7183 11.9234 11.7847 11.8787 11.8405 11.8225C11.9487 11.7106 12.0091 11.5611 12.0091 11.4054C12.0091 11.2498 11.9487 11.1003 11.8405 10.9884ZM5.41343 9.61413C4.58262 9.61413 3.77045 9.36776 3.07965 8.90618C2.38885 8.44461 1.85044 7.78855 1.5325 7.02097C1.21456 6.25339 1.13137 5.40877 1.29346 4.59392C1.45554 3.77906 1.85562 3.03057 2.4431 2.4431C3.03057 1.85562 3.77906 1.45554 4.59392 1.29346C5.40877 1.13137 6.25339 1.21456 7.02097 1.5325C7.78855 1.85044 8.44461 2.38885 8.90618 3.07965C9.36776 3.77045 9.61413 4.58262 9.61413 5.41343C9.61413 6.52753 9.17156 7.59599 8.38377 8.38377C7.59599 9.17156 6.52753 9.61413 5.41343 9.61413Z" fill="#0F62FE"/>
</svg>
