<svg width="16" height="16" viewBox="0 0 16 16" fill="none" xmlns="http://www.w3.org/2000/svg">
<path d="M14.4328 8.52793C14.3046 8.38196 14.2338 8.1943 14.2338 8C14.2338 7.8057 14.3046 7.61804 14.4328 7.47207L15.4567 6.32023C15.5695 6.19438 15.6395 6.03603 15.6568 5.8679C15.674 5.69976 15.6376 5.53049 15.5526 5.38436L13.9529 2.61673C13.8688 2.47077 13.7408 2.35507 13.5871 2.28613C13.4334 2.21718 13.2619 2.19852 13.097 2.23278L11.5932 2.53674C11.4018 2.57628 11.2026 2.54441 11.0332 2.44716C10.8637 2.3499 10.7357 2.19398 10.6733 2.00882L10.1854 0.545014C10.1317 0.386139 10.0295 0.248146 9.89312 0.150541C9.75676 0.0529359 9.59317 0.000654948 9.42548 0.00108782H6.22591C6.05148 -0.00801657 5.87887 0.0402236 5.73443 0.13844C5.59 0.236657 5.48168 0.379452 5.42602 0.545014L4.97808 2.00882C4.91569 2.19398 4.78769 2.3499 4.61822 2.44716C4.44876 2.54441 4.24956 2.57628 4.05821 2.53674L2.51442 2.23278C2.35808 2.21069 2.1987 2.23536 2.05636 2.30369C1.91402 2.37201 1.79508 2.48093 1.71453 2.61673L0.114745 5.38436C0.027685 5.52886 -0.01146 5.69718 0.00290644 5.86527C0.0172729 6.03336 0.0844151 6.1926 0.194734 6.32023L1.2106 7.47207C1.33883 7.61804 1.40956 7.8057 1.40956 8C1.40956 8.1943 1.33883 8.38196 1.2106 8.52793L0.194734 9.67977C0.0844151 9.8074 0.0172729 9.96664 0.00290644 10.1347C-0.01146 10.3028 0.027685 10.4711 0.114745 10.6156L1.71453 13.3833C1.79859 13.5292 1.92659 13.6449 2.08028 13.7139C2.23397 13.7828 2.40549 13.8015 2.57041 13.7672L4.07421 13.4633C4.26555 13.4237 4.46476 13.4556 4.63422 13.5528C4.80368 13.6501 4.93169 13.806 4.99408 13.9912L5.48201 15.455C5.53767 15.6205 5.64599 15.7633 5.79043 15.8616C5.93486 15.9598 6.10748 16.008 6.28191 15.9989H9.48147C9.64916 15.9993 9.81275 15.9471 9.94911 15.8495C10.0855 15.7519 10.1877 15.6139 10.2414 15.455L10.7293 13.9912C10.7917 13.806 10.9197 13.6501 11.0892 13.5528C11.2586 13.4556 11.4578 13.4237 11.6492 13.4633L13.153 13.7672C13.3179 13.8015 13.4894 13.7828 13.6431 13.7139C13.7968 13.6449 13.9248 13.5292 14.0089 13.3833L15.6086 10.6156C15.6936 10.4695 15.73 10.3002 15.7128 10.1321C15.6955 9.96397 15.6255 9.80562 15.5127 9.67977L14.4328 8.52793ZM13.241 9.59978L13.8809 10.3197L12.857 12.0954L11.9131 11.9035C11.337 11.7857 10.7378 11.8836 10.229 12.1785C9.72033 12.4734 9.33761 12.9448 9.15352 13.5033L8.84956 14.3991H6.80184L6.51387 13.4873C6.32978 12.9288 5.94706 12.4574 5.43834 12.1625C4.92963 11.8676 4.33035 11.7697 3.75425 11.8875L2.81038 12.0794L1.77052 10.3117L2.41043 9.59178C2.80394 9.15183 3.0215 8.58227 3.0215 7.992C3.0215 7.40174 2.80394 6.83218 2.41043 6.39222L1.77052 5.67232L2.79438 3.91256L3.73825 4.10453C4.31435 4.22229 4.91363 4.12443 5.42235 3.82953C5.93106 3.53462 6.31379 3.0632 6.49788 2.50475L6.80184 1.60087H8.84956L9.15352 2.51275C9.33761 3.0712 9.72033 3.54262 10.229 3.83752C10.7378 4.13243 11.337 4.23029 11.9131 4.11253L12.857 3.92055L13.8809 5.69631L13.241 6.41622C12.8519 6.85516 12.637 7.42142 12.637 8.008C12.637 8.59457 12.8519 9.16083 13.241 9.59978ZM7.8257 4.80044C7.19288 4.80044 6.57428 4.98809 6.04811 5.33966C5.52195 5.69123 5.11185 6.19094 4.86968 6.77558C4.62752 7.36022 4.56415 8.00355 4.68761 8.6242C4.81107 9.24486 5.1158 9.81497 5.56326 10.2624C6.01073 10.7099 6.58084 11.0146 7.20149 11.1381C7.82215 11.2615 8.46547 11.1982 9.05012 10.956C9.63476 10.7138 10.1345 10.3037 10.486 9.77758C10.8376 9.25142 11.0253 8.63281 11.0253 8C11.0253 7.15142 10.6882 6.3376 10.0881 5.73757C9.48809 5.13753 8.67427 4.80044 7.8257 4.80044ZM7.8257 9.59978C7.50929 9.59978 7.19999 9.50596 6.9369 9.33017C6.67382 9.15438 6.46877 8.90453 6.34769 8.61221C6.22661 8.31989 6.19493 7.99823 6.25665 7.6879C6.31838 7.37757 6.47075 7.09252 6.69448 6.86878C6.91821 6.64505 7.20327 6.49268 7.51359 6.43096C7.82392 6.36923 8.14558 6.40091 8.43791 6.52199C8.73023 6.64308 8.98008 6.84813 9.15587 7.11121C9.33165 7.37429 9.42548 7.68359 9.42548 8C9.42548 8.42429 9.25693 8.8312 8.95691 9.13122C8.6569 9.43123 8.24998 9.59978 7.8257 9.59978Z" fill="#0F62FE"/>
</svg>
