<svg width="11" height="10" viewBox="0 0 11 10" fill="none" xmlns="http://www.w3.org/2000/svg">
<path d="M8.9874 6.00646C8.69246 6.00841 8.40162 6.07567 8.13578 6.20341C7.86993 6.33116 7.63569 6.51621 7.44988 6.74526L4.904 5.57216C5.0237 5.20563 5.0237 4.81052 4.904 4.44398L7.44988 3.27088C7.75021 3.63328 8.16889 3.87794 8.63205 3.96168C9.0952 4.04543 9.57305 3.96288 9.98127 3.72859C10.3895 3.49431 10.7018 3.12336 10.8631 2.68121C11.0245 2.23905 11.0244 1.75412 10.863 1.312C10.7016 0.86988 10.3892 0.498985 9.98095 0.264776C9.5727 0.0305678 9.09483 -0.0518989 8.63169 0.0319307C8.16855 0.11576 7.74991 0.360497 7.44965 0.722948C7.14939 1.0854 6.98682 1.54227 6.99063 2.01292C6.99213 2.13184 7.00382 2.25042 7.02557 2.36734L4.38983 3.58038C4.10883 3.30561 3.75299 3.11988 3.36689 3.04646C2.98079 2.97303 2.58162 3.01518 2.21937 3.16761C1.85712 3.32005 1.54791 3.576 1.33048 3.90339C1.11305 4.23078 0.99707 4.61506 0.99707 5.00807C0.99707 5.40109 1.11305 5.78536 1.33048 6.11275C1.54791 6.44015 1.85712 6.69609 2.21937 6.84853C2.58162 7.00097 2.98079 7.04311 3.36689 6.96969C3.75299 6.89626 4.10883 6.71053 4.38983 6.43576L7.02557 7.6488C7.00382 7.76573 6.99213 7.8843 6.99063 8.00323C6.99063 8.39815 7.10774 8.78421 7.32714 9.11257C7.54655 9.44094 7.85841 9.69687 8.22327 9.848C8.58813 9.99914 8.98961 10.0387 9.37695 9.96163C9.76428 9.88459 10.1201 9.69441 10.3993 9.41516C10.6786 9.13591 10.8688 8.78011 10.9458 8.39278C11.0228 8.00544 10.9833 7.60396 10.8322 7.2391C10.681 6.87424 10.4251 6.56238 10.0967 6.34297C9.76838 6.12357 9.38232 6.00646 8.9874 6.00646ZM8.9874 1.01453C9.18486 1.01453 9.37789 1.07308 9.54207 1.18279C9.70625 1.29249 9.83422 1.44842 9.90979 1.63085C9.98535 1.81328 10.0051 2.01402 9.9666 2.20769C9.92808 2.40136 9.83299 2.57925 9.69336 2.71888C9.55374 2.85851 9.37584 2.95359 9.18217 2.99212C8.98851 3.03064 8.78776 3.01087 8.60533 2.9353C8.4229 2.85974 8.26697 2.73177 8.15727 2.56759C8.04757 2.4034 7.98901 2.21038 7.98901 2.01292C7.98901 1.74813 8.0942 1.49418 8.28143 1.30695C8.46867 1.11972 8.72261 1.01453 8.9874 1.01453ZM2.99708 6.00646C2.79962 6.00646 2.6066 5.9479 2.44241 5.8382C2.27823 5.7285 2.15026 5.57257 2.0747 5.39014C1.99913 5.20771 1.97936 5.00696 2.01788 4.8133C2.05641 4.61963 2.15149 4.44173 2.29112 4.30211C2.43075 4.16248 2.60864 4.06739 2.80231 4.02887C2.99598 3.99035 3.19672 4.01012 3.37915 4.08568C3.56158 4.16125 3.71751 4.28922 3.82721 4.4534C3.93692 4.61758 3.99547 4.81061 3.99547 5.00807C3.99547 5.27286 3.89028 5.5268 3.70305 5.71404C3.51582 5.90127 3.26187 6.00646 2.99708 6.00646ZM8.9874 9.00161C8.78994 9.00161 8.59691 8.94306 8.43272 8.83335C8.26854 8.72365 8.14058 8.56773 8.06501 8.38529C7.98944 8.20286 7.96967 8.00212 8.0082 7.80845C8.04672 7.61479 8.14181 7.43689 8.28143 7.29726C8.42106 7.15764 8.59896 7.06255 8.79262 7.02403C8.98629 6.9855 9.18703 7.00527 9.36946 7.08084C9.5519 7.15641 9.70782 7.28437 9.81752 7.44855C9.92723 7.61274 9.98578 7.80577 9.98578 8.00323C9.98578 8.26802 9.8806 8.52196 9.69336 8.70919C9.50613 8.89643 9.25219 9.00161 8.9874 9.00161Z" fill="#0F62FE"/>
</svg>
