<svg width="11" height="12" viewBox="0 0 11 12" fill="none" xmlns="http://www.w3.org/2000/svg">
<path d="M6.94799 5.58C7.22069 5.23916 7.37074 4.81648 7.37399 4.38C7.37399 3.85646 7.16602 3.35437 6.79582 2.98417C6.42563 2.61397 5.92353 2.406 5.4 2.406C4.87646 2.406 4.37436 2.61397 4.00417 2.98417C3.63397 3.35437 3.426 3.85646 3.426 4.38C3.42925 4.81648 3.5793 5.23916 3.852 5.58C3.31717 5.90546 2.89758 6.3901 2.652 6.96599C2.61763 7.03906 2.59836 7.11832 2.59535 7.19901C2.59233 7.2797 2.60564 7.36017 2.63447 7.4356C2.6633 7.51103 2.70706 7.57986 2.76312 7.63798C2.81919 7.69609 2.88641 7.74229 2.96075 7.7738C3.0351 7.80532 3.11504 7.8215 3.19579 7.82139C3.27654 7.82127 3.35643 7.80486 3.43069 7.77313C3.50494 7.7414 3.57203 7.69501 3.62793 7.63673C3.68382 7.57846 3.72738 7.5095 3.756 7.43399C3.8939 7.11164 4.12294 6.83658 4.41499 6.64259C4.70704 6.4486 5.04939 6.34412 5.4 6.34199C5.75162 6.34295 6.09527 6.44688 6.38849 6.64095C6.68172 6.83501 6.91169 7.11071 7.04999 7.43399C7.09593 7.54244 7.17276 7.63497 7.27092 7.70006C7.36908 7.76514 7.48422 7.7999 7.60199 7.79999C7.68228 7.79849 7.7616 7.78222 7.83599 7.75199C7.98231 7.68984 8.09798 7.57215 8.15761 7.42478C8.21723 7.27741 8.21593 7.11241 8.15399 6.96599C7.90683 6.38924 7.48505 5.9045 6.94799 5.58ZM5.4 5.142C5.24666 5.14199 5.09678 5.09644 4.96937 5.01113C4.84196 4.92581 4.74276 4.80457 4.68436 4.66279C4.62596 4.52101 4.61098 4.36508 4.64134 4.21478C4.67169 4.06447 4.74601 3.92657 4.85485 3.81857C4.9637 3.71057 5.10217 3.63733 5.25271 3.60814C5.40324 3.57896 5.55905 3.59515 5.70037 3.65465C5.84169 3.71415 5.96216 3.81429 6.04648 3.94236C6.1308 4.07043 6.17518 4.22066 6.17399 4.374C6.17241 4.57823 6.09017 4.77356 5.94519 4.91742C5.8002 5.06128 5.60424 5.142 5.4 5.142ZM8.99999 0H1.8C1.32261 0 0.864773 0.189642 0.527207 0.527207C0.189642 0.864773 0 1.32261 0 1.8V8.39999C0 8.87738 0.189642 9.33522 0.527207 9.67278C0.864773 10.0103 1.32261 10.2 1.8 10.2H3.354L4.974 11.826C5.03006 11.8816 5.09655 11.9256 5.16965 11.9555C5.24275 11.9853 5.32103 12.0004 5.4 12C5.543 12 5.68131 11.9489 5.78999 11.856L7.72199 10.2H8.99999C9.47738 10.2 9.93522 10.0103 10.2728 9.67278C10.6103 9.33522 10.8 8.87738 10.8 8.39999V1.8C10.8 1.32261 10.6103 0.864773 10.2728 0.527207C9.93522 0.189642 9.47738 0 8.99999 0ZM9.59999 8.39999C9.59999 8.55912 9.53678 8.71174 9.42426 8.82426C9.31174 8.93678 9.15912 8.99999 8.99999 8.99999H7.49999C7.35699 8.99998 7.21868 9.05105 7.10999 9.14399L5.43 10.584L4.026 9.17399C3.96993 9.11838 3.90344 9.07439 3.83034 9.04453C3.75724 9.01467 3.67896 8.99954 3.6 8.99999H1.8C1.64087 8.99999 1.48826 8.93678 1.37573 8.82426C1.26321 8.71174 1.2 8.55912 1.2 8.39999V1.8C1.2 1.64087 1.26321 1.48826 1.37573 1.37573C1.48826 1.26321 1.64087 1.2 1.8 1.2H8.99999C9.15912 1.2 9.31174 1.26321 9.42426 1.37573C9.53678 1.48826 9.59999 1.64087 9.59999 1.8V8.39999Z" fill="#42526E"/>
</svg>
