<svg width="14" height="12" viewBox="0 0 14 12" fill="none" xmlns="http://www.w3.org/2000/svg">
<path d="M11.1898 3.42082C10.7736 2.46453 10.0553 1.67107 9.14508 1.16204C8.23482 0.653003 7.18276 0.456469 6.15012 0.602553C5.11748 0.748638 4.16122 1.22928 3.42787 1.97083C2.69453 2.71239 2.22456 3.67394 2.08998 4.70814C1.44059 4.86366 0.87092 5.25224 0.489163 5.80011C0.107405 6.34797 -0.0598574 7.01696 0.0191387 7.68002C0.0981349 8.34308 0.417888 8.95405 0.917676 9.39689C1.41746 9.83972 2.06248 10.0836 2.73023 10.0822C2.91087 10.0822 3.08412 10.0104 3.21186 9.88269C3.33959 9.75496 3.41135 9.58171 3.41135 9.40107C3.41135 9.22042 3.33959 9.04718 3.21186 8.91944C3.08412 8.79171 2.91087 8.71995 2.73023 8.71995C2.36894 8.71995 2.02245 8.57642 1.76698 8.32095C1.51151 8.06548 1.36799 7.71899 1.36799 7.3577C1.36799 6.99641 1.51151 6.64992 1.76698 6.39445C2.02245 6.13898 2.36894 5.99546 2.73023 5.99546C2.91087 5.99546 3.08412 5.9237 3.21186 5.79597C3.33959 5.66823 3.41135 5.49498 3.41135 5.31434C3.41309 4.50876 3.70034 3.72988 4.22207 3.11608C4.7438 2.50227 5.46622 2.09328 6.26099 1.96177C7.05576 1.83027 7.87142 1.98475 8.56306 2.39778C9.25469 2.81082 9.77752 3.45566 10.0387 4.21773C10.0776 4.33478 10.1476 4.43905 10.2412 4.51943C10.3347 4.5998 10.4484 4.65325 10.5699 4.67409C11.0236 4.75982 11.4349 4.99667 11.7367 5.34604C12.0386 5.6954 12.2132 6.1367 12.2321 6.59801C12.2511 7.05932 12.1133 7.51345 11.8411 7.88641C11.569 8.25937 11.1785 8.52916 10.7334 8.65183C10.5582 8.69699 10.4081 8.80992 10.3161 8.96575C10.2241 9.12159 10.1978 9.30758 10.243 9.4828C10.2882 9.65803 10.4011 9.80814 10.5569 9.9001C10.7128 9.99207 10.8987 10.0184 11.074 9.97321C11.7908 9.7838 12.4262 9.36564 12.8837 8.78224C13.3412 8.19885 13.5959 7.48208 13.609 6.74079C13.6221 5.9995 13.3929 5.27418 12.9563 4.67499C12.5197 4.07579 11.8994 3.63544 11.1898 3.42082ZM7.30055 4.83074C7.23578 4.76873 7.15939 4.72013 7.07578 4.68771C6.90996 4.61958 6.72396 4.61958 6.55813 4.68771C6.47452 4.72013 6.39814 4.76873 6.33336 4.83074L4.29 6.87411C4.16174 7.00237 4.08969 7.17632 4.08969 7.3577C4.08969 7.53909 4.16174 7.71304 4.29 7.8413C4.41826 7.96956 4.59221 8.04161 4.77359 8.04161C4.95498 8.04161 5.12893 7.96956 5.25719 7.8413L6.13584 6.95584V10.7633C6.13584 10.944 6.2076 11.1172 6.33533 11.2449C6.46307 11.3727 6.63631 11.4444 6.81696 11.4444C6.9976 11.4444 7.17085 11.3727 7.29858 11.2449C7.42632 11.1172 7.49808 10.944 7.49808 10.7633V6.95584L8.37673 7.8413C8.44004 7.90514 8.51538 7.95581 8.59838 7.99039C8.68138 8.02497 8.77041 8.04277 8.86032 8.04277C8.95024 8.04277 9.03926 8.02497 9.12226 7.99039C9.20527 7.95581 9.2806 7.90514 9.34392 7.8413C9.40776 7.77798 9.45843 7.70265 9.49301 7.61965C9.52759 7.53665 9.54539 7.44762 9.54539 7.3577C9.54539 7.26779 9.52759 7.17876 9.49301 7.09576C9.45843 7.01276 9.40776 6.93743 9.34392 6.87411L7.30055 4.83074Z" fill="white"/>
</svg>
