<svg width="14" height="14" viewBox="0 0 12 12" fill="none" xmlns="http://www.w3.org/2000/svg">
<path d="M8.1829 6.42559C8.7708 5.96306 9.19991 5.32878 9.41054 4.611C9.62116 3.89323 9.60283 3.12765 9.3581 2.42078C9.11336 1.71391 8.65438 1.1009 8.04502 0.667026C7.43566 0.233154 6.70622 0 5.95818 0C5.21014 0 4.4807 0.233154 3.87134 0.667026C3.26199 1.1009 2.80301 1.71391 2.55827 2.42078C2.31353 3.12765 2.2952 3.89323 2.50583 4.611C2.71646 5.32878 3.14557 5.96306 3.73347 6.42559C2.72609 6.82919 1.84713 7.49858 1.19027 8.36243C0.53341 9.22627 0.123286 10.2522 0.00361702 11.3308C-0.00504523 11.4095 0.00188794 11.4892 0.0240205 11.5653C0.0461531 11.6413 0.0830516 11.7123 0.13261 11.7741C0.232696 11.8989 0.378271 11.9789 0.537309 11.9964C0.696348 12.0139 0.855822 11.9675 0.980649 11.8674C1.10548 11.7673 1.18543 11.6217 1.20293 11.4627C1.3346 10.2905 1.89354 9.20788 2.77295 8.42172C3.65236 7.63556 4.7906 7.20096 5.97018 7.20096C7.14976 7.20096 8.28799 7.63556 9.1674 8.42172C10.0468 9.20788 10.6058 10.2905 10.7374 11.4627C10.7537 11.61 10.824 11.7461 10.9348 11.8447C11.0455 11.9432 11.1888 11.9973 11.3371 11.9964H11.403C11.5602 11.9783 11.7039 11.8988 11.8028 11.7753C11.9016 11.6517 11.9476 11.4941 11.9307 11.3368C11.8105 10.2551 11.3982 9.22657 10.7379 8.3614C10.0777 7.49623 9.19447 6.82705 8.1829 6.42559ZM5.95818 5.99984C5.48378 5.99984 5.02003 5.85916 4.62558 5.5956C4.23113 5.33204 3.9237 4.95742 3.74215 4.51913C3.5606 4.08084 3.5131 3.59856 3.60566 3.13327C3.69821 2.66799 3.92665 2.2406 4.26211 1.90514C4.59756 1.56969 5.02495 1.34124 5.49024 1.24869C5.95552 1.15614 6.43781 1.20364 6.8761 1.38519C7.31439 1.56673 7.689 1.87417 7.95256 2.26862C8.21612 2.66307 8.3568 3.12682 8.3568 3.60122C8.3568 4.23737 8.10409 4.84747 7.65426 5.2973C7.20443 5.74713 6.59434 5.99984 5.95818 5.99984Z" fill="#7A869A"/>
</svg>
