<svg width="14" height="8" viewBox="0 0 14 8" fill="none" xmlns="http://www.w3.org/2000/svg">
<path d="M7.21509 7.99999H1.7274C1.03705 7.99999 0.792365 7.80336 0.792365 7.41886C0.792365 6.29162 2.20361 4.73618 4.47124 4.73618C6.73448 4.73618 8.14573 6.29162 8.14573 7.41886C8.14573 7.80336 7.90105 7.99999 7.21509 7.99999ZM4.46686 3.95411C3.53187 3.95411 2.72354 3.11522 2.72354 2.02293C2.72354 0.94374 3.53621 0.144177 4.46686 0.144177C5.40184 0.144177 6.21889 0.961216 6.21451 2.03167C6.21451 3.11522 5.40623 3.95411 4.46686 3.95411ZM12.4299 7.99999H9.11993C9.57433 7.34021 9.01366 6.012 8.06993 5.28671C8.55926 4.96341 9.1849 4.72307 9.99757 4.72307C11.8789 4.72307 13.0938 6.04926 13.2 7.22257C13.205 7.27821 13.2076 7.33351 13.2076 7.3883C13.2076 7.42981 13.2051 7.46937 13.2 7.50694C13.1568 7.82522 12.9262 7.99999 12.4299 7.99999ZM9.99757 4.0546C9.18053 4.0546 8.47993 3.32058 8.47993 2.37246C8.47993 1.43308 9.1849 0.738386 9.99757 0.738386C10.8059 0.738386 11.5219 1.45057 11.5176 2.3812C11.5176 3.32058 10.8102 4.0546 9.99757 4.0546Z" fill="white"/>
<path fill-rule="evenodd" clip-rule="evenodd" d="M13.2 7.50694V7.22257C13.0938 6.04926 11.8789 4.72307 9.99757 4.72307C9.1849 4.72307 8.55926 4.96341 8.06993 5.28671C9.01366 6.012 9.57433 7.34021 9.11993 7.99999H12.4299C12.9262 7.99999 13.1568 7.82522 13.2 7.50694ZM7.21509 7.99999H1.7274C1.03705 7.99999 0.792365 7.80336 0.792365 7.41886C0.792365 6.29162 2.20361 4.73618 4.47124 4.73618C6.73448 4.73618 8.14573 6.29162 8.14573 7.41886C8.14573 7.80336 7.90105 7.99999 7.21509 7.99999ZM4.46686 3.95411C3.53187 3.95411 2.72354 3.11522 2.72354 2.02293C2.72354 0.94374 3.53621 0.144177 4.46686 0.144177C5.40184 0.144177 6.21889 0.961216 6.21451 2.03167C6.21451 3.11522 5.40623 3.95411 4.46686 3.95411ZM9.99757 4.0546C9.18053 4.0546 8.47993 3.32058 8.47993 2.37246C8.47993 1.43308 9.1849 0.738386 9.99757 0.738386C10.8059 0.738386 11.5219 1.45057 11.5176 2.3812C11.5176 3.32058 10.8102 4.0546 9.99757 4.0546Z" fill="white"/>
</svg>
