<svg xmlns="http://www.w3.org/2000/svg" width="22" height="22" viewBox="0 0 22 22">
  <path fill="#CCC" fillRule="evenodd" d="M926.492125,326.059375 C926.89225,326.46225 926.8895,327.115375 926.486625,327.5155 C926.28725,327.7135 926.024625,327.8125 925.762,327.8125 C925.498,327.8125 925.232625,327.71075 925.031875,327.51 L921.995875,324.456125 L918.942,327.4935 C918.74125,327.6915 918.48,327.791875 918.216,327.791875 C917.953375,327.791875 917.688,327.690125 917.48725,327.488 C917.087125,327.0865 917.089875,326.433375 917.49275,326.03325 L920.546625,322.99725 L917.50925,319.942 C917.10775,319.5405 917.1105,318.887375 917.51475,318.48725 C917.914875,318.08575 918.568,318.0885 918.968125,318.49275 L922.004125,321.546625 L925.06075,318.510625 C925.460875,318.109125 926.114,318.111875 926.5155,318.516125 C926.915625,318.917625 926.912875,319.569375 926.51,319.9695 L923.45475,323.0055 L926.492125,326.059375 Z M922,312 C915.92525,312 911,316.92525 911,323 C911,329.076125 915.92525,334 922,334 C928.076125,334 933,329.076125 933,323 C933,316.92525 928.076125,312 922,312 Z" transform="translate(-911 -312)"/>
</svg>
