<svg xmlns="http://www.w3.org/2000/svg" width="22" height="18" viewBox="0 0 22 18">
  <path fill="#4385F4" fill-rule="evenodd" d="M818.981232,515.957274 L826.730112,515.957274 C828.869419,515.957274 830.612381,514.215903 830.612381,512.073413 C830.612381,511.41443 831.147208,510.874828 831.80619,510.874828 C832.465173,510.874828 833,511.403288 833,512.073413 C833,515.532277 830.185793,518.344893 826.730112,518.344893 L818.982172,518.344893 C818.939813,519.668831 818.82078,520.768163 818.612452,520.955846 C818.056766,521.456915 811,517.539342 811,516.994584 C811,516.4496 818.136471,512.604316 818.612452,513.033322 C818.806995,513.208572 818.935381,514.480369 818.981232,515.957274 L818.981232,515.957274 L818.981232,515.957274 L818.981232,515.957274 Z M825.023288,508.180002 L817.27148,508.180002 C815.130581,508.180002 813.387619,509.921373 813.387619,512.062271 C813.387619,512.721254 812.852792,513.260856 812.19381,513.260856 C811.534827,513.260856 811,512.732396 811,512.062271 C811,508.604999 813.814207,505.792383 817.27148,505.792383 L825.013731,505.792383 C825.052111,504.407813 825.17206,503.238288 825.387548,503.044154 C825.943234,502.543085 833,506.460658 833,507.005416 C833,507.5504 825.863529,511.395684 825.387548,510.966678 C825.19906,510.796882 825.072675,509.597734 825.023288,508.180002 L825.023288,508.180002 L825.023288,508.180002 L825.023288,508.180002 Z" transform="translate(-811 -503)"/>
</svg>
