<svg xmlns="http://www.w3.org/2000/svg" width="22" height="18" viewBox="0 0 22 18">
  <path fill="#4385F4" fill-rule="evenodd" d="M18.9812325,25.9572737 L26.7301122,25.9572737 C28.8694189,25.9572737 30.6123809,24.2159035 30.6123809,22.0734133 C30.6123809,21.4144304 31.1472076,20.8748285 31.8061904,20.8748285 C32.4651733,20.8748285 33,21.4032882 33,22.0734133 C33,25.5322775 30.1857929,28.3448928 26.7301122,28.3448928 L18.9821725,28.3448928 C18.9398127,29.6688305 18.8207799,30.7681626 18.6124519,30.9558457 C18.0567657,31.4569149 11,27.5393416 11,26.9945836 C11,26.4496005 18.1364707,22.6043163 18.6124519,23.0333216 C18.8069947,23.2085724 18.9353807,24.4803695 18.9812325,25.9572737 L18.9812325,25.9572737 L18.9812325,25.9572737 L18.9812325,25.9572737 Z M25.0232881,18.1800024 L17.2714795,18.1800024 C15.1305811,18.1800024 13.3876191,19.9213726 13.3876191,22.062271 C13.3876191,22.7212539 12.8527924,23.2608558 12.1938096,23.2608558 C11.5348267,23.2608558 11,22.7323961 11,22.062271 C11,18.6049986 13.8142071,15.7923833 17.2714795,15.7923833 L25.0137311,15.7923833 C25.0521107,14.4078126 25.17206,13.2382879 25.3875481,13.0441543 C25.9432343,12.5430851 33,16.4606584 33,17.0054164 C33,17.5503995 25.8635293,21.3956837 25.3875481,20.9666784 C25.1990601,20.796882 25.0726751,19.5977337 25.0232881,18.1800024 L25.0232881,18.1800024 L25.0232881,18.1800024 L25.0232881,18.1800024 Z" transform="translate(-11 -13)"/>
</svg>
