<svg xmlns="http://www.w3.org/2000/svg" width="22" height="22" viewBox="0 0 22 22">
  <path fill="#4385F4" d="M20.4735883,18.1367052 L16.1574323,13.8347384 C17.1975867,12.3380889 17.7179284,10.6696243 17.7179284,8.83022329 C17.7179284,7.63450278 17.4850396,6.49092866 17.019262,5.3997645 C16.5537929,4.30842463 15.9245435,3.3677689 15.1317784,2.57757768 C14.3390133,1.78738645 13.3954257,1.16018013 12.3007514,0.696178369 C11.2057244,0.232044813 10.0585134,0 8.85889808,0 C7.65937087,0 6.51207175,0.232044813 5.41735331,0.696178369 C4.32245858,1.16018013 3.37873883,1.78738645 2.5859737,2.57757768 C1.79312041,3.3677689 1.16395922,4.30860035 0.698401977,5.3997645 C0.232800659,6.49106045 0,7.63450278 0,8.83022329 C0,10.0258559 0.232800659,11.1690347 0.698401977,12.2605063 C1.16391515,13.3516705 1.79312041,14.2921944 2.5859737,15.0823856 C3.37873883,15.8728405 4.32263488,16.4997832 5.41735331,16.9640485 C6.51220397,17.4280942 7.65937087,17.6600951 8.85889808,17.6600951 C10.7046873,17.6600951 12.3783222,17.141399 13.8799349,16.1047095 L18.1960909,20.3941998 C18.4980883,20.7118666 18.8751002,20.8708098 19.3284929,20.8708098 C19.7646966,20.8708098 20.1424137,20.7119105 20.4609389,20.3941998 C20.7795964,20.0765769 20.9390574,19.7002619 20.9390574,19.2654744 C20.9391896,18.8225597 20.7840039,18.4461129 20.4735883,18.1367052 Z M12.8416317,12.7995866 C11.738495,13.8993173 10.41102,14.4491607 8.85889808,14.4491607 C7.3070406,14.4491607 5.97956558,13.8991855 4.8763408,12.7995866 C3.77311602,11.7000316 3.22152567,10.3770423 3.22152567,8.8299597 C3.22152567,7.28314072 3.77324824,5.95975603 4.8763408,4.8603328 C5.97934521,3.76064599 7.3070406,3.21089044 8.85889808,3.21089044 C10.4108437,3.21089044 11.7383187,3.76086564 12.8416317,4.8603328 C13.9449446,5.95975603 14.4965349,7.28314072 14.4965349,8.8299597 C14.4965349,10.3770423 13.9447683,11.7000316 12.8416317,12.7995866 Z" transform="translate(.586 .545)"/>
</svg>
