<?xml version="1.0" encoding="UTF-8" standalone="no"?>
<svg
   xmlns:dc="http://purl.org/dc/elements/1.1/"
   xmlns:cc="http://creativecommons.org/ns#"
   xmlns:rdf="http://www.w3.org/1999/02/22-rdf-syntax-ns#"
   xmlns:svg="http://www.w3.org/2000/svg"
   xmlns="http://www.w3.org/2000/svg"
   xmlns:sodipodi="http://sodipodi.sourceforge.net/DTD/sodipodi-0.dtd"
   xmlns:inkscape="http://www.inkscape.org/namespaces/inkscape"
   version="1.1"
   width="90"
   height="90"
   x="0"
   y="0"
   viewBox="-175 -150 149.41405 149.41406"
   xml:space="preserve"
   class=""
   id="svg60"
   sodipodi:docname="teamsIcon.svg"
   inkscape:version="1.0.1 (3bc2e813f5, 2020-09-07)"><metadata
     id="metadata66"><rdf:RDF><cc:Work
         rdf:about=""><dc:format>image/svg+xml</dc:format><dc:type
           rdf:resource="http://purl.org/dc/dcmitype/StillImage" /><dc:title></dc:title></cc:Work></rdf:RDF></metadata><defs
     id="defs64" /><sodipodi:namedview
     pagecolor="#ffffff"
     bordercolor="#666666"
     borderopacity="1"
     objecttolerance="10"
     gridtolerance="10"
     guidetolerance="10"
     inkscape:pageopacity="0"
     inkscape:pageshadow="2"
     inkscape:window-width="2880"
     inkscape:window-height="1526"
     id="namedview62"
     showgrid="false"
     inkscape:zoom="2.5507812"
     inkscape:cx="256"
     inkscape:cy="224.63706"
     inkscape:window-x="-11"
     inkscape:window-y="-11"
     inkscape:window-maximized="1"
     inkscape:current-layer="svg60" /><g
     id="g58"
     transform="matrix(0.17500658,0,0,0.17500658,-145.13783,-116.91578)"><g
       id="g56">
<circle
   cx="256"
   cy="119.631"
   r="87"
   fill="#4385f4"
   data-original="#000000"
   id="circle44" />
<circle
   cx="432"
   cy="151.63"
   r="55"
   fill="#4385f4"
   data-original="#000000"
   id="circle46" />
<circle
   cx="80"
   cy="151.63"
   r="55"
   fill="#4385f4"
   data-original="#000000"
   id="circle48" />
<path
   d="m 134.19,256.021 c -21.65,-17.738 -41.257,-15.39 -66.29,-15.39 -37.44,0 -67.9,30.28 -67.9,67.49 v 109.21 c 0,16.16 13.19,29.3 29.41,29.3 70.026,0 61.59,1.267 61.59,-3.02 0,-77.386 -9.166,-134.137 43.19,-187.59 z"
   fill="#4385f4"
   data-original="#000000"
   class=""
   id="path50" /><path
   d="m 279.81,241.03 c -43.724,-3.647 -81.729,0.042 -114.51,27.1 -54.857,43.94 -44.3,103.103 -44.3,175.48 0,19.149 15.58,35.02 35.02,35.02 211.082,0 219.483,6.809 232,-20.91 4.105,-9.374 2.98,-6.395 2.98,-96.07 0,-71.226 -61.673,-120.62 -111.19,-120.62 z"
   fill="#4385f4"
   data-original="#000000"
   class=""
   id="path52" /><path
   d="m 444.1,240.63 c -25.17,0 -44.669,-2.324 -66.29,15.39 51.965,53.056 43.19,105.935 43.19,187.59 0,4.314 -7.003,3.02 60.54,3.02 16.8,0 30.46,-13.61 30.46,-30.34 V 308.12 c 0,-37.21 -30.46,-67.49 -67.9,-67.49 z"
   fill="#4385f4"
   data-original="#000000"
   class=""
   id="path54" /></g></g></svg>
