<?xml version="1.0" encoding="UTF-8" standalone="no"?>
<svg
   xmlns="http://www.w3.org/2000/svg"
   fill="#4a90e2"
   viewBox="0 0 11.3075 13.22625"
   width="11.3075"
   height="13.22625"
   version="1.1">
  <path
     d="M 4.625796,0 C 4.196142,0 3.77452,0.083353 3.469347,0.381068 3.164176,0.67878 3.067802,1.101525 3.067802,1.540151 H 1.0279546 c -0.2830855,0 -0.5139771,0.228244 -0.5139771,0.508092 H 0 V 3.064425 H 11.3075 V 2.048243 h -0.513975 c 0,-0.279848 -0.230888,-0.508092 -0.513979,-0.508092 H 8.239698 C 8.239698,1.101525 8.143328,0.67878 7.838153,0.381068 7.532978,0.0833598 7.11136,0 6.681704,0 Z m 0,1.047938 h 2.055908 c 0.281083,0 0.36941,0.0655 0.401545,0.09527 0.03216,0.02978 0.09637,0.113136 0.09637,0.396948 H 4.127882 c 0,-0.283821 0.06425,-0.367175 0.09637,-0.396948 0.03214,-0.02978 0.120475,-0.09527 0.40155,-0.09527 z M 1.0279546,3.572516 v 8.129459 c 0,0.839543 0.6926646,1.524275 1.5419324,1.524275 h 6.167727 c 0.849268,0 1.541932,-0.684732 1.541932,-1.524275 V 3.572516 Z M 3.083863,5.096791 h 1.027954 v 6.097093 H 3.083863 Z m 2.055909,0 h 1.027956 v 6.097093 H 5.139772 Z m 2.055907,0 h 1.027957 v 6.097093 H 7.195679 Z"
     style="stroke-width:0.511027" />
</svg>
