<svg xmlns="http://www.w3.org/2000/svg" width="49" height="31" viewBox="0 0 49 31">
  <path fill="#6FA348" fill-rule="evenodd" d="M442.78061,470.450425 L442.79139,470.450425 C443.53472,470.450425 444.1384,469.913443 444.1384,469.251165 L444.1384,446.681316 L446.1572,446.681316 C446.62074,446.681316 447,447.018785 447,447.430908 L447,472.249534 C447,472.662531 446.62123,473 446.1572,473 L425.59043,473 C433.10605,470.577467 440.92057,470.448679 442.48073,470.448679 C442.6733,470.448679 442.77816,470.450425 442.78061,470.450425 L442.78061,470.450425 L442.78061,470.450425 L442.78061,470.450425 Z M403.82512,442.072872 C403.37383,442.072872 403.00437,442.40161 403.00437,442.804128 L403.00437,466.977503 C403.00437,467.380021 403.37481,467.708759 403.82512,467.708759 C403.82512,467.708759 412.93177,467.533258 421.43376,470.446496 L421.43376,444.670033 C415.60129,441.317604 403.82512,442.072872 403.82512,442.072872 L403.82512,442.072872 L403.82512,442.072872 L403.82512,442.072872 Z M442.01376,442.804128 L442.01376,466.977503 C442.01376,467.380021 441.64332,467.708759 441.19301,467.708759 C441.19301,467.708759 432.08636,467.533258 423.58437,470.446496 L423.58437,444.670033 C429.41684,441.317604 441.19301,442.072872 441.19301,442.072872 C441.6443,442.072872 442.01376,442.40161 442.01376,442.804128 L442.01376,442.804128 L442.01376,442.804128 L442.01376,442.804128 Z M402.21939,470.450425 L402.20861,470.450425 C401.46577,470.450425 400.8616,469.913443 400.8616,469.251165 L400.8616,446.681316 L398.84231,446.681316 C398.37877,446.681316 398,447.018785 398,447.430908 L398,472.249534 C398,472.662531 398.37877,473 398.84231,473 L419.41006,473 C411.89444,470.577467 404.07943,470.448679 402.51976,470.448679 C402.3267,470.448679 402.22233,470.450425 402.21939,470.450425 L402.21939,470.450425 L402.21939,470.450425 L402.21939,470.450425 Z" transform="translate(-398 -442)"/>
</svg>
