<svg xmlns="http://www.w3.org/2000/svg" width="35" height="42" viewBox="0 0 35 42">
  <path fill="#C96969" fill-rule="evenodd" d="M619.975633,478.25 C619.615276,479.269543 618.642941,480 617.5,480 C616.357059,480 615.384724,479.269543 615.024367,478.25 L619.975633,478.25 L619.975633,478.25 L619.975633,478.25 Z M616.1875,443.319537 L616.1875,438.875367 C616.1875,438.391915 616.574828,438 617.076205,438 L617.923795,438 C618.414613,438 618.8125,438.398276 618.8125,438.875367 L618.8125,443.319537 C618.381291,443.273574 617.943397,443.25 617.5,443.25 C617.056603,443.25 616.618709,443.273574 616.1875,443.319537 L616.1875,443.319537 L616.1875,443.319537 Z M624.429619,445.39848 L627.897021,441.931078 C628.234892,441.593207 628.782673,441.59319 629.137201,441.947717 L629.736537,442.547054 C630.083598,442.894115 630.087006,443.453403 629.753176,443.787233 L626.426764,447.113645 C625.825219,446.473341 625.155654,445.897768 624.429619,445.39848 L624.429619,445.39848 L624.429619,445.39848 Z M629.362416,452.4375 L634.134827,452.4375 C634.612649,452.4375 635,452.824828 635,453.326205 L635,454.173795 C635,454.664613 634.606934,455.0625 634.134827,455.0625 L629.74204,455.0625 C629.709753,454.15918 629.579795,453.280762 629.362416,452.4375 L629.362416,452.4375 L629.362416,452.4375 Z M627.240459,462.943558 L629.753176,465.456275 C630.091048,465.794147 630.091064,466.341927 629.736537,466.696455 L629.137201,467.295791 C628.79014,467.642852 628.230851,467.646261 627.897021,467.312431 L625.522908,464.938317 C625.703725,464.675478 625.894572,464.440833 626.095645,464.242651 C626.506824,463.837383 626.889522,463.403259 627.240459,462.943558 L627.240459,462.943558 L627.240459,462.943558 Z M609.092297,464.448112 L606.227979,467.312431 C605.890108,467.650302 605.342327,467.650318 604.987799,467.295791 L604.388463,466.696455 C604.041402,466.349394 604.037994,465.790105 604.371824,465.456275 L607.392127,462.435972 C607.846466,463.098562 608.364175,463.71423 608.936508,464.274225 C608.988217,464.32482 609.040175,464.382984 609.092297,464.448112 L609.092297,464.448112 L609.092297,464.448112 Z M605.25796,455.0625 L600.865173,455.0625 C600.387351,455.0625 600,454.675172 600,454.173795 L600,453.326205 C600,452.835387 600.393066,452.4375 600.865173,452.4375 L605.637584,452.4375 C605.420205,453.280762 605.290247,454.15918 605.25796,455.0625 L605.25796,455.0625 L605.25796,455.0625 Z M608.160408,447.575818 L604.371824,443.787233 C604.033952,443.449362 604.033936,442.901581 604.388463,442.547054 L604.987799,441.947717 C605.33486,441.600656 605.894149,441.597248 606.227979,441.931078 L610.063407,445.766506 C609.366289,446.300203 608.728131,446.907135 608.160408,447.575818 L608.160408,447.575818 L608.160408,447.575818 Z M610.159864,463.020764 C611.402439,464.236554 612.754647,470.321762 612.754647,470.321762 C612.978442,471.248627 613.932626,472 614.922023,472 L620.105535,472 C621.078749,472 622.001786,471.220442 622.18172,470.287423 C622.18172,470.287423 622.972237,464.861906 624.867695,462.993701 C626.801247,461.087949 628,458.437739 628,455.507348 C628,449.7043 623.29899,445 617.5,445 C611.70101,445 607,449.7043 607,455.507348 C607,458.451636 608.21015,461.11308 610.159864,463.020764 L610.159864,463.020764 L610.159864,463.020764 Z M614,476.066599 C614,475.822711 614.201947,475.625 614.437881,475.625 L620.562119,475.625 C620.803954,475.625 621,475.812281 621,476.066599 L621,476.933401 C621,477.177289 620.798053,477.375 620.562119,477.375 L614.437881,477.375 C614.196046,477.375 614,477.187719 614,476.933401 L614,476.066599 L614,476.066599 L614,476.066599 Z M614,473.441599 C614,473.197711 614.201947,473 614.437881,473 L620.562119,473 C620.803954,473 621,473.187281 621,473.441599 L621,474.308401 C621,474.552289 620.798053,474.75 620.562119,474.75 L614.437881,474.75 C614.196046,474.75 614,474.562719 614,474.308401 L614,473.441599 L614,473.441599 L614,473.441599 Z" transform="translate(-600 -438)"/>
</svg>
