<svg xmlns="http://www.w3.org/2000/svg" width="40" height="34" viewBox="0 0 40 34">
  <path fill="#C96969" fillRule="evenodd" d="M403,664.07724 C403,662.377727 404.376891,661 406.072315,661 L439.927685,661 C441.624478,661 443,662.374951 443,664.07724 L443,691.92276 C443,693.622273 441.623109,695 439.927685,695 L406.072315,695 C404.375522,695 403,693.625049 403,691.92276 L403,664.07724 L403,664.07724 L403,664.07724 L403,664.07724 Z M406.076923,671.828761 C406.076923,670.969387 406.753013,670.272727 407.619172,670.272727 L438.380828,670.272727 C439.232589,670.272727 439.923077,670.968103 439.923077,671.828761 L439.923077,690.353057 C439.923077,691.212431 439.246987,691.909091 438.380828,691.909091 L407.619172,691.909091 C406.767411,691.909091 406.076923,691.213716 406.076923,690.353057 L406.076923,671.828761 L406.076923,671.828761 L406.076923,671.828761 L406.076923,671.828761 Z M407.615385,667.181818 C408.465053,667.181818 409.153846,666.489895 409.153846,665.636364 C409.153846,664.782833 408.465053,664.090909 407.615385,664.090909 C406.765716,664.090909 406.076923,664.782833 406.076923,665.636364 C406.076923,666.489895 406.765716,667.181818 407.615385,667.181818 L407.615385,667.181818 L407.615385,667.181818 L407.615385,667.181818 Z M412.230769,667.181818 C413.080438,667.181818 413.769231,666.489895 413.769231,665.636364 C413.769231,664.782833 413.080438,664.090909 412.230769,664.090909 C411.3811,664.090909 410.692308,664.782833 410.692308,665.636364 C410.692308,666.489895 411.3811,667.181818 412.230769,667.181818 L412.230769,667.181818 L412.230769,667.181818 L412.230769,667.181818 Z M416.846154,667.181818 C417.695823,667.181818 418.384615,666.489895 418.384615,665.636364 C418.384615,664.782833 417.695823,664.090909 416.846154,664.090909 C415.996485,664.090909 415.307692,664.782833 415.307692,665.636364 C415.307692,666.489895 415.996485,667.181818 416.846154,667.181818 L416.846154,667.181818 L416.846154,667.181818 L416.846154,667.181818 Z" transform="translate(-403 -661)"/>
</svg>
