<svg width="9" height="8" viewBox="0 0 9 8" fill="none" xmlns="http://www.w3.org/2000/svg">
<path d="M7.15789 1.26317H4.51368L4.37894 0.842114C4.29159 0.595053 4.12957 0.381273 3.91532 0.230393C3.70107 0.0795118 3.4452 -0.0010008 3.18315 9.39098e-06H1.26316C0.928146 9.39098e-06 0.606858 0.133092 0.36997 0.369979C0.133082 0.606867 0 0.928156 0 1.26317V6.73684C0 7.07185 0.133082 7.39314 0.36997 7.63003C0.606858 7.86692 0.928146 8 1.26316 8H7.15789C7.4929 8 7.81419 7.86692 8.05107 7.63003C8.28796 7.39314 8.42104 7.07185 8.42104 6.73684V2.52632C8.42104 2.19131 8.28796 1.87002 8.05107 1.63314C7.81419 1.39625 7.4929 1.26317 7.15789 1.26317ZM7.57894 6.73684C7.57894 6.84851 7.53458 6.95561 7.45562 7.03457C7.37665 7.11354 7.26956 7.1579 7.15789 7.1579H1.26316C1.15149 7.1579 1.04439 7.11354 0.965428 7.03457C0.886465 6.95561 0.842104 6.84851 0.842104 6.73684V1.26317C0.842104 1.1515 0.886465 1.0444 0.965428 0.965437C1.04439 0.886474 1.15149 0.842114 1.26316 0.842114H3.18315C3.27143 0.841886 3.35754 0.869406 3.42931 0.920784C3.50109 0.972162 3.55491 1.0448 3.58315 1.12843L3.81052 1.81895C3.83877 1.90258 3.89258 1.97522 3.96436 2.0266C4.03614 2.07798 4.12225 2.1055 4.21052 2.10527H7.15789C7.26956 2.10527 7.37665 2.14963 7.45562 2.22859C7.53458 2.30756 7.57894 2.41465 7.57894 2.52632V6.73684Z" fill="#42526E"/>
</svg>
