<svg width="8" height="8" viewBox="0 0 8 8" fill="none" xmlns="http://www.w3.org/2000/svg">
<path d="M7.99989 5.14404V5.12404C7.99505 5.04679 7.98164 4.97032 7.95989 4.89604L7.3039 1.00409C7.25704 0.72088 7.1102 0.463849 6.89003 0.279641C6.66987 0.095434 6.39096 -0.00374268 6.10392 0.000108061H1.87597C1.59237 0.00102653 1.31825 0.102367 1.10224 0.286153C0.88624 0.469939 0.742312 0.724292 0.695991 1.00409L0.0479993 4.88804C0.0262558 4.96232 0.0128403 5.03879 0.00799988 5.11604V5.13604C-7.45048e-09 5.16404 0 5.20004 0 5.20004V6.80002C0 7.11827 0.126427 7.42349 0.351467 7.64853C0.576508 7.87357 0.881728 8 1.19998 8H6.79991C7.11816 8 7.42338 7.87357 7.64843 7.64853C7.87347 7.42349 7.99989 7.11827 7.99989 6.80002V5.20004C7.99989 5.20004 7.99989 5.16404 7.99989 5.14404ZM1.48398 1.13209C1.50017 1.03818 1.54936 0.953127 1.6227 0.892261C1.69603 0.831395 1.78868 0.798712 1.88397 0.800097H6.12392C6.21921 0.798712 6.31186 0.831395 6.3852 0.892261C6.45853 0.953127 6.50772 1.03818 6.52391 1.13209L7.00391 4.02005C6.93672 4.00676 6.8684 4.00006 6.79991 4.00005H1.19998C1.13417 4.00057 1.06855 4.00727 1.00399 4.02005L1.48398 1.13209ZM7.1999 6.80002C7.1999 6.9061 7.15776 7.00784 7.08275 7.08286C7.00773 7.15787 6.90599 7.20001 6.79991 7.20001H1.19998C1.0939 7.20001 0.992159 7.15787 0.917145 7.08286C0.842131 7.00784 0.799989 6.9061 0.799989 6.80002V5.23204L0.831989 5.04804C0.861996 4.97499 0.912955 4.91246 0.978442 4.86833C1.04393 4.8242 1.12101 4.80044 1.19998 4.80004H6.79991C6.87888 4.80044 6.95596 4.8242 7.02145 4.86833C7.08694 4.91246 7.1379 4.97499 7.1679 5.04804L7.1999 5.23204V6.80002ZM5.99992 5.60003C5.92081 5.60003 5.84347 5.62349 5.77769 5.66744C5.71192 5.71139 5.66065 5.77387 5.63037 5.84696C5.6001 5.92004 5.59218 6.00047 5.60761 6.07806C5.62304 6.15565 5.66114 6.22693 5.71708 6.28287C5.77302 6.33881 5.84429 6.3769 5.92188 6.39234C5.99948 6.40777 6.0799 6.39985 6.15299 6.36957C6.22608 6.3393 6.28855 6.28803 6.3325 6.22225C6.37645 6.15647 6.39991 6.07914 6.39991 6.00003C6.39991 5.89394 6.35777 5.7922 6.28276 5.71719C6.20775 5.64217 6.106 5.60003 5.99992 5.60003Z" fill="#0F62FE"/>
</svg>
