<svg xmlns="http://www.w3.org/2000/svg" width="99" height="78" viewBox="0 0 99 78">
  <defs>
    <linearGradient id="folder-yellow-a" x1="50%" x2="50%" y1="0%" y2="100%">
      <stop offset="0%" stop-color="#FFE3B3"/>
      <stop offset="100%" stop-color="#FFCE7A"/>
    </linearGradient>
  </defs>
  <path fill="url(#folder-yellow-a)" fillRule="evenodd" d="M438.669178,104.684932 C441.426247,104.684932 443.663493,106.91749 443.663493,109.671491 L443.663493,140.305284 L443.663493,171.355863 C443.663493,172.9616 442.359436,174.264721 440.750801,174.264721 L347.912692,174.264721 C346.306358,174.264721 345,172.962381 345,171.355863 L345,140.305284 L345,109.671491 C345,109.560796 345.003606,109.450949 345.010708,109.342062 C345.003606,109.233251 345,109.123489 345,109.012885 L345,101.985105 C345,99.2309234 347.236317,97 349.994954,97 L372.892877,97 C374.896915,97 376.623884,98.1764588 377.419754,99.8747346 C377.421541,99.8610064 378.263176,101.332648 378.633429,101.826292 C379.056431,102.390265 379.020516,102.478345 379.760343,103.182973 C380.575974,103.9598 380.776343,104.042126 381.151796,104.227487 C381.303355,104.302311 381.609433,104.474789 382.094499,104.556078 C382.570567,104.635858 383.142944,104.670599 383.473539,104.684932 L438.669178,104.684932 Z" transform="translate(-345 -97)"/>
</svg>
