<?xml version="1.0" encoding="UTF-8" standalone="no"?>
<svg
   xmlns:dc="http://purl.org/dc/elements/1.1/"
   xmlns:cc="http://creativecommons.org/ns#"
   xmlns:rdf="http://www.w3.org/1999/02/22-rdf-syntax-ns#"
   xmlns:svg="http://www.w3.org/2000/svg"
   xmlns="http://www.w3.org/2000/svg"
   xmlns:sodipodi="http://sodipodi.sourceforge.net/DTD/sodipodi-0.dtd"
   xmlns:inkscape="http://www.inkscape.org/namespaces/inkscape"
   width="98.66349"
   height="77.264717"
   viewBox="0 0 98.66349 77.264717"
   version="1.1"
   id="svg3737"
   sodipodi:docname="Folder-Blue.svg"
   inkscape:version="0.92.4 (5da689c313, 2019-01-14)">
  <metadata
     id="metadata3741">
    <rdf:RDF>
      <cc:Work
         rdf:about="">
        <dc:format>image/svg+xml</dc:format>
        <dc:type
           rdf:resource="http://purl.org/dc/dcmitype/StillImage" />
        <dc:title></dc:title>
      </cc:Work>
    </rdf:RDF>
  </metadata>
  <sodipodi:namedview
     pagecolor="#ffffff"
     bordercolor="#666666"
     borderopacity="1"
     objecttolerance="10"
     gridtolerance="10"
     guidetolerance="10"
     inkscape:pageopacity="0"
     inkscape:pageshadow="2"
     inkscape:window-width="504"
     inkscape:window-height="405"
     id="namedview3739"
     showgrid="false"
     fit-margin-top="0"
     fit-margin-left="0"
     fit-margin-right="0"
     fit-margin-bottom="0"
     inkscape:zoom="7"
     inkscape:cx="50.109904"
     inkscape:cy="44.167908"
     inkscape:window-x="756"
     inkscape:window-y="195"
     inkscape:window-maximized="0"
     inkscape:current-layer="svg3737" />
  <defs
     id="defs3733">
    <linearGradient
       id="folder-blue-a"
       x1="702.93359"
       x2="702.93359"
       y1="109.61232"
       y2="196.92329"
       gradientTransform="matrix(1.1300239,0,0,0.88493706,-745,-97)"
       gradientUnits="userSpaceOnUse">
      <stop
         offset="0%"
         stop-color="#B3D1FF"
         id="stop3728" />
      <stop
         offset="100%"
         stop-color="#87B7FF"
         id="stop3730" />
    </linearGradient>
  </defs>
  <path
     d="m 93.66918,7.68493 c 2.75707,0 4.99431,2.23256 4.99431,4.98656 v 30.63379 31.05058 c 0,1.60574 -1.30405,2.90886 -2.91269,2.90886 H 2.91269 C 1.30636,77.26472 0,75.96238 0,74.35586 V 43.30528 12.67149 C 0,12.5608 0.004,12.45095 0.0107,12.34206 0.0037,12.23325 0,12.12349 0,12.01288 V 4.98511 C 0,2.230923 2.23632,0 4.99495,0 h 22.89793 c 2.00404,0 3.731,1.176459 4.52687,2.874735 0.002,-0.01373 0.84343,1.457915 1.21368,1.951555 0.423,0.56398 0.38709,0.65206 1.12691,1.35668 0.81563,0.77683 1.016,0.85916 1.39146,1.04452 0.15155,0.0748 0.45763,0.2473 0.9427,0.32859 0.47607,0.0798 1.04844,0.11452 1.37904,0.12885 z"
     id="path3735"
     inkscape:connector-curvature="0"
     style="fill:url(#folder-blue-a);fillRule:evenodd" />
</svg>
