<svg xmlns="http://www.w3.org/2000/svg" width="99" height="78" viewBox="0 0 99 78">
  <defs>
    <linearGradient id="folder-red-a" x1="50%" x2="50%" y1="0%" y2="100%">
      <stop offset="0%" stop-color="#FFB3B3"/>
      <stop offset="100%" stop-color="#FF8787"/>
    </linearGradient>
  </defs>
  <path fill="url(#folder-red-a)" fill-rule="evenodd" d="M238.669178,104.684932 C241.426247,104.684932 243.663493,106.91749 243.663493,109.671491 L243.663493,140.305284 L243.663493,171.355863 C243.663493,172.9616 242.359436,174.264721 240.750801,174.264721 L147.912692,174.264721 C146.306358,174.264721 145,172.962381 145,171.355863 L145,140.305284 L145,109.671491 C145,109.560796 145.003606,109.450949 145.010708,109.342062 C145.003606,109.233251 145,109.123489 145,109.012885 L145,101.985105 C145,99.2309234 147.236317,97 149.994954,97 L172.892877,97 C174.896915,97 176.623884,98.1764588 177.419754,99.8747346 C177.421541,99.8610064 178.263176,101.332648 178.633429,101.826292 C179.056431,102.390265 179.020516,102.478345 179.760343,103.182973 C180.575974,103.9598 180.776343,104.042126 181.151796,104.227487 C181.303355,104.302311 181.609433,104.474789 182.094499,104.556078 C182.570567,104.635858 183.142944,104.670599 183.473539,104.684932 L238.669178,104.684932 Z" transform="translate(-145 -97)"/>
</svg>
