<svg xmlns="http://www.w3.org/2000/svg" width="99" height="78" viewBox="0 0 99 78">
  <defs>
    <linearGradient id="folder-grey-a" x1="50%" x2="50%" y1="0%" y2="100%">
      <stop offset="0%" stop-color="#D4D4D4"/>
      <stop offset="100%" stop-color="#BABABA"/>
    </linearGradient>
  </defs>
  <path fill="url(#folder-grey-a)" fill-rule="evenodd" d="M1438.66918,104.684932 C1441.42625,104.684932 1443.66349,106.91749 1443.66349,109.671491 L1443.66349,140.305284 L1443.66349,171.355863 C1443.66349,172.9616 1442.35944,174.264721 1440.7508,174.264721 L1347.91269,174.264721 C1346.30636,174.264721 1345,172.962381 1345,171.355863 L1345,140.305284 L1345,109.671491 C1345,109.560796 1345.00361,109.450949 1345.01071,109.342062 C1345.00361,109.233251 1345,109.123489 1345,109.012885 L1345,101.985105 C1345,99.2309234 1347.23632,97 1349.99495,97 L1372.89288,97 C1374.89691,97 1376.62388,98.1764588 1377.41975,99.8747346 C1377.42154,99.8610064 1378.26318,101.332648 1378.63343,101.826292 C1379.05643,102.390265 1379.02052,102.478345 1379.76034,103.182973 C1380.57597,103.9598 1380.77634,104.042126 1381.1518,104.227487 C1381.30335,104.302311 1381.60943,104.474789 1382.0945,104.556078 C1382.57057,104.635858 1383.14294,104.670599 1383.47354,104.684932 L1438.66918,104.684932 Z" transform="translate(-1345 -97)"/>
</svg>
