<svg xmlns="http://www.w3.org/2000/svg" width="99" height="78" viewBox="0 0 99 78">
  <defs>
    <linearGradient id="folder-purple-a" x1="50%" x2="50%" y1="0%" y2="100%">
      <stop offset="0%" stop-color="#DDB3FF"/>
      <stop offset="100%" stop-color="#C680FF"/>
    </linearGradient>
  </defs>
  <path fill="url(#folder-purple-a)" fillRule="evenodd" d="M1038.66918,104.684932 C1041.42625,104.684932 1043.66349,106.91749 1043.66349,109.671491 L1043.66349,140.305284 L1043.66349,171.355863 C1043.66349,172.9616 1042.35944,174.264721 1040.7508,174.264721 L947.912692,174.264721 C946.306358,174.264721 945,172.962381 945,171.355863 L945,140.305284 L945,109.671491 C945,109.560796 945.003606,109.450949 945.010708,109.342062 C945.003606,109.233251 945,109.123489 945,109.012885 L945,101.985105 C945,99.2309234 947.236317,97 949.994954,97 L972.892877,97 C974.896915,97 976.623884,98.1764588 977.419754,99.8747346 C977.421541,99.8610064 978.263176,101.332648 978.633429,101.826292 C979.056431,102.390265 979.020516,102.478345 979.760343,103.182973 C980.575974,103.9598 980.776343,104.042126 981.151796,104.227487 C981.303355,104.302311 981.609433,104.474789 982.094499,104.556078 C982.570567,104.635858 983.142944,104.670599 983.473539,104.684932 L1038.66918,104.684932 Z" transform="translate(-945 -97)"/>
</svg>
