<svg xmlns="http://www.w3.org/2000/svg" width="99" height="78" viewBox="0 0 99 78">
  <defs>
    <linearGradient id="folder-pink-a" x1="50%" x2="50%" y1="0%" y2="100%">
      <stop offset="0%" stop-color="#FFB3DB"/>
      <stop offset="100%" stop-color="#FF87C7"/>
    </linearGradient>
  </defs>
  <path fill="url(#folder-pink-a)" fillRule="evenodd" d="M1238.66918,104.684932 C1241.42625,104.684932 1243.66349,106.91749 1243.66349,109.671491 L1243.66349,140.305284 L1243.66349,171.355863 C1243.66349,172.9616 1242.35944,174.264721 1240.7508,174.264721 L1147.91269,174.264721 C1146.30636,174.264721 1145,172.962381 1145,171.355863 L1145,140.305284 L1145,109.671491 C1145,109.560796 1145.00361,109.450949 1145.01071,109.342062 C1145.00361,109.233251 1145,109.123489 1145,109.012885 L1145,101.985105 C1145,99.2309234 1147.23632,97 1149.99495,97 L1172.89288,97 C1174.89691,97 1176.62388,98.1764588 1177.41975,99.8747346 C1177.42154,99.8610064 1178.26318,101.332648 1178.63343,101.826292 C1179.05643,102.390265 1179.02052,102.478345 1179.76034,103.182973 C1180.57597,103.9598 1180.77634,104.042126 1181.1518,104.227487 C1181.30335,104.302311 1181.60943,104.474789 1182.0945,104.556078 C1182.57057,104.635858 1183.14294,104.670599 1183.47354,104.684932 L1238.66918,104.684932 Z" transform="translate(-1145 -97)"/>
</svg>
