<svg width="64" height="48" viewBox="0 0 64 48" fill="none" xmlns="http://www.w3.org/2000/svg">
<g clip-path="url(#clip0_10458_61548)">
<path d="M6.17603 44.1223C6.17603 44.653 6.58688 44.9664 7.03705 44.9664H56.0905C56.5471 44.9664 56.958 44.653 56.958 44.1223C56.958 43.5982 56.5471 43.2781 56.0905 43.2781H7.03705C6.58688 43.2781 6.17603 43.5982 6.17603 44.1223Z" fill="#0066FF"/>
<path d="M45.5688 38.5819C45.5688 39.6732 46.2866 40.3443 47.4414 40.3443H53.7219C54.8364 40.3443 55.5947 39.6732 55.5947 38.5819V21.1631C55.5947 20.0888 54.8364 19.3943 53.7219 19.3943H47.4414C46.2866 19.3943 45.5688 20.0888 45.5688 21.1631V38.5819Z" fill="#0066FF" fill-opacity="0.25"/>
<path d="M32.8879 38.5818C32.8879 39.6731 33.6292 40.3442 34.7269 40.3442H41.041C42.1622 40.3442 42.9202 39.6731 42.9202 38.5818V10.2988C42.9202 9.22441 42.1622 8.53656 41.041 8.53656H34.7269C33.6292 8.53656 32.8879 9.22441 32.8879 10.2988V38.5818Z" fill="#0066FF" fill-opacity="0.55"/>
<path d="M20.1968 38.5819C20.1968 39.6731 20.9314 40.3442 22.0629 40.3442H28.3498C29.4813 40.3442 30.2225 39.6731 30.2225 38.5819V4.76234C30.2225 3.68797 29.4813 3.00012 28.3498 3.00012H22.0629C20.9314 3.00012 20.1968 3.68797 20.1968 4.76234V38.5819Z" fill="#0066FF"/>
<path d="M7.53296 38.5818C7.53296 39.6731 8.25731 40.3441 9.40561 40.3441H15.686C16.7904 40.3441 17.5652 39.6731 17.5652 38.5818V15.8212C17.5652 14.7534 16.7904 14.059 15.686 14.059H9.40561C8.25731 14.059 7.53296 14.7534 7.53296 15.8212V38.5818Z" fill="#0066FF" fill-opacity="0.55"/>
</g>
<defs>
<clipPath id="clip0_10458_61548">
<rect width="51.6475" height="42" fill="white" transform="translate(6.17627 3)"/>
</clipPath>
</defs>
</svg>
