<svg width="88" height="48" viewBox="0 0 88 48" fill="none" xmlns="http://www.w3.org/2000/svg">
<path d="M81.9787 39.0292C81.9787 40.6504 80.7287 41.627 78.6585 41.627H62.0583C62.5065 40.8652 62.7405 39.979 62.7405 39.0292C62.7405 35.607 60.6955 31.7706 57.0811 28.8918C59.4525 27.7508 62.3053 27.0372 65.5529 27.0372C75.6897 27.0372 81.9787 33.9902 81.9787 39.0292ZM73.3655 14.9082C73.3655 19.791 69.7523 23.541 65.5725 23.541C61.3733 23.541 57.7601 19.791 57.7601 14.9473C57.7601 10.1621 61.3929 6.50977 65.5725 6.50977C69.7327 6.50977 73.3655 10.084 73.3655 14.9082Z" fill="#0066FF" fill-opacity="0.25"/>
<path d="M60.0643 39.0292C60.0643 40.6504 58.8339 41.627 56.7439 41.627H40.1431C40.5921 40.8652 40.8261 39.979 40.8261 39.0292C40.8261 35.609 38.7783 31.775 35.1655 28.897C37.5385 27.7528 40.3925 27.0372 43.6385 27.0372C53.7753 27.0372 60.0643 33.9902 60.0643 39.0292ZM51.4511 14.9082C51.4511 19.791 47.8377 23.541 43.6581 23.541C39.4589 23.541 35.8455 19.791 35.8455 14.9473C35.8455 10.1621 39.4783 6.50977 43.6581 6.50977C47.8183 6.50977 51.4511 10.084 51.4511 14.9082Z" fill="#0066FF" fill-opacity="0.55"/>
<path d="M21.7246 23.541C25.9239 23.541 29.5371 19.791 29.5371 14.9082C29.5371 10.084 25.9043 6.50977 21.7246 6.50977C17.5449 6.50977 13.9121 10.1621 13.9121 14.9473C13.9121 19.791 17.5449 23.541 21.7246 23.541ZM8.61916 41.627H34.8107C36.9005 41.627 38.1505 40.6504 38.1505 39.0292C38.1505 33.9902 31.8419 27.0372 21.7246 27.0372C11.5879 27.0372 5.2793 33.9902 5.2793 39.0292C5.2793 40.6504 6.5293 41.627 8.61916 41.627Z" fill="#0066FF"/>
</svg>
