<svg width="16" height="16" viewBox="0 0 16 16" fill="none" xmlns="http://www.w3.org/2000/svg">
<path d="M15.25 3.49987V6.49987C15.25 6.69878 15.171 6.88955 15.0303 7.0302C14.8897 7.17085 14.6989 7.24987 14.5 7.24987H11.5C11.3011 7.24987 11.1103 7.17085 10.9697 7.0302C10.829 6.88955 10.75 6.69878 10.75 6.49987C10.75 6.30096 10.829 6.11019 10.9697 5.96954C11.1103 5.82889 11.3011 5.74987 11.5 5.74987H12.5687L11.3812 4.66362C11.3731 4.65612 11.365 4.64862 11.3575 4.64049C10.8069 4.09022 10.1295 3.6837 9.38484 3.4567C8.64022 3.22971 7.85123 3.1892 7.08728 3.33874C6.32333 3.48828 5.60784 3.82329 5.00377 4.31428C4.39969 4.80527 3.92555 5.4372 3.62305 6.15447C3.32055 6.87174 3.19898 7.65236 3.26902 8.42765C3.33906 9.20294 3.59857 9.94914 4.02471 10.6006C4.45086 11.252 5.03058 11.7887 5.71287 12.1635C6.39516 12.5383 7.1591 12.7397 7.93748 12.7499H7.99998C9.21243 12.7528 10.3795 12.2891 11.2594 11.4549C11.404 11.3182 11.597 11.2446 11.7959 11.2502C11.9948 11.2558 12.1833 11.3402 12.32 11.4849C12.4567 11.6295 12.5303 11.8225 12.5246 12.0214C12.519 12.2203 12.4346 12.4088 12.29 12.5455C11.1318 13.6433 9.59575 14.2535 7.99998 14.2499H7.91436C6.89126 14.2354 5.88735 13.9701 4.99078 13.477C4.09421 12.984 3.3324 12.2784 2.77224 11.4221C2.21208 10.5659 1.87071 9.58519 1.7781 8.56619C1.68548 7.5472 1.84447 6.52105 2.24108 5.57785C2.6377 4.63464 3.25981 3.80324 4.05281 3.15664C4.8458 2.51004 5.78541 2.06802 6.78915 1.86939C7.79288 1.67076 8.83003 1.72159 9.80952 2.01743C10.789 2.31327 11.6809 2.84507 12.4069 3.56612L13.75 4.79487V3.49987C13.75 3.30096 13.829 3.11019 13.9697 2.96954C14.1103 2.82889 14.3011 2.74987 14.5 2.74987C14.6989 2.74987 14.8897 2.82889 15.0303 2.96954C15.171 3.11019 15.25 3.30096 15.25 3.49987Z" fill="currentColor"/>
</svg>
