<svg width="20" height="20" viewBox="0 0 20 20" fill="none" xmlns="http://www.w3.org/2000/svg">
<rect width="20" height="20" rx="10" fill="#0066FF" fill-opacity="0.15"/>
<path d="M14.4018 11.3393L10.4643 15.2768C10.4033 15.338 10.3309 15.3865 10.2511 15.4196C10.1713 15.4528 10.0858 15.4698 9.99943 15.4698C9.91306 15.4698 9.82754 15.4528 9.74777 15.4196C9.668 15.3865 9.59555 15.338 9.53459 15.2768L5.59709 11.3393C5.4738 11.216 5.40454 11.0488 5.40454 10.8745C5.40454 10.7001 5.4738 10.5329 5.59709 10.4096C5.72037 10.2863 5.88758 10.2171 6.06193 10.2171C6.23628 10.2171 6.40349 10.2863 6.52677 10.4096L9.34373 13.2266V5.1875C9.34373 5.01345 9.41287 4.84653 9.53594 4.72346C9.65901 4.60039 9.82593 4.53125 9.99998 4.53125C10.174 4.53125 10.3409 4.60039 10.464 4.72346C10.5871 4.84653 10.6562 5.01345 10.6562 5.1875V13.2266L13.4732 10.4091C13.5965 10.2858 13.7637 10.2165 13.938 10.2165C14.1124 10.2165 14.2796 10.2858 14.4029 10.4091C14.5262 10.5323 14.5954 10.6996 14.5954 10.8739C14.5954 11.0483 14.5262 11.2155 14.4029 11.3387L14.4018 11.3393Z" fill="#0066FF"/>
</svg>
