<svg width="20" height="20" viewBox="0 0 20 20" fill="none" xmlns="http://www.w3.org/2000/svg">
<g clip-path="url(#clip0_8616_54457)">
<path d="M9.99994 0.25C8.07158 0.25 6.18651 0.821828 4.58313 1.89317C2.97975 2.96452 1.73007 4.48726 0.992118 6.26884C0.254163 8.05042 0.0610809 10.0108 0.437287 11.9021C0.813493 13.7934 1.74209 15.5307 3.10565 16.8943C4.46921 18.2579 6.2065 19.1865 8.09781 19.5627C9.98913 19.9389 11.9495 19.7458 13.7311 19.0078C15.5127 18.2699 17.0354 17.0202 18.1068 15.4168C19.1781 13.8134 19.7499 11.9284 19.7499 10C19.7472 7.41498 18.7191 4.93661 16.8912 3.10872C15.0633 1.28084 12.585 0.25273 9.99994 0.25ZM9.24994 5.5C9.24994 5.30109 9.32896 5.11032 9.46961 4.96967C9.61027 4.82902 9.80103 4.75 9.99994 4.75C10.1989 4.75 10.3896 4.82902 10.5303 4.96967C10.6709 5.11032 10.7499 5.30109 10.7499 5.5V10.75C10.7499 10.9489 10.6709 11.1397 10.5303 11.2803C10.3896 11.421 10.1989 11.5 9.99994 11.5C9.80103 11.5 9.61027 11.421 9.46961 11.2803C9.32896 11.1397 9.24994 10.9489 9.24994 10.75V5.5ZM9.99994 15.25C9.77744 15.25 9.55993 15.184 9.37493 15.0604C9.18992 14.9368 9.04573 14.7611 8.96058 14.5555C8.87543 14.35 8.85315 14.1238 8.89656 13.9055C8.93997 13.6873 9.04711 13.4868 9.20445 13.3295C9.36178 13.1722 9.56224 13.065 9.78047 13.0216C9.9987 12.9782 10.2249 13.0005 10.4305 13.0856C10.636 13.1708 10.8117 13.315 10.9353 13.5C11.059 13.685 11.1249 13.9025 11.1249 14.125C11.1249 14.4234 11.0064 14.7095 10.7954 14.9205C10.5845 15.1315 10.2983 15.25 9.99994 15.25Z" fill="#FF0D00"/>
<path d="M9.24994 5.5C9.24994 5.30109 9.32896 5.11032 9.46961 4.96967C9.61027 4.82902 9.80103 4.75 9.99994 4.75C10.1989 4.75 10.3896 4.82902 10.5303 4.96967C10.6709 5.11032 10.7499 5.30109 10.7499 5.5V10.75C10.7499 10.9489 10.6709 11.1397 10.5303 11.2803C10.3896 11.421 10.1989 11.5 9.99994 11.5C9.80103 11.5 9.61027 11.421 9.46961 11.2803C9.32896 11.1397 9.24994 10.9489 9.24994 10.75V5.5Z" fill="white"/>
<path d="M9.99994 15.25C9.77744 15.25 9.55993 15.184 9.37493 15.0604C9.18992 14.9368 9.04573 14.7611 8.96058 14.5555C8.87543 14.35 8.85315 14.1238 8.89656 13.9055C8.93997 13.6873 9.04711 13.4868 9.20445 13.3295C9.36178 13.1722 9.56224 13.065 9.78047 13.0216C9.9987 12.9782 10.2249 13.0005 10.4305 13.0856C10.636 13.1708 10.8117 13.315 10.9353 13.5C11.059 13.685 11.1249 13.9025 11.1249 14.125C11.1249 14.4234 11.0064 14.7095 10.7954 14.9205C10.5845 15.1315 10.2983 15.25 9.99994 15.25Z" fill="white"/>
</g>
<defs>
<clipPath id="clip0_8616_54457">
<rect width="20" height="20" rx="10" fill="white"/>
</clipPath>
</defs>
</svg>
