<svg width="20" height="20" viewBox="0 0 20 20" fill="none" xmlns="http://www.w3.org/2000/svg">
<rect width="20" height="20" rx="10" fill="#E5E5EB"/>
<path d="M13.4375 6.875V13.125C13.4375 13.2908 13.3717 13.4497 13.2544 13.5669C13.1372 13.6842 12.9783 13.75 12.8125 13.75H11.25C11.0842 13.75 10.9253 13.6842 10.8081 13.5669C10.6908 13.4497 10.625 13.2908 10.625 13.125V6.875C10.625 6.70924 10.6908 6.55027 10.8081 6.43306C10.9253 6.31585 11.0842 6.25 11.25 6.25H12.8125C12.9783 6.25 13.1372 6.31585 13.2544 6.43306C13.3717 6.55027 13.4375 6.70924 13.4375 6.875ZM8.75 6.25H7.1875C7.02174 6.25 6.86277 6.31585 6.74556 6.43306C6.62835 6.55027 6.5625 6.70924 6.5625 6.875V13.125C6.5625 13.2908 6.62835 13.4497 6.74556 13.5669C6.86277 13.6842 7.02174 13.75 7.1875 13.75H8.75C8.91576 13.75 9.07473 13.6842 9.19194 13.5669C9.30915 13.4497 9.375 13.2908 9.375 13.125V6.875C9.375 6.70924 9.30915 6.55027 9.19194 6.43306C9.07473 6.31585 8.91576 6.25 8.75 6.25Z" fill="#636367"/>
</svg>
