<svg width="16" height="16" viewBox="0 0 16 16" fill="none" xmlns="http://www.w3.org/2000/svg">
<path d="M14.5188 7.14373L5.51875 1.64998C5.36884 1.55498 5.19571 1.50299 5.01826 1.49968C4.8408 1.49637 4.66585 1.54188 4.5125 1.63123C4.35689 1.71661 4.22716 1.84235 4.13697 1.99524C4.04678 2.14812 3.99947 2.32248 4 2.49998V13.5C3.99947 13.6775 4.04678 13.8518 4.13697 14.0047C4.22716 14.1576 4.35689 14.2833 4.5125 14.3687C4.66585 14.4581 4.8408 14.5036 5.01826 14.5003C5.19571 14.497 5.36884 14.445 5.51875 14.35L14.5188 8.85623C14.6663 8.76724 14.7883 8.64165 14.873 8.49163C14.9577 8.34161 15.0022 8.17226 15.0022 7.99998C15.0022 7.8277 14.9577 7.65835 14.873 7.50833C14.7883 7.35831 14.6663 7.23272 14.5188 7.14373Z" fill="currentColor"/>
</svg>
