<svg width="20" height="20" viewBox="0 0 20 20" fill="none" xmlns="http://www.w3.org/2000/svg">
<rect width="20" height="20" rx="10" fill="#0066FF"/>
<path d="M9.08764 14C9.39326 14 9.63146 13.8831 9.79326 13.636L13.982 7.23146C14.0989 7.05169 14.1483 6.88539 14.1483 6.72809C14.1483 6.30562 13.8337 6 13.4022 6C13.1056 6 12.9213 6.10787 12.7416 6.39101L9.06517 12.1888L7.2 9.87416C7.03371 9.6764 6.85393 9.58652 6.60225 9.58652C6.16629 9.58652 5.85168 9.89663 5.85168 10.3191C5.85168 10.5079 5.91011 10.6742 6.07191 10.8584L8.39101 13.6674C8.58427 13.8966 8.8 14 9.08764 14Z" fill="white"/>
</svg>
