<svg width="20" height="20" viewBox="0 0 20 20" fill="none" xmlns="http://www.w3.org/2000/svg">
<rect width="20" height="20" rx="10" fill="#0066FF" fill-opacity="0.15"/>
<path d="M14.4017 9.5895C14.3407 9.65068 14.2683 9.69922 14.1885 9.73235C14.1088 9.76547 14.0232 9.78252 13.9369 9.78252C13.8505 9.78252 13.765 9.76547 13.6852 9.73235C13.6054 9.69922 13.533 9.65068 13.472 9.5895L10.6562 6.77364V14.8127C10.6562 14.9868 10.587 15.1537 10.464 15.2767C10.3409 15.3998 10.174 15.469 9.99992 15.469C9.82587 15.469 9.65895 15.3998 9.53588 15.2767C9.41281 15.1537 9.34367 14.9868 9.34367 14.8127V6.77364L6.52671 9.5895C6.40343 9.71279 6.23622 9.78205 6.06187 9.78205C5.88752 9.78205 5.72031 9.71279 5.59702 9.5895C5.47374 9.46622 5.40448 9.29901 5.40448 9.12466C5.40448 8.95031 5.47374 8.7831 5.59702 8.65981L9.53452 4.72231C9.59549 4.66113 9.66794 4.61259 9.74771 4.57947C9.82747 4.54635 9.913 4.5293 9.99937 4.5293C10.0857 4.5293 10.1713 4.54635 10.251 4.57947C10.3308 4.61259 10.4032 4.66113 10.4642 4.72231L14.4017 8.65981C14.4629 8.72078 14.5114 8.79323 14.5446 8.873C14.5777 8.95276 14.5947 9.03829 14.5947 9.12466C14.5947 9.21103 14.5777 9.29655 14.5446 9.37632C14.5114 9.45609 14.4629 9.52853 14.4017 9.5895Z" fill="#0066FF"/>
</svg>
