<svg width="20" height="20" viewBox="0 0 20 20" fill="none" xmlns="http://www.w3.org/2000/svg">
<path d="M18.4923 14.6876L11.6251 2.81263C11.4607 2.52703 11.224 2.2898 10.9387 2.12485C10.6534 1.9599 10.3297 1.87305 10.0001 1.87305C9.67061 1.87305 9.34689 1.9599 9.06161 2.12485C8.77632 2.2898 8.53955 2.52703 8.37515 2.81263L1.50796 14.6876C1.34114 14.9718 1.25248 15.295 1.251 15.6245C1.24951 15.954 1.33524 16.278 1.49949 16.5637C1.66374 16.8493 1.90065 17.0864 2.18617 17.2509C2.47169 17.4154 2.79565 17.5014 3.12515 17.5001H16.8751C17.2046 17.5014 17.5286 17.4154 17.8141 17.2509C18.0996 17.0864 18.3366 16.8493 18.5008 16.5637C18.6651 16.278 18.7508 15.954 18.7493 15.6245C18.7478 15.295 18.6592 14.9718 18.4923 14.6876ZM9.37515 8.12513C9.37515 7.95937 9.441 7.8004 9.55821 7.68319C9.67542 7.56598 9.83439 7.50013 10.0001 7.50013C10.1659 7.50013 10.3249 7.56598 10.4421 7.68319C10.5593 7.8004 10.6251 7.95937 10.6251 8.12513V11.2501C10.6251 11.4159 10.5593 11.5749 10.4421 11.6921C10.3249 11.8093 10.1659 11.8751 10.0001 11.8751C9.83439 11.8751 9.67542 11.8093 9.55821 11.6921C9.441 11.5749 9.37515 11.4159 9.37515 11.2501V8.12513ZM10.0001 15.0001C9.81473 15.0001 9.63347 14.9451 9.4793 14.8421C9.32513 14.7391 9.20497 14.5927 9.13401 14.4214C9.06305 14.2501 9.04449 14.0616 9.08066 13.8797C9.11684 13.6979 9.20612 13.5308 9.33724 13.3997C9.46835 13.2686 9.63539 13.1793 9.81725 13.1431C9.99911 13.107 10.1876 13.1255 10.3589 13.1965C10.5302 13.2675 10.6766 13.3876 10.7797 13.5418C10.8827 13.696 10.9376 13.8772 10.9376 14.0626C10.9376 14.3113 10.8389 14.5497 10.6631 14.7255C10.4872 14.9014 10.2488 15.0001 10.0001 15.0001Z" fill="#FFCC00"/>
</svg>
