<?xml version="1.0" encoding="UTF-8" standalone="no"?>
<svg
   width="168.61211"
   height="150.82608"
   viewBox="0 0 168.61211 150.82608"
   fill="none"
   version="1.1"
   id="svg269"
   sodipodi:docname="files.svg"
   inkscape:version="1.1.2 (b8e25be8, 2022-02-05)"
   xmlns:inkscape="http://www.inkscape.org/namespaces/inkscape"
   xmlns:sodipodi="http://sodipodi.sourceforge.net/DTD/sodipodi-0.dtd"
   xmlns="http://www.w3.org/2000/svg"
   xmlns:svg="http://www.w3.org/2000/svg">
  <sodipodi:namedview
     id="namedview271"
     pagecolor="#ffffff"
     bordercolor="#666666"
     borderopacity="1.0"
     inkscape:pageshadow="2"
     inkscape:pageopacity="0.0"
     inkscape:pagecheckerboard="0"
     showgrid="false"
     fit-margin-top="0"
     fit-margin-left="0"
     fit-margin-right="0"
     fit-margin-bottom="0"
     inkscape:zoom="2.1836959"
     inkscape:cx="59.761068"
     inkscape:cy="121.58286"
     inkscape:window-width="1312"
     inkscape:window-height="969"
     inkscape:window-x="0"
     inkscape:window-y="44"
     inkscape:window-maximized="0"
     inkscape:current-layer="g231" />
  <g
     filter="url(#filter0_d_1795_12560)"
     id="g216"
     transform="translate(-64.065949,-32.086949)">
    <path
       d="m 144.301,37.0461 c 0.575,-3.2634 3.687,-5.4424 6.951,-4.867 l 42,7.4058 c 4.674,0.8241 8.902,3.2833 11.93,6.9382 l 22.898,27.6451 c 3.743,4.5186 5.313,10.4528 4.294,16.231 l -13.675,77.5548 c -0.575,3.263 -3.687,5.442 -6.95,4.867 l -82.724,-14.587 c -3.264,-0.575 -5.443,-3.687 -4.867,-6.95 z"
       fill="#fcfcfd"
       id="path203" />
    <path
       d="m 211.887,172.033 -82.723,-14.586 c -2.829,-0.499 -4.717,-3.196 -4.218,-6.024 L 145.089,37.185 c 0.498,-2.8283 3.195,-4.7168 6.024,-4.2181 l 42,7.4059 c 4.487,0.7911 8.546,3.1519 11.452,6.6606 l 22.899,27.6451 c 3.593,4.3379 5.1,10.0347 4.122,15.5818 l -13.675,77.5547 c -0.498,2.828 -3.195,4.717 -6.024,4.218 z"
       stroke="#e5e5eb"
       stroke-width="1.6"
       id="path205" />
    <path
       d="m 197.44,42.8141 c -0.526,-0.8051 -1.29,-1.5762 -2.224,-1.9752 l 0.012,-0.0723 c 3.315,0.7625 6.296,2.5951 8.475,5.226 l 24.558,29.6476 c 2.917,3.5218 4.234,8.0858 3.662,12.599 l -0.074,-0.013 c -0.055,-1.0142 -0.518,-1.9963 -1.095,-2.7658 -0.722,-0.9639 -1.779,-1.8027 -2.844,-1.9906 l -29.939,-5.2789 c -2.828,-0.4987 -4.716,-3.1957 -4.218,-6.024 l 4.585,-25.9989 c 0.188,-1.0654 -0.239,-2.3455 -0.898,-3.3539 z"
       fill="#f2f4f8"
       stroke="#e5e5eb"
       stroke-width="1.6"
       id="path207" />
    <mask
       id="path-4-inside-1_1795_12560"
       fill="#ffffff">
      <path
         d="m 129.025,158.234 82.724,14.587 c 3.263,0.575 6.375,-1.604 6.95,-4.867 l 0.695,-3.939 c -0.575,3.263 -3.687,5.442 -6.951,4.867 l -82.724,-14.587 c -3.263,-0.575 -5.442,-3.687 -4.866,-6.951 l -0.695,3.94 c -0.575,3.263 1.604,6.375 4.867,6.95 z"
         id="path209" />
    </mask>
    <path
       d="m 129.025,158.234 82.724,14.587 c 3.263,0.575 6.375,-1.604 6.95,-4.867 l 0.695,-3.939 c -0.575,3.263 -3.687,5.442 -6.951,4.867 l -82.724,-14.587 c -3.263,-0.575 -5.442,-3.687 -4.866,-6.951 l -0.695,3.94 c -0.575,3.263 1.604,6.375 4.867,6.95 z"
       fill="#e5e5eb"
       id="path212" />
    <path
       d="m 212.443,168.882 -82.724,-14.587 -1.389,7.879 82.724,14.586 z m -82.724,-14.587 c -1.087,-0.192 -1.814,-1.229 -1.622,-2.317 l -7.878,-1.389 c -0.959,5.439 2.672,10.626 8.111,11.585 z m 85.041,12.964 c -0.192,1.088 -1.229,1.814 -2.317,1.623 l -1.389,7.878 c 5.439,0.959 10.626,-2.673 11.585,-8.111 z m -1.622,-2.317 -82.724,-14.586 -1.389,7.878 82.724,14.587 z m -82.724,-14.586 c -1.088,-0.192 -1.814,-1.229 -1.622,-2.317 l -7.879,-1.389 c -0.959,5.439 2.673,10.625 8.112,11.584 z m 85.041,12.964 c -0.192,1.088 -1.229,1.814 -2.317,1.622 l -1.389,7.879 c 5.439,0.959 10.625,-2.673 11.584,-8.112 z m -87.358,-11.342 0.695,-3.939 -7.879,-1.389 -0.694,3.939 z m 94.542,16.671 0.694,-3.94 -7.878,-1.389 -0.695,3.939 z"
       fill="#e5e5eb"
       mask="url(#path-4-inside-1_1795_12560)"
       id="path214" />
  </g>
  <g
     filter="url(#filter1_d_1795_12560)"
     id="g231"
     transform="translate(-64.065949,-32.086949)">
    <path
       d="m 64.1581,63.7162 c -0.5754,-3.2633 1.6036,-6.3753 4.867,-6.9507 l 42.0009,-7.4058 c 4.673,-0.8241 9.488,0.0406 13.583,2.4396 l 30.973,18.146 c 5.062,2.966 8.567,8.0054 9.586,13.7836 l 13.675,77.5551 c 0.575,3.263 -1.604,6.375 -4.867,6.95 l -82.724,14.587 c -3.2633,0.575 -6.3753,-1.604 -6.9507,-4.867 z"
       fill="#fcfcfd"
       id="path218" />
    <path
       d="m 173.837,167.447 -82.7239,14.586 c -2.8282,0.499 -5.5253,-1.39 -6.024,-4.218 L 64.9459,63.5773 c -0.4987,-2.8282 1.3898,-5.5253 4.2181,-6.024 l 42.001,-7.4058 c 4.486,-0.7911 9.108,0.039 13.039,2.342 l 30.973,18.1461 c 4.86,2.8473 8.225,7.6851 9.203,13.2322 l 13.675,77.5552 c 0.499,2.828 -1.39,5.525 -4.218,6.024 z"
       stroke="#e5e5eb"
       stroke-width="1.6"
       id="path220" />
    <path
       d="m 116.065,50.9617 c -0.769,-0.5767 -1.751,-1.0398 -2.765,-1.0952 l -0.013,-0.0723 c 3.375,-0.4173 6.803,0.2853 9.751,2.0122 l 33.217,19.4605 c 3.945,2.3116 6.744,6.15 7.75,10.5866 l -0.074,0.013 c -0.398,-0.9341 -1.17,-1.6986 -1.975,-2.2244 -1.008,-0.6587 -2.288,-1.0855 -3.354,-0.8976 l -29.938,5.2789 c -2.828,0.4987 -5.525,-1.3898 -6.024,-4.2181 l -4.584,-25.9989 c -0.188,-1.0654 -1.027,-2.1224 -1.991,-2.8447 z"
       fill="#f2f4f8"
       stroke="#e5e5eb"
       stroke-width="1.6"
       id="path222" />
    <mask
       id="path-9-inside-2_1795_12560"
       fill="#ffffff">
      <path
         d="m 91.2518,182.821 82.7242,-14.587 c 3.263,-0.575 5.442,-3.687 4.867,-6.95 l -0.695,-3.94 c 0.575,3.264 -1.604,6.376 -4.867,6.951 l -82.7238,14.587 c -3.2634,0.575 -6.3753,-1.604 -6.9508,-4.867 l 0.6946,3.939 c 0.5755,3.263 3.6874,5.442 6.9508,4.867 z"
         id="path224" />
    </mask>
    <path
       d="m 91.2518,182.821 82.7242,-14.587 c 3.263,-0.575 5.442,-3.687 4.867,-6.95 l -0.695,-3.94 c 0.575,3.264 -1.604,6.376 -4.867,6.951 l -82.7238,14.587 c -3.2634,0.575 -6.3753,-1.604 -6.9508,-4.867 l 0.6946,3.939 c 0.5755,3.263 3.6874,5.442 6.9508,4.867 z"
       fill="#e5e5eb"
       id="path227" />
    <path
       d="m 173.281,164.295 -82.7238,14.587 1.3892,7.878 82.7236,-14.586 z m -82.7238,14.587 c -1.0878,0.191 -2.1251,-0.535 -2.3169,-1.623 l -7.8785,1.389 c 0.959,5.439 6.1456,9.071 11.5846,8.112 z m 84.3458,-16.904 c 0.192,1.088 -0.534,2.125 -1.622,2.317 l 1.389,7.879 c 5.439,-0.959 9.071,-6.146 8.112,-11.585 z m -2.317,-1.622 -82.7234,14.586 1.3892,7.879 82.7242,-14.587 z m -82.7234,14.586 c -1.0878,0.192 -2.1251,-0.534 -2.3169,-1.622 l -7.8785,1.389 c 0.959,5.439 6.1456,9.071 11.5846,8.112 z m 84.3464,-16.903 c 0.192,1.088 -0.535,2.125 -1.623,2.317 l 1.39,7.878 c 5.439,-0.959 9.07,-6.145 8.111,-11.584 z m -85.9687,19.22 -0.6946,-3.939 -7.8785,1.389 0.6946,3.939 z m 94.5417,-16.67 -0.695,-3.939 -7.878,1.389 0.694,3.939 z"
       fill="#e5e5eb"
       mask="url(#path-9-inside-2_1795_12560)"
       id="path229" />
  </g>
  <defs
     id="defs267">
    <filter
       id="filter0_d_1795_12560"
       x="59.116199"
       y="-0.86279303"
       width="244.769"
       height="270.72601"
       filterUnits="userSpaceOnUse"
       color-interpolation-filters="sRGB">
      <feFlood
         flood-opacity="0"
         result="BackgroundImageFix"
         id="feFlood233" />
      <feColorMatrix
         in="SourceAlpha"
         type="matrix"
         values="0 0 0 0 0 0 0 0 0 0 0 0 0 0 0 0 0 0 127 0"
         result="hardAlpha"
         id="feColorMatrix235" />
      <feOffset
         dy="32"
         id="feOffset237" />
      <feGaussianBlur
         stdDeviation="32"
         id="feGaussianBlur239" />
      <feComposite
         in2="hardAlpha"
         operator="out"
         id="feComposite241" />
      <feColorMatrix
         type="matrix"
         values="0 0 0 0 0 0 0 0 0 0 0 0 0 0 0 0 0 0 0.02 0"
         id="feColorMatrix243" />
      <feBlend
         mode="normal"
         in2="BackgroundImageFix"
         result="effect1_dropShadow_1795_12560"
         id="feBlend245" />
      <feBlend
         mode="normal"
         in="SourceGraphic"
         in2="effect1_dropShadow_1795_12560"
         result="shape"
         id="feBlend247" />
    </filter>
    <filter
       id="filter1_d_1795_12560"
       x="-0.883789"
       y="9.1372099"
       width="244.769"
       height="270.72601"
       filterUnits="userSpaceOnUse"
       color-interpolation-filters="sRGB">
      <feFlood
         flood-opacity="0"
         result="BackgroundImageFix"
         id="feFlood250" />
      <feColorMatrix
         in="SourceAlpha"
         type="matrix"
         values="0 0 0 0 0 0 0 0 0 0 0 0 0 0 0 0 0 0 127 0"
         result="hardAlpha"
         id="feColorMatrix252" />
      <feOffset
         dy="32"
         id="feOffset254" />
      <feGaussianBlur
         stdDeviation="32"
         id="feGaussianBlur256" />
      <feComposite
         in2="hardAlpha"
         operator="out"
         id="feComposite258" />
      <feColorMatrix
         type="matrix"
         values="0 0 0 0 0 0 0 0 0 0 0 0 0 0 0 0 0 0 0.02 0"
         id="feColorMatrix260" />
      <feBlend
         mode="normal"
         in2="BackgroundImageFix"
         result="effect1_dropShadow_1795_12560"
         id="feBlend262" />
      <feBlend
         mode="normal"
         in="SourceGraphic"
         in2="effect1_dropShadow_1795_12560"
         result="shape"
         id="feBlend264" />
    </filter>
  </defs>
</svg>
