<svg width="60" height="51" viewBox="0 0 60 51" fill="none" xmlns="http://www.w3.org/2000/svg">
<path d="M0 5.62496C0 2.51838 2.51838 0 5.62496 0H14.9994C21.3152 0 22.1047 5.62496 29.9993 5.62496H54.3746C57.4812 5.62496 59.9995 8.14334 59.9995 11.2499V44.9997C59.9995 48.1062 57.4812 50.6246 54.3746 50.6246H5.62496C2.51838 50.6246 0 48.1062 0 44.9996V5.62496Z" fill="#52AFE0"/>
<path d="M0 5.62496C0 2.51838 2.51838 0 5.62496 0H14.9994C21.3152 0 22.1047 5.62496 29.9993 5.62496H54.3746C57.4812 5.62496 59.9995 8.14334 59.9995 11.2499V44.9997C59.9995 48.1062 57.4812 50.6246 54.3746 50.6246H5.62496C2.51838 50.6246 0 48.1062 0 44.9996V5.62496Z" fill="url(#paint0_linear)" fill-opacity="0.2"/>
<g filter="url(#filter0_i)">
<path d="M0 44.9997V18.75C0 15.6434 2.51838 13.125 5.62496 13.125L54.3746 13.125C57.4812 13.125 59.9995 15.6434 59.9995 18.75V44.9997C59.9995 48.1063 57.4812 50.6246 54.3746 50.6246H5.62496C2.51838 50.6246 0 48.1063 0 44.9997Z" fill="#73D0FA"/>
<path d="M0 44.9997V18.75C0 15.6434 2.51838 13.125 5.62496 13.125L54.3746 13.125C57.4812 13.125 59.9995 15.6434 59.9995 18.75V44.9997C59.9995 48.1063 57.4812 50.6246 54.3746 50.6246H5.62496C2.51838 50.6246 0 48.1063 0 44.9997Z" fill="url(#paint1_radial)" fill-opacity="0.16"/>
</g>
<defs>
<filter id="filter0_i" x="0" y="9.37503" width="59.9995" height="41.2496" filterUnits="userSpaceOnUse" color-interpolation-filters="sRGB">
<feFlood flood-opacity="0" result="BackgroundImageFix"/>
<feBlend mode="normal" in="SourceGraphic" in2="BackgroundImageFix" result="shape"/>
<feColorMatrix in="SourceAlpha" type="matrix" values="0 0 0 0 0 0 0 0 0 0 0 0 0 0 0 0 0 0 127 0" result="hardAlpha"/>
<feOffset dy="-3.74997"/>
<feGaussianBlur stdDeviation="1.87499"/>
<feComposite in2="hardAlpha" operator="arithmetic" k2="-1" k3="1"/>
<feColorMatrix type="matrix" values="0 0 0 0 0.321569 0 0 0 0 0.686275 0 0 0 0 0.878431 0 0 0 0.32 0"/>
<feBlend mode="normal" in2="shape" result="effect1_innerShadow"/>
</filter>
<linearGradient id="paint0_linear" x1="29.9993" y1="9.37494" x2="29.9993" y2="20.6249" gradientUnits="userSpaceOnUse">
<stop stop-color="#52AFE0"/>
<stop offset="1" stop-color="#00529E" stop-opacity="0.1"/>
</linearGradient>
<radialGradient id="paint1_radial" cx="0" cy="0" r="1" gradientUnits="userSpaceOnUse" gradientTransform="translate(29.9998 20.6249) rotate(90) scale(22.4998 35.9998)">
<stop stop-color="white"/>
<stop offset="1" stop-color="white" stop-opacity="0"/>
</radialGradient>
</defs>
</svg>
