<svg width="141" height="129" viewBox="0 0 141 129" fill="none" xmlns="http://www.w3.org/2000/svg">
<path d="M8.09961 23.1001C8.09961 16.4727 13.4722 11.1001 20.0996 11.1001H40.0986C53.5723 11.1001 55.2565 23.1001 72.0986 23.1001H120.899C127.527 23.1001 132.899 28.4727 132.899 35.1001V105.5C132.899 112.127 127.527 117.5 120.899 117.5H20.0996C13.4722 117.5 8.09961 112.127 8.09961 105.5V23.1001Z" fill="#52AFE0"/>
<path d="M8.09961 23.1001C8.09961 16.4727 13.4722 11.1001 20.0996 11.1001H40.0986C53.5723 11.1001 55.2565 23.1001 72.0986 23.1001H120.899C127.527 23.1001 132.899 28.4727 132.899 35.1001V105.5C132.899 112.127 127.527 117.5 120.899 117.5H20.0996C13.4722 117.5 8.09961 112.127 8.09961 105.5V23.1001Z" fill="url(#paint0_linear_1795_13095)" fill-opacity="0.2"/>
<g filter="url(#filter0_i_1795_13095)">
<path d="M6.5002 105.5C5.74966 99.4957 2.18264 58.2853 1.74438 53.2118C1.71477 52.869 1.69656 52.527 1.71112 52.1833C1.9817 45.7956 7.24587 40.7 13.7002 40.7L127.3 40.7C133.754 40.7 139.019 45.7956 139.289 52.1833C139.304 52.527 139.286 52.869 139.256 53.2118C138.818 58.2852 135.251 99.4957 134.5 105.5C133.7 111.9 129.128 117.5 122.5 117.5H18.5002C11.8728 117.5 7.3002 111.9 6.5002 105.5Z" fill="#73D0FA"/>
<path d="M6.5002 105.5C5.74966 99.4957 2.18264 58.2853 1.74438 53.2118C1.71477 52.869 1.69656 52.527 1.71112 52.1833C1.9817 45.7956 7.24587 40.7 13.7002 40.7L127.3 40.7C133.754 40.7 139.019 45.7956 139.289 52.1833C139.304 52.527 139.286 52.869 139.256 53.2118C138.818 58.2852 135.251 99.4957 134.5 105.5C133.7 111.9 129.128 117.5 122.5 117.5H18.5002C11.8728 117.5 7.3002 111.9 6.5002 105.5Z" fill="url(#paint1_radial_1795_13095)" fill-opacity="0.16"/>
</g>
<g style="mix-blend-mode:soft-light" opacity="0.75">
<g style="mix-blend-mode:overlay">
<path d="M70.5 69V79.5" stroke="black" stroke-width="3.5" stroke-linecap="round" stroke-linejoin="round"/>
<path d="M79.6 84.75L70.5 79.5" stroke="black" stroke-width="3.5" stroke-linecap="round" stroke-linejoin="round"/>
<path d="M58.2061 73.3093H49.4561V64.5593" stroke="black" stroke-width="3.5" stroke-linecap="round" stroke-linejoin="round"/>
<path d="M56.8936 93.1063C59.5851 95.8 63.0151 97.6349 66.7496 98.379C70.4842 99.123 74.3555 98.7427 77.8739 97.2862C81.3923 95.8297 84.3997 93.3624 86.5156 90.1964C88.6315 87.0304 89.7609 83.308 89.7609 79.5C89.7609 75.6921 88.6315 71.9696 86.5156 68.8037C84.3997 65.6377 81.3923 63.1704 77.8739 61.7138C74.3555 60.2573 70.4842 59.877 66.7496 60.621C63.0151 61.3651 59.5851 63.2 56.8936 65.8938L49.4561 73.3094" stroke="black" stroke-width="3.5" stroke-linecap="round" stroke-linejoin="round"/>
</g>
</g>
<g style="mix-blend-mode:overlay" opacity="0.25">
<g style="mix-blend-mode:overlay">
<path d="M70.5 69V79.5" stroke="black" stroke-width="3.5" stroke-linecap="round" stroke-linejoin="round"/>
<path d="M79.6 84.75L70.5 79.5" stroke="black" stroke-width="3.5" stroke-linecap="round" stroke-linejoin="round"/>
<path d="M58.2061 73.3093H49.4561V64.5593" stroke="black" stroke-width="3.5" stroke-linecap="round" stroke-linejoin="round"/>
<path d="M56.8936 93.1063C59.5851 95.8 63.0151 97.6349 66.7496 98.379C70.4842 99.123 74.3555 98.7427 77.8739 97.2862C81.3923 95.8297 84.3997 93.3624 86.5156 90.1964C88.6315 87.0304 89.7609 83.308 89.7609 79.5C89.7609 75.6921 88.6315 71.9696 86.5156 68.8037C84.3997 65.6377 81.3923 63.1704 77.8739 61.7138C74.3555 60.2573 70.4842 59.877 66.7496 60.621C63.0151 61.3651 59.5851 63.2 56.8936 65.8938L49.4561 73.3094" stroke="black" stroke-width="3.5" stroke-linecap="round" stroke-linejoin="round"/>
</g>
</g>
<defs>
<filter id="filter0_i_1795_13095" x="1.70605" y="32.7" width="137.588" height="84.7998" filterUnits="userSpaceOnUse" color-interpolation-filters="sRGB">
<feFlood flood-opacity="0" result="BackgroundImageFix"/>
<feBlend mode="normal" in="SourceGraphic" in2="BackgroundImageFix" result="shape"/>
<feColorMatrix in="SourceAlpha" type="matrix" values="0 0 0 0 0 0 0 0 0 0 0 0 0 0 0 0 0 0 127 0" result="hardAlpha"/>
<feOffset dy="-8"/>
<feGaussianBlur stdDeviation="4"/>
<feComposite in2="hardAlpha" operator="arithmetic" k2="-1" k3="1"/>
<feColorMatrix type="matrix" values="0 0 0 0 0.321569 0 0 0 0 0.686275 0 0 0 0 0.878431 0 0 0 0.32 0"/>
<feBlend mode="normal" in2="shape" result="effect1_innerShadow_1795_13095"/>
</filter>
<linearGradient id="paint0_linear_1795_13095" x1="70.4986" y1="29.5001" x2="70.4986" y2="53.5001" gradientUnits="userSpaceOnUse">
<stop stop-color="#52AFE0"/>
<stop offset="1" stop-color="#00529E" stop-opacity="0.1"/>
</linearGradient>
<radialGradient id="paint1_radial_1795_13095" cx="0" cy="0" r="1" gradientUnits="userSpaceOnUse" gradientTransform="translate(70.5002 53.4999) rotate(90) scale(48 76.8002)">
<stop stop-color="white"/>
<stop offset="1" stop-color="white" stop-opacity="0"/>
</radialGradient>
</defs>
</svg>
