<svg width="58" height="46" viewBox="0 0 58 46" fill="none" xmlns="http://www.w3.org/2000/svg">
<path d="M0 4.88421C0 2.18674 2.18674 0 4.88421 0H16.7895C22.8947 0 25.9474 10.6842 33.5789 10.6842H53.1158C55.8133 10.6842 58 12.8709 58 15.5684V40.9053C58 43.6027 55.8133 45.7895 53.1158 45.7895H4.88421C2.18674 45.7895 0 43.6027 0 40.9053V4.88421Z" fill="#4589FF"/>
<path d="M58 7.93695C58 5.23947 55.8133 3.05273 53.1158 3.05273H35.1053C29 3.05273 24.4211 10.6843 16.7895 10.6843H4.88421C2.18674 10.6843 0 12.871 0 15.5685V40.9054C0 43.6028 2.18674 45.7896 4.88421 45.7896H53.1158C55.8133 45.7896 58 43.6028 58 40.9054V7.93695Z" fill="#78A9FF"/>
</svg>
