<svg data-testid="light-folder" width="128" height="128" viewBox="0 0 128 128" fill="none"
    xmlns="http://www.w3.org/2000/svg">
<g clip-path="url(#clip0_1302_1778)">
<path d="M0 20C0 13.3726 5.37258 8 12 8H31.999C45.4727 8 47.1569 20 63.999 20H116C122.627 20 128 25.3726 128 32V104C128 110.627 122.627 116 116 116H12C5.37257 116 0 110.627 0 104V20Z" fill="#52AFE0"/>
<path d="M0 20C0 13.3726 5.37258 8 12 8H31.999C45.4727 8 47.1569 20 63.999 20H116C122.627 20 128 25.3726 128 32V104C128 110.627 122.627 116 116 116H12C5.37257 116 0 110.627 0 104V20Z" fill="url(#paint0_linear_1302_1778)" fill-opacity="0.2"/>
<g filter="url(#filter0_i_1302_1778)">
<path d="M0 104V48C0 41.3726 5.37257 36 12 36L116 36C122.627 36 128 41.3726 128 48V104C128 110.627 122.627 116 116 116H12C5.37258 116 0 110.627 0 104Z" fill="#73D0FA"/>
<path d="M0 104V48C0 41.3726 5.37257 36 12 36L116 36C122.627 36 128 41.3726 128 48V104C128 110.627 122.627 116 116 116H12C5.37258 116 0 110.627 0 104Z" fill="url(#paint1_radial_1302_1778)" fill-opacity="0.16"/>
</g>
</g>
<defs>
<filter id="filter0_i_1302_1778" x="0" y="28" width="128" height="87.9998" filterUnits="userSpaceOnUse" color-interpolation-filters="sRGB">
<feFlood flood-opacity="0" result="BackgroundImageFix"/>
<feBlend mode="normal" in="SourceGraphic" in2="BackgroundImageFix" result="shape"/>
<feColorMatrix in="SourceAlpha" type="matrix" values="0 0 0 0 0 0 0 0 0 0 0 0 0 0 0 0 0 0 127 0" result="hardAlpha"/>
<feOffset dy="-8"/>
<feGaussianBlur stdDeviation="4"/>
<feComposite in2="hardAlpha" operator="arithmetic" k2="-1" k3="1"/>
<feColorMatrix type="matrix" values="0 0 0 0 0.321569 0 0 0 0 0.686275 0 0 0 0 0.878431 0 0 0 0.32 0"/>
<feBlend mode="normal" in2="shape" result="effect1_innerShadow_1302_1778"/>
</filter>
<linearGradient id="paint0_linear_1302_1778" x1="63.999" y1="28" x2="63.999" y2="52" gradientUnits="userSpaceOnUse">
<stop stop-color="#52AFE0"/>
<stop offset="1" stop-color="#00529E" stop-opacity="0.1"/>
</linearGradient>
<radialGradient id="paint1_radial_1302_1778" cx="0" cy="0" r="1" gradientUnits="userSpaceOnUse" gradientTransform="translate(64 52) rotate(90) scale(48 76.8001)">
<stop stop-color="white"/>
<stop offset="1" stop-color="white" stop-opacity="0"/>
</radialGradient>
<clipPath id="clip0_1302_1778">
<rect width="128" height="128" fill="white"/>
</clipPath>
</defs>
</svg>
