<?xml version="1.0" encoding="UTF-8" standalone="no"?>
<svg
   xmlns:dc="http://purl.org/dc/elements/1.1/"
   xmlns:cc="http://creativecommons.org/ns#"
   xmlns:rdf="http://www.w3.org/1999/02/22-rdf-syntax-ns#"
   xmlns:svg="http://www.w3.org/2000/svg"
   xmlns="http://www.w3.org/2000/svg"
   xmlns:sodipodi="http://sodipodi.sourceforge.net/DTD/sodipodi-0.dtd"
   xmlns:inkscape="http://www.inkscape.org/namespaces/inkscape"
   width="35"
   height="35"
   viewBox="0 0 35 35"
   version="1.1"
   id="svg8"
   sodipodi:docname="inxt.svg"
   inkscape:version="0.92.4 (5da689c313, 2019-01-14)">
  <metadata
     id="metadata14">
    <rdf:RDF>
      <cc:Work
         rdf:about="">
        <dc:format>image/svg+xml</dc:format>
        <dc:type
           rdf:resource="http://purl.org/dc/dcmitype/StillImage" />
      </cc:Work>
    </rdf:RDF>
  </metadata>
  <defs
     id="defs12" />
  <sodipodi:namedview
     pagecolor="#ffffff"
     bordercolor="#666666"
     borderopacity="1"
     objecttolerance="10"
     gridtolerance="10"
     guidetolerance="10"
     inkscape:pageopacity="0"
     inkscape:pageshadow="2"
     inkscape:window-width="640"
     inkscape:window-height="480"
     id="namedview10"
     showgrid="false"
     inkscape:zoom="6.7428571"
     inkscape:cx="17.5"
     inkscape:cy="17.5"
     inkscape:window-x="0"
     inkscape:window-y="0"
     inkscape:window-maximized="0"
     inkscape:current-layer="svg8" />
  <g
     id="g6"
     transform="matrix(0.80084746,0,0,0.80084746,3.7076272,3.5593221)"
     style="fill:none;fill-rule:evenodd">
    <circle
       cx="17.5"
       cy="17.5"
       r="17.5"
       id="circle2"
       style="fill:#000000" />
    <path
       d="m 24.145088,19.138855 c -0.69116,-0.86163 -0.69116,-2.06641 0,-2.92804 l 1.444924,-1.800908 c 1.27464,-1.590509 0.768791,-3.401436 -0.242907,-4.4108461 -1.00669,-1.0094101 -2.819732,-1.5153674 -4.407397,-0.240455 l -1.803026,1.4452351 c -0.861446,0.691308 -2.065967,0.691308 -2.927413,0 L 14.406243,9.7586059 C 12.821083,8.4836935 11.00804,8.9896508 9.9988467,9.9990609 8.9896531,11.008471 8.4838041,12.819398 9.7584433,14.409907 l 1.4449247,1.800908 c 0.69116,0.86163 0.69116,2.06641 0,2.92804 L 9.7584433,20.939763 C 8.4838041,22.530273 8.9896531,24.341199 9.9988467,25.350609 10.582326,25.934214 11.433755,26.35 12.355301,26.35 c 0.671127,0 1.38232,-0.220417 2.050942,-0.758936 l 1.803026,-1.445234 c 0.861446,-0.691309 2.065967,-0.691309 2.927413,0 l 1.803026,1.445234 c 1.590169,1.274913 3.398203,0.768955 4.409901,-0.240455 1.009194,-1.00941 1.517547,-2.820336 0.242908,-4.410846 z m 0.929059,5.938738 c -0.245412,0.245464 -0.606017,0.420796 -0.994169,0.420796 -0.282975,0 -0.583479,-0.09267 -0.866454,-0.320607 l -4.89822,-3.927431 c -0.378135,-0.303074 -0.904017,-0.303074 -1.282152,0 l -4.89822,3.929936 C 11.46631,25.718806 10.700024,25.505903 10.274309,25.077593 9.8485946,24.651787 9.6332331,23.887841 10.171637,23.216571 l 3.929094,-4.89927 c 0.303008,-0.378216 0.303008,-0.904211 0,-1.282427 l -3.929094,-4.89927 c -0.5384039,-0.67127 -0.3230424,-1.435216 0.102672,-1.861022 0.425715,-0.4258055 1.192001,-0.6387084 1.860623,-0.102694 l 4.89822,3.929936 c 0.378135,0.303074 0.906521,0.303074 1.282152,0 l 4.89822,-3.929936 c 0.668622,-0.5385191 1.434908,-0.3256162 1.860623,0.102694 0.425714,0.425806 0.641076,1.189752 0.102672,1.861022 l -3.929094,4.89927 c -0.303008,0.378216 -0.303008,0.904211 0,1.282427 l 3.929094,4.89927 c 0.538404,0.67127 0.323042,1.435216 -0.102672,1.861022 z"
       id="path4"
       inkscape:connector-curvature="0"
       style="fill:#ffffff;fill-rule:nonzero" />
  </g>
</svg>
