<svg width="27" height="33" viewBox="0 0 27 33" fill="none" xmlns="http://www.w3.org/2000/svg">
<g clip-path="url(#clip0_5030_38487)">
<path d="M25.6936 11.4105C25.508 11.5545 22.2312 13.4009 22.2312 17.5065C22.2312 22.2553 26.4008 23.9353 26.5256 23.9769C26.5064 24.0793 25.8632 26.2777 24.3272 28.5177C22.9576 30.4889 21.5272 32.4569 19.3512 32.4569C17.1752 32.4569 16.6152 31.1929 14.1032 31.1929C11.6552 31.1929 10.7848 32.4985 8.79443 32.4985C6.80403 32.4985 5.41523 30.6745 3.81843 28.4345C1.96883 25.8041 0.474426 21.7177 0.474426 17.8393C0.474426 11.6185 4.51923 8.31931 8.50003 8.31931C10.6152 8.31931 12.3784 9.70811 13.7064 9.70811C14.9704 9.70811 16.9416 8.23611 19.348 8.23611C20.26 8.23611 23.5368 8.31931 25.6936 11.4105ZM18.2056 5.60251C19.2008 4.42171 19.9048 2.78331 19.9048 1.14491C19.9048 0.917709 19.8856 0.687309 19.844 0.501709C18.2248 0.562509 16.2984 1.58011 15.1368 2.92731C14.2248 3.96411 13.3736 5.60251 13.3736 7.26331C13.3736 7.51291 13.4152 7.76251 13.4344 7.84251C13.5368 7.86171 13.7032 7.88411 13.8696 7.88411C15.3224 7.88411 17.1496 6.91131 18.2056 5.60251Z" fill="#888888"/>
</g>
<defs>
<clipPath id="clip0_5030_38487">
<rect width="26.0512" height="31.9968" fill="white" transform="translate(0.474426 0.501709)"/>
</clipPath>
</defs>
</svg>
