<?xml version="1.0" encoding="UTF-8" standalone="no"?>
<!-- Created with Inkscape (http://www.inkscape.org/) -->

<svg
   xmlns:dc="http://purl.org/dc/elements/1.1/"
   xmlns:cc="http://creativecommons.org/ns#"
   xmlns:rdf="http://www.w3.org/1999/02/22-rdf-syntax-ns#"
   xmlns:svg="http://www.w3.org/2000/svg"
   xmlns="http://www.w3.org/2000/svg"
   xmlns:sodipodi="http://sodipodi.sourceforge.net/DTD/sodipodi-0.dtd"
   xmlns:inkscape="http://www.inkscape.org/namespaces/inkscape"
   width="200mm"
   height="60mm"
   viewBox="0 0 200 60"
   version="1.1"
   id="svg3765"
   sodipodi:docname="download_app_google_play.svg"
   inkscape:version="0.92.1 r15371">
  <defs
     id="defs3759">
    <linearGradient
       id="linear-gradient-4"
       x1="17.299999"
       y1="191.82001"
       x2="27.459999"
       y2="181.66"
       gradientTransform="matrix(1.3624752,0,0,-1.3624752,-4.5232922,500.83541)"
       gradientUnits="userSpaceOnUse">
      <stop
         offset="0"
         stop-color="#32a071"
         id="stop31" />
      <stop
         offset="0.07"
         stop-color="#2da771"
         id="stop33" />
      <stop
         offset="0.48"
         stop-color="#15cf74"
         id="stop35" />
      <stop
         offset="0.8"
         stop-color="#06e775"
         id="stop37" />
      <stop
         offset="1"
         stop-color="#00f076"
         id="stop39" />
    </linearGradient>
    <linearGradient
       id="linear-gradient-3"
       x1="34.830002"
       y1="169.7"
       x2="12.07"
       y2="146.95"
       gradientTransform="matrix(1.3624752,0,0,-1.3624752,-4.5232922,500.83541)"
       gradientUnits="userSpaceOnUse">
      <stop
         offset="0"
         stop-color="#ff3a44"
         id="stop26" />
      <stop
         offset="1"
         stop-color="#c31162"
         id="stop28" />
    </linearGradient>
    <linearGradient
       id="linear-gradient-2"
       x1="43.830002"
       y1="172"
       x2="19.639999"
       y2="172"
       gradientTransform="matrix(1.3624752,0,0,-1.3624752,-4.5232922,500.83541)"
       gradientUnits="userSpaceOnUse">
      <stop
         offset="0"
         stop-color="#ffe000"
         id="stop17" />
      <stop
         offset="0.41"
         stop-color="#ffbd00"
         id="stop19" />
      <stop
         offset="0.78"
         stop-color="orange"
         id="stop21" />
      <stop
         offset="1"
         stop-color="#ff9c00"
         id="stop23" />
    </linearGradient>
    <linearGradient
       id="linear-gradient"
       x1="31.799999"
       y1="183.28999"
       x2="15.02"
       y2="166.50999"
       gradientTransform="matrix(1.3624752,0,0,-1.3624752,-4.5232922,500.83541)"
       gradientUnits="userSpaceOnUse">
      <stop
         offset="0"
         stop-color="#00a0ff"
         id="stop4" />
      <stop
         offset="0.01"
         stop-color="#00a1ff"
         id="stop6" />
      <stop
         offset="0.26"
         stop-color="#00beff"
         id="stop8" />
      <stop
         offset="0.51"
         stop-color="#00d2ff"
         id="stop10" />
      <stop
         offset="0.76"
         stop-color="#00dfff"
         id="stop12" />
      <stop
         offset="1"
         stop-color="#00e3ff"
         id="stop14" />
    </linearGradient>
  </defs>
  <sodipodi:namedview
     id="base"
     pagecolor="#ffffff"
     bordercolor="#666666"
     borderopacity="1.0"
     inkscape:pageopacity="0.0"
     inkscape:pageshadow="2"
     inkscape:zoom="0.49497475"
     inkscape:cx="636.20731"
     inkscape:cy="89.116158"
     inkscape:document-units="mm"
     inkscape:current-layer="layer1"
     showgrid="false"
     inkscape:window-width="1920"
     inkscape:window-height="1018"
     inkscape:window-x="1912"
     inkscape:window-y="-8"
     inkscape:window-maximized="1" />
  <metadata
     id="metadata3762">
    <rdf:RDF>
      <cc:Work
         rdf:about="">
        <dc:format>image/svg+xml</dc:format>
        <dc:type
           rdf:resource="http://purl.org/dc/dcmitype/StillImage" />
        <dc:title></dc:title>
      </cc:Work>
    </rdf:RDF>
  </metadata>
  <g
     inkscape:label="Layer 1"
     inkscape:groupmode="layer"
     id="layer1"
     transform="translate(0,-237)">
    <rect
       class="cls-1"
       width="152.03227"
       height="58.851196"
       id="rect46"
       x="0.438656"
       y="237.81096"
       style="fill:#ffffff;fill-opacity:0;stroke-width:0.98085326" />
    <rect
       x="0.438656"
       y="237.73674"
       width="198.87318"
       height="58.925388"
       rx="7.3656735"
       ry="7.3656735"
       id="rect48"
       style="stroke-width:1.47313476" />
    <path
       class="cls-2"
       d="m 191.9462,238.91525 a 6.1871656,6.1871656 0 0 1 6.18714,6.18718 v 44.194 a 6.1871656,6.1871656 0 0 1 -6.18714,6.18718 H 7.804338 a 6.1871656,6.1871656 0 0 1 -6.1871683,-6.18718 v -44.194 A 6.1871656,6.1871656 0 0 1 7.804338,238.91525 H 191.9462 m 0,-1.17851 H 7.804338 a 7.3656735,7.3656735 0 0 0 -7.36567511,7.36569 v 44.194 A 7.3656735,7.3656735 0 0 0 7.804338,296.66212 H 191.9462 a 7.3656735,7.3656735 0 0 0 7.36564,-7.36569 v -44.194 a 7.3656735,7.3656735 0 0 0 -7.36564,-7.36569 z"
       id="path50-2"
       inkscape:connector-curvature="0"
       style="fill:#a6a6a6;stroke-width:1.47313476" />
    <path
       class="cls-3"
       d="m 73.710039,253.1919 a 3.6923081,3.6923081 0 0 1 -1.021852,2.72495 3.9648033,3.9648033 0 0 1 -2.99746,1.21262 4.2917975,4.2917975 0 0 1 -3.011073,-7.31651 4.0874262,4.0874262 0 0 1 3.011073,-1.2262 4.2236736,4.2236736 0 0 1 1.675838,0.34047 3.3653141,3.3653141 0 0 1 1.280752,0.91285 l -0.722116,0.72212 a 2.7249507,2.7249507 0 0 0 -2.234474,-0.96737 3.1609428,3.1609428 0 0 0 -3.174552,3.26994 3.2154418,3.2154418 0 0 0 5.449897,2.35708 2.5750783,2.5750783 0 0 0 0.681245,-1.66219 h -2.95659 v -0.98101 h 3.96483 a 3.4606873,3.4606873 0 0 1 0.05451,0.61311 z"
       id="path52-2"
       inkscape:connector-curvature="0"
       style="fill:#ffffff;stroke:#ffffff;stroke-width:0.27249509px;stroke-miterlimit:10" />
    <path
       class="cls-3"
       d="m 79.950179,249.78573 h -3.678672 v 2.5887 h 3.351678 v 0.98098 h -3.351678 v 2.5887 h 3.678672 v 1.00824 h -4.768651 v -8.17486 h 4.768651 z"
       id="path54-6"
       inkscape:connector-curvature="0"
       style="fill:#ffffff;stroke:#ffffff;stroke-width:0.27249509px;stroke-miterlimit:10" />
    <path
       class="cls-3"
       d="m 84.419094,256.95235 h -1.049109 v -7.16662 h -2.288956 v -1.00824 h 5.681539 v 1.00824 h -2.343474 z"
       id="path56-4"
       inkscape:connector-curvature="0"
       style="fill:#ffffff;stroke:#ffffff;stroke-width:0.27249509px;stroke-miterlimit:10" />
    <path
       class="cls-3"
       d="m 90.768233,256.95235 v -8.17486 h 1.049109 v 8.17486 z"
       id="path58-2"
       inkscape:connector-curvature="0"
       style="fill:#ffffff;stroke:#ffffff;stroke-width:0.27249509px;stroke-miterlimit:10" />
    <path
       class="cls-3"
       d="m 96.476996,256.95235 h -1.04911 v -7.16662 H 93.13893 v -1.00824 h 5.613411 v 1.00824 h -2.275345 z"
       id="path60-7"
       inkscape:connector-curvature="0"
       style="fill:#ffffff;stroke:#ffffff;stroke-width:0.27249509px;stroke-miterlimit:10" />
    <path
       class="cls-3"
       d="m 109.39327,255.88962 a 4.2509231,4.2509231 0 0 1 -5.99489,0 4.41442,4.41442 0 0 1 0,-6.06301 4.2236736,4.2236736 0 0 1 5.99489,0 4.4007954,4.4007954 0 0 1 0,6.06301 z m -5.21829,-0.68125 a 3.147318,3.147318 0 0 0 4.44169,0 3.4879368,3.4879368 0 0 0 0,-4.6869 3.147318,3.147318 0 0 0 -4.44169,0 3.4879368,3.4879368 0 0 0 0,4.6869 z"
       id="path62-0"
       inkscape:connector-curvature="0"
       style="fill:#ffffff;stroke:#ffffff;stroke-width:0.27249509px;stroke-miterlimit:10" />
    <path
       class="cls-3"
       d="m 112.07735,256.95235 v -8.17486 h 1.28071 l 3.97844,6.36275 v 0 -1.58044 -4.78231 h 1.03546 v 8.17486 h -1.08997 l -4.15554,-6.66253 v 0 1.58049 5.08204 z"
       id="path64"
       inkscape:connector-curvature="0"
       style="fill:#ffffff;stroke:#ffffff;stroke-width:0.27249509px;stroke-miterlimit:10" />
    <path
       class="cls-4"
       d="m 101.94054,268.87399 a 5.7905202,5.7905202 0 1 0 5.81776,5.79054 5.7087718,5.7087718 0 0 0 -5.81776,-5.79054 z m 0,9.30572 a 3.5151862,3.5151862 0 1 1 3.26994,-3.51518 3.3516893,3.3516893 0 0 1 -3.26994,3.51518 z m -12.684666,-9.30572 a 5.7905202,5.7905202 0 1 0 5.804149,5.79054 5.7087718,5.7087718 0 0 0 -5.817761,-5.79054 z m 0,9.30572 a 3.5151862,3.5151862 0 1 1 3.256326,-3.51518 3.3516893,3.3516893 0 0 1 -3.269938,3.51518 z M 74.14603,270.65886 v 2.45244 h 5.885889 a 5.1365322,5.1365322 0 0 1 -1.362457,3.09281 6.0221409,6.0221409 0 0 1 -4.537044,1.79848 6.539895,6.539895 0 0 1 0,-13.07979 6.2673866,6.2673866 0 0 1 4.455269,1.75762 l 1.730356,-1.73036 a 8.56997,8.56997 0 0 0 -6.172013,-2.54782 9.0059621,9.0059621 0 1 0 0,17.99831 8.174852,8.174852 0 0 0 6.281011,-2.5206 8.174852,8.174852 0 0 0 2.125477,-5.74964 7.9977301,7.9977301 0 0 0 -0.136119,-1.53958 h -8.270231 z m 61.73377,1.90744 a 5.4499014,5.4499014 0 0 0 -4.95942,-3.69231 5.4499014,5.4499014 0 0 0 -5.4499,5.79054 5.6678973,5.6678973 0 0 0 5.74964,5.79049 5.7632707,5.7632707 0 0 0 4.82316,-2.56143 l -1.97557,-1.36249 a 3.3108151,3.3108151 0 0 1 -2.84759,1.60774 2.9429468,2.9429468 0 0 1 -2.8067,-1.7576 l 7.7525,-3.20182 z m -7.90237,1.93471 a 3.1745676,3.1745676 0 0 1 3.02468,-3.37894 2.2480843,2.2480843 0 0 1 2.15271,1.22624 z m -6.29466,5.61341 h 2.54787 v -17.03093 h -2.54787 z m -4.16914,-9.94607 h -0.0953 a 4.0874262,4.0874262 0 0 0 -3.05194,-1.36246 5.8041451,5.8041451 0 0 0 0,11.59466 3.9511784,3.9511784 0 0 0 3.05194,-1.3625 h 0.0816 v 0.94012 c 0,2.22082 -1.18536,3.40619 -3.09284,3.40619 a 3.201817,3.201817 0 0 1 -2.91569,-2.05731 l -2.22082,0.92646 a 5.5180254,5.5180254 0 0 0 5.13651,3.41981 c 2.98385,0 5.4499,-1.75758 5.4499,-6.03576 v -10.42293 h -2.34344 z m -2.91572,8.01136 a 3.5288112,3.5288112 0 0 1 0,-7.03037 3.2699408,3.2699408 0 0 1 3.09284,3.51519 3.2426913,3.2426913 0 0 1 -3.10645,3.51518 z m 33.21715,-15.09622 h -6.09024 v 17.03093 h 2.54782 v -6.45814 h 3.55607 a 5.3000291,5.3000291 0 1 0 -0.0137,-10.57279 z m 0,8.17484 h -3.55603 v -5.80415 h 3.61055 a 2.915705,2.915705 0 1 1 0,5.83141 z m 15.70934,-2.45244 a 4.7686636,4.7686636 0 0 0 -4.53703,2.60231 l 2.26169,0.94011 a 2.4115813,2.4115813 0 0 1 2.31625,-1.25349 2.4524556,2.4524556 0 0 1 2.72491,2.1936 v 0.17726 a 5.6270232,5.6270232 0 0 0 -2.65681,-0.65398 c -2.43883,0 -4.90492,1.36245 -4.90492,3.82854 a 3.9375538,3.9375538 0 0 0 4.22367,3.7468 3.5833102,3.5833102 0 0 0 3.26994,-1.63494 h 0.0816 v 1.36246 h 2.45244 v -6.55352 c 0,-2.98382 -2.2617,-4.71414 -5.16378,-4.71414 z m -0.31338,9.33295 a 1.771218,1.771218 0 0 1 -1.98921,-1.44423 c 0,-1.36249 1.44423,-1.81209 2.72494,-1.81209 a 4.5234183,4.5234183 0 0 1 2.31622,0.57225 3.0791942,3.0791942 0 0 1 -2.98382,2.72494 z m 14.48312,-8.92421 -2.91568,7.3846 h -0.0816 l -3.02472,-7.3846 h -2.72495 l 4.53704,10.32755 -2.58873,5.73601 h 2.65687 l 6.9759,-16.06356 h -2.82037 z m -22.90321,10.89979 h 2.54782 v -17.03093 h -2.54782 z"
       id="path66"
       inkscape:connector-curvature="0"
       style="fill:#ffffff;stroke-width:1.3624754" />
    <path
       class="cls-5"
       d="m 23.325701,249.51323 a 2.7249507,2.7249507 0 0 0 -0.626736,1.90745 v 30.13797 a 2.7249507,2.7249507 0 0 0 0.626736,1.90745 l 0.09539,0.0953 16.88108,-16.86746 v -0.40873 l -16.88108,-16.86734 z"
       id="path68"
       style="fill:url(#linear-gradient);stroke-width:1.3624754"
       inkscape:connector-curvature="0" />
    <path
       class="cls-6"
       d="m 45.888306,272.32105 -5.586153,-5.62702 v -0.40874 l 5.586153,-5.62702 0.122747,0.0683 6.689744,3.80128 c 1.907482,1.07637 1.907482,2.84759 0,3.93758 l -6.66252,3.78766 z"
       id="path70"
       style="fill:url(#linear-gradient-2);stroke-width:1.3624754"
       inkscape:connector-curvature="0" />
    <path
       class="cls-7"
       d="m 46.051785,272.23931 -5.749632,-5.74963 -16.976452,16.97642 a 2.2208348,2.2208348 0 0 0 2.833951,0.0819 l 19.905746,-11.30855"
       id="path72"
       style="fill:url(#linear-gradient-3);stroke-width:1.3624754"
       inkscape:connector-curvature="0" />
    <path
       class="cls-8"
       d="m 46.051785,260.74002 -19.90576,-11.30853 a 2.2208348,2.2208348 0 0 0 -2.833945,0.0816 l 16.990073,16.97642 z"
       id="path74"
       style="fill:url(#linear-gradient-4);stroke-width:1.3624754"
       inkscape:connector-curvature="0" />
    <path
       class="cls-9"
       d="m 45.888306,272.1167 -19.742281,11.2404 a 2.2753338,2.2753338 0 0 1 -2.724948,0 v 0 l -0.09539,0.0953 v 0 l 0.09539,0.0953 v 0 a 2.2617091,2.2617091 0 0 0 2.724948,0 l 19.90576,-11.30857 z"
       id="path76"
       inkscape:connector-curvature="0"
       style="opacity:0.2;isolation:isolate;stroke-width:1.3624754" />
    <path
       class="cls-10"
       d="m 23.325701,283.27536 a 2.7249507,2.7249507 0 0 1 -0.626736,-1.90748 v 0.20435 a 2.7249507,2.7249507 0 0 0 0.626736,1.90748 l 0.09539,-0.0953 z"
       id="path78"
       inkscape:connector-curvature="0"
       style="opacity:0.12000002;isolation:isolate;stroke-width:1.3624754" />
    <path
       class="cls-10"
       d="m 52.70066,268.2609 -6.812354,3.8558 0.122747,0.12275 6.689744,-3.78767 a 2.3843319,2.3843319 0 0 0 1.362491,-1.96196 v 0 a 2.5342042,2.5342042 0 0 1 -1.362491,1.77122 z"
       id="path80"
       inkscape:connector-curvature="0"
       style="opacity:0.12000002;isolation:isolate;stroke-width:1.3624754" />
    <path
       class="cls-11"
       d="m 26.146025,249.62222 26.554635,15.09624 a 2.5342042,2.5342042 0 0 1 1.362491,1.77122 v 0 A 2.3843319,2.3843319 0 0 0 52.70066,264.52772 L 26.146025,249.43149 c -1.907464,-1.07637 -3.460686,-0.17727 -3.460686,2.00283 v 0.20435 c 0.04087,-2.19361 1.566845,-3.09285 3.460686,-2.01648 z"
       id="path82"
       inkscape:connector-curvature="0"
       style="opacity:0.25;isolation:isolate;fill:#ffffff;stroke-width:1.3624754" />
  </g>
</svg>
