<?xml version="1.0" encoding="utf-8"?>
<!-- Generator: Adobe Illustrator 22.0.1, SVG Export Plug-In . SVG Version: 6.00 Build 0)  -->
<svg version="1.1" id="Layer_1" xmlns="http://www.w3.org/2000/svg" xmlns:xlink="http://www.w3.org/1999/xlink" x="0px" y="0px"
	 viewBox="0 0 850.8 464.2" style="enable-background:new 0 0 850.8 464.2;" xml:space="preserve">
<style type="text/css">
	.st0{fill:#4385F4;}
</style>
<path class="st0" d="M554,375.7c-49.2-3.2-78.7-6.8-100.6-13.1c-0.3-0.1-0.5-0.2-0.8-0.2c0,0,0,0,0,0.1l-0.1,0.1c0,0,0,0,0,0
	c-0.1,0.1-0.1,0.2-0.2,0.3c-2,4-11.8,36.7-23.3,56.5c-36.2,21.3-79.7,34-127.2,29.3c-26.4-19.1-44.8-50.4-49.7-82.7
	c4.5-9.5,16.1-29,33.2-47.2c-34.4-4.4-79.5-10.6-122.9-30.8C51.5,236.1-0.1,154.9,4.7,88.4C6.5,63,11.4,35.6,50,4.7l0.1,0
	c152.5,144.1,293.6,183.2,319.8,171.5c8.1-3.6,14.9-8.8,19.6-18.2c1.8-3.5,3-7.2,3.8-11.1c4.1-20.9-15.3-45.3-42.1-45.5
	c-10.8-0.1-21.2,4.4-26.3,11.2c-5.4-36.7,32.5-55.8,75.3-52.7C457.3,64,502.8,102,509,163.2c0.6,6.1,0.8,12.2,0.6,18.2
	c-0.7,17.7-5,32-5.1,32.4c126,11.5,289.4-41.7,334.7-55.3C855.7,301.3,730.4,379.9,554,375.7z"/>
</svg>
