<svg width="53" height="60" viewBox="0 0 53 60" fill="none" xmlns="http://www.w3.org/2000/svg">
<g clip-path="url(#clip0_5038_38850)">
<path d="M38.6936 11.4105C38.508 11.5545 35.2312 13.4009 35.2312 17.5065C35.2312 22.2553 39.4008 23.9353 39.5256 23.9769C39.5064 24.0793 38.8632 26.2777 37.3272 28.5177C35.9576 30.4889 34.5272 32.4569 32.3512 32.4569C30.1752 32.4569 29.6152 31.1929 27.1032 31.1929C24.6552 31.1929 23.7848 32.4985 21.7944 32.4985C19.804 32.4985 18.4152 30.6745 16.8184 28.4345C14.9688 25.8041 13.4744 21.7177 13.4744 17.8393C13.4744 11.6185 17.5192 8.31931 21.5 8.31931C23.6152 8.31931 25.3784 9.70811 26.7064 9.70811C27.9704 9.70811 29.9416 8.23611 32.348 8.23611C33.26 8.23611 36.5368 8.31931 38.6936 11.4105ZM31.2056 5.60251C32.2008 4.42171 32.9048 2.78331 32.9048 1.14491C32.9048 0.917709 32.8856 0.687309 32.844 0.501709C31.2248 0.562509 29.2984 1.58011 28.1368 2.92731C27.2248 3.96411 26.3736 5.60251 26.3736 7.26331C26.3736 7.51291 26.4152 7.76251 26.4344 7.84251C26.5368 7.86171 26.7032 7.88411 26.8696 7.88411C28.3224 7.88411 30.1496 6.91131 31.2056 5.60251Z" fill="#888888"/>
</g>
<path d="M9.05744 47.8825C9.5801 47.8825 10.0494 48.0105 10.4654 48.2665C10.8921 48.5225 11.2281 48.8692 11.4734 49.3065C11.7188 49.7439 11.8414 50.2292 11.8414 50.7625V55.4985H10.1774V50.9065C10.1774 50.4799 10.0441 50.1332 9.77744 49.8665C9.52144 49.5892 9.19611 49.4505 8.80144 49.4505C8.3961 49.4505 8.0601 49.5945 7.79344 49.8825C7.53744 50.1599 7.40944 50.5172 7.40944 50.9545V55.4985H5.74544V50.9065C5.74544 50.4799 5.6121 50.1332 5.34544 49.8665C5.08944 49.5892 4.7641 49.4505 4.36944 49.4505C3.95344 49.4505 3.61744 49.5945 3.36144 49.8825C3.10544 50.1599 2.97744 50.5172 2.97744 50.9545V55.4985H1.31344V48.0265H2.97744V48.7465C3.2121 48.4799 3.47877 48.2719 3.77744 48.1225C4.08677 47.9625 4.4121 47.8825 4.75344 47.8825C5.1481 47.8825 5.52677 47.9785 5.88944 48.1705C6.2521 48.3625 6.56144 48.6292 6.81744 48.9705C7.07344 48.6292 7.39344 48.3625 7.77744 48.1705C8.1721 47.9785 8.59877 47.8825 9.05744 47.8825ZM19.7171 48.0265H21.3651V55.4985H19.7171V54.5225C19.0771 55.2692 18.2024 55.6425 17.0931 55.6425C16.4531 55.6425 15.8504 55.4719 15.2851 55.1305C14.7304 54.7892 14.2824 54.3252 13.9411 53.7385C13.6104 53.1412 13.4451 52.4852 13.4451 51.7705C13.4451 51.0452 13.6104 50.3892 13.9411 49.8025C14.2717 49.2052 14.7144 48.7359 15.2691 48.3945C15.8344 48.0532 16.4424 47.8825 17.0931 47.8825C18.1917 47.8825 19.0664 48.2612 19.7171 49.0185V48.0265ZM17.4451 54.0905C17.8611 54.0905 18.2451 53.9892 18.5971 53.7865C18.9597 53.5732 19.2424 53.2905 19.4451 52.9385C19.6584 52.5865 19.7651 52.1972 19.7651 51.7705C19.7651 51.3439 19.6584 50.9545 19.4451 50.6025C19.2424 50.2505 18.9597 49.9732 18.5971 49.7705C18.2451 49.5572 17.8611 49.4505 17.4451 49.4505C17.0184 49.4505 16.6237 49.5572 16.2611 49.7705C15.9091 49.9732 15.6264 50.2505 15.4131 50.6025C15.2104 50.9545 15.1091 51.3439 15.1091 51.7705C15.1091 52.1972 15.2104 52.5865 15.4131 52.9385C15.6264 53.2905 15.9091 53.5732 16.2611 53.7865C16.6237 53.9892 17.0184 54.0905 17.4451 54.0905ZM27.0544 55.6425C26.3184 55.6425 25.6464 55.4719 25.0384 55.1305C24.4304 54.7892 23.9451 54.3252 23.5824 53.7385C23.2304 53.1412 23.0544 52.4852 23.0544 51.7705C23.0544 51.0452 23.2304 50.3892 23.5824 49.8025C23.9451 49.2052 24.4304 48.7359 25.0384 48.3945C25.6464 48.0532 26.3184 47.8825 27.0544 47.8825C27.8651 47.8825 28.5958 48.0905 29.2464 48.5065C29.8971 48.9225 30.3718 49.4879 30.6704 50.2025L29.1664 50.8425C28.9958 50.4159 28.7238 50.0799 28.3504 49.8345C27.9771 49.5785 27.5451 49.4505 27.0544 49.4505C26.3824 49.4505 25.8224 49.6692 25.3744 50.1065C24.9371 50.5439 24.7184 51.0985 24.7184 51.7705C24.7184 52.4319 24.9371 52.9865 25.3744 53.4345C25.8224 53.8719 26.3824 54.0905 27.0544 54.0905C27.5451 54.0905 27.9771 53.9679 28.3504 53.7225C28.7238 53.4665 28.9958 53.1252 29.1664 52.6985L30.6704 53.3225C30.3718 54.0372 29.8971 54.6025 29.2464 55.0185C28.5958 55.4345 27.8651 55.6425 27.0544 55.6425ZM37.6898 55.6425C36.6231 55.6425 35.6471 55.3919 34.7618 54.8905C33.8765 54.3785 33.1778 53.6852 32.6658 52.8105C32.1538 51.9252 31.8978 50.9545 31.8978 49.8985C31.8978 48.8425 32.1538 47.8772 32.6658 47.0025C33.1778 46.1172 33.8765 45.4239 34.7618 44.9225C35.6471 44.4105 36.6231 44.1545 37.6898 44.1545C38.7565 44.1545 39.7325 44.4105 40.6178 44.9225C41.5031 45.4239 42.2018 46.1172 42.7138 47.0025C43.2365 47.8772 43.4978 48.8425 43.4978 49.8985C43.4978 50.9545 43.2365 51.9252 42.7138 52.8105C42.2018 53.6852 41.5031 54.3785 40.6178 54.8905C39.7325 55.3919 38.7565 55.6425 37.6898 55.6425ZM37.6898 53.9625C38.4365 53.9625 39.1191 53.7812 39.7378 53.4185C40.3565 53.0559 40.8471 52.5652 41.2098 51.9465C41.5725 51.3172 41.7538 50.6345 41.7538 49.8985C41.7538 49.1625 41.5725 48.4852 41.2098 47.8665C40.8471 47.2372 40.3565 46.7412 39.7378 46.3785C39.1191 46.0159 38.4365 45.8345 37.6898 45.8345C36.9538 45.8345 36.2711 46.0159 35.6418 46.3785C35.0231 46.7412 34.5325 47.2372 34.1698 47.8665C33.8071 48.4852 33.6258 49.1625 33.6258 49.8985C33.6258 50.6345 33.8071 51.3172 34.1698 51.9465C34.5325 52.5652 35.0231 53.0559 35.6418 53.4185C36.2711 53.7812 36.9538 53.9625 37.6898 53.9625ZM48.4714 55.6425C47.5754 55.6425 46.7861 55.4399 46.1034 55.0345C45.4314 54.6292 44.9248 54.0639 44.5834 53.3385L46.0554 52.4425C46.2688 52.9439 46.5834 53.3332 46.9994 53.6105C47.4261 53.8879 47.9168 54.0265 48.4714 54.0265C49.0368 54.0265 49.4954 53.8879 49.8474 53.6105C50.1994 53.3225 50.3754 52.9439 50.3754 52.4745C50.3754 52.0585 50.2048 51.7065 49.8634 51.4185C49.5328 51.1199 48.9408 50.8052 48.0874 50.4745C46.9994 50.0585 46.2154 49.5999 45.7354 49.0985C45.2661 48.5972 45.0314 47.9732 45.0314 47.2265C45.0314 46.6292 45.1701 46.0959 45.4474 45.6265C45.7354 45.1572 46.1301 44.7945 46.6314 44.5385C47.1328 44.2825 47.7034 44.1545 48.3434 44.1545C48.9941 44.1545 49.5968 44.2772 50.1514 44.5225C50.7168 44.7679 51.1861 45.1199 51.5594 45.5785L50.3274 46.6825C49.8581 46.0532 49.2181 45.7385 48.4074 45.7385C47.9168 45.7385 47.5168 45.8665 47.2074 46.1225C46.9088 46.3679 46.7594 46.6932 46.7594 47.0985C46.7594 47.4825 46.9141 47.8132 47.2234 48.0905C47.5328 48.3572 48.0928 48.6505 48.9034 48.9705C49.7141 49.2799 50.3488 49.5945 50.8074 49.9145C51.2661 50.2345 51.5968 50.5919 51.7994 50.9865C52.0021 51.3812 52.1034 51.8559 52.1034 52.4105C52.1034 53.3919 51.7728 54.1759 51.1114 54.7625C50.4608 55.3492 49.5808 55.6425 48.4714 55.6425Z" fill="#3A3A3B"/>
<defs>
<clipPath id="clip0_5038_38850">
<rect width="26.0512" height="31.9968" fill="white" transform="translate(13.4744 0.501709)"/>
</clipPath>
</defs>
</svg>
