<svg fill="none" height="88" viewBox="0 0 144 88" width="144" xmlns="http://www.w3.org/2000/svg"
  xmlns:xlink="http://www.w3.org/1999/xlink">
  <filter id="theme-system-a" color-interpolation-filters="sRGB" filterUnits="userSpaceOnUse" height="128" width="112" x="-20"
    y="-8">
    <feFlood flood-opacity="0" result="BackgroundImageFix" />
    <feColorMatrix in="SourceAlpha" result="hardAlpha" type="matrix"
      values="0 0 0 0 0 0 0 0 0 0 0 0 0 0 0 0 0 0 127 0" />
    <feOffset dy="12" />
    <feGaussianBlur stdDeviation="10" />
    <feComposite in2="hardAlpha" operator="out" />
    <feColorMatrix type="matrix" values="0 0 0 0 0 0 0 0 0 0 0 0 0 0 0 0 0 0 0.02 0" />
    <feBlend in2="BackgroundImageFix" mode="normal" result="effect1_dropShadow_9973_45" />
    <feBlend in="SourceGraphic" in2="effect1_dropShadow_9973_45" mode="normal" result="shape" />
  </filter>
  <filter id="theme-system-b" color-interpolation-filters="sRGB" filterUnits="userSpaceOnUse" height="96" width="80" x="4" y="14">
    <feFlood flood-opacity="0" result="BackgroundImageFix" />
    <feColorMatrix in="SourceAlpha" result="hardAlpha" type="matrix"
      values="0 0 0 0 0 0 0 0 0 0 0 0 0 0 0 0 0 0 127 0" />
    <feMorphology in="SourceAlpha" operator="erode" radius="3" result="effect1_dropShadow_9973_45" />
    <feOffset dy="10" />
    <feGaussianBlur stdDeviation="7.5" />
    <feComposite in2="hardAlpha" operator="out" />
    <feColorMatrix type="matrix" values="0 0 0 0 0 0 0 0 0 0 0 0 0 0 0 0 0 0 0.1 0" />
    <feBlend in2="BackgroundImageFix" mode="normal" result="effect1_dropShadow_9973_45" />
    <feColorMatrix in="SourceAlpha" result="hardAlpha" type="matrix"
      values="0 0 0 0 0 0 0 0 0 0 0 0 0 0 0 0 0 0 127 0" />
    <feMorphology in="SourceAlpha" operator="erode" radius="4" result="effect2_dropShadow_9973_45" />
    <feOffset dy="4" />
    <feGaussianBlur stdDeviation="3" />
    <feComposite in2="hardAlpha" operator="out" />
    <feColorMatrix type="matrix" values="0 0 0 0 0 0 0 0 0 0 0 0 0 0 0 0 0 0 0.1 0" />
    <feBlend in2="effect1_dropShadow_9973_45" mode="normal" result="effect2_dropShadow_9973_45" />
    <feBlend in="SourceGraphic" in2="effect2_dropShadow_9973_45" mode="normal" result="shape" />
  </filter>
  <filter id="theme-system-c" color-interpolation-filters="sRGB" filterUnits="userSpaceOnUse" height="128" width="112" x="52" y="-8">
    <feFlood flood-opacity="0" result="BackgroundImageFix" />
    <feColorMatrix in="SourceAlpha" result="hardAlpha" type="matrix"
      values="0 0 0 0 0 0 0 0 0 0 0 0 0 0 0 0 0 0 127 0" />
    <feOffset dy="12" />
    <feGaussianBlur stdDeviation="10" />
    <feComposite in2="hardAlpha" operator="out" />
    <feColorMatrix type="matrix" values="0 0 0 0 0 0 0 0 0 0 0 0 0 0 0 0 0 0 0.02 0" />
    <feBlend in2="BackgroundImageFix" mode="normal" result="effect1_dropShadow_9973_45" />
    <feBlend in="SourceGraphic" in2="effect1_dropShadow_9973_45" mode="normal" result="shape" />
  </filter>
  <filter id="theme-system-d" color-interpolation-filters="sRGB" filterUnits="userSpaceOnUse" height="96" width="80" x="76" y="14">
    <feFlood flood-opacity="0" result="BackgroundImageFix" />
    <feColorMatrix in="SourceAlpha" result="hardAlpha" type="matrix"
      values="0 0 0 0 0 0 0 0 0 0 0 0 0 0 0 0 0 0 127 0" />
    <feMorphology in="SourceAlpha" operator="erode" radius="3" result="effect1_dropShadow_9973_45" />
    <feOffset dy="10" />
    <feGaussianBlur stdDeviation="7.5" />
    <feComposite in2="hardAlpha" operator="out" />
    <feColorMatrix type="matrix" values="0 0 0 0 0 0 0 0 0 0 0 0 0 0 0 0 0 0 0.1 0" />
    <feBlend in2="BackgroundImageFix" mode="normal" result="effect1_dropShadow_9973_45" />
    <feColorMatrix in="SourceAlpha" result="hardAlpha" type="matrix"
      values="0 0 0 0 0 0 0 0 0 0 0 0 0 0 0 0 0 0 127 0" />
    <feMorphology in="SourceAlpha" operator="erode" radius="4" result="effect2_dropShadow_9973_45" />
    <feOffset dy="4" />
    <feGaussianBlur stdDeviation="3" />
    <feComposite in2="hardAlpha" operator="out" />
    <feColorMatrix type="matrix" values="0 0 0 0 0 0 0 0 0 0 0 0 0 0 0 0 0 0 0.1 0" />
    <feBlend in2="effect1_dropShadow_9973_45" mode="normal" result="effect2_dropShadow_9973_45" />
    <feBlend in="SourceGraphic" in2="effect2_dropShadow_9973_45" mode="normal" result="shape" />
  </filter>
  <clipPath id="theme-system-e">
    <path d="m0 0h144v88h-144z" />
  </clipPath>
  <clipPath id="theme-system-f">
    <path d="m0 0h72v88h-72z" />
  </clipPath>
  <clipPath id="theme-system-g">
    <path d="m72 0h72v88h-72z" />
  </clipPath>
  <g clip-path="url(#theme-system-e)">
    <path d="m0 0h144v88h-144z" fill="#fff" />
    <g clip-path="url(#theme-system-f)" filter="url(#theme-system-a)">
      <path d="m0 0h72v88h-72z" fill="#f3f3f8" />
      <g filter="url(#theme-system-b)">
        <path d="m16 28c0-6.6274 5.3726-12 12-12h44v72h-56z" fill="#fff" />
        <path d="m28 16.5h43.5v71h-55v-59.5c0-6.3513 5.1487-11.5 11.5-11.5z" stroke="#e5e5e5" />
        <g fill="#e5e5eb">
          <rect height="20" rx="4" width="20" x="28" y="28" />
          <path d="m58 37c0-2.2091 1.7909-4 4-4h10v10h-10c-2.2091 0-4-1.7909-4-4z" />
          <rect height="20" rx="4" width="20" x="28" y="56" />
          <path d="m58 65c0-2.2091 1.7909-4 4-4h10v10h-10c-2.2091 0-4-1.7909-4-4z" />
        </g>
      </g>
    </g>
    <g clip-path="url(#theme-system-g)" filter="url(#theme-system-c)">
      <path d="m0 0h72v88h-72z" fill="#3a3a3b" transform="translate(72)" />
      <g filter="url(#theme-system-d)">
        <path d="m88 28c0-6.6274 5.3726-12 12-12h44v72h-56z" fill="#18181b" />
        <path d="m100 16.5h43.5v71h-55v-59.5c0-6.3513 5.1487-11.5 11.5-11.5z" stroke="#464649" />
        <g fill="#3a3a3b">
          <rect height="20" rx="4" width="20" x="100" y="28" />
          <path d="m130 37c0-2.2091 1.791-4 4-4h10v10h-10c-2.209 0-4-1.7909-4-4z" />
          <rect height="20" rx="4" width="20" x="100" y="56" />
          <path d="m130 65c0-2.2091 1.791-4 4-4h10v10h-10c-2.209 0-4-1.7909-4-4z" />
        </g>
      </g>
    </g>
  </g>
</svg>