<svg width="67" height="60" viewBox="0 0 67 60" fill="none" xmlns="http://www.w3.org/2000/svg">
<g clip-path="url(#clip0_5038_38952)">
<path d="M17.5 0.5H32.6696V15.6631H17.5V0.5ZM34.3304 0.5H49.5V15.6631H34.3304V0.5ZM17.5 17.3304H32.6696V32.5H17.5V17.3304ZM34.3304 17.3304H49.5V32.5H34.3304" fill="#0078D4"/>
</g>
<path d="M11.9103 52.86L14.4223 44.3H16.2303L12.9183 55.5H11.0143L8.45425 46.348L5.94225 55.5H4.02225L0.69425 44.3H2.51825L5.01425 52.86L7.43025 44.3H9.46225L11.9103 52.86ZM19.2196 55.5H17.5556V48.028H19.2196V55.5ZM18.3876 46.172C18.1103 46.172 17.8703 46.0707 17.6676 45.868C17.465 45.6653 17.3636 45.4307 17.3636 45.164C17.3636 44.876 17.465 44.636 17.6676 44.444C17.8703 44.252 18.1103 44.156 18.3876 44.156C18.6756 44.156 18.9156 44.252 19.1076 44.444C19.3103 44.636 19.4116 44.876 19.4116 45.164C19.4116 45.4413 19.3103 45.6813 19.1076 45.884C18.905 46.076 18.665 46.172 18.3876 46.172ZM24.7494 47.884C25.24 47.884 25.688 48.0067 26.0934 48.252C26.5094 48.4973 26.8347 48.8333 27.0694 49.26C27.3147 49.676 27.4374 50.14 27.4374 50.652V55.5H25.7574V50.892C25.7574 50.4547 25.6187 50.0973 25.3414 49.82C25.0747 49.5427 24.7387 49.404 24.3334 49.404C23.896 49.404 23.5334 49.5533 23.2454 49.852C22.9574 50.14 22.8134 50.5187 22.8134 50.988V55.5H21.1494V48.028H22.8134V48.668C23.0694 48.4227 23.3627 48.2307 23.6934 48.092C24.0347 47.9533 24.3867 47.884 24.7494 47.884ZM35.239 44.3H36.919V55.5H35.239V54.604C34.6097 55.2973 33.7563 55.644 32.679 55.644C32.039 55.644 31.4363 55.4733 30.871 55.132C30.3163 54.7907 29.8683 54.3267 29.527 53.74C29.1963 53.1427 29.031 52.4867 29.031 51.772C29.031 51.0467 29.1963 50.3907 29.527 49.804C29.8577 49.2067 30.3003 48.7373 30.855 48.396C31.4203 48.0547 32.0283 47.884 32.679 47.884C33.735 47.884 34.5883 48.2413 35.239 48.956V44.3ZM33.031 54.092C33.4577 54.092 33.847 53.9907 34.199 53.788C34.5617 53.5853 34.8443 53.308 35.047 52.956C35.2497 52.5933 35.351 52.1987 35.351 51.772C35.351 51.3347 35.2497 50.94 35.047 50.588C34.8443 50.236 34.5617 49.9587 34.199 49.756C33.847 49.5533 33.4577 49.452 33.031 49.452C32.5937 49.452 32.1937 49.5533 31.831 49.756C31.479 49.9587 31.2017 50.236 30.999 50.588C30.7963 50.94 30.695 51.3347 30.695 51.772C30.695 52.1987 30.7963 52.5933 30.999 52.956C31.2017 53.308 31.479 53.5853 31.831 53.788C32.1937 53.9907 32.5937 54.092 33.031 54.092ZM42.6091 55.644C41.8838 55.644 41.2118 55.4733 40.5931 55.132C39.9851 54.78 39.4998 54.3107 39.1371 53.724C38.7851 53.1267 38.6091 52.476 38.6091 51.772C38.6091 51.0573 38.7851 50.4067 39.1371 49.82C39.4998 49.2227 39.9851 48.7533 40.5931 48.412C41.2118 48.06 41.8838 47.884 42.6091 47.884C43.3345 47.884 44.0011 48.06 44.6091 48.412C45.2171 48.7533 45.6971 49.2227 46.0491 49.82C46.4011 50.4067 46.5771 51.0573 46.5771 51.772C46.5771 52.476 46.4011 53.1267 46.0491 53.724C45.6971 54.3107 45.2171 54.78 44.6091 55.132C44.0011 55.4733 43.3345 55.644 42.6091 55.644ZM42.6091 54.092C43.0251 54.092 43.4091 53.9907 43.7611 53.788C44.1238 53.5747 44.4065 53.292 44.6091 52.94C44.8225 52.588 44.9291 52.1987 44.9291 51.772C44.9291 51.3453 44.8225 50.956 44.6091 50.604C44.4065 50.252 44.1238 49.9747 43.7611 49.772C43.4091 49.5587 43.0251 49.452 42.6091 49.452C42.1825 49.452 41.7878 49.5587 41.4251 49.772C41.0731 49.9747 40.7905 50.252 40.5771 50.604C40.3745 50.956 40.2731 51.3453 40.2731 51.772C40.2731 52.1987 40.3745 52.588 40.5771 52.94C40.7905 53.292 41.0731 53.5747 41.4251 53.788C41.7878 53.9907 42.1825 54.092 42.6091 54.092ZM55.9924 53.66L57.6564 48.028H59.5124L56.9524 55.5H55.1604L53.4324 50.316L51.6884 55.5H49.8964L47.3204 48.028H49.2084L50.8724 53.628L52.7124 48.028H54.1524L55.9924 53.66ZM63.2849 55.644C62.6875 55.644 62.1222 55.5213 61.5889 55.276C61.0555 55.02 60.6555 54.6893 60.3889 54.284L61.5729 53.42C61.7649 53.6867 62.0049 53.8947 62.2929 54.044C62.5809 54.1933 62.8849 54.268 63.2049 54.268C63.5249 54.268 63.7755 54.1933 63.9569 54.044C64.1382 53.884 64.2289 53.676 64.2289 53.42C64.2289 53.2493 64.1702 53.1107 64.0529 53.004C63.9355 52.8867 63.7915 52.7907 63.6209 52.716C63.4502 52.6413 63.1462 52.5187 62.7089 52.348C62.0475 52.092 61.5462 51.7987 61.2049 51.468C60.8742 51.1267 60.7089 50.6787 60.7089 50.124C60.7089 49.4413 60.9489 48.8973 61.4289 48.492C61.9089 48.0867 62.5275 47.884 63.2849 47.884C63.7755 47.884 64.2289 47.9853 64.6449 48.188C65.0715 48.38 65.4182 48.652 65.6849 49.004L64.5809 49.9C64.4422 49.6973 64.2449 49.5373 63.9889 49.42C63.7435 49.292 63.4929 49.228 63.2369 49.228C62.9809 49.228 62.7729 49.2973 62.6129 49.436C62.4529 49.564 62.3729 49.756 62.3729 50.012C62.3729 50.2573 62.4689 50.444 62.6609 50.572C62.8635 50.6893 63.2369 50.8493 63.7809 51.052C64.4315 51.2973 64.9489 51.5907 65.3329 51.932C65.7169 52.2627 65.9089 52.732 65.9089 53.34C65.9089 54.0227 65.6689 54.5773 65.1889 55.004C64.7089 55.4307 64.0742 55.644 63.2849 55.644Z" fill="#3A3A3B"/>
<defs>
<clipPath id="clip0_5038_38952">
<rect width="32" height="32" fill="white" transform="translate(17.5 0.5)"/>
</clipPath>
</defs>
</svg>
