<svg xmlns="http://www.w3.org/2000/svg" width="38" height="38" viewBox="0 0 38 38">
  <path fill="#CF699F" fill-rule="evenodd" d="M1202,697 C1212.49341,697 1221,688.49341 1221,678 C1221,667.50659 1212.49341,659 1202,659 C1191.50659,659 1183,667.50659 1183,678 C1183,688.49341 1191.50659,697 1202,697 L1202,697 L1202,697 L1202,697 Z M1214.0639,688.627139 C1211.11788,691.968871 1206.80512,694.076923 1202,694.076923 C1197.19427,694.076923 1192.88103,691.96834 1189.93498,688.625876 C1190.92943,688.195578 1192.04243,687.756229 1193.22857,687.2674 C1196.73665,685.823764 1197.5679,685.320105 1197.5679,685.320105 L1197.60087,683.340543 C1197.60087,683.340543 1196.287,682.343747 1195.87875,679.211661 C1195.05662,679.447356 1194.1945,677.996706 1194.14821,677.234904 C1194.10191,676.499057 1194.26044,674.458466 1195.26355,674.665401 C1195.05872,673.132678 1194.91071,671.74937 1194.98366,671.016328 C1195.24391,668.345813 1196.70508,664.846154 1201.99771,664.846154 C1207.29104,664.846154 1208.75222,668.345813 1209.01457,671.016328 C1209.08471,671.74937 1208.9374,673.132678 1208.73257,674.665401 C1209.73568,674.458466 1209.89422,676.499057 1209.84792,677.234904 C1209.80162,677.996706 1208.93951,679.447356 1208.11668,679.211661 C1207.70912,682.343747 1206.39456,683.340543 1206.39456,683.340543 L1206.42823,685.320105 C1206.42823,685.320105 1207.25948,685.823764 1210.76755,687.2674 C1211.95485,687.756708 1213.06879,688.196438 1214.0639,688.627139 L1214.0639,688.627139 L1214.0639,688.627139 L1214.0639,688.627139 Z" transform="translate(-1183 -659)"/>
</svg>
