<svg xmlns="http://www.w3.org/2000/svg" width="31" height="37" viewBox="0 0 31 37">
  <path fill="#CF699F" fillRule="evenodd" d="M1212.36364,473.730769 L1212.36364,476.575935 C1212.36364,477.362424 1211.73667,478 1210.96385,478 L1188.39979,478 C1187.62671,478 1187,477.363217 1187,476.575935 L1187,445.270219 C1187,444.48373 1187.62697,443.846154 1188.39979,443.846154 L1189.81819,443.846154 L1189.81818,443.853101 L1189.81818,445.262284 C1189.81818,446.843296 1191.08362,448.115385 1192.64462,448.115385 L1206.71902,448.115385 C1208.28142,448.115385 1209.54545,446.838008 1209.54545,445.262284 L1209.54545,443.853101 L1209.54545,443.846154 L1210.96385,443.846154 C1211.73693,443.846154 1212.36364,444.482937 1212.36364,445.270219 L1212.36364,452.384615 L1205.31451,452.384615 C1203.76235,452.384615 1202.5,453.653711 1202.5,455.21922 L1202.5,470.896165 C1202.5,472.459396 1203.75671,473.730769 1205.30693,473.730769 L1212.36364,473.730769 Z M1197.23829,442.423077 C1197.72314,441.57236 1198.63142,441 1199.68182,441 C1200.72693,441 1201.63917,441.569603 1202.12576,442.423077 L1206.72379,442.423077 C1207.50393,442.423077 1208.13636,443.053017 1208.13636,443.844669 L1208.13636,445.270716 C1208.13636,446.055839 1207.49416,446.692308 1206.72379,446.692308 L1192.63985,446.692308 C1191.8597,446.692308 1191.22727,446.062368 1191.22727,445.270716 L1191.22727,443.844669 C1191.22727,443.059545 1191.86948,442.423077 1192.63985,442.423077 L1197.23829,442.423077 Z M1203.90909,455.228638 C1203.90909,454.443871 1204.52611,453.807692 1205.32231,453.807692 L1213.06336,453.807692 C1213.45513,453.807692 1213.77273,454.114725 1213.77273,454.512669 L1213.77273,456.655331 C1213.77273,457.440455 1214.39648,458.076923 1215.18035,458.076923 L1217.30195,458.076923 C1217.68747,458.076923 1218,458.400891 1218,458.802194 L1218,470.891165 C1218,471.673491 1217.35793,472.307692 1216.59739,472.307692 L1205.3117,472.307692 C1204.53706,472.307692 1203.90909,471.67088 1203.90909,470.886747 L1203.90909,455.228638 Z M1206.72727,464.478641 L1206.72727,464.625205 C1206.72727,465.002638 1207.03703,465.334615 1207.41914,465.334615 L1214.48995,465.334615 C1214.86071,465.334615 1215.18182,465.017002 1215.18182,464.625205 L1215.18182,464.478641 C1215.18182,464.101209 1214.87206,463.769231 1214.48995,463.769231 L1207.41914,463.769231 C1207.04838,463.769231 1206.72727,464.086845 1206.72727,464.478641 Z M1206.72727,460.20941 L1206.72727,460.355974 C1206.72727,460.733407 1207.04126,461.065385 1207.42858,461.065385 L1213.07142,461.065385 C1213.46999,461.065385 1213.77273,460.747771 1213.77273,460.355974 L1213.77273,460.20941 C1213.77273,459.831978 1213.45874,459.5 1213.07142,459.5 L1207.42858,459.5 C1207.03001,459.5 1206.72727,459.817614 1206.72727,460.20941 Z M1206.72727,468.747872 L1206.72727,468.894436 C1206.72727,469.271868 1207.0367,469.603846 1207.4184,469.603846 L1211.67251,469.603846 C1212.0606,469.603846 1212.36364,469.286232 1212.36364,468.894436 L1212.36364,468.747872 C1212.36364,468.370439 1212.05421,468.038462 1211.67251,468.038462 L1207.4184,468.038462 C1207.03031,468.038462 1206.72727,468.356075 1206.72727,468.747872 Z M1215.67271,454.303454 L1217.50911,456.158084 C1217.77886,456.430513 1217.68161,456.653846 1217.28885,456.653846 L1215.89296,456.653846 C1215.48341,456.653846 1215.18182,456.332295 1215.18182,455.935641 L1215.18182,454.525897 C1215.18182,454.112281 1215.4016,454.029653 1215.67271,454.303454 Z" transform="translate(-1187 -441)"/>
</svg>
