<svg xmlns="http://www.w3.org/2000/svg" width="41" height="39" viewBox="0 0 41 39">
  <path fill="#CF699F" fill-rule="evenodd" d="M247.913262,14.7688622 C247.701754,14.1162915 247.131277,13.647627 246.389508,13.5126635 L234.845921,11.434819 C234.814641,11.4214709 234.75804,11.3829099 234.731229,11.3532476 L229.167965,1.05894433 C228.811976,0.394508671 228.187877,0 227.49973,0 C226.810094,0 226.187485,0.395991786 225.831496,1.05746121 L220.275679,11.3458321 C220.251847,11.3740113 220.187798,11.4214709 220.201204,11.4214709 L208.609952,13.5126635 C207.869673,13.647627 207.300686,14.1148083 207.087688,14.7644128 C206.873201,15.4140173 207.057898,16.1273958 207.579222,16.6746653 L215.740166,25.2085108 L214.156832,36.8331685 C214.057036,37.5776924 214.326635,38.2614086 214.882217,38.6618497 C215.192032,38.8872832 215.559937,39 215.939758,39 C216.242126,39 216.55492,38.9288105 216.857287,38.7834652 L227.422277,33.7112108 C227.459514,33.7023121 227.539947,33.7023121 227.532499,33.6934134 L238.146642,38.7849483 C238.825852,39.1097505 239.563152,39.063774 240.117244,38.6618497 C240.671336,38.2614086 240.943914,37.5776924 240.842628,36.8316854 L239.263763,25.2559705 C239.265253,25.2218588 239.287595,25.1491862 239.280148,25.1491862 L239.278658,25.1506693 L247.418749,16.6746653 C247.941562,16.1318451 248.12626,15.4184667 247.913262,14.7688622 L247.913262,14.7688622 Z" transform="translate(-207)"/>
</svg>
