<svg xmlns="http://www.w3.org/2000/svg" width="43" height="41" viewBox="0 0 43 41">
  <path fill="#9C69C9" fillRule="evenodd" d="M56.616154,683.999458 L51.9010737,670.834484 L50.808253,667.782046 L50.7815022,667.792197 L49.118988,663.151109 L47.2285965,663.850521 L44.9736012,669.941187 L40.7350818,671.508518 L42.9890864,665.418867 L38.5543943,667.060302 L36.2993989,673.149952 L32.058898,674.720329 L34.3138934,668.628648 L29.8782105,670.270083 L27.6232152,676.360748 L23.3837051,677.93011 L25.6377096,671.839444 L21.2030176,673.480878 L18.9470314,679.571544 L14.7085121,681.139891 L16.9625166,675.04821 L9.98154248,677.631667 L11.6430659,682.27377 L12.724988,685.29677 C12.7289511,685.305906 12.7299419,685.316057 12.733905,685.327223 L18.753831,702.143551 C18.9955792,702.819615 19.7297407,703.166783 20.3945482,702.921126 L57.1581059,689.317624 C57.8219226,689.071968 58.1647295,688.325861 57.9219905,687.650812 L56.7964744,684.505998 C56.7598158,684.38723 56.6973973,684.227858 56.616154,683.999458 L56.616154,683.999458 L56.616154,683.999458 L56.616154,683.999458 Z M29.7969673,659.457121 L35.835718,661.617277 L39.9186863,659.219585 L33.8809264,657.060444 L29.7969673,659.457121 L29.7969673,659.457121 L29.7969673,659.457121 L29.7969673,659.457121 Z M41.9656197,653.174587 L37.7231372,655.663639 L43.7618879,657.82278 L45.5016822,656.798533 L43.7133401,653.650674 C43.3596348,653.028411 42.5779163,652.815237 41.9656197,653.174587 L41.9656197,653.174587 L41.9656197,653.174587 L41.9656197,653.174587 Z M8.63977467,672.280002 C8.02846881,672.639351 7.81842531,673.434183 8.17113987,674.056446 L9.95750042,677.20329 L16.3955319,673.431138 L10.3567812,671.271997 L8.63977467,672.280002 L8.63977467,672.280002 L8.63977467,672.280002 L8.63977467,672.280002 Z M13.9446274,669.60823 L19.9833782,671.767371 L24.0663464,669.370694 L18.0275957,667.211553 L13.9446274,669.60823 L13.9446274,669.60823 L13.9446274,669.60823 L13.9446274,669.60823 Z M21.8707974,664.541811 L27.9085573,666.701968 L32.0083687,664.29514 L25.969618,662.135999 L21.8707974,664.541811 L21.8707974,664.541811 L21.8707974,664.541811 L21.8707974,664.541811 Z" transform="rotate(20.2 1871.688 318.623)"/>
</svg>
