<svg width="65" height="65" viewBox="0 0 65 65" fill="none" xmlns="http://www.w3.org/2000/svg">
<path d="M8.80786 3.12158C8.80786 1.46473 10.151 0.121582 11.8079 0.121582H53.8079C55.4647 0.121582 56.8079 1.46473 56.8079 3.12158V61.1216C56.8079 62.7784 55.4647 64.1216 53.8079 64.1216H11.8079C10.151 64.1216 8.80786 62.7784 8.80786 61.1216V3.12158Z" fill="#F9FAFB"/>
<path d="M46.8079 22.5215V20.7215C46.8079 20.3901 46.5392 20.1215 46.2079 20.1215H19.4079C19.0765 20.1215 18.8079 20.3901 18.8079 20.7215V22.5215C18.8079 22.8528 19.0765 23.1215 19.4079 23.1215H46.2079C46.5392 23.1215 46.8079 22.8528 46.8079 22.5215Z" fill="#4589FF"/>
<path d="M46.8079 29.5215V27.7215C46.8079 27.3901 46.5392 27.1215 46.2079 27.1215H19.4079C19.0765 27.1215 18.8079 27.3901 18.8079 27.7215V29.5215C18.8079 29.8528 19.0765 30.1215 19.4079 30.1215H46.2079C46.5392 30.1215 46.8079 29.8528 46.8079 29.5215Z" fill="#4589FF"/>
<path d="M38.8079 43.5215V41.7215C38.8079 41.3901 38.5392 41.1215 38.2079 41.1215H19.4079C19.0765 41.1215 18.8079 41.3901 18.8079 41.7215V43.5215C18.8079 43.8528 19.0765 44.1215 19.4079 44.1215H38.2079C38.5392 44.1215 38.8079 43.8528 38.8079 43.5215Z" fill="#4589FF"/>
<path d="M46.8079 36.5215V34.7215C46.8079 34.3901 46.5392 34.1215 46.2079 34.1215H19.4079C19.0765 34.1215 18.8079 34.3901 18.8079 34.7215V36.5215C18.8079 36.8528 19.0765 37.1215 19.4079 37.1215H46.2079C46.5392 37.1215 46.8079 36.8528 46.8079 36.5215Z" fill="#4589FF"/>
<path d="M11.8079 0.521582H53.8079C55.2438 0.521582 56.4079 1.68564 56.4079 3.12158V61.1216C56.4079 62.5575 55.2438 63.7216 53.8079 63.7216H11.8079C10.3719 63.7216 9.20786 62.5575 9.20786 61.1216V3.12158C9.20786 1.68564 10.3719 0.521582 11.8079 0.521582Z" stroke="#EBECF0" stroke-width="0.8"/>
<path d="M11.8079 64.1215H53.8079C55.4647 64.1215 56.8079 62.7783 56.8079 61.1215V59.1215C56.8079 60.7783 55.4647 62.1215 53.8079 62.1215H11.8079C10.151 62.1215 8.80786 60.7783 8.80786 59.1215V61.1215C8.80786 62.7783 10.151 64.1215 11.8079 64.1215Z" fill="#EBECF0"/>
</svg>
