<svg width="156" height="129" viewBox="0 0 156 129" fill="none" xmlns="http://www.w3.org/2000/svg">
<path d="M15.6 22.1C15.6 15.4726 20.9726 10.1 27.6 10.1H47.599C61.0727 10.1 62.7569 22.1 79.599 22.1H128.4C135.027 22.1 140.4 27.4726 140.4 34.1V104.5C140.4 111.127 135.027 116.5 128.4 116.5H27.6C20.9726 116.5 15.6 111.127 15.6 104.5V22.1Z" fill="#52AFE0"/>
<path d="M15.6 22.1C15.6 15.4726 20.9726 10.1 27.6 10.1H47.599C61.0727 10.1 62.7569 22.1 79.599 22.1H128.4C135.027 22.1 140.4 27.4726 140.4 34.1V104.5C140.4 111.127 135.027 116.5 128.4 116.5H27.6C20.9726 116.5 15.6 111.127 15.6 104.5V22.1Z" fill="url(#paint0_linear_950_980)" fill-opacity="0.2"/>
<defs>
<linearGradient id="paint0_linear_950_980" x1="77.999" y1="28.5" x2="77.999" y2="52.5" gradientUnits="userSpaceOnUse">
<stop stop-color="#52AFE0"/>
<stop offset="1" stop-color="#00529E" stop-opacity="0.1"/>
</linearGradient>
</defs>
</svg>
