<svg width="65" height="65" viewBox="0 0 65 65" fill="none" xmlns="http://www.w3.org/2000/svg">
<g filter="url(#filter0_i_961_606)">
<path d="M8.80786 3.80786C8.80786 2.15101 10.151 0.807861 11.8079 0.807861L53.8079 0.807861C55.4647 0.807861 56.8079 2.15101 56.8079 3.80786V61.8079C56.8079 63.4647 55.4647 64.8079 53.8079 64.8079H11.8079C10.151 64.8079 8.80786 63.4647 8.80786 61.8079L8.80786 3.80786Z" fill="#F9FAFB"/>
</g>
<path d="M8.80786 3.80786C8.80786 2.15101 10.151 0.807861 11.8079 0.807861L53.8079 0.807861C55.4647 0.807861 56.8079 2.15101 56.8079 3.80786V61.8079C56.8079 63.4647 55.4647 64.8079 53.8079 64.8079H11.8079C10.151 64.8079 8.80786 63.4647 8.80786 61.8079L8.80786 3.80786Z" fill="#F9FAFB"/>
<path d="M11.8079 1.20786L53.8079 1.20786C55.2438 1.20786 56.4079 2.37192 56.4079 3.80786V61.8079C56.4079 63.2438 55.2438 64.4079 53.8079 64.4079H11.8079C10.3719 64.4079 9.20786 63.2438 9.20786 61.8079L9.20786 3.80786C9.20786 2.37192 10.3719 1.20786 11.8079 1.20786Z" stroke="#EBECF0" stroke-width="0.8"/>
<path d="M11.8079 64.8079H53.8079C55.4647 64.8079 56.8079 63.4647 56.8079 61.8079V59.8079C56.8079 61.4647 55.4647 62.8079 53.8079 62.8079H11.8079C10.151 62.8079 8.80786 61.4647 8.80786 59.8079V61.8079C8.80786 63.4647 10.151 64.8079 11.8079 64.8079Z" fill="#EBECF0"/>
<path d="M19.5354 27.6079V38.8079H21.8714V34.2319H24.0474C26.4314 34.2319 27.6154 32.9199 27.6154 30.9519C27.6154 29.0159 26.4314 27.6079 24.0474 27.6079H19.5354ZM21.8714 32.2959V29.6719H23.7114C24.6714 29.6719 25.2954 30.0079 25.2954 30.9839C25.2954 31.9599 24.6714 32.2959 23.7114 32.2959H21.8714ZM32.379 38.8079C36.603 38.8079 38.267 36.2959 38.267 33.2079C38.267 30.1199 36.603 27.6079 32.379 27.6079H28.939L28.939 38.8079H32.379ZM31.275 29.6719H32.267C34.843 29.6719 35.867 31.2079 35.867 33.2079C35.867 35.2079 34.843 36.7439 32.267 36.7439H31.275L31.275 29.6719ZM46.7279 27.6079L39.8479 27.6079V38.8079H42.1839V34.1359H46.1039V32.0719H42.1839V29.6719H46.7279V27.6079Z" fill="#F63831"/>
<defs>
<filter id="filter0_i_961_606" x="8.80786" y="0.807861" width="48" height="64" filterUnits="userSpaceOnUse" color-interpolation-filters="sRGB">
<feFlood flood-opacity="0" result="BackgroundImageFix"/>
<feBlend mode="normal" in="SourceGraphic" in2="BackgroundImageFix" result="shape"/>
<feColorMatrix in="SourceAlpha" type="matrix" values="0 0 0 0 0 0 0 0 0 0 0 0 0 0 0 0 0 0 127 0" result="hardAlpha"/>
<feOffset dy="-2"/>
<feComposite in2="hardAlpha" operator="arithmetic" k2="-1" k3="1"/>
<feColorMatrix type="matrix" values="0 0 0 0 0 0 0 0 0 0 0 0 0 0 0 0 0 0 0.16 0"/>
<feBlend mode="normal" in2="shape" result="effect1_innerShadow_961_606"/>
</filter>
</defs>
</svg>
