<svg width="65" height="65" viewBox="0 0 65 65" fill="none" xmlns="http://www.w3.org/2000/svg">
<path d="M8.80786 7.12915C8.80786 5.4723 10.151 4.12915 11.8079 4.12915H53.8079C55.4647 4.12915 56.8079 5.4723 56.8079 7.12915V57.1292C56.8079 58.786 55.4647 60.1292 53.8079 60.1292H11.8079C10.151 60.1292 8.80786 58.786 8.80786 57.1292V7.12915Z" fill="#F9FAFB"/>
<path d="M11.8079 4.52915H53.8079C55.2438 4.52915 56.4079 5.69321 56.4079 7.12915V57.1292C56.4079 58.5651 55.2438 59.7291 53.8079 59.7291H11.8079C10.3719 59.7291 9.20786 58.5651 9.20786 57.1292V7.12915C9.20786 5.69321 10.3719 4.52915 11.8079 4.52915Z" stroke="#EBECF0" stroke-width="0.8"/>
<path d="M32.8078 7.12915V4.12915H27.8079V6.52915C27.8079 6.86052 28.0765 7.12915 28.4079 7.12915H32.8078V10.1292H28.4079C28.0765 10.1292 27.8079 10.3978 27.8079 10.7292V12.5292C27.8079 12.8605 28.0765 13.1292 28.4079 13.1292H32.8078V16.1292H28.4079C28.0765 16.1292 27.8079 16.3978 27.8079 16.7292V18.5292C27.8079 18.8605 28.0765 19.1292 28.4079 19.1292H32.8078V22.1292H28.4079C28.0765 22.1292 27.8079 22.3978 27.8079 22.7292V24.5292C27.8079 24.8605 28.0765 25.1292 28.4079 25.1292H32.8078V28.1292H37.2079C37.5392 28.1292 37.8079 27.8605 37.8079 27.5292V25.7292C37.8079 25.3978 37.5392 25.1292 37.2079 25.1292H32.8078V22.1292H37.2079C37.5392 22.1292 37.8079 21.8605 37.8079 21.5292V19.7292C37.8079 19.3978 37.5392 19.1292 37.2079 19.1292H32.8078V16.1292H37.2079C37.5392 16.1292 37.8079 15.8605 37.8079 15.5292V13.7292C37.8079 13.3978 37.5392 13.1292 37.2079 13.1292H32.8078V10.1292H37.2079C37.5392 10.1292 37.8079 9.86052 37.8079 9.52915V7.72915C37.8079 7.39778 37.5392 7.12915 37.2079 7.12915H32.8078Z" fill="#7A869A"/>
<path fill-rule="evenodd" clip-rule="evenodd" d="M32.8078 28.1292H28.4079C28.0765 28.1292 27.8079 28.3978 27.8079 28.7292V31.1292V41.5292C27.8079 41.8605 28.0765 42.1292 28.4079 42.1292H37.2079C37.5392 42.1292 37.8079 41.8605 37.8079 41.5292V31.7292C37.8079 31.3978 37.5392 31.1292 37.2079 31.1292H33.4078C33.0765 31.1292 32.8078 30.8605 32.8078 30.5292V28.1292ZM29.8079 39.5292C29.8079 39.8605 30.0765 40.1292 30.4079 40.1292H35.2079C35.5392 40.1292 35.8079 39.8605 35.8079 39.5292V37.7292C35.8079 37.3978 35.5392 37.1292 35.2079 37.1292H30.4079C30.0765 37.1292 29.8079 37.3978 29.8079 37.7292V39.5292Z" fill="#7A869A"/>
<path d="M11.8079 60.1292H53.8079C55.4647 60.1292 56.8079 58.786 56.8079 57.1292V55.1292C56.8079 56.786 55.4647 58.1292 53.8079 58.1292H11.8079C10.151 58.1292 8.80786 56.786 8.80786 55.1292V57.1292C8.80786 58.786 10.151 60.1292 11.8079 60.1292Z" fill="#EBECF0"/>
</svg>
