<svg width="58" height="58" viewBox="0 0 58 58" fill="none" xmlns="http://www.w3.org/2000/svg">
<path d="M0 5C0 2.23858 2.23858 0 5 0H53C55.7614 0 58 2.23858 58 5V53C58 55.7614 55.7614 58 53 58H5C2.23858 58 0 55.7614 0 53V5Z" fill="#DA1E28"/>
<path d="M28.9997 14C26.811 14 24.6437 14.4311 22.6216 15.2687C20.5995 16.1063 18.7622 17.3339 17.2146 18.8816C14.089 22.0072 12.333 26.2464 12.333 30.6667V42.3333C12.333 42.7754 12.5086 43.1993 12.8212 43.5118C13.1337 43.8244 13.5576 44 13.9997 44H18.9997C20.3258 44 21.5975 43.4732 22.5352 42.5355C23.4729 41.5979 23.9997 40.3261 23.9997 39V35.6667C23.9997 34.3406 23.4729 33.0688 22.5352 32.1311C21.5975 31.1935 20.3258 30.6667 18.9997 30.6667H15.6663C15.6663 27.1304 17.0711 23.7391 19.5716 21.2386C22.0721 18.7381 25.4635 17.3333 28.9997 17.3333C32.5359 17.3333 35.9273 18.7381 38.4278 21.2386C40.9283 23.7391 42.333 27.1304 42.333 30.6667H38.9997C37.6736 30.6667 36.4018 31.1935 35.4641 32.1311C34.5265 33.0688 33.9997 34.3406 33.9997 35.6667V39C33.9997 40.3261 34.5265 41.5979 35.4641 42.5355C36.4018 43.4732 37.6736 44 38.9997 44H43.9997C44.4417 44 44.8656 43.8244 45.1782 43.5118C45.4907 43.1993 45.6663 42.7754 45.6663 42.3333V30.6667C45.6663 26.2464 43.9104 22.0072 40.7848 18.8816C37.6592 15.7559 33.42 14 28.9997 14Z" fill="white"/>
</svg>
