<svg width="52" height="60" viewBox="0 0 52 60" fill="none" xmlns="http://www.w3.org/2000/svg">
<path fill-rule="evenodd" clip-rule="evenodd" d="M4.73571 0C2.13571 0 0 2.13571 0 4.73571V54.6929C0 57.2929 2.13571 59.4286 4.73571 59.4286H47.2643C49.8643 59.4286 52 57.2929 52 54.6929V18.85L34.45 0H4.73571V0Z" fill="#FFB784"/>
<path d="M52.0006 18.9428V19.8713H40.1149C40.1149 19.8713 34.1721 18.6642 34.3578 13.6499C34.3578 13.6499 34.5435 18.9428 39.9292 18.9428H52.0006Z" fill="#8A3800"/>
<path opacity="0.5" d="M34.4502 0V13.5571C34.4502 15.0429 35.4716 18.9429 40.1145 18.9429H52.0002L34.4502 0Z" fill="white"/>
<path d="M22.9466 27.3866C22.8226 27.2616 22.6752 27.1624 22.5127 27.0947C22.3502 27.027 22.1759 26.9922 21.9999 26.9922C21.8239 26.9922 21.6496 27.027 21.4871 27.0947C21.3247 27.1624 21.1772 27.2616 21.0533 27.3866L14.3866 34.0533C14.2616 34.1772 14.1624 34.3247 14.0947 34.4871C14.027 34.6496 13.9922 34.8239 13.9922 34.9999C13.9922 35.1759 14.027 35.3502 14.0947 35.5127C14.1624 35.6752 14.2616 35.8226 14.3866 35.9466L21.0533 42.6133C21.1772 42.7382 21.3247 42.8374 21.4871 42.9051C21.6496 42.9728 21.8239 43.0077 21.9999 43.0077C22.1759 43.0077 22.3502 42.9728 22.5127 42.9051C22.6752 42.8374 22.8226 42.7382 22.9466 42.6133C23.0716 42.4893 23.1707 42.3418 23.2384 42.1794C23.3061 42.0169 23.341 41.8426 23.341 41.6666C23.341 41.4906 23.3061 41.3163 23.2384 41.1538C23.1707 40.9913 23.0716 40.8439 22.9466 40.7199L17.2133 34.9999L22.9466 29.2799C23.0716 29.156 23.1707 29.0085 23.2384 28.846C23.3061 28.6835 23.341 28.5093 23.341 28.3333C23.341 28.1572 23.3061 27.983 23.2384 27.8205C23.1707 27.658 23.0716 27.5105 22.9466 27.3866ZM37.6133 34.0533L30.9466 27.3866C30.8223 27.2623 30.6747 27.1637 30.5123 27.0964C30.3498 27.0291 30.1757 26.9945 29.9999 26.9945C29.6449 26.9945 29.3043 27.1355 29.0533 27.3866C28.9289 27.5109 28.8303 27.6585 28.763 27.8209C28.6958 27.9833 28.6611 28.1574 28.6611 28.3333C28.6611 28.6883 28.8022 29.0288 29.0533 29.2799L34.7866 34.9999L29.0533 40.7199C28.9283 40.8439 28.8291 40.9913 28.7614 41.1538C28.6937 41.3163 28.6589 41.4906 28.6589 41.6666C28.6589 41.8426 28.6937 42.0169 28.7614 42.1794C28.8291 42.3418 28.9283 42.4893 29.0533 42.6133C29.1772 42.7382 29.3247 42.8374 29.4872 42.9051C29.6496 42.9728 29.8239 43.0077 29.9999 43.0077C30.1759 43.0077 30.3502 42.9728 30.5127 42.9051C30.6752 42.8374 30.8226 42.7382 30.9466 42.6133L37.6133 35.9466C37.7382 35.8226 37.8374 35.6752 37.9051 35.5127C37.9728 35.3502 38.0077 35.1759 38.0077 34.9999C38.0077 34.8239 37.9728 34.6496 37.9051 34.4871C37.8374 34.3247 37.7382 34.1772 37.6133 34.0533Z" fill="white"/>
</svg>
