<svg width="52" height="60" viewBox="0 0 52 60" fill="none" xmlns="http://www.w3.org/2000/svg">
<path fill-rule="evenodd" clip-rule="evenodd" d="M4.73571 0C2.13571 0 0 2.13571 0 4.73571V54.6929C0 57.2929 2.13571 59.4286 4.73571 59.4286H47.2643C49.8643 59.4286 52 57.2929 52 54.6929V18.85L34.45 0H4.73571V0Z" fill="#78A9FF"/>
<path d="M52.0006 18.9428V19.8713H40.1149C40.1149 19.8713 34.1721 18.6642 34.3578 13.6499C34.3578 13.6499 34.5435 18.9428 39.9292 18.9428H52.0006Z" fill="#0043CE"/>
<path opacity="0.5" d="M34.4502 0V13.5571C34.4502 15.0429 35.4716 18.9429 40.1145 18.9429H52.0002L34.4502 0Z" fill="white"/>
<path fill-rule="evenodd" clip-rule="evenodd" d="M15 28C15 26.8954 15.8954 26 17 26H36C37.1046 26 38 26.8954 38 28C38 29.1046 37.1046 30 36 30H17C15.8954 30 15 29.1046 15 28Z" fill="white"/>
<path fill-rule="evenodd" clip-rule="evenodd" d="M15 36C15 34.8954 15.8954 34 17 34H36C37.1046 34 38 34.8954 38 36C38 37.1046 37.1046 38 36 38H17C15.8954 38 15 37.1046 15 36Z" fill="white"/>
<path fill-rule="evenodd" clip-rule="evenodd" d="M15 44C15 42.8954 15.8954 42 17 42H36C37.1046 42 38 42.8954 38 44C38 45.1046 37.1046 46 36 46H17C15.8954 46 15 45.1046 15 44Z" fill="white"/>
</svg>
