<svg width="128" height="128" viewBox="0 0 128 128" fill="none" xmlns="http://www.w3.org/2000/svg">
<g clip-path="url(#clip0_1302_1782)">
<path d="M22.5109 57.4064H105.544C111.021 57.4064 116.005 58.6114 120.277 60.857L106.804 29.1993C103.243 20.7098 95.9041 15.9995 86.1001 15.9995H41.9546C32.1506 15.9995 24.8113 20.7098 21.1964 29.1993L7.72272 60.8022C12.0496 58.6114 17.0338 57.4064 22.5109 57.4064ZM22.5109 110.096H105.544C118.853 110.096 128 101.004 128 87.7496C128 74.495 118.853 65.403 105.544 65.403H22.5109C9.14677 65.403 0 74.495 0 87.7496C0 101.004 9.14677 110.096 22.5109 110.096ZM99.8056 87.7496C99.7904 84.8074 102.218 82.4192 105.16 82.4496C108.072 82.4797 110.421 84.8376 110.406 87.7496C110.391 90.6465 108.057 92.965 105.16 92.9949C102.233 93.0251 99.8208 90.6769 99.8056 87.7496Z" fill="url(#paint0_linear_1302_1782)"/>
</g>
<defs>
<linearGradient id="paint0_linear_1302_1782" x1="64.0274" y1="15.6052" x2="64" y2="110.096" gradientUnits="userSpaceOnUse">
<stop stop-color="#97A0AF"/>
<stop offset="0.477123" stop-color="#B3BAC5"/>
<stop offset="0.505058" stop-color="#97A0AF"/>
<stop offset="1" stop-color="#7A869A"/>
</linearGradient>
<clipPath id="clip0_1302_1782">
<rect width="128" height="128" fill="white"/>
</clipPath>
</defs>
</svg>
