<svg width="53" height="60" viewBox="0 0 53 60" fill="none" xmlns="http://www.w3.org/2000/svg">
<path fill-rule="evenodd" clip-rule="evenodd" d="M4.73767 0C2.13767 0 0.00195312 2.13571 0.00195312 4.73571V54.6929C0.00195312 57.2929 2.13767 59.4286 4.73767 59.4286H47.2662C49.8662 59.4286 52.002 57.2929 52.002 54.6929V18.85L34.452 0L4.73767 0Z" fill="#FA4D56"/>
<path d="M52.0026 18.9428V19.8713H40.1169C40.1169 19.8713 34.174 18.6642 34.3597 13.6499C34.3597 13.6499 34.5454 18.9428 39.9312 18.9428H52.0026Z" fill="#A2191F"/>
<path opacity="0.5" d="M34.4521 0V13.5571C34.4521 15.0429 35.4736 18.9429 40.1164 18.9429H52.0021L34.4521 0Z" fill="white"/>
<path d="M16.6463 31.3999C17.9423 31.3999 18.9323 31.7479 19.6163 32.4439C20.3123 33.1279 20.6603 34.0339 20.6603 35.1619C20.6603 36.3019 20.3183 37.2019 19.6343 37.8619C18.9503 38.5219 17.9543 38.8519 16.6463 38.8519H14.1983V43.9999H11.5703V31.3999H16.6463ZM16.2683 36.6739C16.8443 36.6739 17.2823 36.5599 17.5823 36.3319C17.8943 36.1039 18.0503 35.7259 18.0503 35.1979C18.0503 34.6699 17.8943 34.2919 17.5823 34.0639C17.2823 33.8359 16.8443 33.7219 16.2683 33.7219H14.1983V36.6739H16.2683Z" fill="white"/>
<path d="M22.1494 43.9999V31.3999H26.0194C27.5434 31.3999 28.7974 31.6759 29.7814 32.2279C30.7774 32.7799 31.5034 33.5299 31.9594 34.4779C32.4154 35.4139 32.6434 36.4879 32.6434 37.6999C32.6434 38.9119 32.4154 39.9919 31.9594 40.9399C31.5034 41.8759 30.7774 42.6199 29.7814 43.1719C28.7974 43.7239 27.5434 43.9999 26.0194 43.9999H22.1494ZM25.8934 41.6779C27.2734 41.6779 28.2934 41.3179 28.9534 40.5979C29.6134 39.8659 29.9434 38.8999 29.9434 37.6999C29.9434 36.4999 29.6134 35.5399 28.9534 34.8199C28.2934 34.0879 27.2734 33.7219 25.8934 33.7219H24.7774V41.6779H25.8934Z" fill="white"/>
<path d="M42.1619 31.3999V33.7219H37.0499V36.4219H41.4599V38.7439H37.0499V43.9999H34.4219V31.3999H42.1619Z" fill="white"/>
</svg>
