<svg width="53" height="60" viewBox="0 0 53 60" fill="none" xmlns="http://www.w3.org/2000/svg">
<path fill-rule="evenodd" clip-rule="evenodd" d="M4.73669 0C2.13669 0 0.000976562 2.13571 0.000976562 4.73571V54.6929C0.000976562 57.2929 2.13669 59.4286 4.73669 59.4286H47.2653C49.8653 59.4286 52.001 57.2929 52.001 54.6929V18.85L34.451 0L4.73669 0Z" fill="#FF832B"/>
<path d="M52.0016 18.9428V19.8713H40.1159C40.1159 19.8713 34.173 18.6642 34.3588 13.6499C34.3588 13.6499 34.5445 18.9428 39.9302 18.9428H52.0016Z" fill="#8A3800"/>
<path opacity="0.5" d="M34.4512 0V13.5571C34.4512 15.0429 35.4726 18.9429 40.1155 18.9429H52.0012L34.4512 0Z" fill="white"/>
<path d="M17.3397 31.3999C18.6357 31.3999 19.6257 31.7479 20.3097 32.4439C21.0057 33.1279 21.3537 34.0339 21.3537 35.1619C21.3537 36.3019 21.0117 37.2019 20.3277 37.8619C19.6437 38.5219 18.6477 38.8519 17.3397 38.8519H14.8917V43.9999H12.2637V31.3999H17.3397ZM16.9617 36.6739C17.5377 36.6739 17.9757 36.5599 18.2757 36.3319C18.5877 36.1039 18.7437 35.7259 18.7437 35.1979C18.7437 34.6699 18.5877 34.2919 18.2757 34.0639C17.9757 33.8359 17.5377 33.7219 16.9617 33.7219H14.8917V36.6739H16.9617Z" fill="white"/>
<path d="M28.0448 31.3999C29.3408 31.3999 30.3307 31.7479 31.0147 32.4439C31.7107 33.1279 32.0588 34.0339 32.0588 35.1619C32.0588 36.3019 31.7168 37.2019 31.0328 37.8619C30.3488 38.5219 29.3528 38.8519 28.0448 38.8519H25.5968V43.9999H22.9688V31.3999H28.0448ZM27.6667 36.6739C28.2428 36.6739 28.6808 36.5599 28.9808 36.3319C29.2928 36.1039 29.4487 35.7259 29.4487 35.1979C29.4487 34.6699 29.2928 34.2919 28.9808 34.0639C28.6808 33.8359 28.2428 33.7219 27.6667 33.7219H25.5968V36.6739H27.6667Z" fill="white"/>
<path d="M32.7018 31.3999H41.7198V33.7219H38.5158V43.9999H35.9058V33.7219H32.7018V31.3999Z" fill="white"/>
</svg>
