<svg width="53" height="60" viewBox="0 0 53 60" fill="none" xmlns="http://www.w3.org/2000/svg">
<path fill-rule="evenodd" clip-rule="evenodd" d="M4.73767 0C2.13767 0 0.00195312 2.13571 0.00195312 4.73571V54.6929C0.00195312 57.2929 2.13767 59.4286 4.73767 59.4286H47.2662C49.8662 59.4286 52.002 57.2929 52.002 54.6929V18.85L34.452 0L4.73767 0Z" fill="#EBECF0"/>
<path d="M52.0026 18.9428V19.8713H40.1169C40.1169 19.8713 34.174 18.6642 34.3597 13.6499C34.3597 13.6499 34.5454 18.9428 39.9312 18.9428H52.0026Z" fill="#A5ADBA"/>
<path opacity="0.5" d="M34.4521 0V13.5571C34.4521 15.0429 35.4736 18.9429 40.1164 18.9429H52.0021L34.4521 0Z" fill="white"/>
<path d="M11.3721 31.3999H20.3901V33.7219H17.1861V43.9999H14.5761V33.7219H11.3721V31.3999Z" fill="#A5ADBA"/>
<path d="M27.9044 37.5019L32.2604 43.9999H29.2364L26.4824 39.6799L23.7464 43.9999H20.7404L25.0784 37.5199L20.9744 31.3999H23.9624L26.4824 35.3419L29.0204 31.3999H32.0264L27.9044 37.5019Z" fill="#A5ADBA"/>
<path d="M32.624 31.3999H41.642V33.7219H38.438V43.9999H35.828V33.7219H32.624V31.3999Z" fill="#A5ADBA"/>
</svg>
