<svg width="58" height="58" viewBox="0 0 58 58" fill="none" xmlns="http://www.w3.org/2000/svg">
<path d="M0 5C0 2.23858 2.23858 0 5 0H53C55.7614 0 58 2.23858 58 5V53C58 55.7614 55.7614 58 53 58H5C2.23858 58 0 55.7614 0 53V5Z" fill="#DA1E28"/>
<path fill-rule="evenodd" clip-rule="evenodd" d="M21.9804 17H24.1765L27.7451 23.5882H33.5098L29.6667 17H31.8627L35.4314 23.5882H41.1961L37.3529 17H45.8627C46.0144 17 46.1373 17.1229 46.1373 17.2745V41.1569C46.1373 43.2794 44.4166 45 42.2941 45H14.8431C12.7206 45 11 43.2794 11 41.1569V20.8431C11 18.7206 12.7206 17 14.8431 17H16.4902L20.0588 23.5882H25.8235L21.9804 17Z" fill="white"/>
</svg>
