<svg width="52" height="60" viewBox="0 0 52 60" fill="none" xmlns="http://www.w3.org/2000/svg">
<path fill-rule="evenodd" clip-rule="evenodd" d="M4.73571 0C2.13571 0 0 2.13571 0 4.73571V54.6929C0 57.2929 2.13571 59.4286 4.73571 59.4286H47.2643C49.8643 59.4286 52 57.2929 52 54.6929V18.85L34.45 0H4.73571V0Z" fill="#4589FF"/>
<path d="M52.0006 18.9428V19.8713H40.1149C40.1149 19.8713 34.1721 18.6642 34.3578 13.6499C34.3578 13.6499 34.5435 18.9428 39.9292 18.9428H52.0006Z" fill="#0043CE"/>
<path opacity="0.5" d="M34.4502 0V13.5571C34.4502 15.0429 35.4716 18.9429 40.1145 18.9429H52.0002L34.4502 0Z" fill="white"/>
<path d="M30.2925 40.3099L32.6505 31.3999H35.4045L31.9125 43.9999H28.9065L26.5125 34.8739L24.1365 43.9999H21.1125L17.6025 31.3999H20.3745L22.7325 40.3099L25.1985 31.3999H27.8085L30.2925 40.3099Z" fill="white"/>
</svg>
