<svg width="53" height="60" viewBox="0 0 53 60" fill="none" xmlns="http://www.w3.org/2000/svg">
<path fill-rule="evenodd" clip-rule="evenodd" d="M4.73767 0C2.13767 0 0.00195312 2.13571 0.00195312 4.73571V54.6929C0.00195312 57.2929 2.13767 59.4286 4.73767 59.4286H47.2662C49.8662 59.4286 52.002 57.2929 52.002 54.6929V18.85L34.452 0L4.73767 0Z" fill="#42BE65"/>
<path d="M52.0026 18.9428V19.8713H40.1169C40.1169 19.8713 34.174 18.6642 34.3597 13.6499C34.3597 13.6499 34.5454 18.9428 39.9312 18.9428H52.0026Z" fill="#0E6027"/>
<path opacity="0.5" d="M34.4521 0V13.5571C34.4521 15.0429 35.4736 18.9429 40.1164 18.9429H52.0021L34.4521 0Z" fill="white"/>
<path d="M18.7197 37.5018L23.0757 43.9998H20.0517L17.2977 39.6798L14.5617 43.9998H11.5557L15.8937 37.5198L11.7897 31.3998H14.7777L17.2977 35.3418L19.8357 31.3998H22.8417L18.7197 37.5018Z" fill="white"/>
<path d="M27.0393 31.3998V41.6778H31.2693V43.9998H24.4113V31.3998H27.0393Z" fill="white"/>
<path d="M36.6699 44.1618C35.5899 44.1618 34.6479 43.9338 33.8439 43.4778C33.0399 43.0218 32.4219 42.3678 31.9899 41.5158L34.1319 40.1838C34.3839 40.7238 34.7259 41.1378 35.1579 41.4258C35.5899 41.7018 36.0939 41.8398 36.6699 41.8398C37.2099 41.8398 37.6299 41.7198 37.9299 41.4798C38.2299 41.2278 38.3799 40.8918 38.3799 40.4718C38.3799 40.0758 38.2119 39.7518 37.8759 39.4998C37.5519 39.2358 36.9459 38.9478 36.0579 38.6358C34.8219 38.2158 33.9159 37.6998 33.3399 37.0878C32.7639 36.4758 32.4759 35.7258 32.4759 34.8378C32.4759 34.1298 32.6439 33.5058 32.9799 32.9658C33.3159 32.4138 33.7839 31.9878 34.3839 31.6878C34.9959 31.3878 35.6919 31.2378 36.4719 31.2378C37.2999 31.2378 38.0439 31.3758 38.7039 31.6518C39.3759 31.9278 39.9339 32.3358 40.3779 32.8758L38.6679 34.4958C38.1039 33.8358 37.4199 33.5058 36.6159 33.5058C36.1479 33.5058 35.7759 33.6138 35.4999 33.8298C35.2239 34.0338 35.0859 34.3158 35.0859 34.6758C35.0859 35.0238 35.2359 35.3178 35.5359 35.5578C35.8359 35.7858 36.3999 36.0498 37.2279 36.3498C38.1759 36.6978 38.9199 37.0578 39.4599 37.4298C40.0119 37.8018 40.4079 38.2218 40.6479 38.6898C40.8879 39.1458 41.0079 39.6978 41.0079 40.3458C41.0079 41.5338 40.6239 42.4698 39.8559 43.1538C39.0879 43.8258 38.0259 44.1618 36.6699 44.1618Z" fill="white"/>
</svg>
