<svg width="53" height="60" viewBox="0 0 53 60" fill="none" xmlns="http://www.w3.org/2000/svg">
<path fill-rule="evenodd" clip-rule="evenodd" d="M4.73669 0C2.13669 0 0.000976562 2.13571 0.000976562 4.73571V54.6929C0.000976562 57.2929 2.13669 59.4286 4.73669 59.4286H47.2653C49.8653 59.4286 52.001 57.2929 52.001 54.6929V18.85L34.451 0L4.73669 0Z" fill="#FF832B"/>
<path d="M52.0016 18.9428V19.8713H40.1159C40.1159 19.8713 34.173 18.6642 34.3588 13.6499C34.3588 13.6499 34.5445 18.9428 39.9302 18.9428H52.0016Z" fill="#8A3800"/>
<path opacity="0.5" d="M34.4512 0V13.5571C34.4512 15.0429 35.4726 18.9429 40.1155 18.9429H52.0012L34.4512 0Z" fill="white"/>
<path d="M15.7128 37.5019L20.0688 43.9999H17.0448L14.2908 39.6799L11.5548 43.9999H8.54883L12.8868 37.5199L8.78283 31.3999H11.7708L14.2908 35.3419L16.8288 31.3999H19.8348L15.7128 37.5019Z" fill="white"/>
<path d="M28.3165 38.3659L32.4025 31.3999H35.2105V43.9999H32.6005V35.5399L28.2985 43.0279L24.0325 35.5759V43.9999H21.4045V31.3999H24.2485L28.3165 38.3659Z" fill="white"/>
<path d="M40.1868 31.3999V41.6779H44.4168V43.9999H37.5588V31.3999H40.1868Z" fill="white"/>
</svg>
