<svg width="52" height="60" viewBox="0 0 52 60" fill="none" xmlns="http://www.w3.org/2000/svg">
<path fill-rule="evenodd" clip-rule="evenodd" d="M4.73571 0C2.13571 0 0 2.13571 0 4.73571V54.6929C0 57.2929 2.13571 59.4286 4.73571 59.4286H47.2643C49.8643 59.4286 52 57.2929 52 54.6929V18.85L34.45 0L4.73571 0Z" fill="#C1C7D0"/>
<path d="M52.0006 18.9428V19.8713H40.1149C40.1149 19.8713 34.1721 18.6642 34.3578 13.6499C34.3578 13.6499 34.5435 18.9428 39.9292 18.9428H52.0006Z" fill="#7A869A"/>
<path opacity="0.5" d="M34.4502 0V13.5571C34.4502 15.0429 35.4716 18.9429 40.1145 18.9429H52.0002L34.4502 0Z" fill="white"/>
<path d="M23.0907 33.3259L17.3847 41.6779H23.1447V43.9999H14.1807V42.0739L19.8867 33.7219H14.1807V31.3999H23.0907V33.3259Z" fill="white"/>
<path d="M27.4415 43.9999H24.8135V31.3999H27.4415V43.9999Z" fill="white"/>
<path d="M34.8641 31.3999C36.1601 31.3999 37.1501 31.7479 37.8341 32.4439C38.5301 33.1279 38.8781 34.0339 38.8781 35.1619C38.8781 36.3019 38.5361 37.2019 37.8521 37.8619C37.1681 38.5219 36.1721 38.8519 34.8641 38.8519H32.4161V43.9999H29.7881V31.3999H34.8641ZM34.4861 36.6739C35.0621 36.6739 35.5001 36.5599 35.8001 36.3319C36.1121 36.1039 36.2681 35.7259 36.2681 35.1979C36.2681 34.6699 36.1121 34.2919 35.8001 34.0639C35.5001 33.8359 35.0621 33.7219 34.4861 33.7219H32.4161V36.6739H34.4861Z" fill="white"/>
</svg>
